<svg fill="none" version="1.1" viewBox="0 0 342 348" xmlns="http://www.w3.org/2000/svg">
 <path d="m39.721 159.08c2.2612 0.089 4.3984 1.057 5.9571 2.697 1.5586 1.641 2.4157 3.825 2.3889 6.088v26.836c0 0.468 0.1861 0.917 0.5173 1.249 0.3312 0.331 0.7804 0.517 1.2487 0.517 0.232 0 0.4618-0.046 0.6762-0.134 0.2143-0.089 0.4091-0.219 0.5732-0.383s0.2943-0.359 0.3831-0.573 0.1345-0.444 0.1345-0.676v-59.007c-0.0293-2.525 0.9274-4.962 2.6666-6.793 1.7393-1.831 4.1241-2.912 6.6474-3.012 1.2613-0.024 2.5146 0.204 3.6867 0.67 1.1721 0.467 2.2395 1.162 3.1399 2.046 0.9003 0.883 1.6155 1.937 2.1037 3.1 0.4882 1.164 0.7397 2.412 0.7397 3.674v55.907c0 0.521 0.207 1.02 0.5753 1.389 0.3683 0.368 0.8679 0.575 1.3887 0.575 0.5209 0 1.0205-0.207 1.3888-0.575 0.3683-0.369 0.5752-0.868 0.5752-1.389v-64.244c0-2.517 0.9995-4.931 2.7788-6.711 1.7792-1.78 4.1925-2.78 6.7092-2.781 2.5175 0 4.9318 1 6.7119 2.78s2.7801 4.194 2.7801 6.712v57.4c0 0.587 0.2334 1.151 0.6488 1.566s0.9788 0.649 1.5662 0.649c0.291 0 0.579-0.057 0.8478-0.169 0.2688-0.111 0.5131-0.274 0.7188-0.48 0.2057-0.205 0.3688-0.45 0.4801-0.718 0.1113-0.269 0.1685-0.557 0.1683-0.848v-48.748c-0.0293-2.526 0.9275-4.963 2.6674-6.794 1.739-1.831 4.124-2.911 6.648-3.011 1.261-0.024 2.514 0.204 3.686 0.67 1.172 0.467 2.24 1.162 3.14 2.046 0.9 0.883 1.616 1.937 2.104 3.1 0.488 1.164 0.74 2.412 0.74 3.674v70.363l0.085 0.045s-1.661 20.654 14.026 4.309c11.218-11.689 24.3-13.085 29.608-7.805 6.409 6.378 2.639 11.657-1.32 13.636s-23.242 13.577-29.67 27.25c-4.166 8.862-14.38 19.5-18.215 23.365-0.964 0.969-1.507 2.278-1.512 3.645l-0.2 48.319c-4e-3 1.022-0.413 2.001-1.137 2.722-0.725 0.722-1.705 1.127-2.727 1.127h-53.568c-1.0248 0-2.0076-0.407-2.7322-1.132-0.7247-0.725-1.1318-1.707-1.1318-2.732v-48.242c0.0047-0.945-0.1922-1.879-0.5774-2.741s-0.95-1.633-1.6566-2.259c-4.559-4-14.554-15.9-15.089-43.719l-0.033 6e-3v-53.953c-6e-4 -1.131 0.2243-2.25 0.6615-3.292 0.4372-1.043 1.078-1.987 1.8848-2.779s1.7634-1.415 2.8138-1.833c1.0505-0.417 2.1737-0.621 3.3039-0.599z" fill="url(#d)"/>
 <path d="m107.47 315.51h-1l0.2-48.319c2e-3 -1.5 0.598-2.938 1.657-4 5.109-5.149 14.258-15.014 18.118-23.225 6.4-13.6 25.209-25.14 29.9-27.485 1.112-0.497 2.091-1.249 2.859-2.195 0.767-0.946 1.301-2.059 1.557-3.249 0.385-2.39-0.7-4.877-3.225-7.39-1.105-0.986-2.396-1.74-3.797-2.22-1.401-0.479-2.883-0.673-4.361-0.571-6.8 0.079-14.353 3.937-20.736 10.588-5.1 5.315-8.874 7.316-11.538 6.12-3.673-1.652-3.454-8.994-3.366-10.541l-0.069-0.279v-70.364c4e-3 -1.195-0.232-2.379-0.694-3.481-0.463-1.102-1.142-2.1-1.998-2.934-0.853-0.837-1.865-1.495-2.975-1.937s-2.298-0.659-3.493-0.638c-2.392 0.098-4.6522 1.124-6.2999 2.862-1.6477 1.737-2.553 4.048-2.5237 6.443v48.743c0 0.72-0.286 1.41-0.7952 1.92-0.5091 0.509-1.1997 0.795-1.9198 0.795-0.72 0-1.4106-0.286-1.9198-0.795-0.5091-0.51-0.7952-1.2-0.7952-1.92v-57.4c0-2.385-0.9473-4.672-2.6337-6.358-1.6863-1.687-3.9734-2.634-6.3583-2.634-2.3848 0-4.6719 0.947-6.3583 2.634-1.6863 1.686-2.6337 3.973-2.6337 6.358v64.244c0 0.323-0.0637 0.644-0.1875 0.943-0.1239 0.299-0.3054 0.57-0.5342 0.799s-0.5004 0.41-0.7993 0.534c-0.299 0.124-0.6194 0.188-0.943 0.188-0.3235 0-0.644-0.064-0.9429-0.188s-0.5706-0.305-0.7994-0.534-0.4103-0.5-0.5341-0.799-0.1876-0.62-0.1876-0.943v-55.902c-2e-4 -1.195-0.2385-2.378-0.7011-3.48s-1.1401-2.1-1.993-2.937c-0.853-0.837-1.8641-1.496-2.9745-1.938-1.1103-0.441-2.2976-0.657-3.4924-0.635-2.3925 0.098-4.6526 1.124-6.3003 2.862-1.6477 1.737-2.553 4.048-2.5237 6.443v59.007c0 0.601-0.2387 1.177-0.6637 1.602-0.4249 0.425-1.0013 0.664-1.6023 0.664s-1.1773-0.239-1.6023-0.664c-0.4249-0.425-0.6637-1.001-0.6637-1.602v-26.836c0.0268-2.132-0.7789-4.19-2.2457-5.737s-3.4791-2.461-5.6093-2.548c-1.0635-0.021-2.1205 0.171-3.1091 0.564-0.9885 0.393-1.8888 0.979-2.6482 1.723-0.7594 0.745-1.3625 1.634-1.7742 2.615s-0.6237 2.034-0.6235 3.098v53.511l0.033 0.43c0.535 27.79 10.611 39.576 14.918 43.353 0.7603 0.673 1.3681 1.501 1.7829 2.428 0.4147 0.927 0.6268 1.931 0.6221 2.947v48.242h-1v-48.242c5e-3 -0.873-0.1765-1.737-0.5325-2.535-0.3559-0.797-0.8781-1.509-1.5315-2.088-4.377-3.838-14.574-15.732-15.246-43.5h-0.013l-0.033-0.59v-53.953c-2e-4 -1.197 0.2382-2.381 0.7013-3.485 0.4631-1.103 1.1415-2.103 1.9956-2.941 0.8542-0.838 1.8668-1.497 2.9788-1.939s2.301-0.658 3.4973-0.635c2.3913 0.094 4.6518 1.117 6.3017 2.85 1.6498 1.734 2.5593 4.042 2.5353 6.435v26.833c0 0.166 0.0328 0.331 0.0964 0.484 0.0636 0.154 0.1569 0.293 0.2744 0.411 0.1176 0.118 0.2572 0.211 0.4108 0.274 0.1535 0.064 0.3182 0.097 0.4844 0.097 0.1663 0 0.3309-0.033 0.4845-0.097 0.1536-0.063 0.2932-0.156 0.4107-0.274 0.1176-0.118 0.2108-0.257 0.2745-0.411 0.0636-0.153 0.0963-0.318 0.0963-0.484v-59.007c-0.0293-2.656 0.9788-5.219 2.8099-7.144 1.8311-1.924 4.3407-3.058 6.9951-3.161 1.3277-0.025 2.647 0.215 3.8808 0.706s2.3574 1.223 3.3052 2.153c0.9477 0.93 1.7007 2.04 2.2147 3.264 0.5141 1.224 0.779 2.539 0.7793 3.867v55.907c0 0.388 0.1543 0.76 0.4288 1.035 0.2746 0.275 0.647 0.429 1.0352 0.429 0.3883 0 0.7607-0.154 1.0352-0.429 0.2746-0.275 0.4288-0.647 0.4288-1.035v-64.244c0-2.65 1.0528-5.192 2.9266-7.066 1.8739-1.873 4.4154-2.926 7.0654-2.926 2.6501 0 5.1916 1.053 7.0654 2.926 1.8739 1.874 2.9266 4.416 2.9266 7.066v57.4c0 0.455 0.1807 0.891 0.5023 1.213 0.3217 0.321 0.7579 0.502 1.2127 0.502 0.4549 0 0.8911-0.181 1.2127-0.502 0.3216-0.322 0.5023-0.758 0.5023-1.213v-48.748c-0.0293-2.656 0.9788-5.219 2.8099-7.144 1.8311-1.924 4.3407-3.058 6.9947-3.161 1.328-0.025 2.647 0.215 3.881 0.706s2.358 1.223 3.305 2.153c0.948 0.93 1.701 2.04 2.215 3.264s0.778 2.539 0.778 3.867v70.061l0.025 0.013 0.059 0.374c-7e-3 0.083-0.623 8.3 2.762 9.823 2.166 0.972 5.766-1.066 10.405-5.9 6.568-6.843 14.384-10.813 21.447-10.895 1.611-0.108 3.226 0.109 4.751 0.639 1.525 0.529 2.927 1.361 4.123 2.444 3.446 3.428 3.81 6.382 3.507 8.257-0.281 1.347-0.877 2.609-1.738 3.683s-1.964 1.929-3.218 2.497c-4.342 2.171-23.229 13.8-29.44 27.016-3.925 8.346-13.158 18.308-18.313 23.5-0.873 0.874-1.365 2.058-1.367 3.294l-0.202 48.324z" fill="url(#c)"/>
 <path d="m190 27.852 26.456 8.985c0.363 0.1233 0.691 0.3332 0.954 0.6116 0.264 0.2783 0.456 0.6167 0.56 0.9859s0.116 0.7581 0.036 1.1332c-0.08 0.375-0.25 0.7249-0.496 1.0193l-26.456 31.7c-0.311 0.3725-0.729 0.6401-1.198 0.7665-0.468 0.1264-0.964 0.1055-1.42-0.0599-0.457-0.1654-0.851-0.4673-1.129-0.8646-0.279-0.3973-0.428-0.8708-0.428-1.356v-40.684c0-0.3753 0.089-0.7453 0.261-1.0792 0.171-0.3339 0.42-0.6222 0.725-0.8408 0.305-0.2187 0.658-0.3615 1.029-0.4166 0.371-0.0552 0.75-0.021 1.106 0.0996z" fill="#9AABF9"/>
 <path d="m194.21 71.945c-0.338-2e-4 -0.673-0.0598-0.991-0.176-0.555-0.1966-1.035-0.5614-1.373-1.0435-0.338-0.4822-0.517-1.0577-0.513-1.6465v-40.679c0-0.4548 0.109-0.9031 0.317-1.3076 0.208-0.4046 0.509-0.7538 0.879-1.0186 0.37-0.2649 0.797-0.4379 1.247-0.5046 0.45-0.0668 0.909-0.0253 1.34 0.1208l26.456 8.986c0.44 0.1496 0.837 0.404 1.157 0.7413 0.319 0.3373 0.552 0.7474 0.678 1.1948 0.125 0.4473 0.14 0.9186 0.043 1.373-0.098 0.4544-0.304 0.8782-0.602 1.2349l-26.456 31.7c-0.266 0.3211-0.599 0.5794-0.976 0.7566s-0.789 0.2688-1.206 0.2684zm-0.021-45.413c-0.493 0.0029-0.964 0.2005-1.312 0.5497-0.348 0.3491-0.543 0.8216-0.544 1.3143v40.683c0 0.3827 0.118 0.7561 0.338 1.0694 0.219 0.3133 0.53 0.5513 0.89 0.6817s0.751 0.1467 1.12 0.0469c0.369-0.0999 0.699-0.3111 0.944-0.605l26.456-31.7c0.194-0.2322 0.328-0.508 0.391-0.8036 0.063-0.2955 0.053-0.602-0.029-0.893-0.082-0.2909-0.233-0.5576-0.441-0.777s-0.466-0.385-0.752-0.4824l-26.456-8.982c-0.194-0.0674-0.399-0.1019-0.605-0.102z" fill="#000"/>
 <path d="m256.61 60 12.353 25.06c0.17 0.3441 0.254 0.7245 0.245 1.1084-0.01 0.3838-0.113 0.7595-0.301 1.0944-0.188 0.335-0.454 0.6191-0.777 0.8277-0.322 0.2086-0.691 0.3354-1.073 0.3695l-41.121 3.7c-0.483 0.044-0.969-0.0621-1.389-0.3038-0.421-0.2417-0.758-0.6072-0.963-1.0468-0.206-0.4396-0.271-0.932-0.187-1.41s0.314-0.9184 0.657-1.2614l28.767-28.767c0.266-0.2654 0.591-0.4636 0.948-0.5782 0.358-0.1146 0.738-0.1423 1.108-0.0808 0.371 0.0615 0.721 0.2104 1.022 0.4344 0.302 0.224 0.545 0.5166 0.711 0.8536z" fill="#9AABF9"/>
 <path d="m230.41 94.971c-0.566-0.0021-1.118-0.1715-1.587-0.4869s-0.834-0.7625-1.049-1.2852c-0.216-0.5226-0.272-1.0973-0.161-1.6516s0.383-1.0635 0.783-1.4633l28.767-28.767c0.321-0.3212 0.715-0.5613 1.148-0.7002s0.893-0.1727 1.341-0.0986c0.449 0.074 0.873 0.2539 1.239 0.5246 0.365 0.2708 0.66 0.6246 0.862 1.0322l12.354 25.061c0.205 0.4168 0.306 0.8774 0.294 1.342-0.013 0.4645-0.138 0.9191-0.365 1.3243-0.228 0.4053-0.551 0.749-0.941 1.0016s-0.835 0.4064-1.298 0.4481l-41.121 3.706c-0.09 9e-3 -0.177 0.013-0.266 0.013zm28.768-33.493c-0.244 0-0.484 0.0482-0.709 0.142-0.225 0.0937-0.428 0.231-0.599 0.404l-28.771 28.767c-0.271 0.2704-0.452 0.6177-0.518 0.9945-0.067 0.3769-0.015 0.765 0.147 1.1117 0.162 0.3466 0.427 0.6349 0.758 0.8256 0.332 0.1907 0.715 0.2746 1.096 0.2402l41.122-3.706c0.301-0.0277 0.59-0.1282 0.844-0.2928 0.253-0.1647 0.463-0.3885 0.61-0.6521 0.148-0.2637 0.229-0.5594 0.237-0.8614 8e-3 -0.3021-0.058-0.6016-0.191-0.8727l-12.353-25.06c-0.13-0.2663-0.322-0.4974-0.56-0.6739s-0.515-0.2931-0.807-0.3401c-0.101-0.0167-0.204-0.0254-0.306-0.026z" fill="#000"/>
 <path d="m151.94 27.852-26.456 8.985c-0.363 0.1235-0.691 0.3335-0.955 0.6118-0.263 0.2784-0.455 0.6167-0.559 0.9858-0.104 0.3692-0.116 0.758-0.036 1.133s0.25 0.7248 0.496 1.0194l26.456 31.7c0.311 0.3722 0.729 0.6397 1.198 0.766 0.468 0.1263 0.964 0.1053 1.42-0.06 0.456-0.1654 0.85-0.4672 1.129-0.8643 0.279-0.3972 0.428-0.8705 0.429-1.3557v-40.684c0-0.3754-0.09-0.7454-0.262-1.0793-0.171-0.3339-0.42-0.6221-0.725-0.8408-0.305-0.2186-0.658-0.3614-1.029-0.4165-0.372-0.0551-0.751-0.021-1.106 0.0996z" fill="#9AABF9"/>
 <path d="m147.74 71.945c-0.417-5e-4 -0.829-0.0933-1.207-0.2717-0.377-0.1784-0.71-0.438-0.976-0.7603l-26.456-31.697c-0.297-0.3569-0.503-0.7809-0.6-1.2353-0.097-0.4545-0.082-0.9257 0.043-1.373 0.126-0.4474 0.359-0.8574 0.679-1.1946 0.319-0.3372 0.716-0.5916 1.156-0.7411l26.455-8.986c0.431-0.1459 0.89-0.1872 1.34-0.1203 0.45 0.0668 0.878 0.2398 1.247 0.5046 0.37 0.2649 0.671 0.614 0.879 1.0184s0.317 0.8526 0.317 1.3073v40.683c4e-3 0.5889-0.175 1.1644-0.513 1.6465-0.338 0.4822-0.818 0.8469-1.374 1.0435-0.317 0.1162-0.652 0.1758-0.99 0.176zm0.02-45.413c-0.204 1e-4 -0.406 0.0339-0.6 0.1l-26.459 8.987c-0.286 0.0972-0.544 0.2627-0.752 0.4821s-0.36 0.4861-0.441 0.7771c-0.082 0.2911-0.092 0.5976-0.029 0.8933 0.063 0.2956 0.198 0.5714 0.391 0.8035l26.456 31.7c0.245 0.2939 0.575 0.5051 0.945 0.605 0.369 0.0998 0.76 0.0835 1.12-0.0469s0.67-0.3684 0.89-0.6817 0.338-0.6867 0.337-1.0694v-40.682c-1e-3 -0.4928-0.196-0.9653-0.544-1.3144s-0.82-0.5467-1.313-0.5496l-1e-3 -4e-3z" fill="#000"/>
 <path d="m85.332 60-12.354 25.057c-0.1703 0.3442-0.254 0.7246-0.2441 1.1085 0.0099 0.3838 0.1133 0.7595 0.3011 1.0943 0.1879 0.3349 0.4545 0.619 0.7769 0.8276 0.3223 0.2086 0.6907 0.3355 1.0731 0.3696l41.12 3.706c0.484 0.0436 0.968-0.0627 1.389-0.3044s0.757-0.6071 0.963-1.0465c0.205-0.4395 0.271-0.9316 0.187-1.4095s-0.313-0.9184-0.656-1.2616l-28.767-28.77c-0.2656-0.2654-0.5908-0.4636-0.9483-0.5782-0.3576-0.1146-0.7374-0.1423-1.1078-0.0808s-0.7209 0.2104-1.0222 0.4344c-0.3014 0.224-0.545 0.5166-0.7107 0.8536z" fill="#9AABF9"/>
 <path d="m111.53 94.971c-0.088 0-0.177-4e-3 -0.267-0.012l-41.12-3.706c-0.4629-0.0416-0.9088-0.1953-1.299-0.4478-0.3902-0.2526-0.713-0.5963-0.9405-1.0016-0.2276-0.4053-0.353-0.8599-0.3655-1.3245-0.0124-0.4646 0.0885-0.9252 0.294-1.3421l12.354-25.061c0.2012-0.4079 0.4967-0.762 0.862-1.033s0.7899-0.451 1.2386-0.5252c0.4488-0.0742 0.9087-0.0404 1.3418 0.0986s0.8268 0.3791 1.1486 0.7006l28.767 28.767c0.4 0.3998 0.672 0.9089 0.783 1.4632 0.11 0.5544 0.055 1.129-0.161 1.6517-0.215 0.5226-0.581 0.9698-1.05 1.2851-0.469 0.3154-1.021 0.4848-1.586 0.487zm-28.768-33.493c-0.1045 2e-4 -0.2089 0.0089-0.312 0.026-0.2926 0.0467-0.5696 0.1632-0.8076 0.3397-0.2379 0.1765-0.4298 0.4078-0.5594 0.6743l-12.354 25.06c-0.1336 0.271-0.1993 0.5705-0.1914 0.8726s0.0892 0.5977 0.2368 0.8614 0.3572 0.4875 0.6106 0.6521 0.5431 0.2651 0.844 0.2929l41.121 3.706c0.381 0.034 0.763-0.0501 1.095-0.2408 0.331-0.1908 0.596-0.4789 0.758-0.8254 0.162-0.3464 0.214-0.7344 0.148-1.1111-0.066-0.3768-0.247-0.7241-0.517-0.9947l-28.764-28.767c-0.1712-0.1729-0.3749-0.3101-0.5994-0.4038s-0.4653-0.142-0.7086-0.1422z" fill="#000"/>
 <path d="m302.35 159.08c-2.262 0.089-4.399 1.057-5.957 2.697-1.559 1.641-2.416 3.825-2.389 6.088v26.836c0 0.468-0.186 0.917-0.518 1.249-0.331 0.331-0.78 0.517-1.248 0.517-0.232 0-0.462-0.046-0.677-0.134-0.214-0.089-0.409-0.219-0.573-0.383s-0.294-0.359-0.383-0.573-0.134-0.444-0.134-0.676v-59.007c0.029-2.525-0.928-4.962-2.667-6.793s-4.124-2.912-6.647-3.012c-1.262-0.024-2.515 0.204-3.687 0.67-1.172 0.467-2.24 1.162-3.14 2.046-0.9 0.883-1.615 1.937-2.104 3.1-0.488 1.164-0.739 2.412-0.739 3.674v55.907c0 0.521-0.207 1.02-0.576 1.389-0.368 0.368-0.867 0.575-1.388 0.575s-1.021-0.207-1.389-0.575c-0.368-0.369-0.575-0.868-0.575-1.389v-64.244c0-2.517-1-4.931-2.779-6.711s-4.193-2.78-6.709-2.781c-2.518 0-4.932 1-6.712 2.78s-2.78 4.194-2.78 6.712v57.4c0 0.587-0.234 1.151-0.649 1.566-0.416 0.415-0.979 0.649-1.566 0.649-0.291 0-0.579-0.057-0.848-0.169-0.269-0.111-0.513-0.274-0.719-0.48-0.206-0.205-0.369-0.45-0.48-0.718-0.111-0.269-0.169-0.557-0.168-0.848v-48.748c0.029-2.526-0.928-4.963-2.667-6.794-1.74-1.831-4.125-2.911-6.648-3.011-1.262-0.024-2.515 0.204-3.687 0.67-1.172 0.467-2.24 1.162-3.14 2.046-0.9 0.883-1.615 1.937-2.104 3.1-0.488 1.164-0.739 2.412-0.739 3.674v70.363l-0.085 0.045s1.661 20.654-14.026 4.309c-11.218-11.689-24.3-13.085-29.608-7.805-6.409 6.378-2.639 11.657 1.32 13.636s23.242 13.577 29.67 27.25c4.166 8.862 14.38 19.5 18.215 23.365 0.963 0.969 1.506 2.278 1.512 3.645l0.2 48.319c4e-3 1.022 0.412 2.001 1.137 2.722 0.724 0.722 1.704 1.127 2.727 1.127h53.568c1.024 0 2.007-0.407 2.732-1.132s1.132-1.707 1.132-2.732v-48.242c-5e-3 -0.945 0.192-1.879 0.577-2.741s0.95-1.633 1.657-2.259c4.559-4 14.554-15.9 15.089-43.719l0.033 6e-3v-53.953c0-1.131-0.225-2.25-0.662-3.292-0.437-1.043-1.078-1.987-1.885-2.779-0.806-0.792-1.763-1.415-2.813-1.833-1.051-0.417-2.174-0.621-3.304-0.599z" fill="url(#b)"/>
 <path d="m234.36 315.46h1l-0.2-48.319c-2e-3 -1.5-0.598-2.938-1.657-4-5.109-5.149-14.258-15.014-18.118-23.225-6.4-13.6-25.209-25.14-29.9-27.485-1.112-0.497-2.091-1.249-2.859-2.195-0.767-0.946-1.301-2.059-1.557-3.249-0.385-2.39 0.7-4.877 3.225-7.39 1.105-0.986 2.396-1.74 3.797-2.22 1.401-0.479 2.883-0.673 4.361-0.571 6.8 0.079 14.353 3.937 20.736 10.588 5.1 5.315 8.874 7.316 11.538 6.12 3.673-1.652 3.454-8.994 3.366-10.541l0.069-0.279v-70.364c-4e-3 -1.195 0.232-2.379 0.694-3.481 0.463-1.102 1.142-2.1 1.998-2.934 0.853-0.837 1.865-1.495 2.975-1.937s2.298-0.659 3.493-0.638c2.392 0.098 4.652 1.124 6.3 2.862 1.648 1.737 2.553 4.048 2.524 6.443v48.743c0 0.72 0.286 1.41 0.795 1.92 0.509 0.509 1.2 0.795 1.92 0.795s1.41-0.286 1.919-0.795c0.51-0.51 0.796-1.2 0.796-1.92v-57.4c0-2.385 0.947-4.672 2.633-6.358 1.687-1.687 3.974-2.634 6.359-2.634 2.384 0 4.672 0.947 6.358 2.634 1.686 1.686 2.634 3.973 2.634 6.358v64.244c0 0.323 0.063 0.644 0.187 0.943s0.306 0.57 0.534 0.799c0.229 0.229 0.501 0.41 0.8 0.534s0.619 0.188 0.943 0.188c0.323 0 0.644-0.064 0.942-0.188 0.299-0.124 0.571-0.305 0.8-0.534s0.41-0.5 0.534-0.799 0.188-0.62 0.188-0.943v-55.902c0-1.195 0.238-2.378 0.701-3.48 0.462-1.102 1.14-2.1 1.993-2.937s1.864-1.496 2.974-1.938c1.11-0.441 2.298-0.657 3.493-0.635 2.392 0.098 4.652 1.124 6.3 2.862 1.648 1.737 2.553 4.048 2.524 6.443v59.007c0 0.601 0.238 1.177 0.663 1.602s1.002 0.664 1.603 0.664 1.177-0.239 1.602-0.664 0.664-1.001 0.664-1.602v-26.836c-0.027-2.132 0.779-4.19 2.245-5.737 1.467-1.547 3.479-2.461 5.61-2.548 1.063-0.021 2.12 0.171 3.109 0.564 0.988 0.393 1.889 0.979 2.648 1.723 0.759 0.745 1.362 1.634 1.774 2.615s0.624 2.034 0.624 3.098v53.511l-0.033 0.43c-0.535 27.79-10.611 39.576-14.918 43.353-0.761 0.673-1.369 1.501-1.783 2.428-0.415 0.927-0.627 1.931-0.622 2.947v48.242h1v-48.242c-5e-3 -0.873 0.176-1.737 0.532-2.535 0.356-0.797 0.878-1.509 1.532-2.088 4.377-3.838 14.574-15.732 15.246-43.5h0.013l0.033-0.59v-53.953c0-1.197-0.239-2.381-0.702-3.485-0.463-1.103-1.141-2.103-1.995-2.941-0.855-0.838-1.867-1.497-2.979-1.939s-2.301-0.658-3.497-0.635c-2.392 0.094-4.652 1.117-6.302 2.85-1.65 1.734-2.559 4.042-2.535 6.435v26.833c0 0.166-0.033 0.331-0.097 0.484-0.063 0.154-0.157 0.293-0.274 0.411-0.118 0.118-0.257 0.211-0.411 0.274-0.153 0.064-0.318 0.097-0.484 0.097-0.167 0-0.331-0.033-0.485-0.097-0.154-0.063-0.293-0.156-0.411-0.274-0.117-0.118-0.21-0.257-0.274-0.411-0.064-0.153-0.096-0.318-0.096-0.484v-59.007c0.029-2.656-0.979-5.219-2.81-7.144-1.831-1.924-4.341-3.058-6.995-3.161-1.328-0.025-2.647 0.215-3.881 0.706s-2.358 1.223-3.305 2.153c-0.948 0.93-1.701 2.04-2.215 3.264s-0.779 2.539-0.779 3.867v55.907c0 0.388-0.155 0.76-0.429 1.035-0.275 0.275-0.647 0.429-1.035 0.429-0.389 0-0.761-0.154-1.036-0.429-0.274-0.275-0.428-0.647-0.428-1.035v-64.244c0-2.65-1.053-5.192-2.927-7.066-1.874-1.873-4.415-2.926-7.065-2.926s-5.192 1.053-7.066 2.926c-1.874 1.874-2.926 4.416-2.926 7.066v57.4c0 0.455-0.181 0.891-0.503 1.213-0.321 0.321-0.758 0.502-1.212 0.502-0.455 0-0.891-0.181-1.213-0.502-0.322-0.322-0.502-0.758-0.502-1.213v-48.748c0.029-2.656-0.979-5.219-2.81-7.144-1.831-1.924-4.341-3.058-6.995-3.161-1.328-0.025-2.647 0.215-3.881 0.706s-2.358 1.223-3.305 2.153c-0.948 0.93-1.701 2.04-2.215 3.264s-0.778 2.539-0.778 3.867v70.061l-0.025 0.013-0.059 0.374c7e-3 0.083 0.623 8.3-2.762 9.823-2.166 0.972-5.766-1.066-10.405-5.9-6.568-6.843-14.384-10.813-21.447-10.895-1.611-0.108-3.226 0.109-4.751 0.639-1.525 0.529-2.927 1.361-4.123 2.444-3.446 3.428-3.81 6.382-3.507 8.257 0.281 1.347 0.877 2.609 1.738 3.683s1.964 1.929 3.218 2.497c4.342 2.171 23.229 13.8 29.44 27.016 3.925 8.346 13.158 18.308 18.313 23.5 0.873 0.874 1.365 2.058 1.367 3.294l0.202 48.324z" fill="url(#a)"/>
 <defs>
  <linearGradient id="d" x1="97.567" x2="97.567" y1="322.35" y2="98.961" gradientUnits="userSpaceOnUse">
   <stop stop-color="#FD8B8E" stop-opacity="0" offset="0"/>
   <stop stop-color="#FD8689" offset="1"/>
  </linearGradient>
  <linearGradient id="c" x1="94.817" x2="94.817" y1="315.51" y2="114.05" gradientUnits="userSpaceOnUse">
   <stop stop-color="#090505" stop-opacity="0" offset="0"/>
   <stop offset=".53"/>
  </linearGradient>
  <linearGradient id="b" x1="244.51" x2="244.51" y1="322.35" y2="98.961" gradientUnits="userSpaceOnUse">
   <stop stop-color="#FD8B8E" stop-opacity="0" offset="0"/>
   <stop stop-color="#FD8689" offset="1"/>
  </linearGradient>
  <linearGradient id="a" x1="247.02" x2="247.02" y1="315.46" y2="114" gradientUnits="userSpaceOnUse">
   <stop stop-color="#090505" stop-opacity="0" offset="0"/>
   <stop offset=".53"/>
  </linearGradient>
 </defs>
</svg>
