<svg viewBox="0 0 150 150" fill="none" xmlns="http://www.w3.org/2000/svg">
<rect width="150" height="150" fill="black"/>
<path d="M128.985 87.5788C128.99 88.6776 128.552 89.5278 127.755 90.2615C127.039 90.92 126.209 91.1909 125.248 91.1991C122.645 91.2217 120.042 91.289 117.44 91.2954C110.124 91.3123 102.808 91.3169 95.4919 91.3092C95.273 91.3092 95.0541 91.2913 94.7976 91.2802V84.759H121.101V78.0915C120.874 78.0805 120.638 78.0607 120.402 78.0589C114.051 78.0089 107.701 77.9588 101.351 77.9087C100.342 77.8997 99.3319 77.8536 98.3241 77.7969C96.296 77.6832 94.8319 76.2386 94.8204 74.2536C94.7957 69.9408 94.7934 65.6276 94.8538 61.3152C94.8609 60.8054 95.2477 60.2512 95.5797 59.8059C96.2568 58.899 97.1375 58.3723 98.3672 58.3751C107.905 58.4 117.442 58.3888 126.98 58.3888H127.918V64.7549H102.549V71.5642H103.418C110.689 71.5642 117.961 71.5787 125.231 71.5478C126.29 71.5432 127.114 71.9587 127.812 72.617C128.545 73.3081 129.015 74.123 129 75.237C128.942 79.3506 128.966 83.465 128.985 87.5788ZM47.4099 77.1688L21 57V91.0615H28.7383V72.6231L55.2582 93V58.3932H47.4102L47.4099 77.1688ZM61.5977 58.3931C59.1763 58.396 57.7484 59.7817 57.7549 62.1778C57.7781 70.8695 57.8293 79.561 57.9084 88.2524C57.913 88.7542 58.1833 89.3157 58.4864 89.7412C59.396 91.0181 60.7694 91.2133 62.2436 91.2163C71.8926 91.2338 81.5416 91.2648 91.1906 91.3093C91.3873 91.3093 91.5841 91.2876 91.8041 91.2746V84.715H65.3307V64.7537H91.8243V58.4179C91.6196 58.4056 91.4868 58.3903 91.3541 58.3903C81.4351 58.3889 71.5163 58.3898 61.5977 58.3931Z" fill="white"/>
</svg>
