<svg viewBox="0 0 150 150" fill="none" xmlns="http://www.w3.org/2000/svg">
<rect width="150" height="150" fill="white"/>
<path d="M123.677 61.6764C123.678 61.1273 123.461 60.9836 122.981 61.0014C122.339 61.036 121.695 61.0372 121.053 61.0052C120.386 60.9605 120.181 61.221 120.189 61.8976C120.221 64.6909 120.205 67.4848 120.204 70.2785C120.204 70.5254 120.182 70.7723 120.159 71.2346C118.405 69.953 116.635 69.4243 114.687 69.6255C112.698 69.8309 111.055 70.7398 109.755 72.28C107.661 74.7606 107.265 78.5348 109.124 81.2618C112.019 85.5094 115.828 85.8386 120.176 83.3482C119.999 84.4672 120.71 84.2877 121.305 84.2871C121.879 84.2871 122.454 84.2691 123.027 84.2905C123.484 84.3077 123.682 84.1596 123.681 83.65C123.667 76.3257 123.665 69.0012 123.677 61.6764ZM115.438 81.3558C113.298 81.3684 111.453 79.4778 111.444 77.2638C111.435 74.9469 113.234 73.1339 115.527 73.1497C117.677 73.164 119.475 75.0464 119.476 77.2838C119.477 79.4428 117.593 81.3432 115.438 81.3558ZM101.639 69.6467C100.084 69.3313 98.4715 69.5223 97.0285 70.1929C95.5855 70.8634 94.3848 71.9797 93.5953 73.3846C92.8059 74.7894 92.4676 76.4119 92.628 78.0236C92.7885 79.6353 93.4396 81.1549 94.4897 82.3685C97.7259 86.1442 103.703 85.7513 106.405 81.5929C106.584 81.3175 106.693 81.1062 106.349 80.9024C105.578 80.4458 104.806 79.9898 104 79.5126C102.963 80.9629 101.659 81.8105 99.8929 81.7227C98.2423 81.6405 96.6476 80.4694 96.1795 78.9371C96.4596 78.9142 96.7226 78.8744 96.9855 78.8741C99.9486 78.8698 102.912 78.8741 105.875 78.8713C107.761 78.8695 107.761 78.8661 107.687 76.9038C107.554 73.3606 105.015 70.3143 101.639 69.6467ZM96.2075 75.5424C96.6596 73.9393 98.3833 72.7529 100.146 72.7316C101.849 72.7108 103.7 73.9938 104.104 75.5424H96.2075ZM39.8463 70.0582C37.2135 71.205 35.5924 73.248 35.2078 76.1535C34.8093 79.1642 35.8301 81.6766 38.2301 83.496C41.763 86.1744 46.5629 85.1134 48.9265 81.5961C49.1694 81.2345 49.1283 81.0319 48.749 80.8262C48.1775 80.5256 47.6233 80.1916 47.0893 79.8259C46.6431 79.5122 46.4084 79.6201 46.0825 80.0345C45.0548 81.3412 43.6877 81.887 42.0559 81.6885C40.5474 81.5051 39.0292 80.2627 38.7191 78.8781C39.0132 78.8781 39.2373 78.8781 39.4602 78.8781C42.4245 78.8767 45.3888 78.8753 48.3532 78.874C50.2526 78.874 50.2526 78.8754 50.2124 76.9301C50.1038 71.6806 44.5732 67.9995 39.8463 70.0582ZM38.754 75.5613C38.9663 74.2389 40.6554 72.9018 42.2272 72.7498C44.1137 72.5673 46.0175 73.7285 46.6678 75.5613H38.754ZM60.6168 70.0546C57.0194 71.5589 55.0586 75.7123 56.1873 79.4366C57.3964 83.4259 61.2419 85.7074 65.2159 84.759C67.1047 84.3083 68.5981 83.2321 69.6997 81.5934C69.8688 81.3418 70.0293 81.1151 69.6613 80.9014C68.8861 80.4515 68.1129 79.9982 67.2956 79.5209C66.2569 80.9665 64.9467 81.8126 63.1809 81.7251C61.5391 81.6434 59.8541 80.3857 59.5105 78.9321C59.7881 78.9132 60.0534 78.88 60.3186 78.8794C62.2486 78.8753 64.1786 78.8786 66.1086 78.8775C67.5331 78.8775 68.9576 78.8723 70.3821 78.8717C70.7021 78.8717 70.963 78.8475 70.9829 78.4019C71.0569 76.7382 70.9083 75.1337 70.1341 73.6163C68.3797 70.176 64.1513 68.5773 60.6173 70.0546H60.6168ZM59.5269 75.5577C59.8514 73.9738 61.7766 72.6846 63.6419 72.7403C65.3069 72.7901 67.1588 74.1662 67.3771 75.5577H59.5269ZM33.4637 83.0698C30.9647 85.6318 25.7979 85.452 23.4713 82.7217C22.8394 81.9803 22.8623 81.8722 23.7329 81.4365C24.0064 81.3143 24.2721 81.1747 24.5285 81.0186C25.3349 80.4774 26.0227 80.2991 26.9874 80.9284C28.1233 81.6694 29.4794 81.5725 30.651 80.8039C30.9798 80.5882 31.305 80.0667 31.29 79.7C31.2783 79.4137 30.7789 79.0318 30.4231 78.9026C29.9174 78.719 29.3417 78.7452 28.8011 78.6505C27.745 78.4653 26.636 78.4118 25.6492 78.0317C22.6158 76.8626 22.078 72.9219 24.6053 70.8348C26.8806 68.9558 31.1315 69.1594 33.2182 71.2538C33.4273 71.4636 33.6008 71.7106 33.8805 72.0487C32.8742 72.6345 31.9898 73.1713 31.0795 73.6568C30.9332 73.7348 30.6535 73.6216 30.4633 73.533C29.4656 73.0669 28.4496 72.9118 27.3823 73.2537C26.9061 73.4062 26.4459 73.6831 26.5657 74.2074C26.634 74.5067 27.0918 74.8465 27.427 74.9213C28.1611 75.0852 28.928 75.1048 29.6831 75.1602C31.1396 75.267 32.4927 75.6415 33.5881 76.6957C35.3206 78.3604 35.2612 81.2274 33.4637 83.0698ZM90.823 72.1399C90.0948 72.0683 89.9252 72.3753 89.9407 73.0634C89.9803 74.7755 89.9537 76.4893 89.9547 78.2017C89.9557 79.9852 89.9407 81.7689 89.9644 83.5521C89.9715 84.1018 89.7897 84.3126 89.2451 84.2797C88.6273 84.2423 88.0057 84.2757 87.3857 84.2745C86.4937 84.2728 86.4902 84.2714 86.4901 83.3223C86.4901 79.9195 86.4913 76.5168 86.4937 73.114C86.4937 72.1512 86.4922 72.1672 85.5435 72.1472C84.1083 72.1168 84.1609 72.5014 84.1701 70.713C84.1727 70.1969 84.1841 69.6801 84.1666 69.1645C84.1525 68.7373 84.3419 68.5674 84.7449 68.5824C85.0659 68.5944 85.3906 68.5565 85.7086 68.5899C86.3062 68.6526 86.514 68.4205 86.5037 67.7944C86.4705 65.8003 86.5122 63.8048 86.4783 61.8107C86.4675 61.1824 86.6817 60.9733 87.2741 61.0076C87.9162 61.0421 88.5598 61.0421 89.2019 61.0076C89.7599 60.9798 89.9736 61.1763 89.9649 61.7743C89.9355 63.7687 89.9781 65.7641 89.9425 67.7581C89.9308 68.4191 90.1539 68.6377 90.7796 68.5952C91.4197 68.5522 92.0651 68.5976 92.7076 68.5798C93.1381 68.5681 93.3444 68.7323 93.3357 69.1921C93.3207 69.9897 93.3185 70.788 93.3367 71.5856C93.3468 72.0248 93.1419 72.1615 92.7499 72.1546C92.1082 72.1442 91.4605 72.2027 90.8236 72.1399H90.823ZM75.0773 75.6632C74.3728 77.2948 74.8342 79.1921 76.2211 80.3648C77.5294 81.4712 79.5615 81.6173 80.9001 80.607C81.426 80.2099 81.7339 80.2188 82.1434 80.7153C82.5584 81.2178 83.013 81.6847 83.5026 82.1113C83.9825 82.5293 83.8681 82.7817 83.4326 83.1445C79.6271 86.3164 73.9071 84.9094 71.9184 80.2972C70.5808 77.1955 71.4584 73.4313 74.0166 71.2956C75.2787 70.2583 76.8355 69.6667 78.454 69.6093C80.0725 69.5519 81.6657 70.0318 82.9951 70.9771C83.3092 71.2025 83.5917 71.4741 84.146 71.9405C83.3065 72.7041 82.5884 73.397 81.8175 74.0222C81.6785 74.135 81.2669 74.0528 81.0753 73.9191C78.92 72.4094 76.1376 73.2073 75.0773 75.6632ZM54.7705 61.8445C54.7414 65.4615 54.7565 69.0788 54.7565 72.6961H54.7513C54.7513 76.2899 54.7355 79.8837 54.7653 83.4773C54.7709 84.1434 54.5599 84.3459 53.9359 84.297C53.3168 84.2494 52.695 84.2494 52.0758 84.297C51.4495 84.3445 51.3066 84.0797 51.3085 83.4794C51.3271 77.5605 51.3193 71.6415 51.3193 65.7224C51.3193 64.4071 51.3452 63.091 51.3103 61.7766C51.2945 61.1762 51.5194 60.984 52.077 61.0129C52.6968 61.0482 53.318 61.0463 53.9376 61.0073C54.5621 60.9641 54.7762 61.1805 54.7709 61.8445H54.7705ZM130 82.1943C129.996 82.8706 129.73 83.5177 129.259 83.9932C128.788 84.4686 128.152 84.7336 127.49 84.7297C126.829 84.7258 126.195 84.4533 125.73 83.9723C125.265 83.4913 125.006 82.8411 125.01 82.1648C125.021 80.6886 126.116 79.5276 127.491 79.5345C128.946 79.5417 130.007 80.6672 130 82.1943Z" fill="black"/>
</svg>
