<svg viewBox="0 0 150 150" fill="none" xmlns="http://www.w3.org/2000/svg">
<rect width="150" height="150" fill="black"/>
<path d="M31.1094 109.58C31.1461 109.417 31.17 109.251 31.1809 109.085C31.1697 107.648 31.1594 106.212 31.1273 104.776C31.1163 104.276 31.2916 104.051 31.8177 104.044C33.1052 104.027 33.099 104.011 33.0968 105.295C33.0927 107.75 33.1017 110.205 33.0931 112.66C33.0919 113.032 33.2737 113.498 32.7354 113.683C32.1726 113.875 31.4736 113.707 31.1591 113.28C30.2134 111.995 29.2762 110.704 28.3475 109.407C28.0676 109.02 27.8232 108.606 27.5315 108.228C27.4418 108.112 27.2482 108.076 27.1023 108.004C27.043 108.14 27.0029 108.283 26.9833 108.43C26.9972 109.966 27.0189 111.502 27.0484 113.037C27.0565 113.484 26.8533 113.708 26.4073 113.713C26.3873 113.713 26.3673 113.713 26.3474 113.714C25.0343 113.763 25.0102 113.738 25.0095 112.432C25.0082 109.897 25.005 107.363 25 104.828C24.9987 104.197 25.1341 104.1 25.7677 104.042C26.5503 103.969 27.0692 104.248 27.5102 104.91C28.4838 106.369 29.529 107.78 30.5496 109.207C30.6673 109.355 30.7929 109.497 30.9258 109.632L31.1094 109.58ZM74.884 108.845C74.884 107.487 74.8727 106.131 74.8898 104.774C74.8962 104.262 74.6798 104.034 74.1779 104.05C73.9786 104.056 73.7787 104.054 73.5793 104.05C73.1376 104.04 72.9076 104.242 72.9137 104.696C72.9352 106.151 72.9594 107.608 72.9668 109.064C72.9425 109.246 72.8935 109.424 72.8211 109.593C72.6635 109.49 72.4572 109.422 72.3556 109.28C71.3094 107.823 70.2464 106.377 69.2615 104.879C68.8136 104.198 68.2712 103.981 67.5052 104.039C66.9843 104.079 66.7665 104.261 66.7716 104.81C66.7964 107.483 66.7955 110.157 66.7905 112.831C66.7892 113.573 66.91 113.719 67.6388 113.711C67.8182 113.709 67.9979 113.707 68.1773 113.711C68.6091 113.723 68.7994 113.493 68.7959 113.084C68.783 111.568 68.7589 110.053 68.7557 108.536C68.7806 108.338 68.8306 108.144 68.9045 107.959C69.0597 108.068 69.2573 108.147 69.3631 108.293C69.949 109.098 70.5061 109.925 71.0856 110.736C71.7115 111.611 72.3387 112.487 72.9907 113.343C73.2706 113.709 74.0929 113.857 74.537 113.667C75.0105 113.463 74.8655 113.038 74.8674 112.676C74.8735 111.399 74.8697 110.121 74.8697 108.844L74.884 108.845ZM65.2862 108.837C65.2925 106.081 63.1766 103.918 60.4802 103.911C57.7839 103.904 55.6102 106.118 55.6264 108.871C55.644 111.81 57.906 113.781 60.4325 113.937C61.7413 113.872 62.975 113.306 63.8784 112.357C64.7819 111.408 65.2858 110.148 65.2861 108.837H65.2862ZM61.7635 111.52C60.8627 112.071 59.9224 112.033 59.0534 111.444C58.0834 110.787 57.659 109.821 57.7239 108.664C57.799 107.319 58.6445 106.229 59.7794 105.945C61.5662 105.496 63.1722 106.873 63.1821 108.861C63.2139 110.016 62.7422 110.922 61.7634 111.52H61.7635ZM47.0578 108.889C47.0578 110.067 47.0578 111.245 47.0578 112.423C47.0558 113.748 47.1256 113.807 48.4442 113.715C48.8664 113.686 49.0613 113.492 49.0511 113.073C49.0396 112.595 49.0316 112.116 49.0272 111.637C49.0184 110.609 49.3218 110.351 50.3269 110.614C50.5648 110.676 50.7909 110.91 50.9493 111.12C51.2678 111.505 51.5363 111.928 51.7487 112.38C52.2182 113.524 53.0653 113.885 54.2201 113.727C54.2394 113.724 54.2628 113.737 54.2792 113.73C54.4173 113.672 54.6238 113.644 54.6723 113.542C54.6889 113.468 54.6898 113.391 54.6749 113.317C54.6599 113.242 54.6295 113.172 54.5855 113.11C54.1063 112.375 53.6162 111.648 53.115 110.929C52.683 110.307 52.6771 110.303 53.3159 109.88C54.7803 108.911 55.0932 106.56 53.9628 105.21C53.2268 104.331 52.2438 104.092 51.1779 104.066C50.0604 104.039 48.9414 104.075 47.8242 104.043C47.2488 104.027 47.0369 104.253 47.0452 104.816C47.0652 106.174 47.0517 107.531 47.0517 108.889L47.0578 108.889ZM49.0212 107.381C49.0128 105.766 49.0002 105.967 50.4412 105.968C50.7395 105.959 51.0382 105.966 51.3359 105.987C52.0445 106.063 52.5896 106.617 52.6184 107.264C52.6318 107.596 52.5253 107.922 52.3184 108.182C52.1115 108.442 51.818 108.619 51.4915 108.681C51.1183 108.735 50.742 108.766 50.3649 108.772C48.9165 108.766 49.0286 108.832 49.021 107.381L49.0212 107.381ZM79.4647 105.258C79.4647 104.992 79.5128 104.714 79.4482 104.465C79.4037 104.294 79.2028 104.163 79.072 104.014C78.923 104.146 78.7349 104.254 78.6382 104.417C78.5665 104.537 78.6084 104.728 78.6084 104.887C78.6089 107.223 78.6103 109.559 78.6124 111.895C78.6124 112.214 78.6082 112.534 78.6075 112.853C78.6075 113.162 78.6036 113.499 79.0292 113.506C79.4851 113.513 79.498 113.164 79.4969 112.829C79.4969 112.789 79.4953 112.749 79.4952 112.709C79.4927 111.172 79.4573 109.633 79.5046 108.098C79.5167 107.504 79.6418 106.917 79.873 106.37C80.2916 105.431 81.0316 104.797 82.1012 104.679C83.1036 104.569 83.9559 104.921 84.4383 105.803C84.7405 106.36 84.9146 106.977 84.9477 107.609C85.0156 109.284 84.9708 110.963 84.9715 112.64C84.9715 112.799 84.9231 112.989 84.993 113.111C85.0876 113.273 85.275 113.485 85.4229 113.485C85.5709 113.485 85.7689 113.277 85.8536 113.113C85.9272 112.97 85.8747 112.762 85.8754 112.582C85.8825 110.845 85.8557 109.108 85.9076 107.372C85.9426 106.197 86.908 105.04 87.966 104.756C89.1449 104.44 90.2127 104.768 90.8234 105.816C91.1399 106.389 91.3173 107.028 91.3412 107.681C91.4102 109.355 91.3612 111.034 91.3636 112.711C91.3636 113.062 91.2796 113.511 91.8265 113.502C92.3264 113.493 92.2556 113.069 92.2556 112.736C92.2556 111.159 92.2603 109.582 92.2426 108.005C92.249 107.526 92.206 107.047 92.1141 106.577C91.8081 105.203 91.0139 104.211 89.6091 103.893C88.1163 103.555 86.8469 103.992 85.9185 105.261C85.5916 105.708 85.4376 105.693 85.1012 105.177C84.8378 104.776 84.485 104.441 84.0706 104.199C83.6562 103.957 83.1914 103.814 82.7125 103.782C82.2337 103.749 81.7539 103.828 81.3106 104.012C80.8674 104.196 80.4728 104.48 80.1577 104.842C80.0196 105.034 79.8988 105.238 79.7965 105.452L79.4647 105.258ZM43.0747 109.844C43.0747 108.807 43.0875 107.769 43.0693 106.732C43.0601 106.206 43.2461 105.947 43.8036 105.984C44.2806 106.016 44.7607 106.004 45.2395 106.009C45.6515 106.014 45.8821 105.836 45.8526 105.395C45.8421 105.236 45.8422 105.076 45.8446 104.917C45.8561 104.165 45.7466 104.052 44.9899 104.052C43.2142 104.052 41.4384 104.057 39.6627 104.056C38.3037 104.055 38.3142 104.052 38.3093 105.375C38.3077 105.803 38.4663 106.008 38.9008 106C39.3994 105.99 39.8988 106.004 40.3971 105.988C40.9166 105.972 41.0954 106.221 41.09 106.722C41.0698 108.617 41.073 110.512 41.0679 112.408C41.0642 113.761 41.0754 113.76 42.4365 113.718C42.9244 113.703 43.1082 113.491 43.1015 113.016C43.0863 111.959 43.0968 110.902 43.0968 109.844H43.0747ZM101.762 112.34C101.769 112.556 101.756 112.773 101.753 112.99C101.749 113.392 102.039 113.652 102.348 113.476C102.431 113.416 102.5 113.338 102.551 113.248C102.601 113.159 102.631 113.059 102.638 112.957C102.656 110.183 102.651 107.408 102.649 104.634C102.649 104.555 102.665 104.452 102.623 104.401C102.506 104.26 102.347 104.025 102.234 104.041C102.138 104.068 102.049 104.114 101.971 104.177C101.894 104.24 101.829 104.317 101.783 104.405C101.704 104.545 101.744 104.755 101.744 104.934C101.742 106.471 101.769 108.008 101.73 109.544C101.71 110.06 101.606 110.569 101.42 111.05C101.016 112.118 99.7395 112.902 98.5651 112.88C97.3301 112.858 96.4 112.216 95.9939 111.009C95.8505 110.532 95.7813 110.036 95.7889 109.538C95.7704 107.922 95.8096 106.305 95.7802 104.689C95.776 104.464 95.5446 104.091 95.3604 104.052C94.9719 103.968 94.8958 104.328 94.8966 104.649C94.9016 106.485 94.9092 108.321 94.9194 110.157C94.9142 110.942 95.1672 111.707 95.6393 112.335C97.042 114.21 99.5608 114.312 101.127 112.572C101.275 112.424 101.432 112.284 101.596 112.154C101.689 112.253 101.761 112.295 101.762 112.34ZM108.113 103.809C107.835 103.824 107.558 103.857 107.283 103.905C106.452 104.098 105.773 104.521 105.355 105.291C104.624 106.637 105.191 107.986 106.792 108.625C107.624 108.957 108.491 109.2 109.331 109.514C110.122 109.81 110.615 110.504 110.558 111.171C110.498 111.868 109.875 112.629 109.083 112.689C108.296 112.728 107.508 112.657 106.741 112.478C106.293 112.384 105.912 112.006 105.469 111.84C105.29 111.773 105.026 111.931 104.801 111.987C104.861 112.191 104.871 112.435 104.993 112.589C105.121 112.749 105.35 112.839 105.548 112.929C106.846 113.517 108.133 114.105 109.611 113.482C110.666 113.038 111.402 112.111 111.453 111.047C111.51 109.848 110.831 109.165 109.826 108.719C109.445 108.55 109.041 108.432 108.651 108.283C108.019 108.042 107.354 107.859 106.767 107.536C105.688 106.945 105.697 105.672 106.76 105.047C107.053 104.881 107.377 104.775 107.712 104.738C108.573 104.643 109.441 104.844 110.172 105.308C110.474 105.493 110.791 105.703 111.04 105.278C111.293 104.845 110.937 104.626 110.631 104.51C109.819 104.206 108.986 103.957 108.161 103.686L108.113 103.809ZM119.242 112.967C120.151 113.583 121.166 114.051 122.336 113.751C123.446 113.467 124.369 112.858 125.211 112.101C125.473 111.865 125.425 111.729 125.148 111.562C124.742 111.316 124.49 111.541 124.209 111.797C122.956 112.939 121.42 113.169 120.074 112.436C118.351 111.495 117.555 109.179 118.263 107.165C119.014 105.03 121.322 104.073 123.26 105.114C123.605 105.299 123.896 105.588 124.2 105.843C124.456 106.058 124.711 106.181 124.987 105.902C125.269 105.616 125.175 105.317 124.885 105.146C124.137 104.705 123.408 104.131 122.593 103.928C119.769 103.227 117.065 105.631 117.055 108.742C117.067 110.521 117.777 111.971 119.242 112.967V112.967ZM37.0242 108.906C37.0242 107.71 37.0219 106.513 37.0242 105.316C37.0271 104.038 37.0291 104.053 35.7459 104.043C35.2097 104.039 34.992 104.239 34.9958 104.782C35.0136 107.335 35.0112 109.887 35.0125 112.44C35.0125 113.732 35.0097 113.721 36.286 113.718C36.8084 113.717 37.0513 113.522 37.0436 112.974C37.0244 111.618 37.0373 110.262 37.0373 108.906L37.0242 108.906ZM114.828 108.8C114.828 107.443 114.828 106.086 114.828 104.73C114.828 104.389 114.791 104.044 114.36 104.037C113.915 104.029 113.893 104.383 113.893 104.72C113.895 107.414 113.897 110.108 113.898 112.802C113.898 113.135 113.897 113.489 114.353 113.491C114.801 113.493 114.821 113.153 114.82 112.811C114.816 111.474 114.819 110.137 114.819 108.8H114.828Z" fill="white"/>
<path d="M102.539 54.7968C102.502 54.4125 102.391 54.067 101.912 53.9545C101.778 53.923 101.661 53.6364 101.615 53.4476C101.286 51.8883 100.965 50.3422 100.248 48.9046C99.4777 48.542 99.4742 48.5434 98.7926 48.9466C98.5465 46.8712 97.6991 45.0543 95.9679 43.8246C95.5391 43.5128 95.2295 43.6092 95.0302 44.1087C94.5404 45.736 95.4621 47.2754 96.0927 48.6989C95.5767 48.726 95.0933 48.6538 94.6844 48.796C93.4175 49.351 94.4566 47.9069 92.467 45.3976C92.988 45.3257 93.6453 45.7195 94.0256 45.4853C94.3094 45.2166 94.5799 44.7222 94.5394 44.3577C94.8571 42.7154 90.6311 37.5751 89.8305 40.4347C89.7108 42.1439 90.9695 43.4074 91.8487 44.7776C90.2643 44.1824 89.8565 44.1168 88.598 45.2045C88.8041 42.8334 85.8433 39.3211 83.4684 40.8977C80.9292 43.4466 85.9141 48.6604 88.4495 45.7635C88.4775 47.0118 88.5395 48.1364 89.2472 49.2227C89.4912 49.6599 89.1881 49.6774 88.8343 49.7241C88.2117 49.793 87.5975 49.9243 87.0011 50.1159C86.4169 50.3183 86.3106 50.2991 86.2948 49.6499C86.4487 46.8671 82.8443 44.1342 80.655 46.4665C78.246 49.0906 82.1625 54.1791 85.1849 52.02C85.2741 51.9516 85.5277 51.9361 85.5603 51.9884C85.6351 52.1204 85.6579 52.2756 85.6243 52.4235C85.3573 53.4521 85.6251 54.3939 86.0458 55.3203C86.2634 55.785 86.1625 55.9897 85.6367 55.9719C79.9302 55.2707 81.1172 65.955 86.6386 63.4336C87.7179 62.8263 86.2353 65.5547 87.3129 67.0261C87.4462 67.3985 87.2041 67.4864 86.882 67.39C84.2971 66.4137 82.0489 69.8338 82.7116 72.139C84.3252 76.7891 89.8793 72.1275 88.3151 68.5213C88.4783 68.5363 88.6626 68.5073 88.801 68.5735C89.6862 69.0946 90.4546 68.5532 91.3357 68.3599C91.2625 69.6998 90.5856 71.0116 91.4608 72.2673C92.489 73.8143 93.4554 72.995 94.4416 72.2633C93.8944 73.6893 93.2324 74.9908 93.406 76.5229C94.3112 79.0826 97.2243 74.0844 97.1494 72.8521C97.3159 70.9872 96.5427 70.3312 95.0171 71.6833C95.2993 70.4352 96.0247 69.3355 95.8476 67.9262C95.8439 67.8347 96.1541 67.6184 96.2416 67.6532C97.0363 68.0204 97.2797 67.2878 98.0379 67.2544C97.6258 68.1377 96.6287 73.3533 98.8044 71.636C99.916 70.3361 100.376 68.6215 100.502 66.9394C100.54 66.2623 101.271 66.3376 101.783 66.1424C101.684 67.4675 100.514 69.7962 100.989 70.9157C101.995 69.8579 101.974 67.4755 102.504 66.0363C102.579 65.7273 102.589 65.4505 102.189 65.315C102.089 65.2813 102.008 65.0318 102.013 64.8848C102.298 63.6442 102.176 62.3478 102.29 61.0824C102.304 60.856 102.451 60.4612 102.567 60.4497C103.519 60.678 102.444 55.6053 102.539 54.7968ZM90.3084 60.6977C87.0687 61.6716 89.3906 61.5227 88.1436 57.6834C88.7761 57.662 89.3551 57.7461 89.9719 57.6834C90.373 57.6345 90.5867 57.7205 90.6225 58.1408C90.5464 58.8051 91.2603 60.636 90.3084 60.6977ZM91.9261 53.1687C91.8802 52.6229 91.313 52.0663 91.4363 51.5113C91.8185 51.3574 92.4851 51.5316 92.8796 51.3472C93.4966 51.0859 93.5986 51.1184 93.5978 52.034C93.6661 52.3504 93.7542 52.9025 93.9104 53.4347C94.0335 53.8546 93.8925 54.0438 93.499 54.1065C92.3034 54.298 92.1705 54.6616 91.9261 53.1694V53.1687ZM93.093 66.2296C93.0241 66.2729 92.911 66.2465 92.7609 66.256C92.8233 65.4485 93.0072 64.6979 93.0353 63.8971C93.0509 63.4559 93.1764 63.2455 93.6231 63.1728C95.5851 62.5667 94.6867 64.279 95.0353 65.497C95.1716 66.4648 94.0639 65.424 93.093 66.2303V66.2296ZM97.6713 59.7286C97.3749 59.576 96.8338 59.7164 96.6417 59.5141C96.3969 58.9273 96.4928 58.0669 96.3223 57.417C96.131 56.7471 96.8186 56.7746 97.2642 56.5674C97.4217 56.5183 97.5849 56.4875 97.7459 56.4487C97.8017 56.7682 98.6713 60.2197 97.6713 59.7293V59.7286ZM97.473 50.703C97.4087 49.9943 98.4453 50.1891 98.8983 50.0323C99.2689 51.3677 99.6774 52.8394 100.053 54.1921C97.0338 54.1809 99.0899 53.3208 97.473 50.7037V50.703ZM100.342 65.542C99.8713 65.1328 99.3379 65.1379 98.7799 65.6752C98.7799 65.4007 98.7448 65.2749 98.7854 65.1822C99.1927 64.2521 99.1874 63.279 99.0724 62.3031C98.8997 61.2762 99.7139 61.9019 100.663 61.1321C100.557 62.5839 100.452 64.0249 100.342 65.5427L100.342 65.542ZM101.135 59.8278C100.971 58.2511 100.815 56.7591 100.668 55.3518L101.735 55.2666C101.903 56.7371 102.084 58.3206 102.277 60.017C101.855 59.7436 101.556 59.2875 101.135 59.8285L101.135 59.8278ZM81.254 58.2025C80.1166 59.0265 78.2225 58.6337 77.1967 57.3358C76.6001 56.5811 76.2484 55.7239 76.2808 54.8128C76.2833 53.194 77.1311 51.9419 78.4695 51.5078C79.7973 51.0769 81.4268 51.7737 82.2575 53.1273C83.3659 54.9333 82.9645 56.963 81.254 58.2025ZM82.0988 69.1762C80.0938 70.3284 77.8234 68.8963 77.6766 66.4637C77.6108 65.612 77.8337 64.763 78.3095 64.0536C78.7852 63.3441 79.4861 62.8156 80.299 62.5532C81.2916 62.2151 82.6041 62.7438 83.3761 63.7831C83.8393 64.3908 84.0825 65.1377 84.0661 65.9017C84.0327 67.3658 83.3123 68.479 82.0988 69.1762V69.1762ZM72.7389 63.0726C72.4252 62.4947 72.2968 61.8163 72.0841 61.1833C72.227 59.7228 72.8192 58.6146 74.1098 58.0059C75.5602 57.322 77.0958 57.9013 77.9944 59.3695C78.9431 60.9195 78.5332 63.0623 77.132 64.0974C75.3882 65.3861 73.4824 64.4412 72.7389 63.0726ZM76.652 50.546C76.6561 52.1173 75.3983 53.4412 73.8995 53.4428C72.2413 53.4447 70.7693 51.8986 70.7601 50.1449C70.7514 48.5216 71.9496 47.2281 73.4642 47.2258C75.1529 47.2227 76.6477 48.7795 76.652 50.546ZM72.3872 56.4328C72.3766 58.0469 71.0825 59.4392 69.5924 59.4395C68.0173 59.4395 66.6599 57.9255 66.6803 56.1915C66.6997 54.5462 67.9742 53.2024 69.4919 53.2272C71.0715 53.2524 72.3984 54.7215 72.3872 56.4322V56.4328ZM70.9897 70.3723C69.406 70.3599 68.1329 69.0149 68.1373 67.3572C68.1413 65.7585 69.417 64.3782 70.8942 64.3738C72.4029 64.3691 73.751 65.7649 73.7548 67.3355C73.7591 68.9825 72.4832 70.3834 70.9897 70.3718V70.3723ZM76.0697 74.8774C74.6553 74.841 73.5257 73.5457 73.5507 71.9886C73.5768 70.346 74.9922 68.8895 76.542 68.9098C78.0019 68.9287 79.2021 70.2392 79.1646 71.775C79.1229 73.4805 77.6887 74.9184 76.0704 74.8769L76.0697 74.8774ZM80.1117 45.2281C80.1306 46.5595 78.9578 47.6756 77.5831 47.6345C75.5157 47.5726 73.8859 45.2282 74.581 43.3162C74.7353 42.8803 75.0228 42.504 75.4028 42.2406C75.7829 41.9772 76.2362 41.8401 76.6985 41.8487C78.4418 41.8602 80.0873 43.4892 80.1117 45.2281ZM62.6519 63.0022C62.4599 61.7499 62.9852 60.5431 63.948 60.0243C65.2604 59.3171 66.9136 59.9654 67.4728 61.4282C67.6001 61.8224 67.7046 62.2236 67.7859 62.6298C67.7199 64.1242 66.696 65.3191 65.3624 65.4007C64.126 65.4761 62.8594 64.3553 62.6519 63.0022ZM91.5364 74.0657C91.4012 75.6751 90.4929 76.989 89.0083 77.8714C87.8747 78.5452 86.7377 77.9134 86.5558 76.5924C86.3433 75.0512 86.9924 73.8383 88.0532 72.7967C88.2404 72.6178 88.4425 72.4551 88.6572 72.3103C89.2437 71.9032 89.8901 71.6545 90.5583 72.0382C91.2508 72.436 91.5528 73.1012 91.5362 74.0657H91.5364ZM83.5183 75.5704C83.5142 76.8644 82.5539 78.2765 81.3491 78.7612C79.8526 79.3629 78.4489 78.4634 78.3301 76.8269C78.2246 75.3735 79.2129 73.9285 80.6252 73.4707C82.1577 72.9736 83.523 73.9646 83.5181 75.5704H83.5183ZM80.3604 42.1752C78.844 41.9828 77.4858 40.725 77.1918 39.2407C76.9713 38.1271 77.732 37.1582 78.8233 37.1628C80.3566 37.1694 82.1439 38.6786 82.3516 40.1424C82.5286 41.39 81.6048 42.3331 80.3604 42.1752ZM67.9839 43.4034C69.2477 43.3681 70.5274 44.6688 70.5393 46.0007C70.5509 47.2882 69.4413 48.4321 68.1672 48.4474C66.8667 48.4629 65.727 47.3059 65.7022 45.9449C65.6784 44.6361 66.7536 43.4378 67.9839 43.4034V43.4034ZM61.5456 51.6544C61.5443 50.2588 62.6765 49.0417 63.976 49.0416C65.2373 49.0416 66.2453 50.1553 66.2431 51.5466C66.2403 52.9805 65.199 54.11 63.8808 54.109C62.5913 54.1076 61.5469 53.0097 61.5456 51.6544ZM64.5229 73.0211C64.519 71.8153 65.5196 70.7819 66.6944 70.779C67.9762 70.7754 69.1344 71.9671 69.1435 73.298C69.1514 74.5323 68.1962 75.5478 67.0082 75.5675C65.7031 75.5902 64.5274 74.3851 64.5229 73.0211ZM69.8653 77.3277C69.8724 76.7138 70.1198 76.1271 70.5544 75.6935C70.989 75.2599 71.5763 75.0139 72.1902 75.0083C72.7851 75.0174 73.3527 75.2598 73.7708 75.6832C74.1888 76.1066 74.4239 76.6773 74.4254 77.2723C74.4378 78.5549 73.4118 79.6466 72.1692 79.6732C70.9451 79.6992 69.8808 78.6159 69.8653 77.3281V77.3277ZM86.5774 79.0829C86.5523 80.546 85.0146 82.3549 83.5929 82.594C83.0191 82.6904 82.4313 82.3185 82.1943 81.7095C81.8254 80.7624 82.2484 79.2724 83.1957 78.4687C83.6177 78.1071 84.102 77.8252 84.6248 77.6367C85.6461 77.2836 86.5956 78.0243 86.5774 79.0833V79.0829ZM71.3106 38.4698C72.6661 38.4769 73.9533 39.7929 73.9321 41.1497C73.9157 42.1853 72.9737 43.0518 71.8624 43.0546C70.5535 43.0579 69.3517 41.8179 69.373 40.486C69.391 39.3523 70.2447 38.4642 71.3106 38.4698ZM84.2587 37.4792C84.24 37.3813 84.2323 37.2823 84.2262 37.2357C84.2139 36.4984 84.8 35.9548 85.4417 36.1607C87.2216 36.7311 88.5448 37.8305 89.1584 39.6534C89.3316 40.1674 89.2431 40.7356 88.7999 40.9991C88.6048 41.1024 88.3908 41.1654 88.1708 41.1842C87.9508 41.2031 87.7293 41.1774 87.5194 41.1088C86.7814 40.8285 86.1142 40.3892 85.5651 39.8221C85.0159 39.255 84.5984 38.5739 84.342 37.8273C84.3053 37.7136 84.2775 37.5972 84.2587 37.4792ZM61.6132 57.5767C61.6272 58.856 60.6756 59.9753 59.5478 60.0067C58.4341 60.0377 57.4293 58.9172 57.4214 57.6354C57.4137 56.3667 58.3936 55.2253 59.5039 55.2098C60.6539 55.1937 61.5992 56.2545 61.6132 57.5767ZM61.2519 70.9542C60.094 70.9542 59.0202 69.7543 59.0127 68.451C59.0062 67.3207 59.8414 66.413 60.8963 66.4039C62.0905 66.3939 63.1589 67.5443 63.1718 68.8546C63.1825 69.9948 62.3058 70.9538 61.2519 70.9542ZM74.5548 81.3818C74.5471 80.1235 75.6479 78.9747 76.8771 78.9589C77.3497 78.961 77.8026 79.1481 78.139 79.48C78.4754 79.812 78.6685 80.2624 78.6769 80.7349C78.6871 81.9901 77.5433 83.2416 76.3587 83.2702C75.3402 83.2948 74.5614 82.4793 74.5548 81.3818ZM89.4967 78.7207C90.0728 77.9233 90.7633 77.2151 91.5459 76.619C92.2077 76.117 92.9753 76.6799 92.947 77.6108C92.8169 78.5201 92.4286 79.3729 91.8283 80.0681C91.3251 80.627 90.7653 81.1322 90.1578 81.5756C89.9361 81.7403 89.4116 81.8174 89.2553 81.6775C88.9997 81.4487 88.7667 80.9812 88.8205 80.6648C88.9348 79.9923 89.1096 79.2587 89.4967 78.7207ZM82.0838 37.2895C80.7591 37.242 79.0256 35.8255 78.7057 34.5289C78.5098 33.736 78.9996 33.1217 79.8006 33.2862C81.2952 33.5934 82.4852 34.3826 83.1324 35.8171C83.518 36.6716 83.03 37.3233 82.0838 37.2895ZM73.5038 34.2786C74.5804 34.2847 75.9411 35.3594 76.2059 36.4126C76.4269 37.2912 75.7721 38.1059 74.8064 38.1542C73.4953 38.2191 72.1735 36.9953 72.1402 35.6856C72.1201 34.8651 72.6927 34.2738 73.5038 34.2786ZM53.9477 64.6552C53.6333 63.9408 53.6095 63.2072 54.0656 62.5472C54.4034 62.0574 54.8717 61.6688 55.5248 61.8335C56.3825 62.05 56.8289 62.6916 57.049 63.5092C57.0748 63.6316 57.0871 63.7565 57.0857 63.8816C57.0754 64.8612 56.4904 65.6505 55.7337 65.8064C55.1223 65.9327 54.2787 65.407 53.9477 64.6552ZM61.4793 42.0314C61.4784 40.985 62.3868 39.9841 63.3465 39.9742C64.2174 39.9649 65.006 40.8032 65.0157 41.7484C65.0262 42.756 64.064 43.7356 63.0735 43.7275C62.2186 43.7205 61.4801 42.9348 61.4793 42.0314V42.0314ZM57.2835 47.3553C57.2639 46.2526 58.1886 45.1738 59.1567 45.1696C60.0213 45.166 60.695 45.9082 60.7015 46.8715C60.7087 47.9513 59.81 48.9715 58.8378 48.987C57.9869 49.0004 57.2997 48.2789 57.2835 47.3553ZM87.0184 81.5304C87.7337 81.5125 88.1608 81.9782 88.0145 82.5132C87.6062 84.0091 86.6217 85.0368 85.225 85.6459C84.6109 85.9136 84.1016 85.4639 84.2247 84.7723C84.4415 83.5548 85.1593 82.6452 86.168 81.965C86.4405 81.7996 86.7247 81.6544 87.0184 81.5304V81.5304ZM79.7519 86.2538C78.8798 86.6395 78.0849 86.0737 78.0943 85.1096C78.1045 84.0553 78.9908 82.9511 80.0236 82.7059C81.0512 82.4619 81.792 83.1837 81.5325 84.2033C81.2852 85.1763 80.6556 85.854 79.7519 86.2538ZM65.1278 78.8178C65.1161 79.5798 64.4497 80.2441 63.7115 80.2297C62.7361 80.2106 61.7081 79.1699 61.7012 78.1947C61.6959 77.4331 62.3888 76.7598 63.1723 76.7654C64.1621 76.7724 65.1431 77.8021 65.1278 78.8178ZM90.1484 35.7716C91.3663 36.3774 92.3913 37.3105 93.1085 38.4663C93.3625 38.8842 93.5517 39.3415 93.6963 39.6329C93.6865 40.2914 93.3114 40.4585 92.8426 40.1728C91.6252 39.4464 90.5945 38.4453 89.833 37.2495C89.6495 36.9903 89.5012 36.7079 89.3919 36.4098C89.3276 36.1974 89.4068 35.9414 89.4221 35.7049C89.6666 35.7234 89.9488 35.6679 90.1484 35.7716V35.7716ZM68.8791 83.8852C67.9685 83.8893 66.9887 82.913 66.9781 81.9911C66.9691 81.2235 67.7439 80.4839 68.547 80.4937C69.4455 80.5042 70.3488 81.4151 70.3547 82.3163C70.3601 83.1435 69.6659 83.8817 68.8791 83.8852ZM66.7328 35.486C67.5653 35.4818 68.4467 36.3777 68.4646 37.2462C68.4811 38.0508 67.6761 38.8525 66.8433 38.8609C66.0037 38.8695 65.1472 38.0056 65.1555 37.1586C65.1634 36.33 65.9559 35.4898 66.7328 35.486ZM84.057 33.5418C83.934 33.3393 83.9756 33.0367 83.941 32.7805C84.1978 32.7502 84.4844 32.6303 84.7063 32.7043C86.0999 33.1518 87.3052 34.0498 88.1327 35.2571C88.3018 35.5024 88.3277 35.8758 88.3286 36.1905C88.3286 36.2899 88.0347 36.3905 87.8368 36.5149C87.4921 36.3597 87.1617 36.2322 86.8512 36.0671C85.7095 35.46 84.7344 34.6559 84.057 33.5418ZM53.8279 54.3635C53.0953 53.9525 52.8106 52.8274 53.2392 52.0381C53.9014 50.819 55.0445 50.6265 55.738 51.6413C55.9191 51.9064 55.9664 52.2628 56.0732 52.5713C55.9768 52.9168 55.939 53.245 55.7984 53.5208C55.3585 54.3837 54.4925 54.7363 53.8279 54.3635ZM94.2873 80.774C94.1403 80.8836 93.9041 80.8735 93.7092 80.9188C93.6805 80.7158 93.5776 80.4888 93.6344 80.3136C94.14 78.7131 95.0559 77.2731 96.291 76.1366C96.3686 76.0696 96.4595 76.0197 96.5577 75.9902C96.6559 75.9608 96.7593 75.9525 96.861 75.9659C96.9869 75.9975 97.0531 76.2662 97.1599 76.4539C96.9846 76.9055 96.8463 77.3416 96.6508 77.7503C96.086 78.9304 95.3468 79.9836 94.2873 80.774ZM94.9944 39.5604C96.3181 40.6221 97.1831 42.0182 97.8377 43.5586C97.898 43.7464 97.9431 43.9387 97.9726 44.1337C97.9044 44.2573 97.8533 44.4844 97.7306 44.534C97.6132 44.5814 97.3837 44.4858 97.2677 44.3817C95.9385 43.194 94.9296 41.691 94.3339 40.011C94.2673 39.8256 94.3817 39.5753 94.4122 39.3551C94.6083 39.4204 94.843 39.4383 94.9944 39.5604ZM59.1546 75.0656C59.1184 75.2207 59.0515 75.367 58.9579 75.4958C58.8643 75.6247 58.7459 75.7335 58.6097 75.816C58.4735 75.8984 58.3221 75.9528 58.1646 75.976C58.007 75.9991 57.8464 75.9906 57.6922 75.9508C56.9048 75.7503 56.1764 74.8054 56.1901 74.0022C56.1922 73.8178 56.2349 73.6361 56.3152 73.4701C56.3954 73.3041 56.5113 73.1577 56.6545 73.0415C56.7976 72.9253 56.9647 72.8421 57.1437 72.7977C57.3227 72.7533 57.5092 72.7488 57.6901 72.7847C58.6275 72.9774 59.3744 74.1406 59.1546 75.0656ZM73.5667 31.8135C73.4516 31.3438 73.8534 30.9401 74.5428 30.9431C75.563 31.1433 76.5064 31.6584 77.0797 32.6769C77.4347 33.3067 76.9864 33.8793 76.2032 33.8747C75.2063 33.8685 73.8008 32.7703 73.5667 31.8135ZM74.4933 85.404C74.4737 86.2003 73.7618 86.9426 73.0199 86.9401C72.2813 86.9376 71.5281 86.1525 71.5467 85.4047C71.5651 84.6647 72.3349 83.9587 73.1126 83.9684C73.485 83.9788 73.8384 84.1352 74.0966 84.4037C74.3549 84.6723 74.4973 85.0315 74.4933 85.404V85.404ZM92.6695 81.5577C92.2908 82.228 91.9037 82.9151 91.3952 83.4843C90.8984 84.0407 90.2587 84.4728 89.6611 84.9328C89.5898 84.9767 89.5096 85.0044 89.4264 85.0139C89.3431 85.0233 89.2588 85.0143 89.1794 84.9876C89.0799 84.9473 89.0507 84.7336 88.9709 84.5537C89.3488 83.9509 89.6566 83.3148 90.0971 82.7904C90.6611 82.1516 91.2694 81.5533 91.9176 81C92.0589 80.874 92.3427 80.9064 92.5613 80.8658C92.6037 81.1002 92.7595 81.3984 92.6695 81.5577ZM100.252 70.7908C100.314 70.964 100.453 71.1499 100.426 71.3086C100.141 73.0299 99.4061 74.5656 98.3929 75.9702C98.2911 76.1115 98.0385 76.1776 97.8463 76.2013C97.7822 76.2091 97.6883 75.9754 97.5501 75.7631C97.964 74.6823 98.3477 73.5757 98.8146 72.5052C99.0501 71.965 99.4199 71.4787 99.7662 70.9952C99.8538 70.8736 100.086 70.8563 100.252 70.7909V70.7908ZM78.8728 30.23C80.3748 30.553 81.6003 31.2076 82.4845 32.4043C82.7224 32.7262 82.5186 33.0942 82.0848 33.0998C81.7682 33.0865 81.4565 33.0164 81.1645 32.893C80.1676 32.5228 79.2959 31.8778 78.6504 31.0326C78.5432 30.8545 78.5045 30.6435 78.5416 30.4389C78.5553 30.3454 78.7825 30.283 78.8728 30.23ZM67.9465 32.9346C67.9612 32.6444 68.0862 32.3708 68.2961 32.1699C68.5059 31.969 68.7846 31.8559 69.0752 31.8538C69.8505 31.8871 70.7811 32.8054 70.7685 33.5254C70.7583 34.095 70.2185 34.5641 69.5917 34.5478C68.7942 34.5271 67.9461 33.6956 67.9468 32.9346H67.9465ZM82.9579 86.9545C82.539 87.8484 81.79 88.5451 80.8681 88.8983C80.7826 88.9392 80.6883 88.9583 80.5936 88.9538C80.4989 88.9494 80.4068 88.9215 80.3255 88.8728C80.2442 88.824 80.1762 88.7559 80.1277 88.6745C80.0792 88.593 80.0516 88.5008 80.0474 88.4061C79.9898 87.5988 81.5152 86.0059 82.3475 86.0041C82.8709 86.0031 83.195 86.4736 82.9582 86.9545H82.9579ZM100.257 48.9086L100.248 48.9043C100.246 48.8997 100.244 48.8951 100.241 48.8903L100.251 48.8945L100.257 48.9086ZM100.948 49.2055C100.716 49.1023 100.484 48.9989 100.251 48.8953C99.9155 48.122 99.5616 47.356 99.2497 46.5731C98.9271 45.7634 98.6434 44.938 98.3507 44.1167C98.3214 44.0348 98.3468 43.9336 98.3468 43.633C98.6485 43.8933 98.899 44.0099 98.9873 44.2015C99.6761 45.6951 100.339 47.2008 100.991 48.7112C101.048 48.8453 100.965 49.0395 100.948 49.2057V49.2055ZM77.3401 87.8627C77.3839 88.4611 76.4725 89.4538 75.8633 89.4707C75.39 89.4847 74.9839 89.0577 74.9728 88.5361C74.9576 87.8153 75.7006 87.0238 76.3938 87.021C76.8425 87.0191 77.3089 87.4341 77.3401 87.8627ZM50.2682 60.0443C49.7635 60.0366 49.2442 59.3933 49.2383 58.7687C49.2323 58.125 49.8176 57.3782 50.3219 57.3873C50.8137 57.3961 51.3533 58.1143 51.3435 58.7474C51.3337 59.4164 50.806 60.0526 50.2682 60.0443ZM87.834 85.6568C87.7953 85.7683 87.7457 85.8756 87.6859 85.9774C87.0342 86.9363 86.1499 87.7142 85.1157 88.2385C84.9512 88.3224 84.7134 88.2651 84.5095 88.273C84.5427 88.0911 84.5242 87.8764 84.6175 87.735C85.2488 86.7389 86.1124 85.9109 87.1341 85.3222C87.5261 85.1034 87.8252 85.2328 87.834 85.6568ZM53.1838 70.1347C52.9352 70.4396 52.7393 70.8452 52.4188 71.0131C52.2145 71.1202 51.8252 70.8767 51.5201 70.786C51.4851 70.7755 51.4571 70.7383 51.4279 70.7113C50.9406 70.2635 50.737 69.5019 51.0906 69.0459C51.1998 68.9185 51.3342 68.8152 51.4854 68.7424C51.6366 68.6696 51.8012 68.629 51.9689 68.6232C52.5093 68.6479 53.0531 69.442 53.1839 70.1347H53.1838ZM58.3957 38.3428C58.4215 37.7551 59.2046 36.8983 59.7252 36.8874C60.1491 36.8787 60.6015 37.3891 60.5922 37.8654C60.5793 38.5074 59.8407 39.2754 59.2504 39.2602C59.0218 39.2346 58.81 39.128 58.6532 38.9598C58.4964 38.7915 58.4051 38.5726 58.3957 38.3428V38.3428ZM87.5481 32.934C87.4328 32.839 87.4346 32.6019 87.382 32.4302C87.565 32.4399 87.8049 32.3776 87.9225 32.4702C89.0123 33.3302 90.085 34.2122 91.15 35.103C91.2455 35.2204 91.3015 35.365 91.3098 35.5161C91.3164 35.555 91.1728 35.6194 91.0999 35.671C90.9795 35.6269 90.864 35.5707 90.7551 35.5031C89.6803 34.6531 88.6047 33.8047 87.5481 32.9334V32.934ZM82.0451 29.9392C82.0365 29.9122 82.1814 29.8365 82.2847 29.7623C82.7235 29.9698 83.1725 30.139 83.5765 30.3825C84.339 30.8421 85.0827 31.3342 85.8163 31.8393C85.9317 31.9188 85.9526 32.1359 86.0172 32.2894C85.8373 32.3117 85.6114 32.4154 85.4845 32.3434C84.4013 31.7277 83.3308 31.0901 82.273 30.4307C82.1426 30.3494 82.0999 30.1127 82.0451 29.939V29.9392ZM54.1912 43.0744C54.2027 42.5669 54.7278 41.8592 55.2099 41.7012C55.7183 41.5348 56.276 42.0577 56.188 42.6544C56.1537 42.9338 56.0466 43.1993 55.8775 43.4244C55.7083 43.6494 55.483 43.8261 55.2242 43.9367C54.7102 44.17 54.1768 43.7127 54.1912 43.0742V43.0744ZM73.8488 28.4888C74.8431 28.6145 75.7706 29.0571 76.4938 29.751C76.5449 29.8168 76.5791 29.8941 76.5933 29.9762C76.6076 30.0583 76.6015 30.1427 76.5755 30.2219C76.5132 30.3436 76.2956 30.3856 76.1696 30.4498C75.1213 30.2017 74.2499 29.743 73.5713 28.9804C73.3375 28.7187 73.4967 28.4391 73.8488 28.4888ZM62.1742 34.1788C62.1602 33.6232 62.7689 32.9311 63.2647 32.9399C63.6746 32.9472 64.1151 33.4297 64.1168 33.872C64.1186 34.3861 63.501 35.0336 63.0131 35.0304C62.7919 35.0193 62.583 34.9257 62.4276 34.768C62.2722 34.6103 62.1817 34.4 62.1738 34.1788H62.1742ZM95.3443 80.5781L95.4737 80.6707C95.4363 80.8255 95.4457 81.0206 95.3541 81.1286C94.4783 82.157 93.5895 83.1743 92.6878 84.1804C92.6039 84.274 92.39 84.2515 92.2365 84.2828C92.2613 84.1401 92.2375 83.9562 92.3182 83.8607C93.1788 82.8446 94.0504 81.8379 94.9331 80.8405C95.0573 80.7343 95.1957 80.646 95.3443 80.5781V80.5781ZM67.3274 86.4613C67.4186 86.8826 67.0195 87.3059 66.5437 87.2934C66.0373 87.2803 65.3458 86.6939 65.2534 86.1993C65.179 85.8001 65.5543 85.411 66.0177 85.4071C66.5448 85.4026 67.2145 85.9416 67.3274 86.4613ZM62.1094 83.3602C62.1895 83.7769 61.7989 84.1829 61.3537 84.1451C60.861 84.1031 60.1627 83.4848 60.0707 83.009C59.9901 82.5914 60.3702 82.2032 60.8333 82.2302C61.339 82.2596 62.0122 82.8561 62.109 83.3602H62.1094ZM69.452 29.8111C69.3336 29.4144 69.5713 29.1341 70.0777 29.1349C70.7534 29.202 71.2825 29.6056 71.6749 30.1802C71.917 30.5348 71.6171 30.9417 71.1273 30.9791C70.5786 31.021 69.6113 30.3466 69.4516 29.8111H69.452ZM92.3993 36.1793C92.2882 36.0534 92.3066 35.8131 92.2649 35.6258C92.4302 35.7018 92.6373 35.7378 92.7539 35.8602C93.6441 36.7951 94.5229 37.7408 95.3903 38.6973C95.5021 38.8498 95.5967 39.014 95.6726 39.1871L95.5352 39.3357C95.3713 39.2536 95.1677 39.209 95.05 39.0839C94.1539 38.1269 93.2668 37.1617 92.3993 36.1793ZM76.6947 28.2025C76.732 28.1235 76.7689 28.0446 76.8053 27.9657C77.3488 28.144 77.9062 28.289 78.4318 28.5097C78.9765 28.7487 79.5061 29.0206 80.0177 29.3239C80.1157 29.3798 80.1287 29.5818 80.1809 29.7157C80.0752 29.7437 79.9467 29.8268 79.8674 29.7931C78.8841 29.3757 77.9063 28.946 76.9337 28.5039C76.8296 28.4566 76.7736 28.3051 76.6947 28.2019V28.2025ZM90.8718 84.9334C90.7979 85.5823 88.4983 87.6787 87.7055 87.8196C87.6792 87.2244 90.0684 85.0466 90.8718 84.9334ZM98.8528 76.1722C98.3025 77.6175 97.5061 78.9566 96.4989 80.1302L96.2484 79.9703C97.0085 78.6344 97.6939 77.2509 98.8528 76.1722ZM71.4544 89.1254C71.4198 89.5699 71.1142 89.7998 70.7022 89.8411C70.304 89.881 69.6786 89.2781 69.6946 88.8814C69.7132 88.4232 70.0171 88.2288 70.386 88.1888C70.9118 88.1944 71.4868 88.707 71.4544 89.1254ZM49.8794 48.5028C49.8856 47.7682 50.406 47.0924 50.7846 47.2187C50.9243 47.2847 51.0477 47.3808 51.1459 47.5002C51.2441 47.6195 51.3146 47.7592 51.3523 47.909C51.4441 48.3813 50.8294 49.0907 50.4567 48.982C50.1958 48.9053 49.9989 48.6079 49.8794 48.5028ZM82.7235 89.3452C82.6429 89.7142 80.8845 91.0083 80.3677 90.9685C80.3677 90.8199 80.2977 90.5702 80.3787 90.504C81.0035 89.9914 81.6522 89.5069 82.3087 89.0355C82.3872 88.9795 82.5703 89.0273 82.682 89.0774C82.7284 89.0986 82.7424 89.2587 82.7235 89.3452ZM78.0723 89.7135C78.2683 89.7082 78.4703 89.874 78.611 89.9364C78.6069 90.4805 77.4756 91.5027 77.1136 91.3871C76.9683 91.3409 76.8005 91.0357 76.8197 90.868C76.8685 90.4198 77.6293 89.7254 78.0723 89.7135V89.7135ZM65.0155 30.643C65.0592 30.1811 65.2904 29.912 65.7424 29.9403C65.8427 29.94 65.9421 29.9602 66.0343 29.9998C66.1265 30.0393 66.2097 30.0973 66.2786 30.1702C66.3475 30.2432 66.4008 30.3294 66.4351 30.4237C66.4694 30.518 66.484 30.6184 66.4781 30.7185C66.4836 30.8141 66.4681 30.9097 66.4326 30.9986C66.3972 31.0875 66.3426 31.1675 66.2728 31.233C66.203 31.2984 66.1197 31.3478 66.0287 31.3775C65.9377 31.4072 65.8413 31.4166 65.7463 31.405C65.6478 31.4045 65.5504 31.3842 65.4599 31.3454C65.3694 31.3066 65.2876 31.2499 65.2194 31.1788C65.1512 31.1077 65.098 31.0237 65.0629 30.9316C65.0278 30.8396 65.0116 30.7414 65.0152 30.643H65.0155ZM56.1458 79.7836C56.0963 79.8998 56.0211 80.0032 55.9259 80.0862C55.8306 80.1691 55.7178 80.2293 55.5959 80.2623C55.2196 80.3355 54.6487 79.6845 54.6491 79.1032C54.7663 79.0226 54.951 78.8029 55.1657 78.7683C55.5449 78.707 56.2484 79.4276 56.1458 79.7836ZM85.7327 88.6421C85.5596 89.2381 83.8761 90.4215 83.0588 90.5621C83.1088 90.0314 84.8083 88.7905 85.7323 88.6422L85.7327 88.6421ZM74.153 27.8763C73.433 27.6228 72.5904 27.7328 71.9506 27.0993C72.5563 26.7924 73.8768 27.2377 74.153 27.8763ZM81.8462 29.0724C80.9208 29.05 80.1588 28.6068 79.4228 28.0953C80.3168 28.1422 81.1697 28.486 81.8462 29.0724V29.0724ZM69.4554 27.4161C69.4873 27.3347 69.6323 27.2976 69.7689 27.2167C70.1915 27.4182 70.6225 27.6069 71.0313 27.8341C71.1046 27.8747 71.1311 28.086 71.0997 28.1966C71.0668 28.2407 71.0229 28.2755 70.9725 28.2975C70.9221 28.3196 70.8668 28.3282 70.812 28.3225C70.381 28.1415 69.9584 27.9388 69.5458 27.7174C69.5062 27.6791 69.4771 27.6313 69.4613 27.5786C69.4455 27.5258 69.4434 27.4699 69.4554 27.4161V27.4161ZM73.5745 90.5753C73.7737 90.5561 74.0025 90.8455 74.3907 91.121C73.9739 91.3869 73.7293 91.661 73.4917 91.6551C73.312 91.6506 72.9879 91.2712 73.0075 91.0894C73.0296 90.888 73.3575 90.5963 73.5745 90.5753ZM87.03 31.7095C86.2442 31.2211 85.4587 30.7325 84.5796 30.1858C85.1903 30.0731 86.7889 30.9737 87.1451 31.5228C87.1067 31.5849 87.0684 31.6472 87.03 31.7095ZM67.1905 28.6467C66.9682 28.4914 66.7592 28.3178 66.5657 28.1277C66.6601 28.0261 66.7916 27.8218 66.8428 27.8403C67.1325 27.9663 67.4131 28.1124 67.6824 28.2775C67.4223 28.4777 67.2373 28.6752 67.1905 28.6467ZM76.8544 92.4845L78.02 91.7428C77.9966 92.371 77.5207 92.7111 76.9518 92.6576L76.8544 92.4845ZM60.6574 31.3071C60.7632 31.1634 60.9007 31.046 61.0593 30.9641C61.0992 30.9436 61.2311 31.102 61.3908 31.2374C61.2341 31.3746 61.0643 31.4959 60.8838 31.5996C60.8558 31.6125 60.635 31.3379 60.6574 31.3071Z" fill="url(#paint0_radial_2811:1040)"/>
<defs>
<radialGradient id="paint0_radial_2811:1040" cx="0" cy="0" r="1" gradientUnits="userSpaceOnUse" gradientTransform="translate(101.573 46.3417) scale(32.4432)">
<stop stop-color="#E7322A"/>
<stop offset="1" stop-color="#EE7413"/>
</radialGradient>
</defs>
</svg>
