<svg viewBox="0 0 150 150" fill="none" xmlns="http://www.w3.org/2000/svg">
<rect width="150" height="150" fill="black"/>
<path fill-rule="evenodd" clip-rule="evenodd" d="M66.2985 42V73.3073H46.8281L65.2185 42H66.2985Z" fill="#479C4A"/>
<path fill-rule="evenodd" clip-rule="evenodd" d="M66.2994 86.7754V90.624H36.6582L38.9183 86.7754H66.2994Z" fill="#479C4A"/>
<path fill-rule="evenodd" clip-rule="evenodd" d="M21 42H48.6114L21 90.4447V42Z" fill="#EC7E15"/>
<path fill-rule="evenodd" clip-rule="evenodd" d="M113.233 48.3713C115.861 48.3792 118.444 49.0534 120.741 50.331C123.037 51.6086 124.972 53.4477 126.365 55.6765C127.173 57.3253 127.794 59.0601 128.213 60.848V42H106.734C112.602 42.5889 118.062 45.2715 122.114 49.5567C119.306 47.2253 115.771 45.9489 112.121 45.9484C108.471 45.9479 104.935 47.2232 102.126 49.5539C99.3174 51.8845 97.4115 55.1237 96.7384 58.7111C96.0653 62.2985 96.6674 66.0083 98.4406 69.1986C98.9563 70.3027 99.7759 71.237 100.803 71.8921C101.831 72.5472 103.024 72.896 104.242 72.8977C100.695 73.4872 97.0538 72.8294 93.9371 71.0363C90.8205 69.2432 88.4214 66.4257 87.1481 63.063C85.8748 59.7003 85.8061 56.0004 86.9535 52.5927C88.1009 49.185 90.3936 46.2802 93.4415 44.3726C96.0584 43.0909 98.8835 42.2876 101.783 42.0005H79.7656V64.0048C80.3544 58.1365 83.0368 52.6765 87.3219 48.6242C84.9898 51.4324 83.7129 54.9676 83.7121 58.6179C83.7114 62.2682 84.9868 65.8039 87.3177 68.6131C89.6487 71.4223 92.8883 73.3281 96.4761 74.0009C100.064 74.6736 103.774 74.0709 106.964 72.297C108.068 71.7814 109.003 70.9619 109.658 69.9345C110.313 68.9071 110.662 67.7143 110.663 66.4958C111.254 70.0433 110.597 73.6858 108.804 76.8032C107.011 79.9207 104.193 82.3204 100.83 83.5938C97.4662 84.8672 93.7655 84.9356 90.3575 83.7873C86.9494 82.6391 84.0447 80.3451 82.1377 77.296C80.8558 74.6795 80.0527 71.8546 79.7662 68.955V90.6224H99.4277C94.4405 89.6272 89.8851 87.109 86.3896 83.4152C89.198 85.7469 92.7331 87.0235 96.3832 87.0241C100.033 87.0246 103.569 85.7492 106.378 83.4184C109.187 81.0876 111.093 77.8481 111.766 74.2605C112.439 70.6729 111.836 66.963 110.063 63.7726C109.547 62.6687 108.727 61.7345 107.7 61.0794C106.672 60.4243 105.479 60.0754 104.261 60.0736C107.808 59.4829 111.451 60.1399 114.568 61.9329C117.686 63.7259 120.086 66.544 121.359 69.9073C122.633 73.2707 122.701 76.9715 121.553 80.3796C120.404 83.7877 118.11 86.6924 115.061 88.5993C113.162 89.53 111.15 90.2099 109.076 90.6219H128.213V72.1213C127.114 76.7961 124.669 81.0465 121.181 84.3477C123.513 81.5395 124.79 78.0044 124.791 74.3542C124.791 70.704 123.516 67.1684 121.185 64.3594C118.854 61.5503 115.615 59.6445 112.027 58.9718C108.439 58.299 104.729 58.9017 101.539 60.6755C100.435 61.1911 99.5006 62.0106 98.8455 63.038C98.1904 64.0654 97.8415 65.2582 97.8398 66.4767C97.4663 64.2443 97.5849 61.9573 98.1873 59.7755C98.7898 57.5937 99.8615 55.5699 101.328 53.8455C102.794 52.121 104.619 50.7377 106.675 49.7922C108.732 48.8466 110.97 48.3617 113.233 48.3713V48.3713ZM98.8471 66.4773C98.8483 65.0432 99.419 63.6682 100.434 62.6547C101.448 61.6412 102.824 61.0722 104.258 61.0728C105.692 61.0734 107.068 61.6435 108.081 62.6578C109.095 63.6721 109.665 65.0476 109.665 66.4817C109.665 67.9159 109.095 69.2913 108.081 70.3056C107.068 71.3199 105.692 71.89 104.258 71.8906C102.824 71.8912 101.448 71.3222 100.434 70.3087C99.419 69.2952 98.8483 67.9202 98.8471 66.4861V66.4773Z" fill="#DF047A"/>
<path fill-rule="evenodd" clip-rule="evenodd" d="M30.7012 98.1797L28.8164 102.633H32.6693L30.7428 98.1797H30.7012Z" fill="#F9F252"/>
<path fill-rule="evenodd" clip-rule="evenodd" d="M69.4354 98.1797L67.5508 102.633H71.4035L69.4771 98.1797H69.4354Z" fill="#F9F252"/>
<path fill-rule="evenodd" clip-rule="evenodd" d="M21 93.9434V108.46H128.214V93.9434H21ZM34.3054 106.399L33.4976 104.632H27.9254L27.1588 106.399H22.8498L27.511 96.1202H33.8081L38.5307 106.399H34.3054ZM50.0178 98.5046H45.8336V106.399H41.6907V98.5046H37.713V96.1202H50.0178V98.5046ZM61.4322 106.399H50.8047V96.1202H54.9477V104.015H61.4317L61.4322 106.399ZM73.039 106.399L72.2312 104.632H66.6586L65.8919 106.399H61.5836L66.2447 96.1196H72.5413L77.2648 106.399H73.039ZM93.2049 106.399H86.1412L81.7496 98.5046H81.583L81.8322 106.399H77.6892V96.1202H84.6906L89.1438 104.015H89.3103L89.0611 96.1202H93.205L93.2049 106.399ZM106.204 98.5046H102.019V106.399H97.8747V98.5046H93.8982V96.1202H106.202L106.204 98.5046ZM111.217 106.399H107.073V96.1202H111.216L111.217 106.399ZM126.484 102.809C126.484 103.932 126.463 104.946 125.054 105.728C123.645 106.495 121.927 106.482 120.125 106.482C115.898 106.482 112.811 106.344 112.811 102.59V99.9308C112.811 96.5311 115.567 96.0381 120.125 96.0381C124.392 96.0381 126.38 96.3253 126.463 99.4096V99.8076H122.196V99.4096C122.05 98.4911 121.077 98.4233 119.668 98.4233C117.307 98.4233 117.078 98.9026 117.078 100.369V101.973C117.078 103.509 117.182 104.098 119.668 104.098C121.388 104.098 122.216 104.016 122.216 102.81V102.508H126.484V102.809Z" fill="#F9F252"/>
</svg>
