<svg viewBox="0 0 150 150" fill="none" xmlns="http://www.w3.org/2000/svg">
<rect width="150" height="150" fill="black"/>
<path d="M109.698 95.1686C109.346 93.8581 108.731 92.7371 107.504 92.0475C106.371 91.411 105.151 91.3226 103.903 91.4984C101.737 91.8044 99.7874 92.7007 97.924 93.806C97.2028 94.2338 96.5007 94.6945 95.7442 95.1689C95.894 94.7271 96.0388 94.3387 96.158 93.942C97.1219 90.739 97.8675 87.5045 97.4515 84.1194C97.285 82.7663 96.9258 81.4578 96.1894 80.3061C95.6826 79.513 95.0484 78.802 94.4725 78.056C95.6729 77.7522 96.9397 77.4635 98.1878 77.108C100.201 76.5349 102.207 75.9354 104.206 75.3095C104.773 75.1319 105.395 74.9458 105.715 74.3755C105.99 73.8998 106.209 73.3938 106.368 72.8675C106.733 71.5951 106.696 70.298 106.454 69.0058C106.082 67.0237 105.344 65.2201 103.798 63.8614C102.838 63.0182 101.699 62.6218 100.43 62.9339C99.502 63.1486 98.5947 63.4449 97.7186 63.8195C95.5689 64.7764 93.4533 65.8079 91.325 66.8121C90.9644 66.9825 90.6089 67.1658 90.2482 67.3447C90.2323 67.2996 90.2216 67.2844 90.2253 67.2782C91.4544 65.2572 92.2967 63.023 92.7088 60.6907C92.7249 60.6167 92.7564 60.547 92.8012 60.4861C92.846 60.4252 92.9031 60.3745 92.9687 60.3373C95.609 59.2454 97.1043 57.1913 97.7681 54.4845C98.2073 52.6937 97.9507 50.9373 97.2297 49.2528C96.4132 47.3454 95.2319 45.7486 93.3614 44.7516C93.2645 44.6912 93.1873 44.6036 93.1395 44.4996C92.8174 43.8444 92.527 43.1738 92.1874 42.5287C90.8944 40.0225 89.1037 37.8095 86.9262 36.0265C86.7386 35.8669 86.6004 35.6567 86.5279 35.4207C85.9418 33.4259 85.4336 31.4056 84.787 29.4318C84.4009 28.2715 83.9039 27.1515 83.3031 26.0875C82.7344 25.0734 82.0483 24.6948 81.0485 25.2688C80.7476 25.4457 80.4775 25.6708 80.2488 25.9353C79.161 27.1818 78.4787 28.6678 77.8311 30.1717C77.5716 30.7742 77.323 31.3818 77.0683 31.9896C76.569 31.9478 76.1015 31.8851 75.6326 31.8743C73.6643 31.8131 71.6948 31.9419 69.751 32.2588C66.8329 32.7481 63.9841 33.5887 61.266 34.7627C61.2302 34.7855 61.1901 34.8008 61.1481 34.8076C61.1062 34.8143 61.0634 34.8124 61.0223 34.802C60.9811 34.7915 60.9425 34.7728 60.9088 34.7469C60.8751 34.7209 60.847 34.6884 60.8262 34.6512C60.3247 34.033 59.8343 33.4036 59.2979 32.8169C58.6044 32.0593 57.8694 31.3439 56.9526 30.8488C55.8457 30.2516 54.8562 30.5421 54.4529 31.6833C54.1523 32.4795 53.9511 33.31 53.8536 34.1558C53.6793 36.0692 53.6196 37.9929 53.5052 39.9121C53.504 40.0561 53.4579 40.196 53.3733 40.3122C51.935 41.8898 50.7751 43.7027 49.9438 45.6727C49.0268 47.8266 48.4935 50.1257 48.3684 52.4652C48.3148 53.4225 48.2092 54.3262 47.7998 55.2377C47.1916 56.5743 46.9391 58.0468 47.0672 59.511C47.3546 62.7245 48.9717 65.0457 51.8158 66.4987C52.9029 67.054 54.0752 67.3051 55.2921 67.0791C55.903 66.9656 56.4915 66.7306 57.1152 66.5422C58.0337 68.2066 59.1871 69.7286 60.5395 71.0608C61.924 72.3998 63.4852 73.5408 65.1793 74.4518C63.4608 74.41 61.7582 74.3112 60.0543 74.2716C57.6054 74.2146 55.1556 74.1706 52.7065 74.1789C50.959 74.1846 49.2099 74.2645 47.464 74.3536C46.7362 74.3906 45.9835 74.5051 45.5191 75.1725C45.0686 75.8198 44.5646 76.4626 44.2768 77.1851C43.306 79.624 43.195 82.1182 44.2058 84.5758C44.8715 86.1944 46.1527 87.3011 48.0911 87.2683C50.2553 87.2316 52.3742 86.8376 54.4898 86.4409C56.513 86.0615 58.5233 85.6128 60.5398 85.1973C61 85.1025 61.4624 85.019 61.9937 84.9168C60.6855 86.8008 59.6482 88.8609 58.9123 91.0361C56.8112 90.8759 54.7594 90.6995 52.7048 90.5679C49.8308 90.3838 46.9643 90.427 44.1385 91.0723C43.0741 91.3155 42.0355 91.652 41.1133 92.2641C40.5862 92.5939 40.2096 93.1191 40.065 93.726C39.9203 94.333 40.0193 94.9727 40.3405 95.5068C40.9952 96.6469 42.3138 97.0068 43.5285 96.4356C44.1569 96.1402 44.8159 95.8297 45.4906 95.732C46.9677 95.5122 48.4559 95.3752 49.9481 95.3214C51.2644 95.2796 52.5882 95.3812 53.9046 95.4747C55.2553 95.5707 56.6013 95.7335 57.956 95.8676C57.6845 101.948 60.224 106.791 64.2323 110.971C63.1089 110.525 61.9845 110.026 60.8266 109.628C58.5831 108.857 56.2937 108.312 53.8998 108.756C52.291 109.054 50.9719 109.805 50.2416 111.369C49.5767 112.794 49.5929 114.279 49.8507 115.785C50.0936 117.204 50.5632 118.552 51.1074 119.879C51.2345 120.189 51.3614 120.436 51.7268 120.474C53.3045 120.64 54.8782 120.884 56.46 120.957C58.1251 121.035 59.7998 120.996 61.4667 120.924C63.3359 120.843 65.2027 120.709 67.067 120.523C68.8875 120.341 70.7035 120.1 72.5125 119.825C73.4929 119.659 74.464 119.442 75.4219 119.174C76.0012 119.022 76.127 118.783 76.0396 118.184C75.9774 117.715 75.886 117.25 75.766 116.792C75.0402 114.168 74.2925 111.55 73.5654 108.926C72.7456 105.968 72.0227 102.987 71.5476 99.9501C71.4532 99.3465 71.3912 98.738 71.3097 98.0966C73.351 98.3359 75.2886 98.3196 77.1624 97.5874C78.4475 97.1119 79.554 96.2469 80.3289 95.112C81.68 93.1065 81.9214 90.8479 81.6664 88.5096C81.5646 87.5756 81.3675 86.6522 81.2 85.6404C81.7906 85.8262 82.3598 85.9765 82.9079 86.1831C83.8612 86.5288 84.7369 87.0609 85.4844 87.7488C86.2319 88.4367 86.8363 89.2667 87.2628 90.1908C88.2021 92.155 88.5318 94.2722 88.514 96.4226C88.4973 98.4529 88.3158 100.481 88.2278 102.512C88.1955 103.107 88.2136 103.704 88.2817 104.297C88.3121 104.422 88.3691 104.54 88.4489 104.642C88.5287 104.743 88.6294 104.826 88.7441 104.885C89.2481 105.106 89.7712 105.279 90.3067 105.404C92.5238 105.941 94.7821 105.927 97.0218 105.699C99.1185 105.485 101.204 105.123 103.279 104.74C105.175 104.37 107.033 103.823 108.829 103.106C109.01 103.036 109.234 102.841 109.27 102.668C109.501 101.572 109.723 100.472 109.872 99.3627C110.061 97.9601 110.07 96.5537 109.698 95.1686ZM51.2722 51.1696C51.5744 48.8705 52.349 46.6597 53.5467 44.6775C53.6356 46.7923 53.7206 48.8116 53.8081 50.8918C52.9607 50.6504 52.1491 50.8569 51.2722 51.1696ZM76.1081 34.6725C75.7259 35.8742 75.3717 36.9886 75.0031 38.1475C71.4097 37.915 68.0168 38.7073 64.8221 40.3893L62.6834 37.1323C66.9899 35.412 71.3902 34.3707 76.1081 34.6725ZM76.8605 90.9817C76.7161 92.2327 75.9065 93.0756 74.6681 93.2622C73.5234 93.4149 72.3618 93.3842 71.2267 93.1712C71.291 90.0344 72.7068 86.5541 76.1085 85.6773C76.6584 87.4221 77.0713 89.155 76.8605 90.9817ZM87.0056 66.9974C86.1768 66.9974 85.3853 66.9897 84.5941 67.0019C84.3402 67.0058 84.254 66.8715 84.1687 66.6645C83.5425 65.1457 82.9095 63.6298 82.2698 62.1167C82.2124 62.0048 82.1482 61.8965 82.0776 61.7925C81.901 62.7483 81.7338 63.6536 81.5665 64.5589C81.4316 65.2892 81.283 66.0173 81.1693 66.7511C81.169 66.798 81.1589 66.8444 81.1398 66.8872C81.1206 66.93 81.0928 66.9683 81.058 66.9997C81.0233 67.0311 80.9824 67.0548 80.938 67.0694C80.8937 67.084 80.8467 67.0892 80.8003 67.0845C78.8276 67.1981 76.8733 67.5291 74.9725 68.0714C74.0698 68.3172 73.1875 68.639 72.2551 68.9394L69.158 65.1334L69.0853 65.1613C69.147 65.7413 69.2129 66.321 69.2698 66.9013C69.3714 67.9384 69.4739 68.9757 69.5575 70.0143C69.5572 70.0804 69.5423 70.1456 69.5139 70.2053C69.4855 70.2649 69.4444 70.3175 69.3935 70.3594C68.6251 70.8752 67.8442 71.3732 67.0399 71.894C64.3959 69.0727 62.7253 65.5915 61.0004 62.0394L65.0126 59.6702C66.1867 60.9788 67.3166 62.238 68.517 63.5759C68.2487 61.8261 67.9966 60.1805 67.7343 58.4699C68.7731 58.1043 69.8113 57.7177 70.8633 57.3734C73.192 56.6109 75.5799 56.086 77.9853 55.6385C78.421 55.5575 78.864 55.5143 79.2983 55.4265C79.5733 55.3707 79.698 55.4696 79.8262 55.712C80.5008 56.9878 81.1993 58.2513 81.9694 59.5198C82.1023 58.0307 82.2351 56.5418 82.3736 54.9912L88.5536 54.6452C88.9423 56.8884 87.9281 64.7227 87.0056 66.9974ZM88.5691 45.0676L87.7203 40.796L87.8322 40.7291L90.0729 44.2781L88.5691 45.0676Z" fill="white"/>
</svg>
