<svg viewBox="0 0 150 150" fill="none" xmlns="http://www.w3.org/2000/svg">
<rect width="150" height="150" fill="white"/>
<path d="M82.1933 77.569C82.2224 77.8311 82.0906 77.9858 81.8358 78.0427C81.256 78.1517 80.7035 78.3751 80.2103 78.7C80.2005 78.7076 80.1887 78.7122 80.1762 78.713C79.6668 78.6823 79.5171 79.0857 79.3053 79.4243C79.1899 79.6004 79.0341 79.7462 78.8509 79.8494C78.6837 79.9485 78.4032 79.9632 78.5838 80.2927C78.6373 80.3899 78.5107 80.4905 78.4103 80.5451C78.3028 80.6035 78.1869 80.6469 78.0804 80.707C77.7575 80.8891 77.7461 80.9547 77.9972 81.2765C77.4248 81.3234 77.0368 80.9167 77.1325 80.3924C77.178 80.1636 77.2378 79.9378 77.3116 79.7164C77.4078 79.4133 77.5913 79.1366 77.4266 78.7857C77.3467 78.6155 77.4637 78.4222 77.5881 78.2803C78.214 77.5661 78.4564 76.6977 78.5905 75.7872C78.5901 75.7234 78.6061 75.6607 78.6369 75.6049C78.6677 75.5491 78.7123 75.5023 78.7664 75.4688C78.9302 75.366 78.9502 75.1569 78.9658 74.9734C78.9953 74.6301 79.0061 74.2852 79.0361 73.9419C79.0459 73.7951 79.075 73.6504 79.1225 73.5112C79.1989 73.3028 79.3894 73.1481 79.2783 72.8683C79.1398 72.5172 78.9974 72.178 78.666 71.9761C78.1258 71.6472 77.7103 71.173 77.1643 70.7495H88.4137C88.3558 70.9239 88.3607 71.1132 88.4276 71.2844C88.4985 71.4388 88.3835 71.5698 88.283 71.6752C88.0309 71.9458 87.8482 72.2738 87.7508 72.631C87.6476 72.9811 87.4219 73.2591 87.2116 73.5465C87.1027 73.6956 86.959 73.7042 86.7883 73.7004C86.4801 73.6788 86.1722 73.7475 85.9021 73.898C85.632 74.0486 85.4113 74.2746 85.2668 74.5485C84.5881 75.7469 83.6855 76.7018 82.3871 77.2274C82.3168 77.2477 82.2571 77.2948 82.2209 77.3586C82.1847 77.4225 82.1748 77.4979 82.1933 77.569V77.569ZM48.6683 62.5117C48.642 63.4342 48.6622 64.3579 48.6573 65.2812C48.6573 65.3669 48.7147 65.4781 48.5881 65.5461C47.4097 64.2069 46.2313 62.8686 45.0531 61.5313C44.9747 61.4425 44.9179 61.3146 44.7729 61.3143C44.0326 61.3128 43.2922 61.3143 42.5191 61.3143C42.9485 61.9307 42.9485 61.9307 42.9485 62.6638C42.9485 64.1286 42.9568 65.5936 42.9445 67.0583C42.9395 67.6508 43.1284 68.2983 42.4533 68.7711H45.1746C44.5572 68.3949 44.6635 67.8681 44.6608 67.3727C44.6592 67.065 44.6608 66.7573 44.6608 66.4494V64.3977C44.7838 64.5284 44.8492 64.5962 44.9128 64.6655C45.8776 65.7162 46.8943 66.7249 47.789 67.8329C48.4046 68.5946 49.0735 68.9533 50.0435 68.808C50.3067 68.7684 50.3898 68.7309 50.3872 68.4545C50.3746 66.5711 50.3793 64.6876 50.3815 62.8042C50.3815 62.288 50.2621 61.7372 50.8822 61.3317H48.1896C48.6238 61.6716 48.6807 62.0661 48.6683 62.5117ZM39.4449 66.0194C39.4552 64.8743 39.4631 63.7288 39.4391 62.584C39.4295 62.1218 39.4729 61.7088 39.8442 61.39C39.852 61.3833 39.835 61.3476 39.8279 61.3182H36.8474C36.9496 61.6189 37.2554 61.742 37.2508 62.0748C37.2332 63.3921 37.2543 64.71 37.2377 66.0274C37.2277 66.8242 36.7738 67.269 35.9752 67.3178C35.8156 67.3266 35.6557 67.3271 35.4961 67.3193C34.6401 67.2831 34.1883 66.82 34.1844 65.9636C34.1794 64.843 34.1963 63.7222 34.1766 62.6017C34.1686 62.147 34.1755 61.7205 34.5553 61.3981C34.5641 61.3906 34.5478 61.3536 34.5438 61.3333H31.5683C31.9741 61.9467 31.9737 61.9467 31.9741 62.7335C31.9741 63.9032 31.9652 65.0732 31.9798 66.2428C31.9974 67.6422 32.6697 68.4843 34.0297 68.7779C35.0422 68.9979 36.0881 69.0145 37.1071 68.8268C38.7966 68.5167 39.4298 67.7446 39.4446 66.0194H39.4449ZM96.4995 66.7766C96.5611 65.9405 96.1703 65.3375 95.4898 64.8986C94.9157 64.5284 94.2741 64.3246 93.6221 64.1443C93.1738 64.0204 92.7182 63.9081 92.3142 63.6654C92.1416 63.5616 91.9973 63.4209 92.0233 63.191C92.0497 62.9575 92.2271 62.8704 92.4207 62.8081C92.7784 62.713 93.1531 62.7013 93.5161 62.7738C94.4109 62.9085 95.2825 63.1684 96.1054 63.5459V61.1493C96.0657 61.148 96.0265 61.1582 95.9925 61.1788C95.9585 61.1994 95.9311 61.2293 95.9136 61.2651C95.6816 61.6012 95.4139 61.603 95.0392 61.4743C93.7536 61.0333 92.4434 60.935 91.1415 61.4107C90.3827 61.6886 89.8179 62.1723 89.7269 63.039C89.6299 63.961 89.988 64.6708 90.7746 65.1583C91.4332 65.5407 92.1459 65.8207 92.8883 65.9886C93.2248 66.0586 93.5508 66.1724 93.8579 66.327C93.9478 66.3695 94.0228 66.4384 94.0729 66.5245C94.123 66.6107 94.1459 66.71 94.1385 66.8095C94.1329 66.9088 94.0982 67.0041 94.0385 67.0836C93.9789 67.163 93.8972 67.2229 93.8036 67.2557C93.563 67.3513 93.3032 67.3881 93.0457 67.3631C92.5068 67.3246 91.9743 67.2236 91.4587 67.062C90.8728 66.8679 90.3087 66.613 89.7757 66.3015V69.0045C89.8786 68.9081 89.9735 68.8034 90.0593 68.6913C90.2359 68.4078 90.4523 68.4067 90.7455 68.5107C91.1503 68.6531 91.5652 68.7649 91.9866 68.8453C93.0622 69.0511 94.1361 69.0939 95.1738 68.6562C95.9991 68.3072 96.4337 67.665 96.4992 66.7766H96.4995ZM75.9713 61.303C73.8812 61.3169 71.791 61.3096 69.7008 61.3123C69.5976 61.3123 69.4847 61.2748 69.3878 61.3503C69.7585 61.9858 69.7585 61.9858 69.7585 62.8515C69.7585 64.2435 69.7691 65.6356 69.7536 67.0275C69.7469 67.6298 69.9497 68.289 69.258 68.7937H71.5102C73.0101 68.7937 74.5102 68.7957 76.0102 68.7902C76.1324 68.7902 76.327 68.8818 76.3252 68.6188C76.3213 68.0239 76.3241 67.4291 76.3241 66.8341C75.9363 67.3181 75.4283 67.237 74.9423 67.235C74.3153 67.2321 73.6883 67.2374 73.0613 67.2332C72.7071 67.2308 72.2198 67.3546 72.0326 67.1729C71.7957 66.9433 71.9856 66.453 71.9514 66.0774C71.9316 65.8584 71.9929 65.769 72.2315 65.7817C72.6115 65.8022 72.9932 65.7848 73.3746 65.7879C73.9117 65.792 74.4847 65.6612 74.9022 66.2941V63.8816C74.6274 63.9978 74.5254 64.2993 74.2261 64.2983C73.5376 64.295 72.8491 64.2929 72.1605 64.3006C72.0008 64.3022 71.9449 64.256 71.9507 64.0922C71.9619 63.7727 71.967 63.4509 71.9495 63.1317C71.9374 62.9159 72.0162 62.8666 72.2194 62.8691C73.0676 62.8795 73.9161 62.8691 74.7643 62.8751C75.2998 62.8791 75.8753 62.7314 76.3245 63.3816C76.3245 62.7177 76.3076 62.192 76.3311 61.6681C76.3437 61.3804 76.2635 61.3012 75.971 61.303H75.9713ZM61.9157 61.3917C61.9226 61.3865 61.9053 61.3489 61.8996 61.3279H58.894C58.9559 61.4754 59.0032 61.5994 59.059 61.7191C59.9812 63.6999 60.9045 65.68 61.8291 67.6594C62.0052 68.0345 62.0725 68.5624 62.4002 68.7387C62.7257 68.9143 63.2148 68.7725 63.6301 68.7998C63.8577 68.815 63.9487 68.7148 64.0361 68.5286C65.1224 66.204 66.2117 63.8812 67.3041 61.5602C67.3355 61.4929 67.4208 61.4232 67.3564 61.3379H64.794C64.9165 61.4875 64.9997 61.6077 65.1016 61.709C65.1508 61.7539 65.1818 61.8153 65.1889 61.8816C65.1961 61.9479 65.1788 62.0145 65.1404 62.0689C64.5487 63.3499 63.9631 64.6338 63.375 65.9193C63.2466 65.8459 63.2318 65.7135 63.1835 65.6048C62.725 64.5728 62.2855 63.5322 61.807 62.5097C61.611 62.0923 61.4703 61.7263 61.9154 61.3917H61.9157ZM109.675 68.7936C111.985 68.7936 114.167 68.7936 116.349 68.7951C116.469 68.7951 116.529 68.7655 116.529 68.6316C116.525 68.0342 116.528 67.4369 116.528 66.8038C116.22 66.9445 116.075 67.2526 115.715 67.2433C114.709 67.2174 113.701 67.2244 112.694 67.241C112.427 67.2453 112.373 67.1576 112.376 66.9085C112.387 65.5552 112.378 64.2016 112.383 62.8483C112.385 62.3233 112.242 61.7579 112.865 61.3369H109.688C110.3 61.7259 110.185 62.2524 110.186 62.7448C110.188 64.209 110.192 65.6731 110.183 67.1372C110.18 67.7071 110.347 68.3243 109.675 68.7936H109.675ZM76.086 95.8124C75.6428 95.7405 75.4447 95.9418 75.2806 96.3264C74.9979 96.9879 74.6594 97.6257 74.3279 98.307C73.9086 97.5178 73.5107 96.7669 73.1099 96.0177C73.0665 95.9366 73.0536 95.8208 72.9196 95.8212C72.4919 95.8229 72.0643 95.8212 71.5384 95.8212C71.8686 96.0495 71.8442 96.3086 71.8431 96.5677C71.838 97.3915 71.8424 98.2154 71.8406 99.0394C71.8406 99.3283 71.9123 99.6359 71.5766 99.866H72.8808C72.5777 99.1541 72.8115 98.4255 72.7561 97.7127C73.1283 98.3464 73.4816 98.9769 73.7983 99.6247C73.9132 99.8601 74.0647 99.8805 74.2866 99.8917C74.5118 99.9029 74.5689 99.7744 74.6429 99.6174C74.9366 98.9933 75.2369 98.372 75.5347 97.7498L75.5912 97.7646C75.5912 98.1899 75.593 98.6152 75.5912 99.0405C75.5896 99.3292 75.6616 99.636 75.338 99.8661H76.9292C76.6739 99.6672 76.7332 99.3965 76.733 99.1437C76.7318 98.4491 76.7183 97.7537 76.7379 97.0599C76.7496 96.6445 76.5942 96.1976 76.9734 95.8211C76.6778 95.8405 76.3812 95.8376 76.086 95.8124V95.8124ZM24.9854 96.5839C24.9867 96.8122 24.9854 97.0403 24.9854 97.2685V98.1697C24.3103 97.4029 23.6893 96.6963 23.0663 95.9914C23.0092 95.927 22.9707 95.8263 22.8692 95.8247C22.4725 95.82 22.0757 95.8228 21.6011 95.8228C21.8781 96.0406 21.8903 96.2673 21.8873 96.5131C21.8772 97.3365 21.8848 98.16 21.8827 98.9835C21.8827 99.2898 21.9574 99.614 21.6417 99.8712H22.953C22.6704 99.119 22.8924 98.3421 22.803 97.5856L22.8796 97.5717C23.4425 98.1849 24.0263 98.7803 24.5599 99.4182C24.8608 99.7776 25.1813 99.9426 25.6492 99.8926C25.86 99.8701 25.9328 99.8419 25.9295 99.6122C25.9156 98.6201 25.9226 97.6278 25.9241 96.6357C25.9241 96.356 25.8577 96.0585 26.1935 95.8328H24.6838C25.0486 96.0426 24.9835 96.3221 24.9854 96.5839ZM53.7515 68.7745H57.0073C56.3401 68.3269 56.4992 67.72 56.4967 67.1596C56.4901 65.6462 56.5075 64.1325 56.4868 62.6193C56.4802 62.1477 56.5052 61.7173 56.8894 61.3874C56.8956 61.382 56.8755 61.3457 56.8755 61.3457H53.7642C54.3244 61.6976 54.2705 62.16 54.2687 62.6157C54.2622 64.1784 54.2687 65.7415 54.2651 67.3038C54.264 67.8197 54.3886 68.3735 53.7515 68.7745ZM126.474 96.2348C126.463 96.9789 126.465 97.7234 126.46 98.4676C126.463 98.5475 126.448 98.6272 126.416 98.7004C126.384 98.7737 126.336 98.8386 126.275 98.8902C125.947 99.1559 125.576 99.1466 125.207 99.0191C124.888 98.9089 124.808 98.6301 124.806 98.3227C124.803 97.8463 124.796 97.3697 124.808 96.8934C124.817 96.5323 124.698 96.1433 125.033 95.8399H123.355C123.621 96.0449 123.609 96.2901 123.606 96.5391C123.601 97.1743 123.595 97.8098 123.608 98.4448C123.625 99.3015 123.97 99.7143 124.804 99.8932C125.34 100.005 125.892 100.01 126.428 99.9058C127.293 99.745 127.645 99.3276 127.671 98.4341C127.688 97.8489 127.674 97.263 127.677 96.6774C127.678 96.3882 127.613 96.0833 127.918 95.8338H126.273C126.308 95.998 126.476 96.0649 126.474 96.2348ZM17.9688 95.8336C17.9929 95.9974 18.1692 96.0606 18.1667 96.2301C18.1552 96.9842 18.1567 97.7385 18.1497 98.4927C18.1514 98.5728 18.1341 98.6522 18.0992 98.7242C18.0642 98.7963 18.0126 98.8589 17.9487 98.907C17.6142 99.157 17.2431 99.1494 16.8768 99.0091C16.5606 98.888 16.4989 98.6014 16.498 98.2979C16.4964 97.8016 16.4926 97.3052 16.4991 96.809C16.5036 96.4745 16.406 96.1173 16.7376 95.8374H15C15.3592 96.0396 15.2957 96.3114 15.2965 96.5639C15.2988 97.1793 15.2907 97.7948 15.2993 98.4101C15.3119 99.3051 15.6756 99.747 16.5496 99.9068C17.0965 100.011 17.6587 100.004 18.2027 99.8854C18.9756 99.7136 19.3036 99.3514 19.3536 98.5577C19.3847 98.0633 19.349 97.5649 19.3735 97.0696C19.394 96.6528 19.2284 96.2068 19.5813 95.8332L17.9688 95.8336ZM82.1285 96.2675C82.1173 96.9718 82.1356 97.6767 82.1181 98.3809C82.1059 98.8753 81.8112 99.1033 81.2568 99.0949C80.7281 99.087 80.4673 98.851 80.4603 98.3524C80.4526 97.8267 80.4538 97.3006 80.4603 96.7748C80.4639 96.4503 80.3756 96.1049 80.6793 95.8396H78.9849C79.3024 96.0577 79.2582 96.3325 79.2584 96.597C79.2584 97.242 79.2476 97.8874 79.2674 98.5318C79.2915 99.314 79.6311 99.7062 80.3907 99.8793C80.9435 100.003 81.5157 100.012 82.0721 99.9056C82.9447 99.7459 83.309 99.2974 83.3187 98.4069C83.3248 97.881 83.3137 97.3549 83.3227 96.8291C83.3285 96.4875 83.2219 96.1217 83.5605 95.8254H81.9069C81.9677 96.0059 82.1317 96.0816 82.1285 96.2675V96.2675ZM53.5935 97.8153C53.2603 97.6012 52.8919 97.4479 52.5054 97.3626C52.2632 97.3127 52.0303 97.2252 51.815 97.1032C51.7651 97.0804 51.7238 97.0421 51.6972 96.9939C51.6706 96.9457 51.6602 96.8902 51.6675 96.8357C51.6877 96.7233 51.7756 96.6788 51.8731 96.6449C52.0543 96.592 52.2454 96.5824 52.431 96.6171C52.927 96.6957 53.4117 96.8346 53.8742 97.0308V95.7611C53.6803 96.0059 53.4864 95.9798 53.2273 95.8967C52.5249 95.6719 51.8102 95.6284 51.1074 95.917C50.7132 96.079 50.4467 96.3547 50.4083 96.7973C50.3831 97.0057 50.417 97.2169 50.5061 97.4069C50.5952 97.5968 50.7359 97.7576 50.9121 97.8709C51.1424 98.0256 51.3942 98.1452 51.6593 98.2258C51.9599 98.3231 52.2657 98.4046 52.5635 98.5092C52.7069 98.5595 52.8371 98.6559 52.8005 98.8393C52.7852 98.9134 52.7446 98.9797 52.6856 99.0268C52.6266 99.0739 52.553 99.0987 52.4776 99.097C52.2507 99.1171 52.022 99.1061 51.798 99.0644C51.3221 98.9675 50.8653 98.7927 50.446 98.5469V99.95C50.641 99.6231 50.8953 99.693 51.1671 99.8034C51.2881 99.8469 51.413 99.8788 51.5401 99.8986C52.1696 100.022 52.8016 100.077 53.4043 99.8001C53.592 99.7206 53.7547 99.5916 53.8753 99.4269C53.9958 99.2621 54.0697 99.0678 54.0891 98.8643C54.1085 98.6609 54.0727 98.456 53.9854 98.2713C53.8982 98.0866 53.7627 97.9291 53.5935 97.8153V97.8153ZM88.6542 97.7757C88.3382 97.5912 87.9975 97.4531 87.6424 97.3656C87.4336 97.3071 87.2282 97.237 87.0271 97.1557C86.9013 97.1034 86.7624 97.0263 86.7797 96.8576C86.7988 96.669 86.9685 96.647 87.1106 96.6139C87.2574 96.5885 87.4075 96.5897 87.5539 96.6175C88.0446 96.696 88.5242 96.833 88.9824 97.0257V95.6898C88.7747 96.0437 88.5431 95.9574 88.2921 95.8811C87.5931 95.6687 86.8897 95.6347 86.2024 95.9288C85.6956 96.1456 85.4714 96.5346 85.53 97.0602C85.5814 97.5197 85.8666 97.8051 86.2544 98.0077C86.6603 98.2199 87.1049 98.3209 87.5382 98.4558C87.7205 98.5126 87.9546 98.5658 87.9098 98.8361C87.8645 99.1104 87.63 99.1069 87.4205 99.107C86.835 99.0942 86.2617 98.9363 85.7519 98.6473C85.6894 98.6144 85.6354 98.5291 85.5512 98.5844V99.945C85.7756 99.5628 86.0729 99.739 86.3567 99.8211C86.461 99.8514 86.5657 99.8825 86.6723 99.9026C87.2817 100.018 87.8889 100.065 88.481 99.8193C88.6864 99.7423 88.8648 99.6064 88.9938 99.4286C89.1228 99.2507 89.1968 99.0388 89.2067 98.819C89.2484 98.3539 89.0355 98.0197 88.6542 97.7755V97.7757ZM41.6598 95.8162C40.8473 95.8261 40.0347 95.8206 39.2221 95.8206H38.0543C38.3846 96.0646 38.328 96.3518 38.3286 96.6232C38.3301 97.4771 38.325 98.3309 38.3317 99.1847C38.3337 99.4261 38.34 99.6595 38.0492 99.8825C39.3373 99.8825 40.5251 99.8825 41.7135 99.8825C41.8058 99.8825 41.8923 99.89 41.8899 99.7516C41.8843 99.4509 41.8882 99.15 41.8882 98.8321C41.7097 98.8877 41.6446 99.047 41.4682 99.0431C40.874 99.0292 40.2793 99.0356 39.6847 99.0401C39.56 99.041 39.5027 99.006 39.5103 98.8725C39.5187 98.7242 39.5151 98.5748 39.5111 98.4259C39.5085 98.3224 39.53 98.2453 39.6553 98.2614C40.1375 98.3236 40.6526 98.0958 41.1076 98.4651V97.2009C40.903 97.4747 40.6552 97.4589 40.4085 97.4509C40.2897 97.4473 40.1707 97.4509 40.0519 97.4509C39.4807 97.4509 39.4866 97.4509 39.5082 96.8719C39.5139 96.7177 39.5582 96.6635 39.7142 96.6667C40.1203 96.6752 40.5268 96.6656 40.933 96.6708C41.2569 96.6749 41.6001 96.5874 41.8887 96.9162C41.8887 96.5828 41.8777 96.3147 41.8926 96.048C41.9034 95.8632 41.8429 95.8139 41.6598 95.8162ZM108.745 98.0475C108.745 97.9487 108.737 97.8737 108.606 97.8751C108.195 97.8798 107.784 97.8769 107.353 97.8769C107.545 98.1779 107.62 98.54 107.562 98.8931C107.555 98.9507 107.558 99.0002 107.488 99.0355C107.036 99.2617 106.21 99.0188 105.959 98.5598C105.836 98.3484 105.77 98.1079 105.769 97.8629C105.768 97.6179 105.832 97.377 105.953 97.1645C106.197 96.7199 106.62 96.6163 107.097 96.6326C107.613 96.6502 108.073 96.8425 108.547 97.0749V95.7811C108.354 96.0576 108.131 95.9584 107.898 95.8903C107.229 95.6863 106.514 95.7002 105.854 95.93C105.464 96.0555 105.124 96.3014 104.883 96.6326C104.641 96.9638 104.51 97.3632 104.509 97.7737C104.475 98.7044 104.907 99.421 105.74 99.7498C106.711 100.133 107.662 99.986 108.592 99.581C108.639 99.5671 108.68 99.5373 108.708 99.4968C108.737 99.4563 108.75 99.4073 108.747 99.3581C108.741 98.9213 108.743 98.4844 108.745 98.0475H108.745ZM99.032 98.6489C98.5893 98.9493 98.0642 99.1037 97.5299 99.0904C97.265 99.0942 97.0073 99.0047 96.8016 98.8373C96.5959 98.67 96.4553 98.4355 96.4043 98.1749C96.1996 97.2207 96.7268 96.5999 97.6965 96.631C98.1696 96.6462 98.5921 96.8182 99.0214 97.0238V95.6847C98.8332 95.96 98.6555 95.9414 98.4369 95.8792C97.9017 95.7261 97.3375 95.7052 96.7924 95.8185C95.8552 96.01 95.2135 96.6798 95.1099 97.5786C94.9974 98.5558 95.4133 99.3754 96.2408 99.73C97.1285 100.11 98.0181 100.011 98.895 99.6663C98.968 99.6376 99.0358 99.6047 99.0335 99.5007C99.0285 99.231 99.032 98.9603 99.032 98.6489ZM35.0391 95.844C35.0765 96.001 35.2808 96.058 35.1897 96.2515C34.8671 96.9379 34.555 97.6293 34.2201 98.3607C33.947 97.7446 33.6863 97.1695 33.4373 96.5893C33.3319 96.3435 33.1018 96.0892 33.5027 95.8333H31.8314C31.8331 95.936 31.8665 96.0356 31.927 96.1184C32.4256 97.1955 32.9488 98.2618 33.4144 99.3529C33.5924 99.7697 33.8035 99.9601 34.2624 99.8926C34.4466 99.8655 34.5532 99.8385 34.6388 99.6531C35.188 98.4584 35.7538 97.2706 36.3113 96.0794C36.3469 96.0031 36.4191 95.9321 36.3857 95.844H35.0391ZM66.2116 98.8497C65.9999 99.0998 65.7388 99.0366 65.4971 99.0378C65.0714 99.0399 64.6454 99.0283 64.2203 99.0428C64.0188 99.0498 63.948 99.0001 63.9523 98.7846C63.9662 98.0807 63.9562 97.3763 63.9581 96.672C63.9581 96.3826 63.8928 96.076 64.2106 95.8385H62.4861C62.8383 96.0548 62.7746 96.3355 62.775 96.5977C62.7768 97.4605 62.771 98.3235 62.7787 99.1864C62.7808 99.4285 62.7818 99.6597 62.4966 99.8821C63.7421 99.8821 64.8899 99.8821 66.0375 99.8821C66.1294 99.8821 66.2164 99.8903 66.2139 99.7519C66.2086 99.4518 66.2122 99.1508 66.2122 98.8497H66.2116ZM93.0888 95.8371H91.3634C91.6819 96.0637 91.6244 96.3511 91.6249 96.6227C91.6263 97.4367 91.6263 98.2505 91.6249 99.0642C91.6249 99.344 91.6898 99.6408 91.3769 99.8601H93.0824C92.8153 99.6576 92.8345 99.421 92.8356 99.1837C92.8397 98.3103 92.8397 97.4369 92.8356 96.5635C92.8347 96.3069 92.8072 96.048 93.0888 95.8371ZM29.8566 99.1383C29.8596 98.3059 29.8596 97.4735 29.8566 96.6412C29.8558 96.3585 29.8094 96.067 30.1148 95.8354H28.3557C28.7226 96.0641 28.6531 96.3633 28.6538 96.6439C28.6557 97.397 28.6586 98.1501 28.6526 98.9032C28.6499 99.2351 28.7474 99.5899 28.4032 99.8757H30.1315C29.8232 99.6531 29.8556 99.3932 29.8566 99.1383ZM77.9033 58.3269C77.2801 58.283 77.2787 58.2859 76.8482 57.9773C76.7975 57.9326 76.738 57.899 76.6736 57.8786C76.6092 57.8582 76.5413 57.8515 76.4742 57.8589C76.2256 57.9017 76.0665 57.8011 75.9177 57.5988C75.7306 57.3446 75.1627 57.3275 74.8758 57.5558C75.1218 57.5847 75.3491 57.5804 75.5545 57.7154C76.096 58.0713 76.6472 58.4053 77.3112 58.5025C77.4167 58.5206 77.525 58.5142 77.6276 58.4837C77.7303 58.4533 77.8246 58.3996 77.9033 58.3269V58.3269ZM78.1187 58.958C78.0928 59.12 78.3488 59.2749 78.4511 59.2178C78.7876 59.0288 79.1643 59.067 79.5638 58.9525C79.1553 58.7224 78.8248 58.4872 78.4039 58.4618C77.9884 58.4367 78.1464 58.784 78.1187 58.958ZM117.93 62.9423C117.941 63.2319 117.86 63.5175 117.699 63.7581C117.538 63.9986 117.305 64.1817 117.033 64.281V64.281C116.731 64.4188 116.391 64.4493 116.069 64.3674C115.747 64.2855 115.463 64.0961 115.263 63.8304C115.065 63.5708 114.958 63.2529 114.958 62.926C114.958 62.5991 115.065 62.2812 115.263 62.0215C115.462 61.7547 115.746 61.564 116.068 61.4811C116.39 61.3982 116.73 61.4282 117.033 61.5659V61.5659C117.309 61.6689 117.546 61.8581 117.707 62.1059C117.869 62.3536 117.947 62.6468 117.93 62.9423V62.9423ZM117.198 61.9282C117.107 61.8562 116.989 61.8077 116.945 61.6895L116.942 61.6913C116.846 61.7124 116.747 61.7116 116.652 61.689C116.416 61.6508 116.174 61.6816 115.955 61.7776C115.736 61.8736 115.549 62.0308 115.416 62.2304C115.284 62.4301 115.211 62.6637 115.208 62.9035C115.204 63.1433 115.269 63.3791 115.395 63.5829C115.669 64.0354 116.099 64.2021 116.613 64.1764C116.72 64.1528 116.831 64.1465 116.94 64.1576L116.946 64.1604C116.987 64.0395 117.107 63.9915 117.198 63.9191C117.351 63.8025 117.475 63.6519 117.561 63.4793C117.646 63.3066 117.69 63.1164 117.69 62.9237C117.69 62.7309 117.646 62.5408 117.561 62.3681C117.475 62.1954 117.351 62.0448 117.198 61.9282V61.9282ZM92.6282 73.9773L92.482 74.2714C91.5847 75.9012 90.4613 77.3948 89.1453 78.7077C85.8456 81.9473 81.8986 83.8606 77.3219 84.4902C74.9313 84.8227 72.5013 84.7381 70.1394 84.2402C66.2646 83.4603 62.7005 81.5645 59.8831 78.7847C58.4563 77.3733 57.2524 75.7518 56.3131 73.9763C56.2585 73.8389 56.2266 73.6872 56.036 73.6253L56.246 74.0494C56.729 75.1914 57.3195 76.2846 58.0096 77.3141C59.8371 80.0833 62.1696 82.3051 65.1098 83.8663C67.3415 85.039 69.7806 85.7618 72.2894 85.9936C75.6487 86.3312 78.9028 85.9003 82.0212 84.5877C85.5991 83.0818 88.4709 80.6881 90.712 77.5269C91.4367 76.5365 92.0511 75.4693 92.544 74.3446C92.6188 74.2613 92.6699 74.1595 92.6922 74.0497C92.7472 73.9893 92.7865 73.9163 92.8066 73.8371C92.8268 73.7579 92.8271 73.6749 92.8077 73.5955L92.6282 73.9773ZM93.5554 71.8593C93.452 71.9781 93.3981 72.1324 93.4051 72.29C93.4595 72.2332 93.5011 72.1654 93.527 72.091C93.5529 72.0167 93.5626 71.9377 93.5554 71.8593V71.8593ZM80.3203 59.273C80.35 59.2781 80.3806 59.2717 80.4058 59.255C80.431 59.2383 80.4489 59.2126 80.4558 59.1831C80.4714 59.0949 80.379 59.1241 80.349 59.1054C80.2569 59.07 80.2199 59.1078 80.2353 59.1798C80.2411 59.2009 80.2519 59.2203 80.2667 59.2365C80.2814 59.2526 80.2998 59.265 80.3203 59.2727V59.273ZM56.1588 57.4114C58.7446 52.3986 62.7819 49.1281 68.1164 47.4011C67.8801 47.6164 67.7035 47.8896 67.6039 48.1938C67.576 48.2481 67.5326 48.2928 67.4793 48.3223C66.9162 48.6941 66.6448 49.2919 66.5269 49.8884C66.4367 50.3422 66.2239 50.7624 65.9118 51.1031C65.4102 51.6962 65.0551 52.3994 64.875 53.1558C64.8327 53.2959 64.8419 53.4465 64.9009 53.5804C65.2041 54.2313 65.3091 54.9574 65.2029 55.6678C65.1874 55.763 65.166 55.8565 65.2598 55.9384C65.5126 56.1593 65.5907 56.4741 65.7 56.7745C65.7755 56.9828 65.7947 57.2228 66.0003 57.4148C66.1019 57.1801 66.135 56.9213 66.0956 56.6685C66.0205 56.2951 65.9225 55.9267 65.8022 55.5654C65.7218 55.3194 65.6834 55.0616 65.6886 54.8027C65.6878 54.7751 65.6924 54.7475 65.7023 54.7216C65.7121 54.6957 65.727 54.6721 65.746 54.652C65.765 54.6319 65.7878 54.6158 65.813 54.6045C65.8383 54.5933 65.8655 54.5872 65.8931 54.5866C66.0075 54.5866 65.9791 54.7158 65.9801 54.795C65.9977 55.1394 66.076 55.4781 66.2112 55.7952C66.4558 56.4251 66.7572 57.0312 67.1115 57.6062C67.2395 57.8189 67.391 58.0055 67.1625 58.2469C67.1441 58.2644 67.1307 58.2864 67.1236 58.3108C67.1165 58.3352 67.116 58.3611 67.1222 58.3857C67.1284 58.4103 67.1411 58.4329 67.1588 58.451C67.1766 58.4691 67.1988 58.4821 67.2233 58.4888C67.3326 58.5346 67.3427 58.6034 67.2926 58.6899C67.2182 58.817 67.297 58.8373 67.3933 58.8456C67.721 58.8734 67.9568 59.0679 68.1827 59.2808C68.2455 59.3482 68.321 59.4024 68.405 59.4402C68.4889 59.4779 68.5796 59.4984 68.6715 59.5004C69.913 59.4961 71.1546 59.4925 72.396 59.5044C72.5939 59.5062 72.6502 59.4183 72.6883 59.2609C72.782 58.8202 72.942 58.3964 73.1629 58.0041C72.8534 57.9945 72.5589 57.833 72.3252 57.874C72.0395 57.9239 72.024 58.3411 71.8662 58.5842C71.6532 58.9123 70.5642 59.242 70.227 59.0661C70.1943 59.0486 70.1659 59.024 70.1439 58.9942C69.6572 58.3372 69.2218 57.6663 69.5926 56.7943C69.6886 56.5687 69.7784 56.3394 69.8918 56.1226C70.2731 55.3952 70.9228 55.0842 71.7316 55.2599C71.8393 55.2943 71.9535 55.3032 72.0652 55.286C72.177 55.2689 72.2833 55.226 72.3758 55.1609C72.6089 54.995 72.8883 55.0118 73.1581 55.0835C73.3945 55.1547 73.6461 55.1582 73.8844 55.0938C74.4904 54.9162 74.5812 54.965 74.752 55.591C74.84 55.9126 74.9182 56.2373 75.1675 56.4801C75.2436 56.554 75.3279 56.6671 75.4446 56.6201C75.5469 56.5784 75.5097 56.4465 75.5213 56.3548C75.5838 55.8626 75.3313 55.4518 75.1674 55.0184C74.9979 54.5698 75.0312 54.3644 75.4444 54.157C75.8312 53.9684 76.1757 53.7028 76.457 53.3766C76.7384 53.0503 76.9507 52.6701 77.0812 52.2591C77.1204 52.1291 77.1883 52.0097 77.2799 51.9097C77.3715 51.8097 77.4844 51.7317 77.6103 51.6816C77.7138 51.6383 77.8026 51.5661 77.8662 51.4734C77.9298 51.3808 77.9654 51.2718 77.9689 51.1594C77.9827 50.9911 78.0254 50.9406 78.2118 50.9564C78.3804 50.9758 78.5513 50.9577 78.7122 50.9035C78.8731 50.8493 79.0202 50.7603 79.143 50.6427C78.9092 50.4956 78.6761 50.3641 78.461 50.2075C78.3974 50.1675 78.35 50.1062 78.3272 50.0345C78.3044 49.9629 78.3076 49.8854 78.3363 49.8159C78.4046 49.6385 78.5522 49.6287 78.7035 49.6535C78.9334 49.691 79.1596 49.7532 79.3901 49.785C79.6564 49.8217 79.9329 49.8691 80.1575 49.6537C80.2407 49.5739 80.3199 49.4925 80.1473 49.4079C79.5379 49.109 79.0176 48.6693 78.4378 48.3243C78.3243 48.2565 78.2101 48.1146 78.0507 48.2658C77.819 48.4857 77.5736 48.4047 77.3967 48.2165C76.999 47.7936 76.4573 47.7997 75.9587 47.6715C75.8709 47.6487 75.8479 47.7097 75.8307 47.7612C75.7561 47.982 75.7167 48.1934 75.9785 48.3343C76.1018 48.4005 76.2613 48.4329 76.308 48.6159C75.9713 48.5828 75.871 48.7796 75.8648 49.065C75.8631 49.1389 75.8667 49.2129 75.8627 49.2873C75.8459 49.5886 75.6826 49.6844 75.4278 49.5283C75.3187 49.471 75.2276 49.3844 75.1646 49.2782C74.9738 48.8574 74.6004 48.7666 74.2048 48.7012C74.0098 48.6786 73.8163 48.6444 73.6253 48.5989C73.4102 48.5364 73.0783 48.5699 73.0297 48.3277C72.9899 48.1282 73.27 47.9817 73.4406 47.8479C74.7998 46.7822 76.3975 46.4508 78.0302 46.7143C82.9518 47.5082 87.0531 49.8352 90.3061 53.6346C91.2574 54.7778 92.0823 56.0211 92.7664 57.3427L92.8502 57.5581C92.8953 57.6366 92.871 57.7728 93.0619 57.7794L92.9127 57.4877L92.8378 57.3432C92.6588 56.834 92.4333 56.3425 92.1641 55.8749C88.9407 49.9205 84.0921 46.2308 77.3337 45.2012C76.8949 45.1343 76.4424 45.1517 76.0167 45H72.7722C72.7392 45.0972 72.654 45.0636 72.5871 45.0717C71.9168 45.1525 71.241 45.2016 70.5767 45.3172C66.1555 46.086 62.4452 48.1267 59.5377 51.5752C58.0868 53.2969 56.9252 55.2442 56.0984 57.3404C56.0541 57.3899 56.0202 57.4479 55.9988 57.5108C55.9774 57.5738 55.9688 57.6404 55.9737 57.7068C56.1007 57.6368 56.12 57.518 56.1588 57.4118V57.4114ZM134 96.7688V97.6625C133.73 98.3953 133.15 98.6525 132.428 98.6883C132.201 98.7121 131.973 98.7167 131.746 98.7022C131.422 98.6629 131.343 98.795 131.374 99.0912C131.401 99.3496 131.318 99.6287 131.559 99.8811H129.948C130.292 99.5755 130.185 99.2111 130.189 98.8718C130.198 98.1286 130.192 97.3854 130.192 96.6416C130.192 96.1769 130.192 96.1769 129.975 95.8164C130.927 95.8453 131.863 95.7469 132.792 95.8867C133.335 95.9695 133.775 96.2316 134 96.7692L134 96.7688ZM132.117 96.6749C131.379 96.6256 131.379 96.6256 131.379 97.2778C131.379 97.4364 131.381 97.5949 131.378 97.7534C131.376 97.8423 131.387 97.9081 131.502 97.9019C131.797 97.886 132.094 97.9329 132.386 97.8495C132.488 97.8262 132.58 97.7728 132.651 97.6962C132.722 97.6196 132.768 97.5233 132.783 97.42C132.877 96.9633 132.653 96.7113 132.117 96.6753L132.117 96.6749ZM79.3754 61.3118C80.9359 61.3136 82.4964 61.3163 84.057 61.3201C84.3272 61.3211 84.5965 61.3511 84.8603 61.4099C85.7359 61.6026 86.4148 62.0366 86.6321 62.9658C86.8687 63.9762 86.5583 64.8076 85.7318 65.4404C85.69 65.4658 85.6497 65.4936 85.6111 65.5238C85.4495 65.6828 85.0862 65.6766 85.0848 65.8968C85.084 66.0892 85.3196 66.2827 85.4513 66.4752C85.9023 67.1346 86.353 67.794 86.8036 68.4535C86.8696 68.5507 86.9698 68.6316 86.9788 68.7794H83.8013C83.7916 68.7534 83.7811 68.7344 83.7841 68.7319C84.256 68.3485 84.0888 67.9975 83.7722 67.6016C83.4432 67.1904 83.1741 66.7314 82.8759 66.2958C82.7698 66.1407 81.9955 66.0274 81.8586 66.1429C81.7798 66.2095 81.8123 66.303 81.8119 66.3844C81.8086 66.9262 81.8285 67.468 81.8034 68.0091C81.7874 68.3531 82.1187 68.4828 82.2163 68.7773H79.1294C79.8074 68.3061 79.6208 67.6614 79.6251 67.0698C79.6359 65.5802 79.6237 64.0904 79.6316 62.6007C79.6341 62.1412 79.687 61.6766 79.2136 61.4231C79.25 61.2893 79.3215 61.3117 79.3754 61.3118ZM81.8101 63.7151C81.8101 63.9799 81.8239 64.1903 81.8066 64.3981C81.7874 64.6343 81.8579 64.7315 82.1113 64.7158C82.4663 64.6944 82.8237 64.715 83.1799 64.7089C83.489 64.7182 83.7936 64.6324 84.0525 64.4628C84.213 64.3575 84.3358 64.2034 84.4029 64.0232C84.4701 63.8429 84.478 63.6459 84.4257 63.4608C84.3367 63.1274 84.0319 62.9023 83.6161 62.883C83.3096 62.8691 83.0019 62.8717 82.6949 62.8751C82.4145 62.8781 82.0439 62.786 81.8777 62.9284C81.6795 63.0969 81.8429 63.4812 81.8104 63.7147L81.8101 63.7151ZM107.513 68.4524C107.56 68.5496 107.602 68.6499 107.663 68.7845H104.601C104.579 68.6569 104.671 68.5913 104.737 68.5359C104.972 68.3353 104.956 68.1397 104.839 67.8632C104.698 67.5281 104.516 67.422 104.153 67.4348C103.244 67.4669 102.333 67.4652 101.424 67.4348C101.11 67.4242 100.996 67.5616 100.889 67.8049C100.778 68.056 100.641 68.2878 100.931 68.5153C100.976 68.5424 101.014 68.5798 101.041 68.6245C101.069 68.6692 101.085 68.7198 101.089 68.7722H98.4763C98.4486 68.6416 98.5486 68.536 98.6025 68.4233C99.552 66.4414 100.504 64.4613 101.46 62.483C101.635 62.1202 101.882 61.7711 101.424 61.3114C102.015 61.3114 102.492 61.366 102.952 61.2993C103.748 61.1838 104.146 61.4841 104.483 62.2278C105.436 64.3276 106.495 66.3799 107.513 68.4515L107.513 68.4524ZM103.995 65.9033C103.615 65.0964 103.244 64.2853 102.84 63.4137L101.614 66.0899C102.401 66.0899 103.135 66.0885 103.87 66.091C104.016 66.0906 104.071 66.0632 103.995 65.9025L103.995 65.9033ZM121.566 98.1269C121.488 99.0384 120.84 99.735 119.891 99.9239C119.248 100.072 118.574 99.9956 117.981 99.7066C117.164 99.2943 116.815 98.5488 116.925 97.5096C117.011 96.6899 117.572 96.0603 118.428 95.8271C118.686 95.7621 118.952 95.7275 119.218 95.7239C119.576 95.7208 119.932 95.7795 120.27 95.8972C121.202 96.2519 121.659 97.041 121.566 98.1269ZM120.32 97.8602C120.305 97.73 120.296 97.6215 120.279 97.5144C120.181 96.9129 119.845 96.6073 119.269 96.5975C118.677 96.5871 118.31 96.8865 118.204 97.489C118.15 97.7821 118.162 98.0836 118.238 98.3717C118.372 98.8705 118.718 99.116 119.274 99.108C119.803 99.0992 120.146 98.8346 120.254 98.3391C120.291 98.1754 120.301 98.0066 120.32 97.8602V97.8602ZM48.2619 99.7912C48.2717 99.8142 48.2788 99.8383 48.2831 99.8629H46.5594C46.9101 99.5926 46.6515 99.3918 46.5081 99.1761C46.371 98.9699 46.2289 98.7672 46.0945 98.5593C46.0742 98.5209 46.044 98.4886 46.007 98.4658C45.9701 98.443 45.9278 98.4306 45.8844 98.4296C45.4956 98.403 45.4966 98.3974 45.4966 98.7908C45.4966 98.8802 45.4955 98.9695 45.4966 99.0587C45.5007 99.3381 45.4314 99.6345 45.7476 99.8698H44.0612C44.3754 99.6277 44.3076 99.3217 44.3083 99.033C44.3101 98.2195 44.3074 97.4059 44.3099 96.5924C44.3099 96.3272 44.3462 96.0555 44.0978 95.8412C45.0879 95.8539 46.0595 95.7548 47.0261 95.869C47.6429 95.9418 48.0214 96.2665 48.1174 96.757C48.1854 97.0297 48.1584 97.3175 48.0409 97.5726C47.9235 97.8278 47.7227 98.0351 47.4717 98.1601C47.272 98.2703 47.2501 98.3343 47.3867 98.519C47.6928 98.9323 47.9723 99.3654 48.2619 99.7912V99.7912ZM46.9207 97.0353C46.8757 96.794 46.6965 96.699 46.4731 96.6799C46.3364 96.6683 46.1979 96.6778 46.06 96.6778C45.496 96.6696 45.496 96.6696 45.496 97.2395C45.496 97.3381 45.496 97.4368 45.496 97.5354C45.496 97.5933 45.489 97.6675 45.5742 97.6636C45.9253 97.6477 46.2877 97.7403 46.6245 97.5888C46.7328 97.5488 46.8227 97.4704 46.8773 97.3684C46.9319 97.2664 46.9474 97.1479 46.9207 97.0353V97.0353ZM114.05 98.5059C114.367 98.943 114.664 99.395 114.989 99.8697H113.182C113.507 99.6491 113.402 99.4774 113.258 99.2862C113.085 99.0577 112.933 98.8128 112.775 98.5737C112.756 98.5343 112.728 98.5002 112.693 98.4748C112.658 98.4494 112.616 98.4335 112.573 98.4287C112.168 98.3885 112.168 98.3823 112.168 98.8038C112.168 98.913 112.17 99.022 112.168 99.1311C112.163 99.3846 112.134 99.6437 112.41 99.8629H110.743C111.053 99.6245 110.98 99.309 110.98 99.0117C110.982 98.1886 110.977 97.3654 110.984 96.5423C110.986 96.2909 110.992 96.0471 110.764 95.8779C110.833 95.7797 110.919 95.8214 110.988 95.8224C111.888 95.8421 112.79 95.7593 113.687 95.8665C114.322 95.9424 114.701 96.2702 114.792 96.7744C114.855 97.0481 114.824 97.3353 114.704 97.5889C114.583 97.8424 114.379 98.0471 114.127 98.1692C113.928 98.2753 113.929 98.3387 114.05 98.5059V98.5059ZM113.595 97.0483C113.556 96.8045 113.38 96.701 113.154 96.6813C113.006 96.6683 112.857 96.6788 112.708 96.6788C112.168 96.6696 112.168 96.6696 112.168 97.2112C112.168 97.3204 112.168 97.4295 112.168 97.5387C112.168 97.5988 112.167 97.6684 112.251 97.6638C112.595 97.6475 112.948 97.7342 113.28 97.5943C113.39 97.5576 113.483 97.4818 113.541 97.3812C113.599 97.2806 113.618 97.1622 113.595 97.0483V97.0483ZM58.8425 95.9247C59.4805 97.2296 60.1226 98.5324 60.7787 99.8667H59.1221C59.1821 99.7059 59.3757 99.6231 59.2587 99.4082C59.1617 99.2312 59.0818 99.1383 58.8645 99.1486C58.4394 99.169 58.0125 99.1452 57.5871 99.1594C57.429 99.1647 57.2329 99.0599 57.1257 99.3024C57.0116 99.5601 56.996 99.5532 57.1998 99.8654H55.7813C55.887 99.6419 55.9858 99.4299 56.087 99.2191C56.5194 98.3186 56.9528 97.4185 57.387 96.5186C57.4937 96.2991 57.6339 96.0902 57.4264 95.8204C57.8671 95.8204 58.2609 95.8215 58.6547 95.8194C58.6931 95.8136 58.7324 95.8208 58.7664 95.8399C58.8003 95.8589 58.8269 95.8888 58.8421 95.9247H58.8425ZM58.8325 98.422C58.6099 97.9422 58.3973 97.4843 58.1602 96.9732C57.9247 97.4862 57.716 97.9431 57.4967 98.422H58.8325ZM116.058 63.3741C115.951 63.2696 115.886 63.1296 115.875 62.9804C115.863 62.8312 115.907 62.6831 115.997 62.5639C116.193 62.269 116.457 62.2444 116.999 62.4528C116.869 62.1888 116.605 62.0916 116.283 62.1888C116.111 62.2377 115.961 62.3448 115.859 62.4921C115.757 62.6393 115.709 62.8174 115.724 62.9961C115.738 63.1747 115.814 63.3429 115.938 63.4718C116.062 63.6007 116.227 63.6825 116.405 63.7031C116.734 63.7333 116.945 63.6162 117.008 63.367C116.561 63.6189 116.282 63.6266 116.058 63.3741Z" fill="black"/>
</svg>
