<?xml version="1.0" standalone="no"?>
<!DOCTYPE svg PUBLIC "-//W3C//DTD SVG 20010904//EN"
 "http://www.w3.org/TR/2001/REC-SVG-20010904/DTD/svg10.dtd">
<svg version="1.0" xmlns="http://www.w3.org/2000/svg"
 width="200.000000pt" height="200.000000pt" viewBox="0 0 200.000000 200.000000"
 preserveAspectRatio="xMidYMid meet">

<g transform="translate(0.000000,200.000000) scale(0.100000,-0.100000)"
fill="#000000" stroke="none">
<path d="M660 1590 c-179 -104 -329 -191 -334 -193 -8 -3 76 -708 93 -779 5
-23 57 -61 289 -213 156 -102 287 -185 292 -185 8 0 548 349 572 369 6 5 108
755 108 792 0 8 -82 61 -183 118 -100 58 -250 144 -334 193 -83 48 -157 88
-165 87 -7 0 -159 -85 -338 -189z m330 -35 l0 -195 -52 30 c-29 17 -106 61
-170 98 -64 37 -114 69 -112 72 9 9 319 188 327 189 4 1 7 -87 7 -194z m187
104 c87 -50 161 -94 165 -98 4 -3 -46 -36 -110 -73 -64 -37 -141 -81 -169 -98
l-53 -30 0 195 c0 107 2 195 4 195 3 0 76 -41 163 -91z m-365 -221 l178 -103
0 -47 c0 -27 -2 -48 -5 -48 -3 0 -60 30 -126 67 -69 38 -124 62 -127 56 -45
-65 -136 -183 -143 -183 -10 0 -241 201 -236 206 9 10 263 154 271 154 5 0 89
-46 188 -102z m705 25 l135 -78 -54 -48 c-29 -26 -70 -62 -91 -79 l-38 -30 26
58 c14 32 23 64 21 71 -3 7 -22 35 -42 62 l-38 50 -68 -36 c-37 -21 -68 -40
-68 -43 0 -3 29 -46 65 -95 63 -87 71 -105 48 -112 -8 -3 -88 97 -145 181 -3
5 -57 -19 -128 -57 -67 -37 -123 -67 -126 -67 -2 0 -4 22 -4 48 l0 48 178 102
c97 56 181 102 186 102 5 0 70 -35 143 -77z m-50 -70 l31 -46 -24 -56 c-14
-30 -26 -57 -29 -59 -4 -4 -115 143 -115 152 0 5 90 55 100 55 3 0 19 -20 37
-46z m-1042 -105 c39 -33 90 -78 114 -99 l44 -39 18 -117 c10 -65 21 -130 23
-145 5 -23 -10 -45 -85 -138 -50 -61 -94 -108 -98 -105 -8 8 -98 705 -91 705
3 0 37 -28 75 -62z m1185 -291 c-22 -177 -43 -332 -46 -345 -4 -20 -17 -7
-100 94 -70 87 -94 123 -90 138 2 12 12 73 22 136 9 63 20 120 23 126 3 6 56
54 116 107 74 65 111 92 113 82 2 -9 -15 -160 -38 -338z m-826 327 c32 -16 35
-21 50 -98 9 -44 16 -85 16 -90 0 -5 -21 -6 -47 -3 -87 10 -183 29 -183 36 0
7 120 171 125 171 3 0 20 -7 39 -16z m536 -70 c34 -47 60 -87 58 -89 -2 -2
-55 -12 -117 -23 l-113 -19 5 41 c16 113 27 142 60 159 18 9 35 16 39 16 4 1
34 -38 68 -85z m-396 -7 c81 -45 82 -57 7 -57 -33 0 -62 3 -65 8 -10 16 -18
82 -10 82 5 0 36 -15 68 -33z m221 -4 c-4 -21 -9 -41 -11 -45 -9 -14 -126 -9
-122 4 4 12 115 78 132 78 4 0 5 -17 1 -37z m-155 -314 l0 -240 -21 6 c-12 4
-40 15 -63 26 -22 10 -42 17 -43 15 -7 -7 23 -66 34 -66 7 0 10 7 7 15 -5 13
1 12 37 -3 55 -23 62 -47 18 -56 -17 -3 -42 -6 -55 -6 -13 0 -24 -5 -24 -11 0
-8 17 -10 55 -6 l55 6 0 -34 0 -34 -60 20 c-59 20 -60 21 -111 110 -31 55 -68
104 -95 126 -24 21 -44 41 -44 45 0 4 56 8 125 8 69 0 125 2 125 5 0 2 -5 26
-10 52 l-11 48 -104 53 c-90 46 -104 57 -110 83 -4 17 -5 32 -3 34 1 2 37 -3
78 -10 114 -21 113 -21 106 20 l-7 35 61 0 60 0 0 -241z m140 238 c0 -2 -13
-73 -30 -158 -16 -85 -30 -155 -30 -156 0 -2 56 -3 125 -3 69 0 125 -3 125 -6
0 -3 -21 -25 -47 -49 -29 -25 -68 -77 -96 -128 -47 -85 -49 -86 -108 -106
l-59 -20 0 34 0 34 55 -6 c38 -4 55 -2 55 6 0 6 -11 11 -24 11 -13 0 -38 3
-55 6 -44 9 -37 33 18 56 36 15 42 16 37 3 -3 -9 0 -15 8 -15 7 0 17 16 23 35
6 19 9 35 7 35 -3 0 -21 -8 -42 -19 -20 -10 -47 -22 -59 -25 l-23 -7 0 240 0
241 60 0 c33 0 60 -2 60 -3z m-473 -39 c6 -7 13 -25 17 -41 5 -23 2 -29 -19
-39 -14 -6 -27 -9 -29 -7 -2 2 -7 25 -11 52 -7 43 -5 47 13 47 11 0 24 -6 29
-12z m728 -35 c-4 -27 -9 -50 -11 -52 -2 -2 -15 1 -29 7 -21 10 -24 16 -19 39
9 38 23 53 46 53 18 0 20 -4 13 -47z m-79 15 c-3 -13 -6 -28 -6 -34 0 -6 -41
-32 -91 -59 l-92 -48 7 49 c12 83 10 81 94 97 42 8 81 15 86 16 4 1 6 -9 2
-21z m-518 -115 c95 -50 112 -65 112 -100 0 -23 -1 -23 -124 -23 -140 0 -128
-8 -141 95 -7 49 -6 51 22 62 41 16 35 17 131 -34z m550 35 c34 -13 34 -13 27
-63 -13 -103 -1 -95 -141 -95 -122 0 -124 0 -124 23 0 12 4 28 9 35 7 11 175
109 190 111 3 1 20 -5 39 -11z m-605 -278 c-8 -6 -70 -35 -207 -95 l-59 -26
44 53 c24 29 63 77 87 105 l44 53 49 -42 c27 -23 46 -44 42 -48z m716 -20 c38
-47 68 -86 66 -88 -3 -3 -54 18 -210 88 l-49 23 49 43 c58 50 45 56 144 -66z
m-682 -12 c6 -7 27 -43 47 -79 l36 -66 -75 -67 -75 -68 -121 78 c-66 42 -117
80 -112 85 8 8 273 128 284 129 4 0 11 -6 16 -12z m635 -54 c68 -30 127 -59
131 -63 4 -4 -46 -43 -113 -85 l-120 -78 -75 67 c-41 37 -75 69 -75 71 0 3 38
68 77 132 17 27 13 29 175 -44z m-482 -262 c29 -73 50 -135 49 -136 -2 -2 -60
33 -128 77 l-124 81 69 62 c38 35 72 60 75 56 4 -4 30 -67 59 -140z m23 132
l47 -16 0 -111 c0 -61 -2 -108 -4 -106 -6 6 -96 232 -96 241 0 10 -1 11 53 -8z
m167 11 c0 -7 -91 -239 -95 -244 -3 -2 -5 46 -5 106 l0 111 43 15 c46 17 57
19 57 12z m163 -126 c-20 -18 -243 -158 -243 -152 0 7 99 263 107 276 2 4 36
-21 74 -55 38 -34 66 -65 62 -69z"/>
</g>
</svg>
