<?xml version="1.0" standalone="no"?>
<!DOCTYPE svg PUBLIC "-//W3C//DTD SVG 20010904//EN"
 "http://www.w3.org/TR/2001/REC-SVG-20010904/DTD/svg10.dtd">
<svg version="1.0" xmlns="http://www.w3.org/2000/svg"
 width="400.000000pt" height="400.000000pt" viewBox="0 0 400.000000 400.000000"
 preserveAspectRatio="xMidYMid meet">

<g transform="translate(0.000000,400.000000) scale(0.100000,-0.100000)"
fill="#000000" stroke="none">
<path d="M0 2000 l0 -2000 2000 0 2000 0 0 2000 0 2000 -2000 0 -2000 0 0
-2000z m1978 746 c2 -248 3 -256 22 -256 19 0 20 7 20 160 l0 160 65 0 65 0 0
-160 c0 -152 1 -160 20 -160 17 0 19 8 22 83 l3 82 63 3 62 3 0 -86 c0 -78 2
-85 20 -85 19 0 20 7 20 120 l0 120 65 0 65 0 0 -120 c0 -113 1 -120 20 -120
16 0 20 7 20 35 l0 35 65 0 65 0 0 -408 c0 -381 -1 -413 -21 -488 -59 -227
-220 -397 -444 -471 -68 -22 -98 -26 -195 -26 -97 0 -127 4 -195 26 -224 73
-385 244 -444 471 -20 75 -21 107 -21 508 l0 428 65 0 65 0 0 -55 c0 -48 2
-55 20 -55 19 0 20 7 20 110 l0 110 65 0 65 0 0 -110 c0 -103 1 -110 20 -110
19 0 20 7 20 200 l0 200 65 0 65 0 0 -200 c0 -193 1 -200 20 -200 19 0 20 7
20 253 0 140 2 256 4 258 3 3 31 4 63 3 l58 -1 3 -257z"/>
</g>
</svg>
