<svg width="15" height="15" viewBox="0 0 15 15" fill="none" xmlns="http://www.w3.org/2000/svg">
<mask id="path-1-inside-1" fill="white">
<path fill-rule="evenodd" clip-rule="evenodd" d="M7.55027 14.7026C11.6103 14.7026 14.9015 11.4113 14.9015 7.35128C14.9015 3.29128 11.6103 0 7.55027 0C3.49027 0 0.19899 3.29128 0.19899 7.35128C0.19899 8.6323 0.526652 9.83679 1.10274 10.8855L0 15.001L4.17333 13.8827C5.18451 14.4066 6.33283 14.7026 7.55027 14.7026Z"/>
</mask>
<path d="M1.10274 10.8855L2.06866 11.1443L2.17266 10.7562L1.9792 10.4041L1.10274 10.8855ZM0 15.001L-0.965926 14.7422L-1.41421 16.4152L0.258819 15.9669L0 15.001ZM4.17333 13.8827L4.63334 12.9948L4.28905 12.8165L3.91451 12.9168L4.17333 13.8827ZM13.9015 7.35128C13.9015 10.859 11.058 13.7026 7.55027 13.7026V15.7026C12.1626 15.7026 15.9015 11.9636 15.9015 7.35128H13.9015ZM7.55027 1C11.058 1 13.9015 3.84356 13.9015 7.35128H15.9015C15.9015 2.73899 12.1626 -1 7.55027 -1V1ZM1.19899 7.35128C1.19899 3.84356 4.04255 1 7.55027 1V-1C2.93799 -1 -0.80101 2.73899 -0.80101 7.35128H1.19899ZM1.9792 10.4041C1.48211 9.49913 1.19899 8.45976 1.19899 7.35128H-0.80101C-0.80101 8.80484 -0.428807 10.1745 0.226269 11.367L1.9792 10.4041ZM0.965926 15.2598L2.06866 11.1443L0.136811 10.6267L-0.965926 14.7422L0.965926 15.2598ZM3.91451 12.9168L-0.258819 14.0351L0.258819 15.9669L4.43215 14.8487L3.91451 12.9168ZM7.55027 13.7026C6.49666 13.7026 5.50572 13.4468 4.63334 12.9948L3.71332 14.7707C4.8633 15.3664 6.169 15.7026 7.55027 15.7026V13.7026Z" fill="#7A7A7A" mask="url(#path-1-inside-1)"/>
</svg>
