<svg width="15" height="15" viewBox="0 0 15 15" fill="none" xmlns="http://www.w3.org/2000/svg">
<path fill-rule="evenodd" clip-rule="evenodd" d="M13.9012 7.45062C13.9012 11.0132 11.0132 13.9012 7.45062 13.9012C3.88804 13.9012 1 11.0132 1 7.45062C1 3.88804 3.88804 1 7.45062 1C11.0132 1 13.9012 3.88804 13.9012 7.45062ZM14.9012 7.45062C14.9012 11.5655 11.5655 14.9012 7.45062 14.9012C3.33576 14.9012 0 11.5655 0 7.45062C0 3.33576 3.33576 0 7.45062 0C11.5655 0 14.9012 3.33576 14.9012 7.45062ZM6.95062 2.70924V7.45054V7.71813L7.17327 7.86656L10.2212 9.89855L10.7759 9.0665L7.95062 7.18295V2.70924H6.95062Z" fill="#7A7A7A"/>
</svg>
