<svg viewBox="0 0 18 18" fill="none" xmlns="http://www.w3.org/2000/svg">
<path fill-rule="evenodd" clip-rule="evenodd" d="M17.5 8.76C17.5 10.53 16.97 12.18 16.06 13.57L16.02 13.64L16 13.66L15.85 13.85C15.84 13.865 15.8275 13.88 15.815 13.895C15.8025 13.91 15.79 13.925 15.78 13.94C15.62 14.16 15.44 14.38 15.26 14.58C15.235 14.605 15.2125 14.63 15.19 14.655C15.1675 14.68 15.145 14.705 15.12 14.73C14.92 14.94 14.71 15.15 14.49 15.34C14.48 15.35 14.4675 15.36 14.455 15.37C14.4425 15.38 14.43 15.39 14.42 15.4C13.9 15.84 13.34 16.22 12.74 16.53C12.73 16.535 12.7225 16.5375 12.715 16.54C12.7075 16.5425 12.7 16.545 12.69 16.55C12.42 16.69 12.14 16.81 11.85 16.92C11.8 16.93 11.75 16.95 11.7 16.97C11.45 17.06 11.19 17.14 10.92 17.21C10.885 17.22 10.8525 17.2275 10.82 17.235C10.7875 17.2425 10.755 17.25 10.72 17.26C10.46 17.32 10.2 17.36 9.93 17.4C9.87001 17.41 9.80001 17.42 9.73002 17.43H9.73C9.41 17.47 9.07 17.49 8.74 17.49C8.41 17.49 8.08 17.47 7.75 17.43C7.69 17.42 7.62 17.41 7.55 17.4C7.28 17.37 7.02 17.32 6.76 17.26C6.70295 17.2519 6.65253 17.2371 6.59794 17.221C6.58555 17.2174 6.57295 17.2137 6.56 17.21C6.3 17.14 6.04 17.06 5.78 16.97C5.73 16.96 5.68 16.94 5.63 16.92C5.35 16.81 5.06 16.69 4.79 16.55C4.785 16.545 4.7775 16.5425 4.77 16.54C4.7625 16.5375 4.755 16.535 4.75 16.53C4.15 16.22 3.58 15.84 3.07 15.4C3.05 15.39 3.03 15.37 3.01 15.35C2.79 15.16 2.57 14.95 2.37 14.73L2.36998 14.73C2.31999 14.68 2.28 14.64 2.24 14.59C2.05 14.38 1.87 14.16 1.7 13.93C1.69 13.915 1.68 13.9025 1.67 13.89C1.66 13.8775 1.65 13.865 1.64 13.85L1.53 13.69C1.525 13.68 1.5175 13.67 1.51 13.66C1.5025 13.65 1.495 13.64 1.49 13.63L1.45 13.57V13.56C0.54 12.18 0 10.53 0 8.75C0 3.93 3.92 0 8.75 0C13.58 0 17.51 3.93 17.5 8.76ZM16.5 8.75C16.5 4.48 13.02 1 8.75 1C4.48 1 1 4.48 1 8.75C1 10.19 1.4 11.53 2.07 12.69C3.69 10.67 6.13 9.47 8.74 9.47C11.36 9.47 13.79 10.67 15.41 12.69C16.1 11.53 16.5 10.19 16.5 8.75ZM12.91 15.28C13.63 14.82 14.28 14.24 14.82 13.56C14.824 13.56 14.8264 13.5584 14.8279 13.5571C13.4078 11.6189 11.1588 10.48 8.75 10.48C6.34 10.48 4.09 11.63 2.67 13.56C2.67 13.565 2.6725 13.5675 2.675 13.57C2.6775 13.5725 2.68 13.575 2.68 13.58C3.22 14.26 3.87 14.84 4.59 15.3C4.6 15.305 4.61 15.3125 4.62 15.32C4.63 15.3275 4.64 15.335 4.65 15.34C4.87 15.47 5.09 15.6 5.32 15.71C5.335 15.72 5.3525 15.7275 5.37 15.735C5.3875 15.7425 5.405 15.75 5.42 15.76C5.64 15.86 5.87 15.96 6.1 16.04C6.12 16.045 6.14 16.0525 6.16 16.06C6.18 16.0675 6.2 16.075 6.22 16.08C6.45 16.16 6.68 16.22 6.91 16.28C6.96 16.29 7 16.3 7.03 16.32C7.27 16.37 7.5 16.41 7.74 16.44C7.78271 16.44 7.81812 16.4473 7.85871 16.4557C7.86563 16.4571 7.87271 16.4585 7.88 16.46C8.17 16.49 8.45 16.51 8.74 16.51C9.03 16.51 9.32 16.49 9.6 16.46C9.64271 16.46 9.67812 16.4527 9.7187 16.4443C9.72563 16.4429 9.73271 16.4415 9.74 16.44C9.98 16.41 10.22 16.37 10.45 16.32C10.5 16.3 10.54 16.29 10.59 16.28C10.82 16.23 11.05 16.16 11.28 16.08C11.3 16.075 11.32 16.0675 11.34 16.06C11.36 16.0525 11.38 16.045 11.4 16.04C11.63 15.95 11.86 15.86 12.08 15.75C12.0942 15.7429 12.1071 15.7371 12.1192 15.7316C12.1413 15.7217 12.1606 15.7129 12.18 15.7C12.41 15.58 12.63 15.46 12.85 15.32C12.87 15.3 12.89 15.29 12.91 15.28ZM11.49 5.5398C11.49 7.0498 10.26 8.2798 8.75001 8.2798C7.24001 8.2798 6.01001 7.0498 6.01001 5.5398C6.01001 4.0298 7.24001 2.7998 8.75001 2.7998C10.26 2.7998 11.49 4.0298 11.49 5.5398ZM10.49 5.5398C10.49 4.5798 9.71001 3.7998 8.75001 3.7998C7.79001 3.7998 7.01001 4.5798 7.01001 5.5398C7.01001 6.4998 7.79001 7.27981 8.75001 7.27981C9.71001 7.27981 10.49 6.4998 10.49 5.5398Z" fill="currentColor"/>
</svg>
