<?xml version="1.0" encoding="utf-8"?>
<svg version="1.1" xmlns="http://www.w3.org/2000/svg" xmlns:xlink="http://www.w3.org/1999/xlink" x="0px" y="0px"
	 viewBox="0 0 15 15" xml:space="preserve">
<path fill="currentColor" d="M14.5,4.6c0-0.8-0.2-1.3-0.3-1.7c-0.2-0.5-0.4-0.9-0.8-1.3c-0.4-0.4-0.8-0.6-1.3-0.8c-0.5-0.2-1-0.3-1.7-0.3
	c-0.8,0-1,0-3,0s-2.2,0-3,0c-0.8,0-1.3,0.2-1.7,0.3C2.1,0.9,1.7,1.2,1.3,1.6C0.9,2,0.7,2.4,0.5,2.8c-0.2,0.5-0.3,1-0.3,1.7
	c0,0.8,0,1,0,3c0,2,0,2.2,0,3c0,0.8,0.2,1.3,0.3,1.7c0.2,0.5,0.4,0.9,0.8,1.3c0.4,0.4,0.8,0.6,1.3,0.8c0.5,0.2,1,0.3,1.7,0.3
	c0.8,0,1,0,3,0s2.2,0,3,0c0.8,0,1.3-0.2,1.7-0.3c0.5-0.2,0.9-0.4,1.3-0.8c0.4-0.4,0.6-0.8,0.8-1.3c0.2-0.5,0.3-1,0.3-1.7
	c0-0.8,0-1,0-3C14.5,5.6,14.5,5.3,14.5,4.6z M13.2,10.4c0,0.7-0.1,1.1-0.2,1.3c-0.1,0.3-0.3,0.6-0.5,0.8c-0.3,0.3-0.5,0.4-0.8,0.5
	c-0.3,0.1-0.6,0.2-1.3,0.2c-0.8,0-1,0-2.9,0c-1.9,0-2.2,0-2.9,0c-0.7,0-1.1-0.1-1.3-0.2c-0.3-0.1-0.6-0.3-0.8-0.5
	c-0.3-0.2-0.4-0.5-0.5-0.8c-0.1-0.3-0.2-0.6-0.2-1.3c0-0.8,0-1,0-2.9c0-1.9,0-2.2,0-2.9c0-0.7,0.1-1.1,0.2-1.3C1.9,3,2,2.7,2.3,2.5
	s0.5-0.4,0.8-0.5c0.3-0.1,0.6-0.2,1.3-0.2c0.8,0,1,0,2.9,0c1.9,0,2.2,0,2.9,0c0.7,0,1.1,0.1,1.3,0.2c0.3,0.1,0.6,0.3,0.8,0.5
	c0.3,0.2,0.4,0.5,0.5,0.8c0.1,0.3,0.2,0.6,0.2,1.3c0,0.8,0,1,0,2.9C13.2,9.5,13.2,9.7,13.2,10.4z M7.3,3.9c-2,0-3.7,1.7-3.7,3.7
	s1.7,3.7,3.7,3.7S11,9.6,11,7.5S9.4,3.9,7.3,3.9z M7.3,9.9C6,9.9,4.9,8.9,4.9,7.5S6,5.1,7.3,5.1s2.4,1.1,2.4,2.4S8.6,9.9,7.3,9.9z
	 M10.3,3.7c0-0.5,0.4-0.9,0.9-0.9c0.5,0,0.9,0.4,0.9,0.9c0,0.5-0.4,0.9-0.9,0.9C10.7,4.6,10.3,4.2,10.3,3.7z"/>
</svg>
