<svg viewBox="0 0 35 33" fill="none" xmlns="http://www.w3.org/2000/svg">
<path fill-rule="evenodd" clip-rule="evenodd" d="M17.5658 12.127C14.6962 12.127 12.375 14.4481 12.375 17.3178C12.375 20.1874 14.6962 22.5085 17.5658 22.5085C20.4354 22.5085 22.7566 20.1874 22.7566 17.3178C22.7566 14.4481 20.4354 12.127 17.5658 12.127ZM17.5658 20.6848C15.7037 20.6848 14.1988 19.1798 14.1988 17.3178C14.1988 15.4557 15.7037 13.9507 17.5658 13.9507C19.4279 13.9507 20.9328 15.4557 20.9328 17.3178C20.9328 19.1798 19.4279 20.6848 17.5658 20.6848Z" fill="currentColor"/>
<path d="M21.749 11.9245C21.749 11.2613 22.2974 10.7129 22.9606 10.7129C23.6238 10.7129 24.1722 11.2613 24.1722 11.9245C24.1722 12.5877 23.6238 13.1361 22.9606 13.1361C22.2974 13.1361 21.749 12.5877 21.749 11.9245Z" fill="currentColor"/>
<path fill-rule="evenodd" clip-rule="evenodd" d="M27.6031 13.1493C27.5521 12.078 27.3863 11.3382 27.1312 10.7005C26.8761 10.0373 26.5318 9.47617 25.9706 8.91501C25.4094 8.35384 24.8483 8.00949 24.1851 7.75441C23.5474 7.49933 22.8077 7.33353 21.7364 7.28252C20.6523 7.2315 20.3079 7.21875 17.5659 7.21875C14.8238 7.21875 14.4794 7.2315 13.3954 7.28252C12.324 7.33353 11.5971 7.49933 10.9466 7.75441C10.2834 8.00949 9.72227 8.35384 9.1611 8.91501C8.59993 9.47617 8.25558 10.0373 8.0005 10.7005C7.74543 11.3382 7.57963 12.078 7.52861 13.1493C7.4776 14.2333 7.46484 14.5777 7.46484 17.3198C7.46484 20.0618 7.4776 20.4062 7.52861 21.4903C7.57963 22.5616 7.74543 23.3013 8.0005 23.939C8.25558 24.6022 8.59993 25.1634 9.1611 25.7245C9.72227 26.2857 10.2834 26.63 10.9466 26.8851C11.5843 27.1402 12.324 27.306 13.3954 27.357C14.4667 27.408 14.811 27.4208 17.5659 27.4208C20.3207 27.4208 20.6523 27.408 21.7364 27.357C22.8077 27.306 23.5474 27.1402 24.1851 26.8851C24.8483 26.63 25.4094 26.2857 25.9706 25.7245C26.5318 25.1634 26.8761 24.6022 27.1312 23.939C27.3863 23.3013 27.5521 22.5616 27.6031 21.4903C27.6541 20.4189 27.6669 20.0746 27.6669 17.3198C27.6669 14.5777 27.6541 14.2333 27.6031 13.1493ZM25.7921 21.401C25.741 22.383 25.588 22.9187 25.4477 23.2758C25.2692 23.7477 25.0396 24.0793 24.6952 24.4364C24.3381 24.7935 24.0065 25.0103 23.5346 25.1889C23.1775 25.3292 22.6419 25.495 21.6598 25.5332C20.5885 25.5842 20.2697 25.597 17.5786 25.597C14.8876 25.597 14.556 25.5842 13.4974 25.5332C12.5154 25.4822 11.9797 25.3292 11.6226 25.1889C11.1507 25.0103 10.8191 24.7807 10.462 24.4364C10.1049 24.092 9.88807 23.7477 9.70951 23.2758C9.56922 22.9187 9.40342 22.383 9.36516 21.401C9.31415 20.3297 9.30139 20.0108 9.30139 17.3198C9.30139 14.6287 9.31415 14.2971 9.36516 13.2385C9.41618 12.2565 9.56922 11.7208 9.70951 11.3637C9.88807 10.8918 10.1176 10.5602 10.462 10.2031C10.8063 9.84603 11.1507 9.62922 11.6226 9.45067C11.9797 9.31037 12.5154 9.14457 13.4974 9.10631C14.5687 9.0553 14.8876 9.04254 17.5786 9.04254C20.2697 9.04254 20.6013 9.0553 21.6598 9.10631C22.6419 9.15733 23.1775 9.31037 23.5346 9.45067C24.0065 9.62922 24.3381 9.85879 24.6952 10.2031C25.0523 10.5475 25.2692 10.8918 25.4477 11.3637C25.588 11.7208 25.7538 12.2565 25.7921 13.2385C25.8431 14.3099 25.8558 14.6287 25.8558 17.3198C25.8558 20.0108 25.8431 20.3424 25.7921 21.401Z" fill="currentColor"/>
</svg>
