<?xml version="1.0" encoding="utf-8"?>
<svg version="1.1" id="Layer_1" xmlns="http://www.w3.org/2000/svg" xmlns:xlink="http://www.w3.org/1999/xlink" x="0px" y="0px"
	 viewBox="0 0 17 16" xml:space="preserve">
<path fill="currentColor" d="M3.8,5.3H0.3V16h3.5V5.3z"/>
<path fill="currentColor" d="M2,3.9C0.9,3.9,0,3,0,1.9C0,0.9,0.9,0,2,0c1.1,0,2,0.9,2,1.9C4.1,3,3.2,3.9,2,3.9z"/>
<path fill="currentColor" d="M17,16h-3.5v-5.2c0-1.2,0-2.8-1.8-2.8c-1.8,0-2.1,1.4-2.1,2.7V16H6V5.3h3.4v1.5h0C9.9,5.9,11.1,5,12.8,5
	c3.6,0,4.2,2.2,4.2,5.1V16z"/>
</svg>
