<svg viewBox="0 0 35 33" fill="none" xmlns="http://www.w3.org/2000/svg">
<path d="M11.926 12.9724H7.36232V26.9988H11.926V12.9724Z" fill="currentColor"/>
<path d="M9.64478 11.0558C8.18088 11.0558 7 9.92423 7 8.52789C7 7.13271 8.18088 6 9.64478 6C11.1026 6 12.2871 7.13271 12.2871 8.52789C12.2871 9.92423 11.1038 11.0558 9.64478 11.0558Z" fill="currentColor"/>
<path d="M29 27H24.4412V20.1793C24.4412 18.5531 24.4119 16.4603 22.0721 16.4603C19.6993 16.4603 19.3382 18.2335 19.3382 20.0626V27H14.7855V12.9724H19.1553V14.8902H19.2175C19.825 13.7878 21.3133 12.6248 23.5311 12.6248C28.1473 12.6248 29 15.5294 29 19.3067V27Z" fill="currentColor"/>
</svg>
