<?xml version="1.0" encoding="utf-8"?>
<svg version="1.1" xmlns="http://www.w3.org/2000/svg" xmlns:xlink="http://www.w3.org/1999/xlink" x="0px" y="0px"
	 viewBox="0 0 17 17" xml:space="preserve">
<path fill="currentColor" d="M8.5,17C3.9,17,0,13.2,0,8.5C0,3.9,3.7,0,8.5,0C13.2,0,17,3.8,17,8.5C17,13.3,13.1,17,8.5,17z M7.2,4.5c-0.5,0-1,0-1.6,0.1
	C5.1,4.6,4.5,4.7,3.9,4.9C3.7,4.9,3.4,5,3.2,5.1C2.8,5.2,2.6,5.6,2.7,5.9c0.1,0.5,0.5,0.8,1,0.6c0.1,0,0.2-0.1,0.3-0.1
	c0.8-0.2,1.7-0.3,2.6-0.4c0.7,0,1.5,0,2.2,0.1c0.7,0.1,1.3,0.2,2,0.3c0.8,0.2,1.7,0.5,2.4,0.9c0.1,0.1,0.3,0.1,0.4,0.2
	c0.2,0.1,0.5,0.1,0.7,0c0.3-0.1,0.4-0.4,0.4-0.7c0-0.3-0.1-0.5-0.3-0.7C14.2,6.1,14,6,13.8,5.9c-0.5-0.3-1.1-0.5-1.7-0.7
	c-1.2-0.4-2.4-0.6-3.6-0.6C8.1,4.5,7.7,4.5,7.2,4.5z M6.9,7.4c-0.3,0-0.8,0-1.2,0.1C5.1,7.6,4.6,7.7,4,7.8c-0.1,0-0.2,0.1-0.4,0.1
	C3.3,8.1,3.2,8.4,3.3,8.8c0.1,0.3,0.5,0.5,0.8,0.4C4.7,9,5.4,8.8,6.2,8.8c0.4,0,0.9-0.1,1.3,0c0.4,0,0.9,0.1,1.3,0.1
	c0.8,0.1,1.5,0.3,2.3,0.6c0.5,0.2,1,0.4,1.5,0.7c0.3,0.2,0.6,0.1,0.8-0.1c0.3-0.3,0.2-0.8-0.2-1c-0.6-0.3-1.1-0.6-1.7-0.8
	C10,7.7,8.6,7.4,6.9,7.4z M7.1,10.2c-0.3,0-0.7,0-1.1,0c-0.5,0-1.1,0.1-1.6,0.2c-0.2,0-0.4,0.1-0.5,0.1c-0.4,0.1-0.5,0.5-0.3,0.8
	c0.1,0.2,0.3,0.2,0.6,0.2c0.1,0,0.3-0.1,0.4-0.1c0.8-0.2,1.6-0.2,2.4-0.3c0.2,0,0.5,0,0.7,0c0.4,0,0.7,0.1,1.1,0.1
	c1,0.2,1.9,0.5,2.8,1c0,0,0.1,0,0.1,0.1c0.2,0.1,0.5,0,0.6-0.2c0.1-0.2,0.1-0.5-0.1-0.7c0,0-0.1-0.1-0.1-0.1c-0.7-0.4-1.5-0.8-2.3-1
	C9,10.3,8.1,10.2,7.1,10.2z"/>
</svg>
