<svg viewBox="0 0 35 33" fill="none" xmlns="http://www.w3.org/2000/svg">
<path d="M17.5022 27.9997C11.7817 28.0408 6.98629 23.3331 7.00003 17.4839C7.01377 11.7579 11.626 7 17.5022 7C23.3511 7 28.0274 11.7351 27.9999 17.5569C27.977 23.4062 23.1908 28.0363 17.5022 27.9997ZM15.9084 12.5844C15.3175 12.5661 14.6488 12.6027 13.9801 12.6666C13.2656 12.7305 12.5557 12.8401 11.855 12.9999C11.5343 13.073 11.2137 13.1506 10.9023 13.2556C10.4626 13.4109 10.2153 13.8721 10.2794 14.283C10.3847 14.9086 10.9344 15.251 11.5481 15.073C11.6763 15.0364 11.8092 14.9999 11.9374 14.9634C12.9771 14.694 14.0397 14.5661 15.1114 14.5205C16.0229 14.4839 16.9343 14.4976 17.8412 14.5889C18.6564 14.6711 19.4625 14.7899 20.2595 14.9771C21.2992 15.2191 22.3068 15.5524 23.2549 16.0501C23.4152 16.1369 23.5755 16.2236 23.7358 16.3104C24.0243 16.4611 24.322 16.4748 24.6198 16.3332C24.9678 16.1688 25.1465 15.8812 25.1648 15.5113C25.1831 15.1551 25.0411 14.8583 24.7343 14.6574C24.4961 14.5022 24.2488 14.3743 23.9923 14.2465C23.319 13.9132 22.6182 13.6392 21.8946 13.4154C20.461 12.9725 18.9908 12.7351 17.4977 12.6164C16.9984 12.589 16.4946 12.5798 15.9084 12.5844ZM15.5832 16.1825C15.1893 16.2054 14.6397 16.2191 14.0992 16.2739C13.3572 16.3515 12.6244 16.4885 11.9008 16.6802C11.7542 16.7213 11.6031 16.7533 11.4656 16.8172C11.0534 17.0044 10.9023 17.4154 11.0351 17.8309C11.1588 18.219 11.5985 18.4382 12.0061 18.3195C12.8534 18.0729 13.7191 17.904 14.603 17.8492C15.1435 17.8126 15.6794 17.7807 16.2198 17.8081C16.7694 17.84 17.319 17.8811 17.8687 17.9588C18.8259 18.0957 19.7602 18.3286 20.6671 18.6665C21.2946 18.8994 21.8992 19.1916 22.4763 19.5387C22.8198 19.7441 23.2595 19.6756 23.5022 19.388C23.8411 18.9861 23.7449 18.4291 23.2869 18.1505C22.5999 17.735 21.8808 17.3926 21.1297 17.1186C19.3801 16.4839 17.5801 16.1962 15.5832 16.1825ZM15.8259 19.6208C15.4183 19.6071 14.9694 19.6254 14.516 19.6665C13.861 19.7259 13.2107 19.8218 12.5649 19.945C12.3404 19.9907 12.116 20.0318 11.8916 20.0912C11.4565 20.2144 11.2779 20.7167 11.5343 21.0774C11.713 21.324 11.9603 21.3742 12.2397 21.324C12.4183 21.2921 12.5969 21.2464 12.7756 21.2099C13.7328 21.0135 14.6992 20.9131 15.6794 20.8811C15.9771 20.872 16.2794 20.8857 16.5771 20.9039C17.0305 20.9313 17.4793 20.977 17.9236 21.05C19.1465 21.2555 20.2961 21.6665 21.3633 22.3057C21.4091 22.3331 21.4549 22.3605 21.5053 22.3788C21.7847 22.4975 22.119 22.3971 22.2839 22.1459C22.4625 21.872 22.4167 21.5204 22.1785 21.3149C22.1236 21.2692 22.064 21.2327 22.0045 21.1962C21.1068 20.6528 20.1496 20.2601 19.1373 19.9998C18.0656 19.7304 16.9755 19.6026 15.8259 19.6208Z" fill="currentColor"/>
</svg>
