<svg viewBox="0 0 35 33" fill="none" xmlns="http://www.w3.org/2000/svg">
<path d="M28.28 12.4989C28.28 12.4989 28.0648 10.6375 27.4055 9.81777C26.5688 8.74144 25.6311 8.73637 25.2014 8.67391C22.1227 8.40039 17.5048 8.40039 17.5048 8.40039H17.4952C17.4952 8.40039 12.8773 8.40039 9.79862 8.67391C9.36825 8.73637 8.43119 8.74228 7.5945 9.81777C6.9345 10.6375 6.72 12.4989 6.72 12.4989C6.72 12.4989 6.5 14.6853 6.5 16.8709V18.9206C6.5 21.107 6.72 23.2926 6.72 23.2926C6.72 23.2926 6.9345 25.154 7.5945 25.9737C8.43119 27.0501 9.5305 27.0154 10.02 27.1286C11.78 27.3362 17.5 27.4004 17.5 27.4004C17.5 27.4004 22.1227 27.3919 25.2014 27.1184C25.6311 27.0551 26.5688 27.0501 27.4055 25.9746C28.0648 25.1549 28.28 23.2934 28.28 23.2934C28.28 23.2934 28.5 21.107 28.5 18.9206V16.8709C28.5 14.6853 28.28 12.4989 28.28 12.4989ZM15.2285 21.4042L15.2278 13.8141L22.1291 17.6222L15.2285 21.4042Z" fill="currentColor"/>
</svg>
