<?xml version="1.0" encoding="utf-8"?>
<svg version="1.1" xmlns="http://www.w3.org/2000/svg" xmlns:xlink="http://www.w3.org/1999/xlink" x="0px" y="0px"
	 viewBox="0 0 18 14" xml:space="preserve">
<path fill="currentColor" d="M17.8,3c0,0-0.2-1.4-0.7-2c-0.7-0.8-1.5-0.8-1.8-0.8C12.8,0,9,0,9,0l0,0c0,0-3.8,0-6.3,0.2C2.3,0.2,1.6,0.3,0.9,1
	C0.4,1.6,0.2,3,0.2,3S0,4.6,0,6.2v1.5C0,9.4,0.2,11,0.2,11s0.2,1.4,0.7,2c0.7,0.8,1.6,0.8,2,0.9C4.3,14,9,14,9,14s3.8,0,6.3-0.2
	c0.4,0,1.1-0.1,1.8-0.8c0.5-0.6,0.7-2,0.7-2S18,9.4,18,7.8V6.2C18,4.6,17.8,3,17.8,3z M7.1,9.6V4L12,6.8L7.1,9.6z"/>
</svg>
