<svg viewBox="0 0 157 31" fill="none" xmlns="http://www.w3.org/2000/svg">
<path d="M140.487 1.73501C140.507 0.780056 141.306 -0.00990561 142.249 9.3901e-05C143.192 0.0100934 143.971 0.810054 143.976 1.77501C143.981 2.77496 143.257 3.46492 142.214 3.45492C141.186 3.44493 140.467 2.72996 140.487 1.73501Z" fill="white"/>
<path fill-rule="evenodd" clip-rule="evenodd" d="M39.353 11.4046C39.5472 11.377 39.7415 11.3494 39.9353 11.3198C40.0508 11.3023 40.1796 11.303 40.3099 11.3036C40.7763 11.3059 41.261 11.3084 41.2181 10.4798C41.1732 9.56486 41.0883 8.65491 40.0002 8.41492C38.9121 8.17493 38.0136 8.47992 37.4945 9.57986C37.1501 10.3048 34.6893 10.4948 34.2002 9.85985C34.035 9.64771 34.0962 9.43918 34.1582 9.22814C34.1693 9.19048 34.1804 9.15274 34.1902 9.11489C34.5645 7.64496 35.5029 6.65501 36.8756 6.08503C38.0735 5.59006 39.3313 5.43507 40.6191 5.58006C43.5241 5.91004 44.7969 7.32997 44.8269 10.2598C44.8301 10.7493 44.8291 11.2367 44.828 11.7677C44.8275 12.0504 44.8269 12.3454 44.8269 12.6597C44.8574 13.0782 44.8438 13.5149 44.8299 13.9595C44.7894 15.257 44.7468 16.6214 45.7952 17.7945C46.0348 18.0544 45.91 18.3744 45.6455 18.6044C45.346 18.8644 45.0465 19.1244 44.752 19.3844C43.3644 20.5993 43.3145 20.6393 42.2413 19.2194C41.7671 18.5944 41.5275 18.7044 41.0634 19.1544C40.3596 19.8444 39.4911 20.2393 38.4928 20.3543C36.0869 20.6343 34.4597 19.7694 33.8657 17.8545C33.1769 15.6446 34.0454 13.3797 36.0071 12.3047C37.0534 11.7315 38.2021 11.5682 39.353 11.4046ZM41.2118 14.4799L41.2181 14.3646C41.1439 14.2762 41.1716 14.1258 41.2007 13.9673C41.254 13.6777 41.3122 13.3608 40.7639 13.3447C39.7456 13.3197 38.7274 13.4697 37.9986 14.2896C37.3298 15.0446 37.2599 15.9396 37.6193 16.8645C37.8539 17.4595 38.3331 17.7845 38.942 17.7695C39.9303 17.7495 40.5093 17.1295 40.8986 16.2695C41.1442 15.7208 41.1753 15.1496 41.2118 14.4799Z" fill="white"/>
<path fill-rule="evenodd" clip-rule="evenodd" d="M12.1981 17.8791C11.1615 16.694 11.1624 15.3232 11.1634 13.9463C11.1638 13.4469 11.1641 12.9468 11.1149 12.4544C11.1149 12.1092 11.1195 11.7635 11.1241 11.4176C11.1346 10.6214 11.1452 9.82424 11.1 9.02955C11.0351 7.85961 10.4211 6.96465 9.42286 6.34968C7.40134 5.10974 3.92733 5.30973 2.06553 6.76966C1.31183 7.35963 0.827666 8.1246 0.568113 9.03455C0.561528 9.05846 0.554672 9.08261 0.547762 9.10694C0.470871 9.37775 0.387388 9.67178 0.598062 9.91951C1.12216 10.5295 3.55297 10.2495 3.89738 9.52453C4.36657 8.52458 5.18017 8.24459 6.17346 8.37958C7.34644 8.53958 7.53611 9.42453 7.60599 10.4145C7.66859 11.3041 7.1516 11.3029 6.65114 11.3017C6.51311 11.3014 6.37633 11.3011 6.25332 11.3194C6.06071 11.3494 5.86752 11.3774 5.67429 11.4054C4.48045 11.5785 3.28498 11.7518 2.21528 12.3844C0.328526 13.4993 -0.47509 15.8542 0.283603 18.0241C0.902537 19.794 2.48481 20.609 4.76588 20.369C5.81408 20.259 6.71253 19.844 7.46124 19.1341C7.87053 18.7491 8.08516 18.5691 8.55436 19.1591C9.70737 20.629 9.75229 20.594 11.1599 19.359C11.2388 19.2894 11.3185 19.22 11.3983 19.1506C11.6162 18.9609 11.8351 18.7704 12.0433 18.5691C12.238 18.3791 12.4177 18.1291 12.1981 17.8791ZM7.26158 16.2242C6.93714 17.0942 6.33318 17.7441 5.3349 17.7691C4.60616 17.7841 4.10702 17.3741 3.89738 16.6542C3.61786 15.6892 3.77259 14.8093 4.52629 14.1243C5.24506 13.4643 6.18344 13.3343 7.10685 13.3393C7.66519 13.3426 7.64219 13.6511 7.61661 13.9943C7.60332 14.1726 7.58933 14.3603 7.6559 14.5193C7.6216 14.6747 7.59175 14.839 7.56103 15.0081C7.48895 15.4049 7.41207 15.8281 7.26158 16.2242Z" fill="white"/>
<path d="M101.459 7.08487C102.937 6.15991 104.514 5.54494 106.281 5.54994C108.567 5.55994 110.05 6.71489 110.159 8.96978C110.296 11.765 110.284 14.5667 110.271 17.3671V17.3744C110.268 18.0428 110.265 18.7111 110.264 19.3793C110.26 20.3275 109.676 20.2859 109.109 20.2455C108.929 20.2326 108.75 20.2199 108.592 20.2392C107.848 20.3342 107.459 20.0692 107.469 19.2243C107.501 16.7064 107.491 14.1926 107.482 11.6755L107.479 10.9197C107.469 8.16982 106.436 7.37485 103.755 8.02482C101.424 8.5898 101.29 8.75979 101.29 11.1797C101.29 11.9314 101.286 12.6835 101.282 13.4357C101.273 15.2754 101.264 17.1161 101.31 18.9543C101.34 20.0442 100.895 20.2892 99.907 20.2692C98.9736 20.2492 98.4495 20.1392 98.4844 18.9843C98.5529 16.6143 98.5333 14.2406 98.5138 11.8664C98.5105 11.4708 98.5073 11.0753 98.5044 10.6797C98.4894 8.28481 97.556 7.51485 95.1951 7.91483C94.9243 7.95898 94.6575 8.03696 94.3909 8.11487C94.2349 8.16047 94.0789 8.20605 93.9223 8.24481C92.6894 8.5548 92.2003 9.24476 92.2602 10.6047C92.3299 12.1724 92.3186 13.7448 92.3072 15.3175V15.3191C92.2982 16.5597 92.2893 17.8004 92.3201 19.0393C92.3498 20.2299 91.7259 20.2441 90.858 20.2638L90.8376 20.2642C89.9142 20.2842 89.4949 20.0742 89.5099 19.0293C89.5412 17.0807 89.5398 15.1321 89.5384 13.1836C89.5372 11.3973 89.5359 9.61108 89.5598 7.82483C89.561 7.67925 89.5329 7.51468 89.504 7.34508C89.4086 6.78663 89.304 6.17366 90.2037 6.00492C91.187 5.81993 92.0505 5.95492 92.1903 7.27486L92.3648 7.17912C93.6208 6.48953 94.7932 5.84588 96.1435 5.64994C97.8306 5.40995 99.4228 5.49995 100.506 7.05487C100.828 7.51498 101.058 7.35746 101.325 7.17395C101.369 7.1441 101.413 7.11355 101.459 7.08487Z" fill="white"/>
<path d="M14.314 20.0561C14.1442 19.878 14.1502 19.5317 14.1622 18.8505C14.1662 18.6192 14.1709 18.3493 14.1697 18.0343C14.164 16.6871 14.1684 15.3399 14.1727 13.9933V13.9925C14.1798 11.7811 14.1869 9.57087 14.1497 7.36483C14.1298 6.26989 14.4292 5.9099 15.5373 5.9599L15.7439 5.9687C17.3746 6.03738 17.3856 6.03785 17.6687 7.58982C19.9447 4.86996 22.4255 4.96495 24.1824 7.84981C24.2088 7.84321 24.2389 7.83988 24.2687 7.83659C24.3293 7.82988 24.3886 7.82332 24.412 7.78981C25.615 5.9549 27.1523 5.29493 28.9642 5.84491C30.6014 6.33988 31.42 7.57982 31.4349 9.73472C31.446 11.117 31.4414 12.5002 31.4367 13.884V13.8898C31.4308 15.6224 31.425 17.3558 31.4499 19.0893C31.4649 20.0492 31.1105 20.2892 30.217 20.2692C29.9248 20.2622 29.669 20.2596 29.4452 20.2573C28.6294 20.2491 28.2388 20.2451 28.0557 20.0479C27.8875 19.8667 27.8944 19.5226 27.9076 18.8623C27.9127 18.6066 27.9188 18.3036 27.916 17.9443C27.902 16.3449 27.9052 14.7454 27.9083 13.146C27.9097 12.4605 27.911 11.7751 27.911 11.0897C27.911 10.0997 27.7513 9.19974 26.5434 9.04475C25.5601 8.91976 24.6966 9.66972 24.6466 10.9497C24.5418 13.5845 24.5318 16.2194 24.5818 18.8543C24.6017 19.9342 24.3072 20.3192 23.1842 20.2742C22.8833 20.2623 22.6245 20.2573 22.402 20.2529C21.7197 20.2395 21.3778 20.2328 21.2083 20.0582C21.038 19.8827 21.0418 19.5377 21.0493 18.8462V18.8454C21.0515 18.6506 21.0539 18.4279 21.0528 18.1743C21.0483 17.2176 21.0489 16.2599 21.0495 15.3016C21.0503 14.1515 21.051 13.0005 21.0428 11.8496C21.0379 11.3296 20.973 10.7997 20.8881 10.2847C20.7583 9.47973 20.2592 9.01475 19.4556 9.00975C18.6719 9.00475 18.1528 9.42973 17.9132 10.1997C17.7286 10.7947 17.6886 11.4046 17.6886 12.0196C17.6886 12.696 17.6848 13.3724 17.6811 14.0487C17.6718 15.7017 17.6625 17.3545 17.7086 19.0043C17.7385 20.0092 17.3941 20.2992 16.4258 20.2692C16.1052 20.2594 15.8295 20.2561 15.5924 20.2533C14.853 20.2445 14.4895 20.2402 14.314 20.0561Z" fill="white"/>
<path d="M82.7565 8.70487C82.482 6.58997 80.9696 5.53003 78.8483 5.70002C77.4307 5.81501 76.5722 6.65997 75.8484 8.1399C75.6639 6.02858 75.6589 6.02839 73.9437 5.96083L73.797 5.95501C72.7238 5.91001 72.3644 6.19999 72.3844 7.32494C72.4543 11.1448 72.4842 14.9646 72.3744 18.7794C72.3345 20.2393 72.9983 20.3043 74.1014 20.2693C74.2072 20.2658 74.3114 20.2643 74.4132 20.2629C75.3209 20.2503 76.0395 20.2404 75.9632 18.7794C75.8385 16.2845 75.8983 13.7746 76.0331 11.2797C76.118 9.74482 76.9266 8.87486 77.8949 8.98486C79.3353 9.14961 79.3573 10.3114 79.3773 11.3652L79.3773 11.3697C79.4073 12.982 79.4036 14.5943 79.3998 16.2086C79.3986 16.747 79.3973 17.2855 79.3973 17.8244C79.3973 20.4693 79.4822 20.5393 82.1276 20.2593C82.6417 20.2043 82.9712 20.0593 82.9512 19.4843C82.9195 18.2175 82.9437 16.9481 82.968 15.6785C83.0124 13.3506 83.0569 11.0212 82.7565 8.70487Z" fill="white"/>
<path d="M12.8669 22.0741C24.9861 28.5988 37.4596 29.4438 50.2925 24.379C50.3436 24.3591 50.3956 24.3378 50.4481 24.3163C50.8972 24.1324 51.3817 23.9339 51.6901 24.489C51.9984 25.056 51.5561 25.3257 51.1739 25.5589C51.1044 25.6013 51.0369 25.6424 50.9763 25.684C47.9515 27.7789 42.4011 29.8838 37.4246 30.7037C35.1935 31.0737 32.9174 31.0837 30.6713 30.8087C23.8979 29.9837 17.7136 27.6189 12.4077 22.9541C12.2131 22.7841 12.0184 22.5991 11.8387 22.4091C11.7189 22.2841 11.6141 22.1291 11.7239 21.9441C11.8537 21.7291 12.0483 21.6592 12.2829 21.7691C12.4528 21.85 12.6154 21.938 12.78 22.0271L12.8669 22.0741Z" fill="white"/>
<path fill-rule="evenodd" clip-rule="evenodd" d="M64.5379 5.68477C62.3517 5.71477 60.7445 6.74472 59.8161 8.67962C58.4085 11.6245 58.3985 14.6543 59.866 17.5592C61.7727 21.344 66.7741 21.559 69.15 18.0392C70.1433 16.5692 70.4527 14.9043 70.5126 13.1094C70.4378 11.5345 70.2231 9.93956 69.3896 8.48963C68.3064 6.61972 66.7042 5.65977 64.5379 5.68477ZM66.4097 16.0043C66.2001 16.9592 65.7209 17.7442 64.5779 17.7092C63.4847 17.6742 63.1853 16.8342 62.9307 15.9593C62.697 15.1683 62.6812 14.3579 62.6654 13.5489C62.6617 13.3556 62.6579 13.1623 62.6512 12.9694C62.6568 12.7722 62.6589 12.5744 62.661 12.3766C62.67 11.5261 62.6791 10.6739 62.9706 9.85456C63.2701 9.00461 63.7593 8.38464 64.7575 8.42463C65.6959 8.46463 66.1751 9.0646 66.3598 9.89456C66.804 11.9195 66.8589 13.9694 66.4097 16.0043Z" fill="white"/>
<path d="M52.4188 15.5041C54.011 15.5691 55.4236 15.7541 56.7364 16.3741C57.525 16.749 58.0291 18.9539 57.51 19.6239C57.3054 19.8889 57.0708 19.8639 56.8162 19.7439C53.9861 18.419 51.161 18.394 48.3258 19.7289C47.7718 19.9889 47.4823 19.7789 47.4673 19.1889C47.4374 17.789 47.4174 16.4591 48.3857 15.2091C49.4624 13.8201 50.4417 12.3556 51.4612 10.8308L51.4618 10.83C51.9025 10.1708 52.3512 9.49988 52.8181 8.81943C52.3891 8.81943 51.98 8.81308 51.5848 8.80695C50.7158 8.79346 49.9139 8.78101 49.1145 8.83943C47.9689 8.92611 47.963 8.31423 47.9565 7.63958C47.9551 7.49703 47.9537 7.35167 47.9415 7.20951C47.8567 6.25456 48.1362 5.86958 49.1594 5.90458C50.3092 5.94288 51.4606 5.93777 52.6117 5.93266C53.5644 5.92843 54.517 5.9242 55.4685 5.94457C55.6311 5.94855 55.8137 5.92377 55.9994 5.89855C56.5149 5.82857 57.055 5.75526 57.2605 6.28456C57.5849 7.10952 57.5549 8.07947 56.966 8.91443C56.2095 9.98215 55.4676 11.0616 54.727 12.1393C54.5 12.4696 54.2731 12.7997 54.046 13.1292C53.7456 13.5645 53.4469 14.0015 53.13 14.4651C52.9046 14.7949 52.6699 15.1383 52.4188 15.5041Z" fill="white"/>
<path d="M124.275 5.97982C123.446 5.96982 122.842 5.98482 122.867 7.12476C122.913 8.99433 122.904 10.8639 122.895 12.7353C122.891 13.5013 122.887 14.2676 122.887 15.0344C122.887 17.3043 122.673 17.5843 120.472 18.1692C117.681 18.9092 116.463 17.9892 116.458 15.1194C116.457 14.5353 116.456 13.9512 116.454 13.367C116.447 11.2263 116.441 9.08553 116.468 6.94477C116.483 6.02482 115.964 5.91482 115.29 6.00982C115.137 6.0318 114.957 6.01299 114.775 5.99394C114.254 5.93932 113.713 5.88272 113.713 6.77978C113.712 7.39936 113.71 8.01894 113.708 8.63849L113.708 8.65437V8.65509C113.698 11.5447 113.688 14.4337 113.803 17.3193C113.878 19.2442 115.221 20.4041 117.137 20.6041C119.004 20.7991 120.691 20.2691 122.253 19.2742C122.288 19.2524 122.322 19.23 122.356 19.2079C122.741 18.9556 123.095 18.7246 123.237 19.5242C123.385 20.3667 123.957 20.3093 124.501 20.2547C124.65 20.2396 124.798 20.2248 124.934 20.2291C125.665 20.2573 125.661 19.7175 125.658 19.2046C125.658 19.1712 125.658 19.1372 125.658 19.1042C125.654 17.7874 125.655 16.4684 125.657 15.1501V15.1479C125.657 14.49 125.658 13.8317 125.658 13.1745C125.658 12.5844 125.653 11.9938 125.647 11.4031V11.3997C125.635 9.96971 125.623 8.53826 125.683 7.10977C125.73 5.99394 125.133 5.98818 124.376 5.98089L124.275 5.97982Z" fill="white"/>
<path d="M134.141 11.9571L134.142 11.9574C134.55 12.1218 134.959 12.2862 135.366 12.4543C137.747 13.4342 138.685 14.7692 138.416 16.7841C138.146 18.854 136.639 20.2389 134.288 20.5539C133.944 20.6006 133.597 20.6214 133.34 20.6369C133.24 20.643 133.152 20.6482 133.085 20.6539C131.562 20.6239 130.315 20.4239 129.107 19.9739C128.483 19.7389 128.253 19.3439 128.253 18.674C128.248 17.814 128.493 17.584 129.346 17.874C130.724 18.344 132.161 18.554 133.624 18.434C134.707 18.349 135.615 17.944 135.825 16.7391C136.035 15.5141 135.191 15.0191 134.248 14.6392C133.854 14.4809 133.456 14.3309 133.059 14.181C132.389 13.9284 131.72 13.676 131.068 13.3842C129.102 12.5043 128.268 11.0793 128.488 9.11944C128.682 7.42952 129.915 6.19458 131.877 5.7346C133.559 5.33962 135.186 5.60461 136.803 6.09958C137.767 6.39457 137.837 7.14453 137.627 7.8945C137.446 8.53722 137.02 8.36228 136.636 8.20432C136.521 8.15708 136.409 8.11136 136.309 8.08949C135.146 7.8345 133.983 7.65451 132.79 7.8195C131.892 7.94449 131.183 8.31448 131.043 9.30943C130.914 10.2294 131.403 10.8144 132.201 11.1593C132.844 11.4353 133.493 11.6962 134.141 11.9571Z" fill="white"/>
<path d="M156.939 18.3542C156.729 17.4847 156.206 17.7176 155.749 17.9214C155.606 17.9848 155.47 18.0454 155.351 18.0692C151.413 18.8691 149.402 17.3092 149.357 13.3444C149.312 8.86962 151.249 7.23469 155.636 8.22965C156.854 8.50463 156.864 7.97966 156.839 7.1197C156.819 6.37974 156.32 6.19975 155.746 6.01975C150.525 4.40483 146.492 7.47468 146.477 13.0844C146.462 18.8241 150.505 21.899 155.776 20.1991C156.769 19.8741 157.163 19.2991 156.939 18.3542Z" fill="white"/>
<path d="M141.95 5.99215C142.079 5.99333 142.21 5.99452 142.339 5.98456C143.167 5.91956 143.647 6.08955 143.617 7.1045C143.568 8.61601 143.578 10.1303 143.589 11.6433V11.6449C143.592 12.1482 143.595 12.6514 143.597 13.1542C143.598 13.8037 143.595 14.4537 143.591 15.104V15.1058C143.584 16.4721 143.576 17.8391 143.617 19.2039C143.651 20.2738 143.028 20.2605 142.314 20.2451L142.254 20.2439C142.179 20.2428 142.105 20.2434 142.031 20.244C141.408 20.2493 140.843 20.254 140.851 19.2439C140.886 15.1691 140.896 11.0893 140.846 7.00951C140.834 5.98198 141.367 5.98684 141.95 5.99215Z" fill="white"/>
<path d="M55.0493 21.1743C52.5236 20.4793 50.1028 20.7393 47.8367 22.0892C47.672 22.1892 47.4673 22.4492 47.4973 22.5942C47.5519 22.8997 47.8348 22.8684 48.0773 22.8415C48.0921 22.8399 48.1067 22.8383 48.1212 22.8368C48.1296 22.8359 48.1379 22.835 48.1461 22.8342C49.0196 22.7492 51.4654 22.5992 51.8198 22.6092C53.4969 22.6792 53.8563 23.0942 53.452 24.7541C53.2788 25.4776 53.0328 26.184 52.7869 26.89C52.6573 27.2622 52.5277 27.6345 52.4088 28.009C52.3826 28.0917 52.3377 28.1786 52.2924 28.2665C52.1652 28.513 52.034 28.7672 52.299 28.9589C52.6083 29.1858 52.8606 28.8947 53.0691 28.6541C53.0995 28.6191 53.129 28.5851 53.1575 28.5539C54.7897 26.764 55.6033 24.6341 55.6732 22.2192C55.6782 21.7393 55.5434 21.3093 55.0493 21.1743Z" fill="white"/>
</svg>
