<svg fill="none" version="1.1" viewBox="0 0 158 50" xmlns="http://www.w3.org/2000/svg">
 <g transform="translate(23 11.5)" fill="#fff">
  <path d="m10.71 6.0421c-0.5106-2.7374 2.1142-5.8289 5.1296-6.0421 0.5698 3.4129-2.9662 6.6058-5.1296 6.0421z"/>
  <path d="m46.104 9.9467 0.5252-1.3024c0.0667 0.01333 0.1335 0.02717 0.2003 0.041v0.90101c0 1.2118-3e-4 2.4236-5e-4 3.6354-8e-4 3.6366-0.0015 7.2733 0.0045 10.91 4e-4 0.2182-0.0176 0.4615-0.0357 0.7077-0.0486 0.6582-0.0987 1.3367 0.1969 1.6078 0.3066 0.2816 0.8703 0.2578 1.4478 0.2334 0.3056-0.0129 0.615-0.026 0.8923 6e-3 0.7902 0.0907 0.9916-0.2127 0.9886-1.0056-0.0211-5.6311-0.0201-11.262-0.0192-16.893 4e-4 -2.0167 7e-4 -4.0333 1e-4 -6.05 0-0.18789-0.012-0.37578-0.0257-0.58973-0.0067-0.1047-0.0137-0.21564-0.02-0.33588-0.3375 0-0.67 0.00749-0.9986 0.01488-0.7419 0.0167-1.4636 0.03294-2.177-0.03845-0.9388-0.09379-1.3144 0.32288-1.6357 1.1465-1.7651 4.5268-3.5566 9.0431-5.3482 13.56-0.4853 1.2234-0.9705 2.4468-1.4553 3.6704-0.1229 0.3092-0.2516 0.6161-0.4 0.9701l-6e-4 0.0012-6e-4 0.0014c-0.0726 0.1731-0.1502 0.3583-0.2339 0.5597-0.0643-0.1408-0.1199-0.2596-0.1691-0.3644-0.0905-0.1933-0.159-0.3394-0.2185-0.4889-0.6028-1.5148-1.2052-3.0297-1.8076-4.5446l-9e-4 -0.0021-9e-3 -0.0226c-1.824-4.5868-3.6482-9.1737-5.4811-13.757-0.1049-0.26292-0.3439-0.6591-0.5337-0.6673-1.0158-0.0439-2.0334-0.03891-3.0495-0.03393-0.3242 0.00159-0.6483 0.00318-0.972 0.00318v24.797h3.4211v-18.252c0.0646 0.12092 0.1137 0.2096 0.1522 0.27896 0.0615 0.11112 0.0956 0.17266 0.1219 0.23766l1.3039 3.2359 6e-4 0.0013c1.7005 4.2197 3.4011 8.4395 5.0943 12.662l0.0073 0.0182c0.3819 0.9527 0.569 1.4194 0.914 1.6512 0.3312 0.2226 0.808 0.2285 1.7426 0.2401l0.0513 7e-4c0.5919 0.0071 0.8877-0.163 1.1196-0.7524 1.3321-3.3827 2.6897-6.7548 4.0473-10.127l6e-4 -0.0014 0.0039-0.0099c0.3883-0.9644 0.7765-1.9288 1.1642-2.8934 0.3963-0.9868 0.7942-1.9731 1.1919-2.9593z"/>
  <path d="m21.397 19.756c-4.4377-2.3355-4.62-7.9056-0.5477-10.766-0.2494-0.20309-0.4841-0.40955-0.7128-0.61081-0.4859-0.42748-0.9452-0.83159-1.4627-1.1302-1.9033-1.1004-3.9131-1.0578-5.8646-0.14915-1.327 0.6181-2.5465 0.62118-3.8915 0.04408-0.83142-0.35671-1.8049-0.59145-2.6956-0.53968-2.9592 0.17118-5.2426 2.11-5.8973 5.2958-1.1322 5.5086 0.7762 10.135 4.486 14.077 0.98456 1.0471 2.2799 1.1368 3.5346 0.534 1.8893-0.9071 3.7143-0.9384 5.6217-0.0271 1.0894 0.5202 2.2934 0.5571 3.2975-0.265 2.0655-1.6913 3.2534-3.9787 4.1325-6.4629z"/>
  <path d="m65.646 8.5947h3.6375c0.0038 0.0874 0.0088 0.17511 0.0138 0.26304 0.0106 0.18689 0.0213 0.37476 0.0213 0.56262 6e-4 1.4697 0 2.9393-6e-4 4.4091-0.0016 3.9826-0.0032 7.9654 0.0177 11.948 4e-3 0.7314-0.2144 0.9574-0.9108 0.9118-0.5803-0.038-1.1635-0.0295-1.769-0.0207-0.2689 0.0039-0.5422 0.0079-0.8216 0.0079v-3.0295c-0.0758 0.0911-0.1356 0.1597-0.184 0.2152-0.08 0.0919-0.1288 0.1479-0.167 0.2102-1.5539 2.5226-4.1214 3.4595-7.2337 2.6369-2.3854-0.6304-4.0999-2.7937-4.1556-5.5742-0.0584-2.9069-0.0456-5.8153-0.0327-8.7466 0.0055-1.2536 0.0111-2.5122 0.0111-3.7757h3.5837v10.397l-2e-4 0.1732c-2e-4 0.1153-4e-4 0.2305 2e-4 0.346 0.0146 2.7246 1.2557 4.177 3.6269 4.2442 2.4973 0.0707 4.2721-1.5668 4.3289-4.1658 0.0508-2.3361 0.0443-4.6735 0.0379-7.011-0.0028-1.0091-0.0056-2.0186-0.0038-3.0277 3e-4 -0.20294 2e-4 -0.40633 1e-4 -0.62249z"/>
  <path d="m75.534 21.381h-3.4417c-0.0186 1.1495 0.491 2.438 1.2928 3.3144 1.7738 1.9394 4.0788 2.3484 6.5103 2.2705 1.8687-0.0595 3.6023-0.5766 5.0764-1.8584 2.1719-1.8886 2.6338-6.4875-1.2973-7.9343-0.6618-0.2435-1.3325-0.4679-2.0113-0.653-0.524-0.1428-1.0516-0.273-1.579-0.4031-0.8427-0.2079-1.6851-0.4158-2.5124-0.6752-1.0397-0.326-1.595-1.1327-1.588-2.0116 0.0075-0.8949 0.5784-1.6734 1.5569-2.0532 1.1246-0.4361 2.2709-0.4479 3.3975-0.0215 1.1362 0.43 1.6408 1.4038 1.8853 2.5108h3.3236c0.0307-1.3761-0.4563-2.5098-1.3209-3.4667-2.5314-2.8014-8.2148-2.9377-10.905-0.2834-2.3507 2.3197-1.8863 6.0985 0.9951 7.6627 0.749 0.4069 1.5876 0.6563 2.4134 0.9019l0.1489 0.0444 0.1313 0.0393c0.5947 0.1783 1.1961 0.3347 1.7973 0.4911 0.7636 0.1985 1.527 0.397 2.2765 0.6405 0.7777 0.2527 1.2295 0.8738 1.2526 1.7682 0.0236 0.9128-0.3966 1.5355-1.1447 1.9634-2.3974 1.371-5.2968 0.3363-6.2577-2.2468z"/>
  <path d="m108.47 20.54h3.456c-0.282 2.2699-1.294 3.9889-3.144 5.2133-2.921 1.9317-8.9169 1.9168-11.536-2.5293-2.0128-3.4169-1.7367-9.1725 0.6838-12.174 3.4598-4.2919 10.945-3.622 13.256 1.208 0.238 0.4974 0.393 1.0364 0.558 1.6094 0.08 0.2752 0.161 0.5586 0.255 0.8486h-3.56c-0.935-2.8901-3.312-4.1422-5.863-3.0561-1.571 0.6688-2.345 2.0137-2.7134 3.6286-0.4593 2.0142-0.4051 4.0094 0.4344 5.9216 0.8 1.8195 2.313 2.7307 4.268 2.6426 1.944-0.0876 3.091-0.9969 3.784-2.9977 0.024-0.0712 0.052-0.1409 0.081-0.2125 0.013-0.0336 0.027-0.0675 0.04-0.1022z"/>
  <path d="m93.025 8.5889h-3.6129v12.946c0 0.3675-0.0013 0.735-0.0026 1.1025-4e-3 1.1025-0.0079 2.205 0.0237 3.3067 7e-3 0.2475 0.2767 0.6857 0.4454 0.6965 0.7723 0.0491 1.5477 0.0431 2.3401 0.0369 0.2666-2e-3 0.5354-0.0041 0.8063-0.0041z"/>
  <path d="m91.199 5.9054c1.1091 0.02152 2.071-0.91075 2.1112-2.046 0.0417-1.1921-0.8545-2.1941-2.0028-2.2397-1.1537-0.0451-2.1227 0.89384-2.1488 2.0829-0.0261 1.1957 0.8856 2.1802 2.0404 2.2028z"/>
 </g>
</svg>
