<svg width="40" height="31" viewBox="0 0 40 31" fill="none" xmlns="http://www.w3.org/2000/svg">
<path d="M0 0V30.69H39.24V0H0ZM38.24 29.69H1V1H38.24V29.69ZM3.53 4.73C3.53 3.93 4.18 3.27 4.99 3.27C5.79 3.27 6.45 3.92 6.45 4.73C6.45 5.53 5.8 6.19 4.99 6.19C4.18 6.19 3.53 5.54 3.53 4.73ZM7.88 4.73C7.88 3.93 8.53 3.27 9.34 3.27C10.14 3.27 10.8 3.92 10.8 4.73C10.8 5.53 10.15 6.19 9.34 6.19C8.54 6.19 7.88 5.54 7.88 4.73ZM12.24 4.73C12.24 3.93 12.89 3.27 13.7 3.27C14.5 3.27 15.16 3.92 15.16 4.73C15.16 5.53 14.51 6.19 13.7 6.19C12.89 6.19 12.24 5.54 12.24 4.73ZM8.38 16.97H4.97V17.97H8.38C8.63 20.77 10.99 22.97 13.86 22.97H16.98V11.97H13.86C10.99 11.96 8.63 14.17 8.38 16.97ZM15.98 21.97H13.86C11.38 21.97 9.36 19.95 9.36 17.47C9.36 14.99 11.38 12.97 13.86 12.97H15.98V21.97ZM22.26 22.97H25.38C28.24 22.97 30.6 20.77 30.86 17.97H34.27V16.97H30.86C30.61 14.17 28.25 11.97 25.38 11.97H22.26V14.78H18.83V15.78H22.26V19.16H18.83V20.16H22.26V22.97ZM23.26 12.96H25.38C27.86 12.96 29.88 14.98 29.88 17.46C29.88 19.94 27.86 21.96 25.38 21.96H23.26V12.96Z" fill="white"/>
</svg>
