<svg width="43" height="31" viewBox="0 0 43 31" fill="none" xmlns="http://www.w3.org/2000/svg">
<path d="M27.9525 16.97H35.8325V17.97H27.9525V16.97ZM27.9525 20.9H35.8325V19.9H27.9525V20.9ZM27.9525 23.84H33.4625V22.84H27.9525V23.84ZM42.1425 0V30.69H6.2025V22.65C3.4825 21.36 1.2925 19.06 0.1425 16.1C-0.0475 15.62 -0.0475 15.06 0.1425 14.58C1.2925 11.62 3.4825 9.33 6.2025 8.03V0H42.1425ZM11.4125 22.82C16.0225 22.82 20.0825 20.04 21.7525 15.74C21.8525 15.49 21.8525 15.2 21.7525 14.95C20.0825 10.65 16.0225 7.87 11.4125 7.87C6.8025 7.87 2.7425 10.65 1.0725 14.95C0.9725 15.2 0.9725 15.49 1.0725 15.74C2.7425 20.04 6.8025 22.82 11.4125 22.82ZM41.1425 1H7.2025V7.62C8.5225 7.13 9.9425 6.87 11.4125 6.87C16.4325 6.87 20.8625 9.9 22.6825 14.59C22.8725 15.07 22.8725 15.63 22.6825 16.11C20.8625 20.8 16.4325 23.83 11.4125 23.83C9.9425 23.83 8.5225 23.56 7.2025 23.08V29.7H41.1425V1ZM11.4125 21.23C8.1625 21.23 5.5225 18.59 5.5225 15.35C5.5225 12.1 8.1625 9.46 11.4125 9.46C14.6625 9.46 17.3025 12.1 17.3025 15.35C17.3025 18.59 14.6625 21.23 11.4125 21.23ZM11.4125 20.23C14.1025 20.23 16.3025 18.04 16.3025 15.35C16.3025 12.66 14.1125 10.46 11.4125 10.46C8.7225 10.46 6.5225 12.65 6.5225 15.35C6.5325 18.04 8.7225 20.23 11.4125 20.23ZM29.3825 10.17L26.8725 7.73L30.3425 7.23L31.8925 4.09L33.4425 7.23L36.9125 7.73L34.4025 10.17L34.9925 13.62L31.8925 11.99L28.7925 13.62L29.3825 10.17ZM30.4625 9.82L30.1225 11.79L31.8925 10.86L33.6625 11.79L33.3225 9.82L34.7525 8.42L32.7725 8.13L31.8825 6.34L31.0025 8.14L29.0225 8.43L30.4625 9.82Z" fill="white"/>
</svg>
