<svg width="79" height="129" viewBox="0 0 79 129" fill="none" xmlns="http://www.w3.org/2000/svg">
<path fill-rule="evenodd" clip-rule="evenodd" d="M39.34 54C19.8223 54 4 69.8223 4 89.34C4 108.858 19.8223 124.68 39.34 124.68C58.8577 124.68 74.68 108.858 74.68 89.34C74.68 69.8223 58.8577 54 39.34 54ZM0 89.34C0 67.6131 17.6131 50 39.34 50C61.0669 50 78.68 67.6131 78.68 89.34C78.68 111.067 61.0669 128.68 39.34 128.68C17.6131 128.68 0 111.067 0 89.34Z" fill="#FF7173"/>
<path fill-rule="evenodd" clip-rule="evenodd" d="M57.96 104.77H20.72V100.77H57.96V104.77Z" fill="#FF7173"/>
<path fill-rule="evenodd" clip-rule="evenodd" d="M27.8098 82.3182C25.2153 82.152 21.9042 81.1214 18.8304 77.8876L21.7297 75.1318C24.0359 77.5581 26.3648 78.2174 28.0654 78.3263C28.936 78.3821 29.6664 78.2938 30.1682 78.1951C30.418 78.146 30.6072 78.0951 30.724 78.0602C30.7823 78.0428 30.8221 78.0296 30.8419 78.0227C30.8518 78.0193 30.8566 78.0176 30.8562 78.0177L30.8517 78.0194L30.8464 78.0214L30.843 78.0227L30.8412 78.0234C30.8402 78.0238 30.8391 78.0242 31.5601 79.8897C32.281 81.7553 32.2799 81.7557 32.2788 81.7561L32.2765 81.757L32.2715 81.7589L32.2598 81.7633L32.2297 81.7745C32.2067 81.7829 32.1777 81.7933 32.1431 81.8052C32.0738 81.829 31.9816 81.8592 31.8681 81.8931C31.6412 81.9608 31.3275 82.0438 30.9401 82.12C30.1674 82.2719 29.0866 82.3999 27.8098 82.3182Z" fill="#FF7173"/>
<path fill-rule="evenodd" clip-rule="evenodd" d="M51.8421 72.8674C50.9494 73.0497 49.8836 73.5468 48.7191 74.7195L45.8807 71.9011C47.5362 70.2339 49.2904 69.306 51.0416 68.9483C52.7784 68.5935 54.3725 68.8278 55.6834 69.2616C56.9856 69.6926 58.0465 70.3321 58.7719 70.8496C59.1386 71.1111 59.4303 71.3492 59.636 71.5273C59.7391 71.6167 59.8214 71.6916 59.8814 71.7477C59.9114 71.7757 59.9359 71.7992 59.9547 71.8174L59.9787 71.8408L59.9875 71.8495L59.9911 71.8531L59.9927 71.8547C59.9934 71.8554 59.9942 71.8561 58.5799 73.2703C57.1657 74.6845 57.1664 74.6852 57.1671 74.6859L57.1683 74.6871L57.1725 74.6912C57.1696 74.6885 57.1618 74.6809 57.1491 74.6691C57.1237 74.6453 57.0793 74.6046 57.0171 74.5508C56.8923 74.4427 56.6994 74.2845 56.4492 74.1061C55.9409 73.7435 55.2393 73.328 54.4265 73.059C53.6224 72.7929 52.7489 72.6821 51.8421 72.8674ZM57.1725 74.6912C57.1736 74.6923 57.1739 74.6926 57.1725 74.6912V74.6912Z" fill="#FF7173"/>
<path d="M52.9401 90.9697C54.9283 90.9697 56.5401 88.1625 56.5401 84.6997C56.5401 81.2369 54.9283 78.4297 52.9401 78.4297C50.9519 78.4297 49.3401 81.2369 49.3401 84.6997C49.3401 88.1625 50.9519 90.9697 52.9401 90.9697Z" fill="#FF7173"/>
<path d="M25.32 90.9695C27.3082 90.9695 28.92 89.3578 28.92 87.3695C28.92 85.3813 27.3082 83.7695 25.32 83.7695C23.3317 83.7695 21.72 85.3813 21.72 87.3695C21.72 89.3578 23.3317 90.9695 25.32 90.9695Z" fill="#FF7173"/>
<path opacity="0.2" fill-rule="evenodd" clip-rule="evenodd" d="M15 0C13.3431 0 12 1.34315 12 3V35C12 36.6569 13.3431 38 15 38H33.5911L38 44L42.4089 38H62C63.6569 38 65 36.6569 65 35V3C65 1.34315 63.6569 0 62 0H15Z" fill="#FF7C7E"/>
<path d="M39.0793 23.5787C39.0485 23.3735 39.0485 23.2025 39.0485 23.1341C39.0485 21.8003 39.5727 20.6717 40.5903 19.8851L41.9163 18.8591C43.7048 17.4569 45 15.5417 45 12.8399C45 9.35157 42.533 6 37.9692 6C33.3128 6 31 9.72777 31 13.1477C31 13.6949 31.0617 14.2421 31.185 14.7209L34.6696 14.9945C34.5463 14.6183 34.4846 13.9685 34.4846 13.4555C34.4846 11.5062 35.6872 9.55677 37.9692 9.55677C40.2203 9.55677 41.2996 11.2326 41.2996 13.0109C41.2996 14.1737 40.8678 15.1655 39.8502 15.9863L38.4317 17.1149C36.6432 18.5513 35.9339 20.2271 35.9339 22.2791C35.9339 22.7579 35.9648 23.1341 35.9956 23.5787H39.0793ZM35.3172 28.5034C35.3172 29.8714 36.304 31 37.5683 31C38.8018 31 39.8194 29.8714 39.8194 28.5034C39.8194 27.1354 38.8018 25.9726 37.5683 25.9726C36.304 25.9726 35.3172 27.1354 35.3172 28.5034Z" fill="#FF7173"/>
</svg>
