<svg width="79" height="95" viewBox="0 0 79 95" fill="none" xmlns="http://www.w3.org/2000/svg">
<path d="M39.34 92.18C59.9623 92.18 76.68 75.4623 76.68 54.84C76.68 34.2177 59.9623 17.5 39.34 17.5C18.7177 17.5 2 34.2177 2 54.84C2 75.4623 18.7177 92.18 39.34 92.18Z" stroke="black" stroke-width="4" stroke-miterlimit="10"/>
<path d="M19.42 33.4103C26.44 29.5603 29.91 35.9303 29.91 35.9303" stroke="black" stroke-width="4" stroke-miterlimit="10"/>
<path d="M42.46 28.6602C48.37 23.2502 53.73 29.1602 53.73 29.1602" stroke="black" stroke-width="4" stroke-miterlimit="10"/>
<path d="M22.67 64.4602C32.21 61.8202 40.3 67.2602 40.3 67.2602" stroke="black" stroke-width="4" stroke-miterlimit="10"/>
<path d="M26.2153 44.8025C26.8009 41.3895 25.687 38.3502 23.7274 38.014C21.7678 37.6778 19.7045 40.172 19.119 43.5849C18.5334 46.9979 19.6473 50.0372 21.6069 50.3734C23.5665 50.7096 25.6297 48.2154 26.2153 44.8025Z" fill="black"/>
<path d="M49.5629 46.6843C50.1485 43.2713 49.0346 40.232 47.075 39.8958C45.1155 39.5596 43.0522 42.0538 42.4666 45.4668C41.8811 48.8797 42.9949 51.919 44.9545 52.2552C46.9141 52.5915 48.9774 50.0973 49.5629 46.6843Z" fill="black"/>
<path d="M65.3399 45.3796C65.3399 46.2896 65.26 47.1796 65.12 48.0496C63.85 55.5196 57.35 61.1996 49.52 61.1996C40.78 61.1996 33.7 54.1196 33.7 45.3796C33.7 36.6396 40.78 29.5596 49.52 29.5596C58.26 29.5596 65.3399 36.6396 65.3399 45.3796Z" stroke="black" stroke-width="4" stroke-miterlimit="10"/>
<path d="M64.8 49.4805C64.8 49.4805 73.02 52.2005 68.22 66.4305C63.42 80.6805 76.67 89.3605 76.67 89.3605" stroke="black" stroke-width="4" stroke-miterlimit="10"/>
<path d="M57 2L55 10.5H45M22 1L24 10.5H45M45 1V10.5M34 1V10.5" stroke="black" stroke-width="4"/>
</svg>
