<svg width="79" height="129" viewBox="0 0 79 129" fill="none" xmlns="http://www.w3.org/2000/svg">
<path fill-rule="evenodd" clip-rule="evenodd" d="M39.34 54C19.8223 54 4 69.8223 4 89.34C4 108.858 19.8223 124.68 39.34 124.68C58.8577 124.68 74.68 108.858 74.68 89.34C74.68 69.8223 58.8577 54 39.34 54ZM0 89.34C0 67.6131 17.6131 50 39.34 50C61.0669 50 78.68 67.6131 78.68 89.34C78.68 111.067 61.0669 128.68 39.34 128.68C17.6131 128.68 0 111.067 0 89.34Z" fill="#FF7173"/>
<path d="M39.34 111.69C41.3282 111.69 42.94 108.883 42.94 105.42C42.94 101.958 41.3282 99.1504 39.34 99.1504C37.3518 99.1504 35.74 101.958 35.74 105.42C35.74 108.883 37.3518 111.69 39.34 111.69Z" fill="#FF7173"/>
<path fill-rule="evenodd" clip-rule="evenodd" d="M27.8884 81.7199L31.6842 77.9241L28.8558 75.0957L25.06 78.8915L21.2642 75.0957L18.4358 77.9241L22.2316 81.7199L18.4358 85.5157L21.2642 88.3441L25.06 84.5483L28.8558 88.3441L31.6842 85.5157L27.8884 81.7199Z" fill="#FF7173"/>
<path fill-rule="evenodd" clip-rule="evenodd" d="M56.1384 81.7199L59.9342 77.9241L57.1058 75.0957L53.31 78.8915L49.5142 75.0957L46.6858 77.9241L50.4816 81.7199L46.6858 85.5157L49.5142 88.3441L53.31 84.5483L57.1058 88.3441L59.9342 85.5157L56.1384 81.7199Z" fill="#FF7C7E"/>
<path opacity="0.2" fill-rule="evenodd" clip-rule="evenodd" d="M15 0C13.3431 0 12 1.34315 12 3V35C12 36.6569 13.3431 38 15 38H33.5911L38 44L42.4089 38H62C63.6569 38 65 36.6569 65 35V3C65 1.34315 63.6569 0 62 0H15Z" fill="#FF7C7E"/>
<path d="M40.8767 5H35.0822L36.274 23.817H39.726L40.8767 5ZM35 29.2472C35 30.7556 36.3151 32 37.9589 32C39.6438 32 41 30.7556 41 29.2472C41 27.7388 39.6438 26.4567 37.9589 26.4567C36.3151 26.4567 35 27.7388 35 29.2472Z" fill="#FF7173"/>
</svg>
