<svg version="1.1" viewBox="0 0 158 22" xmlns="http://www.w3.org/2000/svg">
  <g fill="#fff">
    <path d="m33.616 7.3974c-0.25763 0-0.51449-0.00241-0.77109-0.00481-0.51241-0.0048-1.0238-0.00959-1.5383 0.00481-0.4888 0.0144-0.67298-0.18006-0.63756-0.6698 0.02228-0.29121 0.03169-0.58241 0.04107-0.87296 0.01151-0.35617 0.02299-0.71141 0.05811-1.0644 0.085-0.80664 0.3967-1.1091 1.176-1.1596 0.43268-0.03142 0.86536-0.03238 1.2953-0.03333 0.16136-3.6e-4 0.3223-7.1e-4 0.4828-0.00268 0.34-0.0072 0.5242-0.12964 0.5171-0.51855-0.0212-0.82825-0.0142-1.6565 0-2.4775 0.0071-0.37451-0.1558-0.52576-0.503-0.53296-0.35385-0.0022771-0.70916-0.017514-1.0641-0.032736-0.76763-0.032919-1.5335-0.065764-2.2795 0.032736-2.5502 0.3457-3.7758 1.6997-4.0096 4.2709-0.07084 0.79944-0.05668 1.6061-0.02834 2.4127 0.01417 0.51135-0.1771 0.677-0.65173 0.6554-0.31793-0.0126-0.63826-0.00806-0.9596-0.00352-0.22998 0.00326-0.46048 0.00652-0.69098 0.00352-0.38962-0.01441-0.55964 0.16565-0.55256 0.55456 0.0071 0.87146 0.0071 1.7429 0 2.6144 0 0.4033 0.19127 0.5617 0.56672 0.5545 0.18515-0.0026 0.37126 0.0015 0.55762 0.0057 0.3199 0.0072 0.64054 0.0144 0.95836-0.0129 0.61631-0.0504 0.77924 0.1945 0.77216 0.8067-0.02125 2.2094-0.0186 4.423-0.01594 6.6345 8.9e-4 0.7368 0.0018 1.4735 0.0018 2.2097 0 0.4274 0 0.6434 0.10624 0.7526 0.10859 0.1116 0.32817 0.1116 0.77218 0.1116 0.26729 0 0.53524-0.0046 0.80324-0.0093 0.61276-0.0107 1.2258-0.0214 1.832 0.0237 0.70132 0.0504 0.85009-0.2232 0.82884-0.8786-0.03036-1.0339-0.02458-2.0714-0.0188-3.11 0.0023-0.4156 0.0046-0.8316 0.0046-1.2473v-4.3573c0-0.9363 0-0.9363 0.94926-0.9363 0.18445 0 0.36811-8e-4 0.5515-0.0016 0.36601-0.0016 0.73097-0.0032 1.0991 0.0016 0.3684 0.0072 0.5667-0.1368 0.5951-0.5329l0.0021-0.0263c0.0701-0.85562 0.1408-1.7181 0.2671-2.5665 0.0779-0.46814-0.1063-0.59777-0.5172-0.59777z"/>
    <path d="m80.333 8.7802c0.048-0.00783 0.0839-0.01368 0.1012-0.03572 1.7498-2.4703 6.8857-2.3119 8.4938 1.3828 1.268 2.9024 1.268 5.9345-0.0071 8.837-1.686 3.8243-7.1407 3.7451-8.77 1.1667-0.0137-0.0185-0.039-0.028-0.0759-0.0421-0.0207-0.0078-0.045-0.017-0.0729-0.0299-0.0026 0.0418-0.0061 0.0826-0.0095 0.1224-6e-3 0.0701-0.0118 0.1374-0.0118 0.2017-0.0037 0.1845-3e-3 0.3419-0.0024 0.4763 0.0017 0.371 0.0025 0.5663-0.093 0.6685-0.1062 0.1137-0.3315 0.1122-0.8075 0.1092h-8e-4c-0.1155-7e-4 -0.2458-0.0015-0.3926-8e-4 -0.2483 0.0025-0.4956-0.0012-0.7424-0.0048-0.4575-0.0068-0.9132-0.0136-1.3687 0.0192-0.6234 0.0432-0.7721-0.2089-0.7721-0.8067 0.017-4.2174 0.0158-8.4348 0.0147-12.652-3e-4 -1.0546-6e-4 -2.1091-6e-4 -3.1637 0-0.33483 5e-4 -0.66967 9e-4 -1.0045v-0.00136c0.0013-1.0043 0.0027-2.0086-8e-3 -3.0129 0-0.43213 0.0992-0.64819 0.5809-0.677 1.091-0.072021 2.1819-0.18726 3.2729-0.31689 0.5454-0.064819 0.5667 0.25207 0.5667 0.64819v8.1384c0.0385-0.01118 0.0738-0.01694 0.1042-0.0219zm2.3114 9.6295c1.2964 0.1008 2.3874-0.641 2.5786-2.0454 0.17-1.2171 0.1559-2.4991-0.0071-3.7163-0.1983-1.3612-1.1688-2.0166-2.4794-2.0022-1.2893 0.0216-2.1535 0.7418-2.4085 2.1102-0.0798 0.4104-0.0929 0.835-0.106 1.2588-0.0055 0.1785-0.0111 0.3575-0.0216 0.5346h0.0638c0 0.1544-0.0042 0.3095-0.0085 0.4646-0.0092 0.3368-0.0183 0.6744 0.0156 1.0046 0.1487 1.4476 0.9988 2.2903 2.3731 2.3911z" clip-rule="evenodd" fill-rule="evenodd"/>
    <path d="m133.54 20.022c0.178 0.2837 0.356 0.5674 0.535 0.8511 0.09 0.1431 0.167 0.2898 0.274 0.4968 0.044 0.0847 0.093 0.1795 0.151 0.2882-0.284 0-0.554-0.0105-0.814-0.0206-0.546-0.0212-1.046-0.0407-1.531 0.0422-1.714 0.2881-2.741-0.3889-3.513-1.9518-0.688-1.3978-1.6-2.6758-2.532-3.9812-0.115-0.1609-0.23-0.3221-0.345-0.4841v1.8222c0 0.3766-1e-3 0.7532-2e-3 1.1298-3e-3 0.9414-6e-3 1.8827 9e-3 2.8241 8e-3 0.4538-0.141 0.641-0.609 0.6266-1.027-0.0288-2.0612-0.036-3.0955 0-0.5525 0.0216-0.7225-0.1872-0.7155-0.7346 0.0152-1.6613 0.0123-3.3189 9e-3 -4.9782-1e-3 -0.6641-2e-3 -1.3285-2e-3 -1.9935 0-0.8497 3e-4 -1.6992 6e-4 -2.5485v-0.0031c1e-3 -3.3966 2e-3 -6.7905-0.0148-10.189-7e-3 -0.61218 0.1488-0.87866 0.7864-0.90747 0.9338-0.045832 1.8677-0.15119 2.8017-0.25654l0.28-0.031542c0.474-0.057617 0.552 0.18005 0.552 0.58337-0.01 1.1558-9e-3 2.3116-8e-3 3.4674 1e-3 0.38546 1e-3 0.77092 1e-3 1.1564v8.3688c0.043 0.0072 0.085 0.0216 0.128 0.036 0.318-0.5157 0.637-1.0304 0.956-1.5448v-9e-4l1e-3 -0.0016 2e-3 -2e-3 1e-3 -0.0026c0.838-1.3511 1.675-2.7009 2.49-4.0657 0.283-0.46093 0.602-0.64099 1.119-0.62658 0.603 0.01296 1.209 0.01037 1.816 0.00778 0.405-0.00173 0.811-0.00346 1.216-5.8e-4 0.17 0 0.34 0.01906 0.556 0.04331 0.082 0.00908 0.169 0.0189 0.266 0.02871-0.062 0.1097-0.115 0.20709-0.164 0.29595-0.085 0.15614-0.156 0.28593-0.233 0.40986-0.211 0.34008-0.421 0.68039-0.632 1.0207v8.9e-4c-0.972 1.5694-1.943 3.1393-2.938 4.6897-0.277 0.4249-0.241 0.7202 0.021 1.1308 1.072 1.6568 2.124 3.3293 3.177 5.0042z"/>
  </g>
  <g clip-rule="evenodd" fill="#fff" fill-rule="evenodd">
    <path d="m48.082 8.0243c0-0.47534-0.17-0.63379-0.6092-0.62659-0.9634 0.01441-1.9339 0.01441-2.8974 0-0.4888-0.0072-0.7438 0.15845-0.6871 0.69861 0.0236 0.20627 0.0189 0.41573 0.0131 0.67308-0.0029 0.12893-6e-3 0.27025-6e-3 0.42884-0.6943-0.97949-1.431-1.5917-2.4015-1.8654-2.3944-0.677-5.7239 0.10804-6.8149 3.8388-0.5454 1.8581-0.5454 3.7595-0.2479 5.6393 0.3542 2.2398 1.3601 4.1124 3.6483 4.8182 2.1818 0.677 4.2221 0.4609 5.816-1.6781 0 0.1355 0.0023 0.2537 0.0044 0.3601 0.0042 0.216 0.0075 0.3833-0.0115 0.5473-0.0709 0.5978 0.1346 0.8427 0.7651 0.8067 0.9187-0.0503 1.8375-0.0289 2.7633-0.0074l0.0065 2e-4c0.4605 0.0144 0.6659-0.1008 0.6659-0.6266-0.0212-4.3429-0.0212-8.6786-0.0071-13.007zm-4.4771 8.3472c-0.2338 1.2676-1.0909 2.0094-2.3235 2.0526-1.2681 0.0432-2.2669-0.6266-2.437-1.9517-0.1629-1.282-0.1558-2.6216 0.0071-3.9036 0.17-1.318 1.1476-1.959 2.4511-1.9158 1.2397 0.036 2.104 0.8211 2.3094 2.1319 0.0617 0.3956 0.0916 0.7978 0.1217 1.202 0.0148 0.1992 0.0296 0.3988 0.0483 0.5985-0.0126 0.1503-0.0234 0.3015-0.0342 0.4532-0.0317 0.4443-0.0637 0.8926-0.1429 1.3329z"/>
    <path d="m69.582 7.268c2.6282 0.43213 4.2716 2.2471 4.5904 4.9694 0.0712 0.6255 0.0855 1.2586 0.0998 1.8962 0.01 0.4415 0.02 0.8855 0.049 1.3304 0.0283 0.5402-0.2054 0.6842-0.7013 0.677-1.812-0.0108-3.6279-0.0095-5.4419-0.0081-0.6044 4e-4 -1.2085 9e-4 -1.8122 9e-4h-0.7084c-0.1913 1.3684 0.6305 2.3479 2.0615 2.4775 1.5726 0.1441 3.117 0 4.6188-0.5041 0.1723-0.0601 0.3446-0.1097 0.5478-0.1682 0.0891-0.0257 0.1845-0.0532 0.2881-0.0839 0.0681 0.261 0.1366 0.5144 0.2039 0.7627 0.1776 0.6561 0.3457 1.2771 0.4691 1.9093 0.0354 0.1728-0.2126 0.5329-0.3967 0.5906l-0.0557 0.0166c-0.9242 0.2755-1.862 0.5552-2.8134 0.6964-1.686 0.252-3.3791 0.252-5.0367-0.2017-2.3448-0.641-3.8679-2.1678-4.1938-4.6238-0.2125-1.5556-0.2479-3.1833-0.0354-4.7317 0.3967-2.9313 2.359-4.7318 5.2564-5.0415 0.9917-0.10803 2.026-0.12964 3.0107 0.03601zm-4.0238 5.7977h4.718c0.1771-1.7141-0.595-2.7584-2.0544-2.8232-1.7497-0.0793-2.6565 0.857-2.6636 2.8232z"/>
    <path d="m115.38 7.4407c-1.1689-0.27368-2.4369-0.30969-3.6483-0.20886-2.7132 0.22326-4.7038 2.0094-5.3768 4.6742-0.1417 0.5546-0.2196 1.1379-0.255 1.7141-0.1134 1.6205-0.0283 3.2266 0.673 4.7174 1.2538 2.672 3.5207 3.5723 6.2623 3.565 0.1012 0 0.2033 0.0016 0.3056 0.0032 0.2054 0.0032 0.412 0.0065 0.6153-0.0032 2.9824-0.1296 5.3414-2.1174 5.8514-5.1063 0.2125-1.2603 0.2196-2.5783 0.1275-3.8603-0.1983-2.744-1.941-4.883-4.555-5.4952zm0.0921 9.0098c-0.1559 1.282-1.098 1.9302-2.3873 1.9374-1.3248 0.0072-2.2032-0.6482-2.4724-1.9302-0.0897-0.4177-0.1228-0.8482-0.1558-1.2788-0.0166-0.2152-0.0331-0.4305-0.0567-0.6441 0.0232-0.2146 0.0403-0.4284 0.0573-0.641 0.035-0.4364 0.0695-0.8679 0.1552-1.2892 0.2621-1.246 1.1618-1.9446 2.4086-1.959 1.2751-0.0144 2.2952 0.6842 2.4511 1.959 0.1558 1.2676 0.1558 2.5784 0 3.8459z"/>
    <path d="m95.623 7.3978c1.6718-0.44653 3.3507-0.41773 5.0013 0.12243 2.1182 0.69861 3.4429 2.1822 3.9883 4.3429 0.418 1.6637 0.4322 3.3562 0.0567 5.0415-0.6446 2.9024-2.7769 4.7966-5.7026 4.9622-1.0414 0.0576-2.1252 0.036-3.1383-0.1872-2.8903-0.641-4.6825-2.9241-4.8384-5.9778-0.0094-0.2637-0.0063-0.5307-0.0031-0.7987 0.0016-0.1344 0.0031-0.2693 0.0031-0.4041-0.0177-0.0036-0.0354-0.0054-0.053-0.0072-0.0177-0.0018-0.0355-0.0036-0.0532-0.0072 0.0379-0.2766 0.0681-0.5553 0.0983-0.8342 0.0657-0.607 0.1315-1.2145 0.2771-1.8017 0.5809-2.3407 2.0686-3.8388 4.3638-4.451zm2.274 11.019c1.2538 0.036 2.1677-0.6626 2.4581-1.9662 0.0961-0.4199 0.1238-0.8564 0.1515-1.2937 0.0132-0.2075 0.0264-0.4158 0.0469-0.622-0.0142 0-0.0266-0.0018-0.039-0.0036s-0.0248-0.0036-0.0389-0.0036c0-0.1478 4e-3 -0.2962 8e-3 -0.4447 9e-3 -0.322 0.0184-0.6443-0.0155-0.9598-0.1559-1.5268-1.0697-2.4343-2.444-2.4775-1.3672-0.0432-2.4228 0.7562-2.5644 2.1534-0.1205 1.138-0.1134 2.3119 0 3.4571 0.1346 1.3396 1.1192 2.1318 2.4369 2.1606z"/>
  </g>
  <path d="m59.122 18.052c0.2367-0.0603 0.4797-0.1221 0.7331-0.1826 0.068 0.2214 0.1377 0.444 0.2078 0.6678 0.2216 0.708 0.4468 1.4276 0.6352 2.1554 0.0354 0.1297-0.17 0.4249-0.3259 0.4826l-0.025 0.0094c-0.6438 0.2419-1.3014 0.489-1.9798 0.6027-1.5018 0.2449-3.0178 0.2233-4.4983-0.216-2.2669-0.677-3.6696-2.1895-4.1796-4.5374-0.34-1.5628-0.3542-3.1545-0.0638-4.7174 0.5455-2.9672 2.5715-4.7822 5.561-5.1135 1.6577-0.18726 3.2799-0.10083 4.8597 0.49695 0.5738 0.21606 0.8005 0.50414 0.5525 1.1451-0.2004 0.51415-0.359 1.0446-0.5126 1.5585-0.0745 0.2491-0.1478 0.4943-0.2241 0.7318-0.339-0.0594-0.6633-0.1282-0.9783-0.1951-0.6395-0.1357-1.2407-0.2633-1.8483-0.2874-2.0189-0.0793-3.1169 1.0299-3.1807 3.0681-0.0142 0.5113-0.0142 1.0299 0 1.5412 0.0638 2.3047 1.4877 3.5147 3.7475 3.1329 0.5027-0.0843 0.9953-0.2097 1.5196-0.3431z" fill="#fff"/>
</svg>
