<svg width="78" height="55" viewBox="0 0 78 55" fill="none" xmlns="http://www.w3.org/2000/svg">
<path d="M76.24 12.4429C76.24 12.4429 75.5037 7.23945 73.2237 4.95558C70.3262 1.9418 67.0963 1.9418 65.6 1.75344C54.96 1 39.0238 1 39.0238 1H39C39 1 23.04 1 12.4 1.75344C10.9038 1.9418 7.67375 1.9418 4.77625 4.95558C2.49625 7.23945 1.76 12.4429 1.76 12.4429C1.76 12.4429 1 18.5175 1 24.6157V30.3372C1 36.4354 1.76 42.5335 1.76 42.5335C1.76 42.5335 2.49625 47.737 4.77625 50.0209C7.67375 53.0111 11.4737 52.9169 13.16 53.2466C19.24 53.8352 39 54 39 54C39 54 54.96 53.9765 65.6 53.223C67.0963 53.0582 70.3262 53.0347 73.2237 50.0209C75.5037 47.737 76.24 42.5335 76.24 42.5335C76.24 42.5335 77 36.4354 77 30.3372V24.6157C77 18.5175 76.24 12.4429 76.24 12.4429ZM31.1625 37.2594V16.0924L51.7063 26.7112L31.1625 37.2594Z" stroke="url(#paint0_linear)" stroke-miterlimit="10"/>
<defs>
<linearGradient id="paint0_linear" x1="32.7862" y1="18.5089" x2="65.4091" y2="54.3263" gradientUnits="userSpaceOnUse">
<stop stop-color="#5573FF"/>
<stop offset="1" stop-color="#FF7173"/>
</linearGradient>
</defs>
</svg>
