<svg width="43" height="31" viewBox="0 0 43 31" fill="none" xmlns="http://www.w3.org/2000/svg">
<path d="M42.42 4.4H39.24V0H0V21.37V21.87V30.73H39.24V26.27H42.42V4.4ZM1 1H19.12V3H20.12V1H38.24V20.87H20.12V19H19.12V20.87H1V1ZM38.24 29.73H1V21.87H3.18V26.27H19.12V27.5H20.12V26.27H38.24V29.73ZM41.42 25.27H20.12V24H19.12V25.27H4.18V21.87H38.73H39.23V5.4H41.41V25.27H41.42ZM19.62 17.25C23.04 17.25 25.82 14.47 25.82 11.05C25.82 7.63 23.04 4.85 19.62 4.85C16.2 4.85 13.42 7.63 13.42 11.05C13.42 14.47 16.2 17.25 19.62 17.25ZM19.62 5.85C22.49 5.85 24.82 8.18 24.82 11.05C24.82 13.92 22.49 16.25 19.62 16.25C16.75 16.25 14.42 13.92 14.42 11.05C14.42 8.18 16.75 5.85 19.62 5.85ZM20.12 9.8H19.12V7.5H20.12V9.8ZM20.12 14.5H19.12V12H20.12V14.5Z" fill="white"/>
</svg>
