<svg fill="none" version="1.1" viewBox="0 0 158 59" xmlns="http://www.w3.org/2000/svg">
  <g fill="#fff">
    <path d="m118.2 19.481c6.0667 0.2136 10.758 4.4857 11.977 9.8685 0.248 1.0965 0.369 2.2073 0.312 3.3252-0.241 5.7317-4.0963 10.253-9.0787 11.72-0.8221 0.2421-1.6513 0.4059-2.5089 0.4557-0.0792 0.0044-0.1581 0.0092-0.2369 0.0139-0.3016 0.0181-0.6006 0.036-0.9041 0.036-3.8674 0-7.7347-8e-4 -11.602-0.0016-7.7346-0.0016-15.469-0.0032-23.204 0.0016-0.7796 0-1.4245-0.5056-1.5592-1.2389-0.0283-0.1496-0.0283-0.3133-0.0283-0.47v-18.861c0-3.5351 0.0017-7.0703 0.0035-10.606 0.0018-3.5351 0.0036-7.0703 0.0036-10.605 0-0.11747 0.0119-0.23495 0.0239-0.35242 4e-3 -0.03917 8e-3 -0.07834 0.0115-0.11751 0.0425-0.40585 0.2693-0.69777 0.6166-0.87578 0.3118-0.16376 0.6378-0.30616 0.971-0.42721 1.4032-0.51977 2.8491-0.89002 4.3303-1.1107 0.5883-0.085442 1.1907-0.14952 1.7931-0.178 0.9214-0.042721 1.8427-0.078322 2.757-0.042721 0.9851 0.042721 1.9702 0.178 2.9483 0.36313 2.1545 0.41297 4.2099 1.125 6.1518 2.1432 2.601 1.36 4.8477 3.1756 6.74 5.4256 1.9632 2.3354 3.3949 4.9557 4.2879 7.8749 0.4039 1.3101 0.6874 2.6487 0.8363 4.0158 0.0206 0.1863 0.0478 0.3726 0.0817 0.6043l2e-4 0.0013 2e-4 8e-4 3e-3 0.0202 0.0544-0.0151c0.0985-0.0272 0.1709-0.0472 0.2433-0.0775 0.9426-0.3845 1.9135-0.6337 2.9199-0.769 0.6804-0.0925 1.3679-0.1424 2.0554-0.121z"/>
    <path d="m80.464 21.767 0.1063 4.6139c0.0114 0.4929 0.0207 0.9864 0.03 1.4801v0.0022c0.0257 1.3523 0.0513 2.7069 0.1188 4.0572 0.0319 0.8585-0.0198 1.7131-0.0715 2.5696l-1e-4 7e-4c-0.0173 0.2869-0.0346 0.5741-0.0489 0.8616l-0.0061 0.1158c-0.0405 0.7595-0.0813 1.5248-0.1285 2.2837-0.0496 0.7476-0.0992 1.5024-0.1418 2.2571-0.0212 0.3846-0.0443 0.7711-0.0673 1.1575-0.023 0.3861-0.0461 0.7722-0.0673 1.1566-0.0071 0.1305-0.0134 0.261-0.0197 0.3916-0.0126 0.261-0.0252 0.5221-0.0441 0.7832-0.0567 0.6622-0.5599 1.2246-1.1552 1.2887-0.7229 0.0784-1.3254-0.299-1.5096-0.9541-0.0565-0.1889-0.0685-0.3889-0.0804-0.5853l-0.0047-0.0768c-0.0622-0.9236-0.1109-1.8539-0.1593-2.7777l-0.0037-0.0704c-0.0212-0.3976-0.0406-0.7969-0.0601-1.1963l-3e-4 -0.0069c-0.0194-0.3994-0.0389-0.7987-0.0601-1.1963-0.0165-0.2943-0.0338-0.5886-0.0512-0.8829-0.0346-0.5886-0.0693-1.1772-0.0976-1.7658-0.0105-0.1807-0.022-0.3618-0.0334-0.5431-0.0427-0.6754-0.0856-1.3537-0.08-2.0273 0.0118-1.5545 0.0482-3.109 0.0846-4.6635l0.0012-0.0484c0.0069-0.2949 0.0138-0.5897 0.0205-0.8845 0.0096-0.573 0.0256-1.146 0.0438-1.7938 0.0087-0.3102 0.0179-0.6375 0.0271-0.9902 0.0101-0.592 0.0202-1.2148 0.0306-1.8575l1e-4 -0.0032c0.0188-1.1573 0.0386-2.3789 0.0614-3.6005 0.0046-0.2903 0.0101-0.5798 0.0155-0.8688l1e-4 -0.0089 1e-4 -0.0033v-0.0044l1e-4 -0.0032v-0.0032l1e-4 -0.0067c0.011-0.5871 0.0219-1.1722 0.0266-1.7573 0.0107-0.477 0.0195-0.9523 0.0284-1.4276 0.0088-0.4753 0.0177-0.9505 0.0283-1.4276 0.0107-0.4414 0.0195-0.8847 0.0284-1.3279 0.0088-0.4432 0.0177-0.8865 0.0283-1.3279 0.0106-0.4792 0.0195-0.9583 0.0283-1.4374l1e-4 -0.00878c0.0089-0.47914 0.0177-0.95829 0.0283-1.4374 0.0107-0.44857 0.0195-0.89536 0.0284-1.3422 0.0088-0.44679 0.0177-0.89358 0.0283-1.3422 0.0071-0.30616 0.0213-0.61233 0.0425-0.9185 0.0426-0.64081 0.5954-1.1962 1.2332-1.2389 0.6521-0.04272 1.2828 0.43433 1.4033 1.0752 0.0355 0.19224 0.0496 0.39161 0.0567 0.58385 0.0142 0.74406 0.0266 1.4899 0.039 2.2357 0.0124 0.74584 0.0248 1.4917 0.039 2.2357 0.0071 0.3452 0.0159 0.69039 0.0248 1.0356 0.0088 0.3454 0.0177 0.6909 0.0248 1.0363l0.0638 2.9905c0.0071 0.3879 0.0159 0.774 0.0248 1.1602 0.0088 0.3864 0.0177 0.7728 0.0248 1.161 0.0213 0.8797 0.0408 1.7611 0.0603 2.6426 0.0194 0.8807 0.0389 1.7615 0.0602 2.6405z"/>
    <path d="m72.951 39.254c0.0312 0.6934 0.0607 1.3868 0.0902 2.0793 0.0308 0.7227 0.0615 1.4444 0.0941 2.1644l7e-4 0.0098c0.0069 0.0968 0.0142 0.1999 0.0347 0.2963 0.1134 0.6408 0.6379 1.0752 1.2687 1.0609 0.6378-0.0142 1.1481-0.4628 1.2261-1.1107 0.0354-0.3025 0.0462-0.6051 0.0571-0.9076l0.0029-0.0812 0.0037-0.1006c0.032-0.6019 0.0656-1.202 0.0993-1.8021 0.0337-0.5996 0.0673-1.1993 0.0992-1.8007 0.0248-0.4593 0.0461-0.9203 0.0673-1.3813v-7e-4c0.0213-0.4607 0.0425-0.9217 0.0673-1.3806 0.0073-0.1427 0.0153-0.2854 0.0233-0.4278 0.0156-0.2768 0.0312-0.5527 0.0405-0.8254 0.0089-0.2038 0.0192-0.4076 0.0294-0.6113v-0.0015c0.0305-0.6069 0.061-1.2132 0.0557-1.8151-0.0119-1.517-0.0485-3.0389-0.085-4.5575v-0.0024l-4e-4 -0.015c-7e-3 -0.2932-0.0141-0.5863-0.0209-0.8792h0.0071c-0.0071-0.2918-0.016-0.5854-0.0248-0.879-0.0089-0.2938-0.0178-0.5876-0.0249-0.8797-0.0212-0.9188-0.0407-1.8377-0.0602-2.7565-0.0195-0.9182-0.039-1.8363-0.0602-2.7545-0.0071-0.395-0.016-0.7918-0.0248-1.1886-0.0089-0.3971-0.0178-0.7942-0.0248-1.1895l-0.0638-2.8837c-0.0071-0.395-0.016-0.7918-0.0248-1.1886-0.0089-0.3971-0.0177-0.7942-0.0248-1.1895-0.0142-0.632-0.0265-1.264-0.0389-1.8961l-1e-4 -0.0057c-0.0124-0.63347-0.0248-1.2669-0.039-1.9004-0.0048-0.20114-0.0103-0.40147-0.0159-0.60154v-0.0049c-0.011-0.39321-0.0219-0.78541-0.0266-1.1807-0.0071-0.76898-0.8009-1.4027-1.5734-1.182-0.4465 0.12816-0.8505 0.54825-0.9072 0.99682-0.0283 0.24209-0.0425 0.48417-0.0496 0.72626-0.0106 0.48435-0.0195 0.96871-0.0284 1.4531v0.00441c-0.0089 0.48251-0.0177 0.96503-0.0283 1.4475-0.0213 1.004-0.0425 2.015-0.0567 3.019v0.0034c-0.0213 1.5012-0.0425 3.0024-0.0709 4.4965-0.0283 1.4169-0.0638 2.8338-0.0992 4.2508-0.0106 0.4877-0.0195 0.9772-0.0283 1.4667-0.0089 0.4895-0.0178 0.979-0.0284 1.4668-0.0354 2.0787-0.078 4.1574-0.1205 6.2361v8e-4c-0.0283 1.5237 0 3.0406 0.0922 4.5572 0.0714 0.9498 0.113 1.891 0.1546 2.8303 0.012 0.2718 0.024 0.5435 0.0367 0.8152z"/>
    <path d="m71.661 26.06c0.0355 1.3813 0.0709 2.7555 0.1134 4.1368 0.0095 0.2795 0.0206 0.5582 0.0317 0.8367 0.022 0.5514 0.0439 1.1018 0.0534 1.6554 6e-3 0.4303-0.0188 0.8555-0.0438 1.2843l-0.0032 0.0547c-0.0033 0.0568-0.0065 0.1136-0.0097 0.1705-0.0107 0.2171-0.0266 0.4361-0.0426 0.655v8e-4c-0.0159 0.2186-0.0319 0.4374-0.0425 0.6543-0.0319 0.5767-0.062 1.1534-0.0921 1.7302-0.0301 0.5767-0.0603 1.1534-0.0921 1.7302-0.0328 0.5674-0.0675 1.133-0.1021 1.6976l-1e-4 0.0013-1e-4 8e-4c-0.0326 0.5327-0.0653 1.065-0.0962 1.5969l-0.0045 0.0758c-0.0268 0.4511-0.0533 0.8965-0.0735 1.3482-0.0283 0.5483-0.3614 0.9755-0.8788 1.125-0.7016 0.1994-1.4316-0.3133-1.4812-1.0395-0.0213-0.3738-0.039-0.7459-0.0567-1.1179s-0.0355-0.744-0.0567-1.1178l-0.1489-2.7912c-0.0333-0.5837-0.0602-1.1642-0.0872-1.7457-0.0132-0.284-0.0264-0.5682-0.0403-0.8531-0.0248-0.4806-0.0514-0.9595-0.078-1.4383s-0.0532-0.9576-0.078-1.4383c-0.0141-0.2207-0.0141-0.4485-7e-3 -0.6693 0.0354-1.4596 0.0708-2.9121 0.1063-4.3646 0.0094-0.4604 0.0252-0.9208 0.0409-1.3812 0.0079-0.2303 0.0158-0.4605 0.0229-0.6908h-0.0071c0.0141-0.5767 0.0301-1.1552 0.046-1.7337l1e-4 -0.0027v-8e-4c0.0159-0.5771 0.0318-1.1549 0.046-1.7303 0.0142-0.5767 0.0248-1.1552 0.0354-1.7338 0.0107-0.5785 0.0213-1.157 0.0355-1.7337 0.0177-0.7548 0.0372-1.5095 0.0567-2.2642 0.0195-0.7548 0.039-1.5095 0.0567-2.2642 0.0106-0.3632 0.0195-0.7263 0.0283-1.0894 0.0089-0.3631 0.0177-0.7263 0.0284-1.0894 0.0104-0.2729 0.0192-0.5442 0.0279-0.8145 9e-3 -0.2796 0.018-0.5587 0.0288-0.8374 0.0283-0.591 0.4819-1.0894 1.0347-1.1392 0.6166-0.05696 1.1198 0.29901 1.2686 0.89711 0.0284 0.1211 0.0497 0.2564 0.0497 0.3845 0.0141 0.5376 0.0265 1.0734 0.0389 1.6092 0.0124 0.5356 0.0248 1.0718 0.039 1.6091l0.1063 3.7737c0.0213 0.7046 0.0408 1.4074 0.0603 2.1103v7e-4c0.0195 0.7031 0.039 1.4064 0.0602 2.1113z"/>
    <path d="m64.482 40.478c0.0319 0.5483 0.0602 1.0983 0.0886 1.6483 0.0283 0.5501 0.0567 1.1001 0.0886 1.6484 0.0354 0.598 0.5032 1.0609 1.0843 1.068 0.567 0.0071 1.0631-0.4486 1.1056-1.0396 0.0426-0.5981 0.078-1.189 0.1134-1.7871 0.0426-0.7548 0.0851-1.5095 0.1347-2.2642 0.0319-0.5056 0.0656-1.0129 0.0992-1.5202l1e-4 -0.0024c0.0337-0.5063 0.0673-1.0132 0.0991-1.5177 0.0248-0.381 0.0461-0.7619 0.0674-1.1428 0.0212-0.381 0.0425-0.7619 0.0673-1.1428l8e-4 -0.0123c0.0493-0.7791 0.0982-1.5511 0.063-2.3302-0.048-0.9794-0.0719-1.9587-0.0958-2.9411v-8e-4l-1e-4 -0.0016c-0.0079-0.3237-0.0158-0.6482-0.0246-0.9726l-0.1063-3.6313c-0.0175-0.6418-0.0366-1.2835-0.0558-1.9261l-1e-4 -0.0029v-7e-4c-0.0198-0.6608-0.0395-1.3229-0.0575-1.9864l-0.1063-3.6313c-0.0425-1.3955-0.0851-2.7982-0.1205-4.1938-0.0142-0.4482-0.0248-0.8947-0.0354-1.3412v-1e-3c-0.0107-0.4468-0.0213-0.8935-0.0355-1.3421-0.0141-0.40581-0.1772-0.74758-0.5315-0.96118-0.6308-0.37737-1.6088-0.06409-1.6443 0.95408-0.037 0.987-0.0621 1.974-0.0872 2.958-0.0086 0.3364-0.0172 0.6724-0.0262 1.0079-0.0106 0.3454-0.0195 0.6908-0.0283 1.0362-0.0089 0.3453-0.0177 0.6906-0.0284 1.0358-0.0177 0.7226-0.0372 1.4451-0.0567 2.1677-0.0195 0.7228-0.039 1.4457-0.0567 2.1685-0.0141 0.5372-0.0248 1.0726-0.0354 1.6081v0.0012c-0.0106 0.5357-0.0213 1.0715-0.0354 1.609-0.0284 1.1463-0.0638 2.2927-0.0993 3.439h0.0071c-0.017 0.5227-0.0318 1.0465-0.0466 1.5706v7e-4l-1e-4 8e-4v8e-4c-0.022 0.7814-0.0441 1.5638-0.0738 2.3432-0.0638 1.6519 0.0213 3.2967 0.1134 4.9485 0.0514 0.9765 0.109 1.9622 0.1666 2.949l1e-4 0.0017 5e-4 0.0077v8e-4c0.0296 0.5066 0.0592 1.0134 0.088 1.5194z"/>
    <path d="m62.6 42.009c-0.0248 0.3578-0.0496 0.7156-0.0744 1.0752-0.0138 0.1893-0.0216 0.3787-0.0293 0.5642-0.0042 0.1003-0.0083 0.1999-0.0133 0.2973-0.0779 0.5625-0.5102 0.9256-1.056 0.8971-0.5032-0.0213-0.9001-0.4343-0.9355-0.9683-0.0389-0.6221-0.0761-1.2441-0.1132-1.8662l-4e-4 -0.0057c-0.0371-0.6221-0.0743-1.2441-0.1132-1.8662-0.0318-0.5407-0.0673-1.0797-0.1027-1.6186l-1e-4 -0.0024c-0.0354-0.539-0.0708-1.0779-0.1027-1.6187-0.0334-0.5031-0.0604-1.003-0.0874-1.5041l-1e-4 -0.0014c-0.0131-0.243-0.0262-0.4862-0.0401-0.7302-0.0142-0.242-0.0301-0.4841-0.046-0.7261-0.016-0.2421-0.0319-0.4843-0.0461-0.7264l-4e-4 -0.0103c-7e-3 -0.1671-0.0137-0.3278-0.0067-0.4952 0.0195-0.594 0.0375-1.1865 0.056-1.7974l1e-4 -0.0014c0.0219-0.7214 0.0446-1.4685 0.0715-2.274 0.0106-0.4428 0.0212-0.9127 0.0322-1.399 0.0183-0.8117 0.0377-1.6693 0.0599-2.5242 0.0189-0.8828 0.0441-1.7657 0.0693-2.6485 0.0126-0.4415 0.0252-0.883 0.037-1.3245 0.0174-0.6619 0.0366-1.3256 0.0558-1.9901v-2e-3l1e-4 -0.0044 1e-4 -0.0018v-0.0018l1e-4 -0.0011v-0.0012l1e-4 -0.0014c0.0196-0.6819 0.0393-1.3648 0.0572-2.0476l0.0028-0.104v-0.0011l1e-4 -1e-3c0.0345-1.2821 0.0691-2.5712 0.1105-3.8598 0.0284-1.0894 0.0638-2.1788 0.1063-3.2682 0.0213-0.53401 0.4252-0.98258 0.9497-0.9897 0.5883-0.01424 0.9922 0.40585 1.0206 0.93274 0.0283 0.53401 0.0425 1.0609 0.0567 1.5949 0.0212 0.6656 0.0407 1.3312 0.0602 1.9968 0.0195 0.6659 0.039 1.3317 0.0603 1.9976l0.1063 3.4105c0.0177 0.6159 0.0372 1.2301 0.0567 1.8442s0.039 1.2282 0.0567 1.8441l0.1063 3.4105c0.0177 0.6159 0.0372 1.23 0.0567 1.8442 0.0195 0.6141 0.039 1.2282 0.0567 1.8441 0.0069 0.1873 0.014 0.3749 0.0211 0.5625 0.0366 0.9677 0.0733 1.939 0.0852 2.905 0.0053 0.502-0.0253 1.004-0.0558 1.5059-0.0102 0.1673-0.0204 0.3347-0.0293 0.502-0.0283 0.484-0.0629 0.9679-0.0976 1.4519-0.0173 0.2421-0.0346 0.4848-0.0512 0.7269-0.0248 0.3483-0.0478 0.6967-0.0708 1.045l-1e-4 0.0016c-0.023 0.3489-0.046 0.6978-0.0708 1.0467-0.0213 0.3346-0.0443 0.6692-0.0673 1.0037l-2e-4 0.0015c-0.023 0.3342-0.046 0.6685-0.0672 1.0027z"/>
    <path d="m55.906 37.759c0.0213 0.3382 0.0425 0.6782 0.0638 1.0182s0.0425 0.68 0.0638 1.0182c0.0247 0.3945 0.0513 0.7891 0.0778 1.1837l3e-4 0.0036c0.0265 0.3946 0.053 0.7891 0.0778 1.1837 0.0354 0.5981 0.0709 1.1891 0.1134 1.7872 0.0425 0.4984 0.4111 0.8544 0.893 0.8757 0.4394 0.0214 0.8292-0.2919 0.9284-0.7689 0.0213-0.1068 0.0284-0.2207 0.0355-0.3346 0.0141-0.1913 0.0264-0.3809 0.0388-0.5704l2e-4 -0.0039 1e-4 -0.0014c0.0124-0.1896 0.0247-0.3794 0.0388-0.5707l0.0098-0.13c0.0463-0.6178 0.0923-1.2309 0.132-1.8494 0.022-0.3273 0.0458-0.6546 0.0696-0.981l1e-4 -8e-4 1e-4 -0.0023 1e-4 -8e-4v-8e-4l1e-4 -1e-3c0.0221-0.3035 0.0442-0.6062 0.0646-0.9073 0.0248-0.3194 0.0477-0.6388 0.0707-0.9582l2e-4 -3e-3c0.0231-0.3204 0.0461-0.6408 0.0709-0.9613 0.0171-0.2551 0.0365-0.5091 0.0559-0.7629 0.0288-0.3763 0.0576-0.7527 0.0788-1.131 0.0139-0.2486 0.0329-0.4966 0.052-0.7446 0.0485-0.6325 0.097-1.2647 0.0613-1.9041-0.0594-1.1043-0.0946-2.2121-0.1297-3.3185-0.0152-0.4771-0.0304-0.9545-0.0474-1.4307-0.0178-0.5304-0.0372-1.0609-0.0567-1.5913-0.0195-0.5305-0.039-1.0609-0.0567-1.5914-0.0181-0.5369-0.038-1.0737-0.0578-1.6097-0.0192-0.516-0.0382-1.0311-0.0556-1.5445-0.0181-0.5508-0.0379-1.1015-0.0578-1.6513v-0.0011l-1e-4 -0.0017c-0.0191-0.5297-0.0382-1.0585-0.0555-1.5856-0.0142-0.4379-0.0266-0.8758-0.039-1.3136-0.0124-0.4379-0.0248-0.8758-0.039-1.3137-0.0142-0.5696-0.0354-1.1392-0.0567-1.7017-0.0354-0.9969-0.0709-1.9937-0.1134-2.9905-0.0071-0.1638-0.0212-0.3347-0.0496-0.4984-0.0638-0.39874-0.3898-0.71203-0.7654-0.74051-0.4749-0.0356-0.8434 0.19224-0.971 0.61945-0.0425 0.13526-0.0567 0.27056-0.0638 0.41296-0.0412 1.0915-0.0758 2.1897-0.1102 3.2817l-0.0032 0.1004c-0.0177 0.6156-0.0372 1.2295-0.0567 1.8433v0.0015c-0.0195 0.6138-0.0389 1.2278-0.0567 1.8434l-0.1063 3.496c-0.0177 0.6088-0.0372 1.2194-0.0567 1.8299-0.0195 0.6106-0.039 1.2211-0.0567 1.8299-0.0354 1.1746-0.0638 2.3493-0.0921 3.5239l-0.0071 6e-4c-0.0077 0.294-0.0138 0.588-0.02 0.8818v0.0019c-0.0164 0.7872-0.0328 1.5735-0.0792 2.3559-0.0766 1.2566 2e-3 2.5017 0.0805 3.7455l3e-4 5e-3 2e-4 3e-3c0.0085 0.1349 0.017 0.2698 0.0253 0.4047 0.0567 0.7334 0.1063 1.4739 0.1559 2.2215z"/>
    <path d="m53.823 44.124c-0.0779 0.4486-0.4252 0.7334-0.8575 0.7192-0.4111-0.0143-0.7513-0.3489-0.8009-0.7904-0.0425-0.5338-0.078-1.0747-0.1134-1.6156-0.0533-0.6963-0.1004-1.3997-0.147-2.0968l-1e-4 -8e-4 -0.0088-0.1317c-0.042-0.6193-0.0841-1.2456-0.1261-1.8719l-0.0015-0.022-0.1488-2.1788c-0.0138-0.2012-0.0284-0.4024-0.043-0.6038v-0.0012c-0.0303-0.4184-0.0607-0.8378-0.0846-1.2605l-0.085-1.5878h0.0212l0.1276-3.8021c0.018-0.5281 0.0378-1.0543 0.0576-1.5796l1e-4 -1e-3 1e-4 -0.0031c0.0191-0.5075 0.0382-1.0141 0.0556-1.5207 0.0425-1.0251 0.078-2.0502 0.1134-3.0753 0.0177-0.5233 0.0372-1.0455 0.0567-1.5671 0.0195-0.5215 0.039-1.0431 0.0567-1.5664 0.0425-1.0253 0.078-2.0506 0.1134-3.0759 0.0177-0.5127 0.0372-1.0253 0.0567-1.538 0.0195-0.5126 0.039-1.0253 0.0567-1.5379 0.0071-0.1519 0.0126-0.3038 0.0181-0.4557 0.011-0.3038 0.022-0.6076 0.0457-0.9114 0.0212-0.178 0.0779-0.3631 0.1701-0.5198 0.163-0.2919 0.5032-0.3987 0.8504-0.3275 0.2906 0.057 0.5599 0.356 0.6025 0.6622 0.0212 0.1922 0.0425 0.3916 0.0496 0.5838 0.0143 0.3444 0.0249 0.6906 0.0357 1.0377 0.0105 0.3418 0.0211 0.6845 0.0351 1.0272 0.0249 0.5696 0.0514 1.1374 0.078 1.7052l1e-4 0.0025c0.0266 0.567 0.0531 1.134 0.0779 1.7028 0.0188 0.3872 0.0313 0.7775 0.0439 1.1668l1e-4 0.0035c0.0063 0.1966 0.0126 0.3929 0.0198 0.5884 0.0248 0.6088 0.0513 1.2193 0.0779 1.8299 0.0266 0.6105 0.0532 1.2211 0.078 1.8299 0.0106 0.2418 0.0195 0.4837 0.0283 0.7256 0.0089 0.2421 0.0177 0.4848 0.0284 0.7269 0.0248 0.6049 0.046 1.2099 0.0673 1.8148v8e-4c0.0213 0.6052 0.0425 1.2104 0.0673 1.8157 0.0083 0.2218 0.0164 0.4437 0.0244 0.6656 0.0404 1.1096 0.0808 2.2192 0.1457 3.3288 0.0312 0.5319-0.0099 1.0561-0.0508 1.5784-0.015 0.1908-0.0299 0.3813-0.0413 0.5719-0.0238 0.416-0.0604 0.8353-0.0969 1.2535l-5e-4 0.0057c-0.0176 0.2023-0.0353 0.405-0.0514 0.6062-0.0244 0.3037-0.0487 0.6091-0.073 0.9145l-2e-4 0.0022-0.0013 0.0161c-0.0248 0.3115-0.0496 0.623-0.0744 0.9327-0.022 0.3066-0.046 0.6113-0.0699 0.9151l-1e-4 8e-4c-0.0221 0.2813-0.0442 0.5623-0.0646 0.8428-0.0319 0.4272-0.0656 0.8544-0.0993 1.2816-0.0336 0.4272-0.0673 0.8545-0.0992 1.2817-0.0141 0.1813-0.0265 0.3625-0.0389 0.5438l-1e-4 0.0017c-0.0124 0.1813-0.0248 0.3626-0.0389 0.5439-0.0071 0.1352-0.0213 0.2776-0.0426 0.4129z"/>
    <path d="m50.258 29.029c-0.0779-1.4027-0.1559-2.8125-0.2268-4.2151-0.0319-0.6195-0.062-1.239-0.0921-1.8584-0.0301-0.6195-0.0603-1.2389-0.0921-1.8584l-0.0638-1.1463c-0.0248-0.4699-0.0514-0.9398-0.078-1.4097v-1e-3c-0.0266-0.4697-0.0532-0.9393-0.078-1.4089-0.0072-0.1351-0.0135-0.2701-0.0199-0.4054-0.0125-0.2642-0.0251-0.5296-0.0438-0.7979-0.0071-0.0712-0.0213-0.1495-0.0496-0.2207-0.1134-0.3632-0.4253-0.5839-0.7797-0.5483-0.3472 0.0356-0.6166 0.3275-0.6378 0.6978-0.0425 0.5981-0.0709 1.1891-0.0992 1.7872-0.0142 0.3168-0.0266 0.6337-0.039 0.9506-0.0124 0.3168-0.0248 0.6336-0.039 0.9504l-0.0638 1.2817c-0.0496 0.9042-0.0992 1.8085-0.1417 2.7056-0.0142 0.3166-0.0266 0.6332-0.039 0.9498v8e-4c-0.0124 0.3168-0.0248 0.6337-0.039 0.9505-0.0319 0.6551-0.0655 1.3119-0.0992 1.9687-0.0337 0.6569-0.0673 1.3137-0.0992 1.9688-0.0567 1.1605-0.1134 2.3283-0.163 3.4888-0.0069 0.1106-4e-4 0.2145 0.0064 0.3246l6e-4 0.0101c0.0142 0.2101 0.0302 0.4183 0.0461 0.6266 0.016 0.2083 0.0319 0.4165 0.0461 0.6265l0.1276 1.8157c0.0245 0.3201 0.049 0.6419 0.0735 0.9638l8e-4 0.0104c0.0248 0.3262 0.0497 0.6523 0.0745 0.9767 0.0425 0.6123 0.085 1.2247 0.1276 1.8441 0.0708 0.9684 0.1417 1.9367 0.2126 2.8979 0.0066 0.0903 0.0129 0.1801 0.0191 0.2697l1e-4 8e-4 1e-4 0.0013v8e-4c0.0203 0.291 0.0404 0.5788 0.0728 0.8667 0.0496 0.4343 0.3756 0.7333 0.7513 0.712 0.3898-0.0214 0.6874-0.3276 0.73-0.7476 0.0106-0.1068 0.0195-0.2136 0.0283-0.3204 0.0089-0.1068 0.0177-0.2136 0.0284-0.3205 0.0779-1.011 0.1559-2.0221 0.2409-3.0403 0.0851-1.0039 0.1701-2.0079 0.2552-3.0047 0.046-0.5583 0.092-1.1148 0.138-1.6713 0.0461-0.5578 0.0923-1.1156 0.1384-1.6752 0.0133-0.1777 0.0251-0.3569 0.0368-0.5348v-8e-4l1e-4 -8e-4c0.0131-0.1993 0.0261-0.3969 0.041-0.5885l-0.0083-0.1198c-0.0184-0.2629-0.036-0.5157-0.0484-0.7631l-0.0196-0.3894-1e-4 -0.0018c-0.0431-0.8571-0.087-1.7282-0.1362-2.5993z"/>
    <path d="m43.567 38.219c-0.0301-0.4177-0.0602-0.8355-0.092-1.2514l-0.0043-0.0513c-0.0695-0.8299-0.1384-1.6534-0.18-2.4835-0.0183-0.2421-0.0346-0.4861-0.0511-0.731v-8e-4l-1e-4 -8e-4c-0.0154-0.2298-0.0309-0.4609-0.048-0.6914l0.1063-1.3671c0.0248-0.3026 0.0496-0.6033 0.0744-0.9041 0.0248-0.3009 0.0496-0.6018 0.0744-0.9044 0.0237-0.2689 0.0458-0.536 0.0678-0.8024l1e-4 -7e-4c0.024-0.2907 0.048-0.5805 0.0739-0.8702 0.0221-0.2923 0.0461-0.5828 0.07-0.8723l2e-4 -0.0025c0.0221-0.2667 0.0441-0.5325 0.0644-0.7984 0.0248-0.2956 0.0496-0.5929 0.0744-0.8902 0.0248-0.2972 0.0496-0.5944 0.0744-0.8899 0.0426-0.5767 0.0851-1.1534 0.1347-1.7301l0.0015-0.02c0.0137-0.186 0.0278-0.3783 0.0552-0.5639 0.0425-0.2919 0.2764-0.5055 0.5599-0.534 0.3189-0.0285 0.5882 0.121 0.6662 0.4272 0.0621 0.2621 0.0861 0.5296 0.1102 0.7978l1e-4 0.0013c0.0034 0.0374 0.0067 0.0748 0.0102 0.1123 0.0354 0.3667 0.0691 0.7333 0.1028 1.1 0.0336 0.3667 0.0673 0.7334 0.1027 1.1001 0.0319 0.3376 0.0619 0.6751 0.092 1.0127l1e-4 0.0016c0.0302 0.3382 0.0603 0.6767 0.0922 1.015l0.0174 0.1786c0.065 0.6656 0.1296 1.3263 0.1881 1.993 0.0319 0.3382 0.062 0.6764 0.0922 1.0146 0.0301 0.3382 0.0602 0.6764 0.0921 1.0146 0.0071 0.1353 0.0142 0.2635 0.0354 0.3917 0.0993 0.6906 0.0709 1.3741 0 2.0648-0.0465 0.4631-0.0854 0.9287-0.1243 1.3939-0.0263 0.3143-0.0526 0.6286-0.0812 0.9415-0.0319 0.3525-0.062 0.7049-0.0921 1.0574-0.0302 0.3524-0.0603 0.7049-0.0922 1.0573-0.0354 0.3845-0.0691 0.769-0.1027 1.1535-0.0337 0.3845-0.0674 0.7689-0.1028 1.1534-0.0709 0.7334-0.1347 1.4668-0.1984 2.2002-0.0142 0.1566-0.0284 0.315-0.0426 0.4735-0.0141 0.1584-0.0283 0.3168-0.0425 0.4734-0.0017 0.0112-0.0033 0.0223-0.0048 0.0334l-0.0046 0.0335c-0.0094 0.0698-0.0187 0.1389-0.0402 0.2037-0.0992 0.3133-0.3615 0.4913-0.6733 0.4699-0.3048-0.0213-0.5528-0.2563-0.5882-0.5767-0.0426-0.3845-0.078-0.7761-0.1064-1.1677-0.046-0.5834-0.0903-1.1687-0.1345-1.7539l-1e-4 -0.0012-2e-4 -0.0023c-0.0442-0.5847-0.0885-1.1699-0.1345-1.7528-0.0318-0.416-0.0619-0.8337-0.092-1.2514z"/>
    <path d="m41.838 29.556c-0.0496-0.5618-0.0991-1.1218-0.1487-1.6818-0.0496-0.5614-0.0993-1.1229-0.149-1.6861-0.0979-1.1215-0.2019-2.237-0.3063-3.3576l-0.0268-0.2879-0.0024-0.0269c-0.0276-0.3047-0.0557-0.6157-0.1039-0.9201-0.0425-0.2705-0.2764-0.4841-0.5245-0.4984-0.2338-0.0142-0.4961 0.1994-0.5528 0.47-0.0283 0.1352-0.0425 0.2776-0.0496 0.4129-0.0248 0.2953-0.0478 0.5924-0.0708 0.8894-0.023 0.2973-0.0461 0.5952-0.0709 0.8907-0.0496 0.5838-0.0992 1.1677-0.1418 1.7515-0.0212 0.2848-0.0443 0.5678-0.0673 0.8508l-1e-4 8e-4c-0.023 0.2826-0.046 0.5657-0.0672 0.8501-0.0319 0.413-0.0656 0.826-0.0993 1.239-0.0336 0.4129-0.0673 0.8259-0.0992 1.2389-0.0204 0.2665-0.0424 0.533-0.0645 0.8003-0.024 0.2895-0.048 0.5805-0.0701 0.8729-0.0137 0.2044-0.0344 0.4088-0.0552 0.6133-0.0543 0.5365-0.1088 1.074-0.037 1.6153 0.017 0.1282 0.0264 0.2563 0.0357 0.3845 0.0063 0.0854 0.0125 0.1709 0.021 0.2563 0.0319 0.381 0.062 0.7619 0.0922 1.1428 0.0301 0.3809 0.0602 0.7619 0.0921 1.1428 0.0354 0.4236 0.0709 0.8455 0.1063 1.2674s0.0709 0.8437 0.1063 1.2674l0.1276 1.5593c0.0354 0.4023 0.0691 0.8063 0.1028 1.2104 0.0336 0.4041 0.0673 0.8081 0.1027 1.2104 0.0094 0.1078 0.0171 0.2157 0.0249 0.3232 0.0159 0.2191 0.0316 0.4374 0.0602 0.6523 0.0496 0.3418 0.2905 0.5554 0.567 0.5483 0.2693-0.0072 0.489-0.2208 0.5528-0.5412 0.0144-0.0723 0.0223-0.1479 0.0303-0.2246l0.0049-0.0467 0.0026-0.0236 2e-3 -0.0173 0.0027-0.0224c0.014-0.1552 0.0281-0.3121 0.0421-0.469l4e-4 -4e-3c0.0142-0.1586 0.0283-0.3172 0.0425-0.474 0.0319-0.3412 0.0637-0.6843 0.0956-1.0273l3e-4 -0.0031c0.0318-0.3431 0.0636-0.6861 0.0955-1.0273 0.0638-0.6978 0.1276-1.3885 0.1984-2.0862 0.0319-0.3418 0.0638-0.6854 0.0957-1.0289l2e-4 -0.0016c0.0318-0.343 0.0637-0.686 0.0955-1.0273 0.0354-0.356 0.0691-0.7138 0.1028-1.0715 0.0336-0.3578 0.0673-0.7156 0.1027-1.0716 0.0425-0.4628 0.0851-0.9257 0.1276-1.4169 0-0.0089-0.0012-0.0226-0.0026-0.0387-0.0021-0.0228-0.0045-0.0502-0.0045-0.0753-0.1134-1.0965-0.2197-2.2001-0.3189-3.3037z"/>
    <path d="m68.224 49.421c0.2268-0.0713 1.4883-0.0784 1.7789-0.0143v9.42l-0.0197 0.0014c-0.0917 0.0066-0.1778 0.0128-0.2638 0.0128-0.0861 0-0.1727-4e-4 -0.2596-9e-4h-0.0017c-0.2629-0.0013-0.5289-0.0026-0.7947 8e-3 -0.1985 0.0072-0.3118-0.0569-0.4252-0.2278-0.3444-0.5255-0.6941-1.0483-1.0443-1.5717-0.2191-0.3277-0.4384-0.6555-0.6567-0.9844-0.3651-0.552-0.7284-1.1039-1.0917-1.6559-0.3632-0.5517-0.7263-1.1033-1.0912-1.655-0.0127-0.0213-0.0279-0.0375-0.0427-0.0532-0.0099-0.0105-0.0196-0.0208-0.0282-0.0323-0.0106 0-0.0212 0.0018-0.0319 0.0036l-0.0072 0.0012-0.0097 0.0014c-5e-3 6e-4 -0.01 1e-3 -0.015 1e-3 -0.0255 0.3034-0.0127 0.6095 1e-4 0.915v7e-4c0.0085 0.2031 0.017 0.4063 0.0141 0.608-0.0047 0.3417-0.0031 0.6835-0.0016 1.0253 8e-4 0.1709 0.0016 0.3418 0.0016 0.5126v3.0831h-1.7931v-9.4343l0.0219-0.0019 0.0226-0.0024c0.0148-0.0016 0.0295-0.0033 0.0439-5e-3 0.0519-0.0061 0.1026-0.012 0.1526-0.012 0.176-0.0031 0.3507-0.0022 0.5252-0.0013h0.0015c0.2324 0.0011 0.465 0.0023 0.6994-0.0058 0.1984-0.0072 0.3189 0.0641 0.4323 0.2278 0.3899 0.591 0.7832 1.1785 1.1766 1.7659 0.3933 0.5874 0.7866 1.1748 1.1764 1.7657 0.4677 0.7047 0.9282 1.4166 1.3888 2.1285 0.0159 0.0279 0.0344 0.0519 0.0598 0.0847 0.0198 0.0257 0.0442 0.0572 0.0752 0.1009 0.0541-0.3165 0.0399-0.602 0.0262-0.8781-0.0061-0.1215-0.012-0.2412-0.012-0.3608 0-0.1994-0.0018-0.4006-0.0036-0.6017s-0.0035-0.4023-0.0035-0.6017z"/>
    <path d="m122.63 49.628c-0.6095-0.1852-1.2332-0.2492-1.8639-0.2564-0.6485-0.0106-1.2969-0.0093-1.9454-8e-3 -0.2162 5e-4 -0.4324 9e-4 -0.6486 9e-4h-0.1701c-0.085 0-0.1417 0.0499-0.1488 0.1353-7e-3 0.0641-7e-3 0.1282-7e-3 0.1923-3e-3 1.4738-5e-3 2.9477-7e-3 4.4216-2e-3 1.4738-4e-3 2.9477-7e-3 4.4216 0 0.0543 5e-3 0.1061 0.0104 0.1642 4e-3 0.0408 8e-3 0.0849 0.0109 0.1348h0.2906c0.2714 0 0.5436 8e-4 0.816 0.0016 0.5458 0.0016 1.0926 0.0032 1.6362-0.0016 0.5457-0.0071 1.0914-0.064 1.623-0.2207 1.5379-0.4557 2.601-1.4169 3.0262-2.9905 0.319-1.1748 0.2765-2.3638-0.0921-3.5316-0.404-1.2673-1.2615-2.079-2.5231-2.4635zm0.8222 5.4327c-0.241 0.9825-0.8434 1.6091-1.8286 1.8583-0.4394 0.1139-1.4883 0.1567-1.9277 0.0712v-5.7744c0.0172-0.0058 0.032-0.0139 0.046-0.0215 0.0206-0.0112 0.0392-0.0213 0.0603-0.0213 0.1637 0.0043 0.3281 0.0047 0.4925 0.0052 0.3836 1e-3 0.7676 2e-3 1.1447 0.0518 1.1694 0.1424 1.8001 0.7547 2.0411 1.9153 0.1205 0.6408 0.1276 1.2817-0.0283 1.9154z" clip-rule="evenodd" fill-rule="evenodd"/>
    <path d="m75.453 49.372c0.6308 0.0071 1.2545 0.0712 1.864 0.2563 1.2828 0.3987 2.1404 1.2318 2.5373 2.5276 0.3331 1.0752 0.3827 2.1717 0.1346 3.2611-0.3756 1.6732-1.4458 2.7199-3.0759 3.2041-0.5315 0.1566-1.0772 0.2136-1.623 0.2207-0.5415 0.0047-1.0863 0.0031-1.6299 0.0016h-0.0062c-0.2725-8e-4 -0.5447-0.0016-0.8161-0.0016h-0.2622c-0.0709-0.2492-0.0638-9.1922 0-9.4556 0.0849-0.0071 0.1702-0.0142 0.2622-0.0142 0.8715-0.0072 1.7437-0.0143 2.6152 0zm0.8505 7.5473c0.9922-0.2563 1.5947-0.89 1.8356-1.8868 0.156-0.6337 0.1418-1.2745 0.0142-1.9225-0.1984-1.0395-0.815-1.6661-1.8498-1.8654-0.2787-0.0525-0.5669-0.062-0.8569-0.0716l-0.0474-0.0015-0.0824-0.0029-0.0622-0.0024c-0.1898-0.0047-0.3828-0.0031-0.5725-0.0015h-8e-4l-0.1441 0.0011-0.0785 4e-4h-0.0546c-0.0709 0.2706-0.0709 5.568 0 5.8599 0.1979-0.0089 0.3964-0.0066 0.5952-0.0043 0.435 0.0049 0.8713 0.0099 1.3042-0.1025z" clip-rule="evenodd" fill-rule="evenodd"/>
    <path d="m35.389 36.926c0.04252 0.4592 0.0815 0.9185 0.12048 1.3777l7e-5 8e-4c0.03896 0.4589 0.07792 0.918 0.12042 1.377 0.04606 0.5019 0.09036 1.0021 0.13465 1.5023 0.04428 0.5 0.08862 1.0006 0.13467 1.5024 0.02835 0.3347 0.06378 0.6693 0.10631 1.0039 0.03543 0.2564 0.20553 0.4201 0.43232 0.4344 0.25515 0.0142 0.42524-0.1211 0.49612-0.3916 0.02835-0.0997 0.03543-0.1994 0.04252-0.3062 0.04559-0.4057 0.0852-0.8174 0.12432-1.224l0.01034-0.1075c0.03189-0.3239 0.06556-0.6479 0.09922-0.9719 0.03367-0.3239 0.06733-0.6479 0.09922-0.9719 0.06379-0.6194 0.12758-1.2389 0.19132-1.8655 0.0319-0.3239 0.0656-0.6479 0.0993-0.9719 0.0336-0.324 0.0673-0.6479 0.0992-0.9719 0.0337-0.3383 0.0693-0.6766 0.1049-1.0139 0.0317-0.3015 0.0634-0.6023 0.0935-0.9014 0.0238-0.2248 0.0459-0.4513 0.0679-0.6771 0.0241-0.246 0.048-0.4914 0.0739-0.7327-0.0038-0.0562-0.0095-0.1125-0.0151-0.1677-5e-3 -0.0496-0.0099-0.0984-0.0133-0.1456-0.0354-0.3382-0.0691-0.6764-0.1027-1.0146-0.0337-0.3382-0.0674-0.6764-0.1028-1.0146-0.0319-0.3169-0.062-0.632-0.0921-0.947-0.0302-0.315-0.0603-0.6303-0.0922-0.947-0.0567-0.6693-0.12755-1.3386-0.19842-2.0079-0.03045-0.3059-0.05928-0.6118-0.08804-0.9169l-7e-5 -7e-4c-0.03145-0.3336-0.06287-0.6669-0.09616-0.9977l-0.21262-2.1147-0.0027-0.0267c-0.02748-0.2763-0.05559-0.5589-0.10365-0.8348-0.04961-0.2421-0.2764-0.4059-0.48194-0.3916-0.21262 0.0213-0.39689 0.2065-0.43232 0.4486-0.0071 0.0356-0.0071 0.0712-0.0071 0.1139l-0.12757 1.3884c-0.0305 0.3541-0.06263 0.7082-0.09482 1.0631-0.03513 0.3872-0.07034 0.7754-0.10363 1.1655-0.04615 0.4902-0.08617 0.9865-0.12577 1.4776l-0.0089 0.1102c-0.03189 0.3774-0.06555 0.7529-0.09921 1.1285-0.03367 0.3756-0.06734 0.7512-0.09923 1.1286-0.02126 0.2445-0.04016 0.4889-0.05906 0.7334-0.0378 0.4889-0.0756 0.9778-0.1323 1.4667-0.09213 0.8117-0.10631 1.6163-0.02126 2.428 0.07613 0.7102 0.13974 1.4204 0.20364 2.1338l2.4e-4 0.0027c0.01931 0.2155 0.03864 0.4313 0.05835 0.6475z"/>
    <path d="m100.85 49.343c1.2332-0.2563 2.4026-0.0997 3.4232 0.7049 0.6024 0.4771 1.0135 1.1108 1.2544 1.8441 0.4891 1.481 0.4962 2.9692-7e-3 4.443-0.3686 1.0894-1.0561 1.9296-2.1475 2.3568-1.1127 0.4343-2.2325 0.413-3.324-0.0854-0.8292-0.3774-1.3962-1.0325-1.7789-1.8513-0.3898-0.833-0.5315-1.7231-0.5244-2.5917-0.0071-0.9612 0.1275-1.8513 0.5173-2.6843 0.5245-1.1179 1.3608-1.8797 2.5869-2.1361zm2.4877 7.1202c0.2055-0.2492 0.3472-0.5269 0.4465-0.8331 0.2267-0.6977 0.2622-1.4098 0.1771-2.136-0.0496-0.4628-0.1488-0.9185-0.3614-1.3386-0.2268-0.4557-0.567-0.8117-1.056-0.9755-0.9497-0.3204-2.0979-0.0712-2.6082 1.1179-0.248 0.5767-0.326 1.1819-0.3543 1.8085 0.0201 0.1412 0.0357 0.2824 0.0513 0.4233 0.0284 0.2568 0.0568 0.5129 0.1117 0.7658 0.2268 1.0538 0.8788 1.9153 2.2112 1.8441 0.5528-0.0285 1.0206-0.2421 1.3821-0.6764z" clip-rule="evenodd" fill-rule="evenodd"/>
    <path d="m47.891 49.493c-0.5741-0.2278-1.1694-0.2776-1.779-0.2492-0.978 0.0428-1.8214 0.3988-2.5089 1.1037-0.4536 0.4628-0.7654 1.011-0.9568 1.6162-0.4535 1.417-0.4535 2.841-7e-3 4.2579 0.1559 0.4913 0.3898 0.947 0.7158 1.3528 1.0702 1.303 2.4664 1.6092 4.0397 1.2817 1.2332-0.2564 2.0625-1.0538 2.5727-2.1859 0.3686-0.8117 0.4962-1.6733 0.4962-2.5562 0-0.7903-0.1064-1.5593-0.3828-2.2998-0.4039-1.0751-1.0985-1.8868-2.1899-2.3212zm0.6874 4.9913c-0.0283 0.4485-0.0992 0.89-0.2693 1.3101-0.2835 0.7049-0.7583 1.1962-1.5309 1.3172-0.8859 0.1353-1.6867-0.1424-2.1616-1.0182-0.2339-0.4343-0.3402-0.9042-0.3898-1.3884-0.0144-0.1451-0.0191-0.2901-0.0228-0.4062-0.0017-0.0548-0.0033-0.1032-0.0055-0.1421 0.0071-0.6479 0.0638-1.1961 0.2622-1.7159 0.2339-0.5981 0.6024-1.0752 1.2332-1.2745 0.9355-0.2991 2.0837-0.0356 2.5727 1.1535 0.2906 0.6977 0.3614 1.424 0.3118 2.1645z" clip-rule="evenodd" fill-rule="evenodd"/>
    <path d="m38.443 53.28c0.3118 0.0855 0.6166 0.1994 0.9071 0.3418 1.134 0.5554 1.5522 1.4454 1.4529 2.6843-0.0567 0.7903-0.3614 1.481-1.0135 1.9723-0.3472 0.2634-0.737 0.4343-1.1552 0.534-1.1056 0.2634-2.2112 0.2634-3.2885-0.1282-0.74417-0.2705-1.3679-0.7049-1.8569-1.3884 0.20671-0.1846 0.40887-0.3661 0.60998-0.5467l8.1e-4 -8e-4c0.23302-0.2092 0.46465-0.4173 0.70036-0.6273l0.03887 0.0354c0.06062 0.0552 0.11267 0.1026 0.15958 0.1497 0.73708 0.6978 1.6159 0.9541 2.6082 0.8544 0.2338-0.0285 0.4677-0.0569 0.6803-0.1353 0.5812-0.2064 0.7017-0.6764 0.5954-1.1961-0.0496-0.235-0.2197-0.3988-0.4253-0.4913-0.3047-0.1282-0.6166-0.2564-0.9355-0.3489-0.21495-0.0617-0.43257-0.1154-0.65055-0.1692-0.28505-0.0703-0.57085-0.1408-0.85196-0.2296-0.36854-0.121-0.73708-0.2705-1.0702-0.4628-0.65912-0.3773-1.0135-0.9683-1.0631-1.7302-0.02126-0.3275-0.02126-0.6621 0.03544-0.9754 0.12757-0.6907 0.52446-1.2105 1.0985-1.5878 0.5599-0.3774 1.1836-0.5554 1.8569-0.591 0.74414-0.0356 1.467 0.0356 2.1545 0.3347 0.5883 0.2563 1.0985 0.6194 1.538 1.0822-0.0993 0.1851-0.886 0.9826-1.2899 1.303-0.0709-0.0641-0.1418-0.1282-0.2197-0.1922-0.5812-0.5127-1.2545-0.7833-2.0341-0.7548-0.29767 0.0071-0.59533 0.057-0.85756 0.2136-0.24806 0.1496-0.39689 0.356-0.41107 0.6551-0.01417 0.2848 0.09214 0.5198 0.34019 0.655 0.20553 0.1211 0.43233 0.2208 0.65912 0.2848 0.27993 0.0819 0.56163 0.1549 0.84333 0.2279 0.2816 0.0729 0.5636 0.146 0.8435 0.2278z"/>
    <path d="m59.974 49.4c-0.2976-0.057-1.5592-0.0499-1.7931 0.0142v5.2191c0 0.4913-0.0708 0.9683-0.2622 1.4169-0.404 0.9327-1.3537 1.303-2.2608 1.0467-0.6946-0.1923-1.0702-0.7049-1.2758-1.36-0.1204-0.3845-0.1488-0.7832-0.1488-1.189v-4.8133c0-0.0673-0.0074-0.1371-0.015-0.208-0.0052-0.0489-0.0104-0.0985-0.0133-0.148h-1.779c-0.0031 0.0383-0.0077 0.0694-0.0118 0.0972-0.0051 0.0343-0.0094 0.0636-0.0094 0.0951 0 0.4454-5e-4 0.8912-9e-4 1.3373v0.0043c-0.0013 1.3423-0.0027 2.6867 8e-3 4.027 0.0071 0.534 0.0921 1.0537 0.2622 1.5664 0.3685 1.0894 1.056 1.8726 2.1545 2.2571 0.7229 0.2492 1.4742 0.2634 2.2255 0.1353 1.1056-0.1923 1.9277-0.7832 2.4451-1.7872 0.3544-0.6906 0.4961-1.4454 0.5032-2.2144 0.0141-1.7489 0.0071-3.4979 0-5.254v-0.0078c-0.0036-0.0391-0.0089-0.0783-0.0142-0.1174-0.0053-0.0392-0.0106-0.0784-0.0142-0.1175z"/>
    <path d="m115.39 49.439c0.012 0.0534 0.024 0.1068 0.024 0.1602-3e-3 0.6937-2e-3 1.3884-2e-3 2.0841v1e-3c5e-4 1.1604 1e-3 2.324-0.0122 3.49-7e-3 0.7192-0.1914 1.4169-0.5457 2.0577-0.5032 0.9114-1.2829 1.4597-2.2893 1.659-0.7725 0.1496-1.5521 0.1424-2.3104-0.121-1.1836-0.4059-1.8782-1.2745-2.2254-2.4565-0.1418-0.4841-0.1985-0.9825-0.1985-1.4881v-5.1479c0-0.299 7e-3 -0.3061 0.2906-0.3061h1.2828c0.2481 0.0071 0.2551 0.0142 0.2551 0.2563v5.1194c0 0.4343 0.0638 0.8544 0.2339 1.2532 0.3402 0.8117 0.9356 1.1819 1.7222 1.1819 0.808 0 1.3963-0.3916 1.7223-1.1463 0.1842-0.4059 0.2551-0.8402 0.2551-1.2817v-5.3686h1.786c2e-3 0.0108 4e-3 0.0217 7e-3 0.0325z"/>
    <path d="m33.927 33.36c0.01984-0.143 0.03992-0.2878 0.02953-0.4287-0.01501-0.2363-0.04768-0.469-0.08056-0.7032-0.01369-0.0975-0.02742-0.1953-0.03992-0.2937-0.05314-0.4092-0.10451-0.8203-0.15587-1.2313l-1.1e-4 -9e-4c-0.05136-0.411-0.10273-0.8221-0.15587-1.2313-0.09922-0.826-0.19844-1.6448-0.30475-2.4707-0.05317-0.4238-0.10633-0.8493-0.1595-1.2748l-2.4e-4 -0.0019c-0.05306-0.4247-0.10613-0.8494-0.15919-1.2724-0.0083-0.063-0.01614-0.1257-0.02399-0.1882-0.02582-0.2056-0.05136-0.4089-0.08941-0.6163-0.04252-0.1994-0.19844-0.3133-0.37563-0.3062-0.163 0.0071-0.30475 0.121-0.35436 0.3062-0.0093 0.028-0.0125 0.0591-0.0156 0.0892-0.0016 0.0158-0.0032 0.0314-0.0057 0.046-0.02476 0.2204-0.04952 0.4424-0.07428 0.6645l-2.7e-4 0.0024c-0.02476 0.2221-0.04953 0.4443-0.07429 0.6646-0.03189 0.2955-0.06378 0.5928-0.09568 0.89l-1.6e-4 0.0016c-0.03184 0.2968-0.06368 0.5935-0.09551 0.8885-0.08505 0.7476-0.1701 1.5023-0.24806 2.2499-0.04252 0.3987-0.0868 0.7973-0.13109 1.196-0.0443 0.3987-0.08862 0.7977-0.13114 1.1964-0.04961 0.4842-0.09922 0.9612-0.15592 1.4739 0.01584 0.1501 0.03169 0.3038 0.04776 0.4597 0.03426 0.3324 0.06957 0.6749 0.10816 1.0142 0.04246 0.3803 0.08492 0.7589 0.12738 1.1374l1.9e-4 0.0018c0.04252 0.3791 0.08505 0.7583 0.12757 1.1392 0.08505 0.7405 0.16301 1.481 0.24097 2.2215 0.08505 0.7761 0.1701 1.5522 0.26223 2.3354 0.0093 0.0752 0.01821 0.1508 0.0271 0.2267 0.02478 0.2117 0.04978 0.4252 0.0863 0.6348 0.03544 0.1994 0.18427 0.3205 0.36145 0.3276 0.17719 0.0071 0.31893-0.1139 0.38272-0.3062 0.02126-0.0712 0.03543-0.1424 0.04252-0.2207 0.05281-0.4244 0.10715-0.8504 0.16159-1.2771 0.06246-0.4896 0.12512-0.9807 0.18569-1.4713 0.06025-0.4771 0.11872-0.9524 0.17719-1.4277 0.05847-0.4752 0.11694-0.9505 0.17718-1.4275 0.08049-0.6823 0.16813-1.3611 0.25531-2.0362 0.03563-0.276 0.07118-0.5513 0.10614-0.8261 0.0057-0.0513 0.01286-0.1031 0.02008-0.1551z"/>
    <path d="m87.665 51.921c-0.6662-1.1179-2.431-1.1393-3.2318-0.1211-0.3402 0.4272-0.5245 0.9185-0.6166 1.4597-0.1276 0.712-0.0992 1.4169 0.0992 2.1075 0.1134 0.3916 0.2906 0.7405 0.5457 1.0609 0.7442 0.9328 2.3672 1.0467 3.1468-0.0498 0.0469-0.0652 0.0938-0.1286 0.1434-0.1957 0.048-0.0648 0.0986-0.1333 0.1543-0.2102 0.5173 0.3062 1.0064 0.5981 1.5167 0.9043-0.0102 0.0246-0.0193 0.0474-0.0278 0.069-0.0211 0.0533-0.0391 0.099-0.0644 0.1446-0.6591 1.1891-1.6655 1.8157-3.0192 1.8869-0.6308 0.0356-1.2615-0.0143-1.8569-0.2564-1.0843-0.4414-1.786-1.246-2.197-2.3211-0.3757-0.9898-0.4465-2.0079-0.3402-3.0546 0.085-0.8046 0.3118-1.5522 0.7441-2.2357 0.6663-1.0538 1.616-1.6875 2.8491-1.837 0.6237-0.0784 1.2616-0.0428 1.8711 0.1566 0.9001 0.2991 1.5521 0.8829 1.9986 1.716 0.0119 0.0198 0.0193 0.0441 0.0285 0.074 0.0065 0.0212 0.0139 0.0453 0.0243 0.0726l0.0039 0.01-0.1836 0.0852c-0.489 0.2267-0.97 0.4496-1.4677 0.6838-0.0064-0.0075-0.013-0.015-0.0196-0.0225-0.0044-5e-3 -0.0088-0.0099-0.0132-0.0149-0.0332-0.0374-0.0664-0.0747-0.0877-0.1121z"/>
    <path d="m93.356 57.019c-0.1784 0-0.2687 0-0.3145-0.0454-0.0469-0.0465-0.0469-0.1409-0.0469-0.3319v-7.2769c-0.1779 0-0.3534-0.0012-0.5273-0.0023-0.4286-0.0029-0.8474-0.0058-1.2658 0.0094-0.0142 0.0712-0.0213 0.114-0.0213 0.1496v9.1494c0 0.0356 0.0071 0.0712 0.0142 0.1068 0 0.0071 0.0071 0.0142 0.0142 0.0213l0.0141 0.0143h5.5494v-1.8014h-0.3544c-1.0135 0.0071-2.034 0.0071-3.0617 0.0071z"/>
    <path d="m29.033 27.554c0.0087 0.0553 0.01733 0.1107 0.02678 0.1653 0.08008 0.5162 0.16085 1.0332 0.24167 1.5503 0.17668 1.1307 0.35356 2.2626 0.52376 3.3911 0.01505 0.0908 0.023 0.1815 0.03139 0.2774 0.0035 0.0394 7e-3 0.0798 0.01113 0.1213-0.07087 0.4557-0.14175 0.9257-0.21262 1.3956-0.18427 1.1321-0.36145 2.2642-0.53863 3.3963-0.01952 0.1209-0.03755 0.2403-0.05545 0.3589-0.0211 0.1398-0.04203 0.2785-0.06504 0.4172-0.02835 0.1709-0.09213 0.3275-0.26932 0.3916-0.20553 0.0712-0.41106-0.0356-0.46776-0.2706-0.03893-0.1564-0.0604-0.3172-0.08154-0.4756-0.0058-0.0434-0.01157-0.0867-0.01768-0.1296-0.07796-0.5909-0.15415-1.1819-0.23034-1.7729-0.07619-0.591-0.15238-1.1819-0.23034-1.7729-0.02076-0.1553-0.04303-0.3106-0.06533-0.4661-0.04621-0.3223-0.09257-0.6456-0.12603-0.9722-0.02126-0.2065 0.0071-0.413 0.03544-0.6123 0.06024-0.4557 0.12226-0.9132 0.18427-1.3707 0.06201-0.4574 0.12403-0.9149 0.18427-1.3706l0.29767-2.3283c0.0022-0.0119 0.0043-0.024 0.0065-0.0362 0.01216-0.0681 0.02509-0.1405 0.04312-0.213 0.0567-0.2207 0.16301-0.3204 0.35437-0.3204 0.18427 0 0.30475 0.0926 0.36145 0.3204 0.02362 0.1045 0.04095 0.2152 0.05827 0.326z"/>
  </g>
</svg>
