<svg width="40" height="30" viewBox="0 0 40 30" fill="none" xmlns="http://www.w3.org/2000/svg">
<path d="M29.2 9.01V6.06C29.2 5.08 30 4.28 30.98 4.28H31.22V5.51C31.22 6.64 32.14 7.56 33.27 7.56H36.73C37.86 7.56 38.78 6.64 38.78 5.51V2.05C38.78 0.92 37.86 0 36.73 0H33.27C32.14 0 31.22 0.92 31.22 2.05V3.28H30.98C29.45 3.28 28.2 4.53 28.2 6.06V9.02C22.82 9.31 18.52 13.68 18.33 19.09H15.29C14.31 19.09 13.51 18.29 13.51 17.31V7.55H14.72C15.85 7.55 16.77 6.63 16.77 5.5V2.05C16.77 0.92 15.85 0 14.72 0H11.26C10.13 0 9.21 0.92 9.21 2.05V3.28H6.06C4.53 3.28 3.28 4.53 3.28 6.06V22.36H2.05C0.92 22.36 0 23.28 0 24.41V27.87C0 29 0.92 29.92 2.05 29.92H5.51C6.64 29.92 7.56 29 7.56 27.87V24.41C7.56 23.28 6.64 22.36 5.51 22.36H4.28V6.06C4.28 5.08 5.08 4.28 6.06 4.28H9.22V5.51C9.22 6.64 10.14 7.56 11.27 7.56H12.52V17.31C12.52 18.84 13.77 20.09 15.3 20.09H18.35C18.68 25.56 23.23 29.92 28.78 29.92C34.55 29.92 39.24 25.23 39.24 19.46C39.24 13.83 34.77 9.24 29.2 9.01ZM32.22 2.05C32.22 1.47 32.69 1 33.27 1H36.73C37.31 1 37.78 1.47 37.78 2.05V5.51C37.78 6.09 37.31 6.56 36.73 6.56H33.27C32.69 6.56 32.22 6.09 32.22 5.51V2.05ZM5.51 23.36C6.09 23.36 6.56 23.83 6.56 24.41V27.87C6.56 28.45 6.09 28.92 5.51 28.92H2.05C1.47 28.92 1 28.45 1 27.87V24.41C1 23.83 1.47 23.36 2.05 23.36H5.51ZM11.26 6.55C10.68 6.55 10.21 6.08 10.21 5.5V2.05C10.21 1.47 10.68 1 11.26 1H14.72C15.3 1 15.77 1.47 15.77 2.05V5.51C15.77 6.09 15.3 6.56 14.72 6.56H11.26V6.55ZM28.77 28.92C23.55 28.92 19.31 24.67 19.31 19.46C19.31 14.25 23.56 10 28.77 10C33.99 10 38.23 14.25 38.23 19.46C38.23 24.67 33.99 28.92 28.77 28.92ZM35.28 18.04L34.7 18.85C28.09 14.13 23.1 18.62 22.89 18.81L22.21 18.08C22.27 18.03 27.99 12.83 35.28 18.04ZM33.87 20.51L33.29 21.32C28.25 17.72 24.46 21.13 24.3 21.28L23.62 20.55C23.67 20.51 28.16 16.43 33.87 20.51ZM32.16 22.73L31.58 23.54C28.46 21.31 26.12 23.41 26.02 23.5L25.34 22.77C25.37 22.75 28.36 20.02 32.16 22.73Z" fill="white"/>
</svg>
