<svg fill="none" version="1.1" viewBox="0 0 158 50" xmlns="http://www.w3.org/2000/svg">
 <g transform="translate(14.726 4.9419)" fill="#fff">
  <path d="m4.5445e-5 20.031c-0.023556 11.173 9.1134 20.166 20.021 20.085 10.847 0.0692 19.973-8.7708 20.022-19.947 0.0495-11.122-8.8617-20.168-20.019-20.169-11.201-3.361e-4 -20.001 9.0874-20.024 20.031zm13.308-9.2058c1.272-0.1176 2.5481-0.1912 3.6764-0.1529 1.1152-0.0084 2.079 0.0034 3.0404 0.0776 2.8465 0.2199 5.65 0.6736 8.3828 1.523 1.3733 0.4269 2.7093 0.9445 3.9968 1.5838 0.4815 0.239 0.9604 0.4871 1.4106 0.7825 0.5842 0.3832 0.8595 0.9526 0.8235 1.6309-0.0377 0.7052-0.3786 1.2621-1.0392 1.5731-0.5633 0.2652-1.1303 0.2416-1.6822-0.0474-0.157-0.0822-0.3123-0.1677-0.4675-0.2533-0.149-0.082-0.2979-0.1641-0.4485-0.2432-1.8084-0.9506-3.7312-1.5841-5.714-2.0497-1.519-0.3566-3.0588-0.5892-4.6102-0.7428-1.7313-0.1718-3.4701-0.204-5.2061-0.1311-2.0406 0.0857-4.0644 0.3341-6.0478 0.847-0.20499 0.0531-0.40884 0.1114-0.61267 0.1696l-0.13237 0.0378c-1.1738 0.3345-2.2223-0.3176-2.4198-1.5125-0.12956-0.7845 0.34324-1.6732 1.1842-1.966 0.59394-0.2067 1.2057-0.3496 1.8172-0.4908 1.334-0.3085 2.6868-0.5095 4.0486-0.6356zm2.3046 6.7541c0.2711-0.0124 0.5241-0.024 0.7513-0.038 3.8096 0.0303 7.2444 0.5781 10.561 1.7936 1.4345 0.5253 2.8102 1.1771 4.1162 1.9707 0.8769 0.5327 1.059 1.5992 0.4119 2.3663-0.461 0.5465-1.307 0.6769-1.9578 0.2836-1.0964-0.6628-2.2456-1.2157-3.4452-1.6628-1.728-0.644-3.5055-1.0944-5.3321-1.3542-1.0432-0.1482-2.0907-0.2242-3.1426-0.284-1.0341-0.0588-2.0585 0.0077-3.0859 0.0746-1.6842 0.1096-3.3287 0.4319-4.9484 0.9018-0.77936 0.2262-1.6183-0.1949-1.8522-0.9334-0.25171-0.7953 0.02995-1.5781 0.8184-1.9394 0.22642-0.104 0.46669-0.1664 0.70594-0.2286 0.04237-0.011 0.0847-0.022 0.12692-0.0333 1.3766-0.3667 2.7728-0.6255 4.1912-0.7771 0.7251-0.0775 1.4516-0.1109 2.0808-0.1398zm-1.2816 6.6209c0.8588-0.0769 1.7209-0.1159 2.4939-0.09 2.1978-0.038 4.2713 0.211 6.3103 0.7404 1.9319 0.5012 3.7588 1.2555 5.4676 2.2894 0.1144 0.0692 0.2298 0.1415 0.3304 0.2292 0.4557 0.3973 0.5375 1.0685 0.2006 1.5882-0.3113 0.4806-0.949 0.6726-1.485 0.4437-0.0922-0.0394-0.1814-0.0881-0.2675-0.1402-2.0292-1.2258-4.2226-2.0063-6.556-2.4026-0.8507-0.1445-1.7067-0.2333-2.5692-0.2827-0.5711-0.0329-1.1415-0.0615-1.7122-0.0447-1.8616 0.0545-3.7083 0.2491-5.5339 0.6245-0.1326 0.0273-0.2647 0.0564-0.3968 0.0855-0.2069 0.0456-0.4142 0.0913-0.62251 0.1297-0.53404 0.0981-1.0045 0-1.342-0.4706-0.49332-0.6877-0.15378-1.6504 0.68009-1.8823 0.40164-0.1118 0.81283-0.1913 1.2226-0.2706l0.0571-0.0111c1.232-0.239 2.4727-0.4235 3.7225-0.5358z" clip-rule="evenodd" fill-rule="evenodd"/>
  <path d="m121.72 24.549c-0.024 0.0835-0.049 0.1681-0.133 0.216-0.081-0.024-0.101-0.0853-0.119-0.1445l-4e-3 -0.0107-3e-3 -0.0105-3e-3 -0.0081-4e-3 -0.0118c-0.424-1.1087-0.847-2.2175-1.27-3.3262l-0.033-0.0849c-0.412-1.0805-0.825-2.161-1.237-3.2414-0.096-0.2502-0.192-0.5001-0.289-0.7499-0.189-0.4919-0.379-0.9838-0.562-1.4779-0.083-0.2226-0.225-0.3231-0.453-0.3227-0.05 0-0.101-6e-4 -0.151-0.0012s-0.101-0.0012-0.152-0.0012c-0.705-1e-4 -1.411-1e-4 -2.117-1e-4 -0.707 0-1.414 0-2.121-2e-4l-0.055-2e-4c-0.036-3e-4 -0.071-7e-4 -0.107-0.0012-0.047-6e-4 -0.093-0.0011-0.14-0.0013-0.164-3e-4 -0.243-0.079-0.249-0.246-0.015-0.3836 8e-3 -0.7614 0.15-1.1234 0.169-0.4309 0.477-0.686 0.938-0.7717 0.568-0.1052 1.115-6e-3 1.662 0.1244 0.066 0.0158 0.132 0.0353 0.198 0.0548 0.074 0.0219 0.148 0.0438 0.223 0.0605 0.277 0.0615 0.378-0.0135 0.401-0.2871 4e-3 -0.0439 4e-3 -0.0882 4e-3 -0.1326l-1e-3 -0.0351 1e-3 -0.4309c0-0.5617 0-1.1236-1e-3 -1.6853-1e-3 -0.4094-0.024-0.4474-0.426-0.5577-1.129-0.3089-2.276-0.38954-3.431-0.1983-0.812 0.1345-1.545 0.4581-2.124 1.0706-0.583 0.6164-0.884 1.368-1.033 2.1861-0.094 0.5176-0.127 1.0433-0.132 1.57-3e-3 0.3752-0.021 0.3909-0.407 0.3943-0.109 9e-4 -0.218 4e-4 -0.327-2e-4 -0.193-9e-4 -0.387-0.0017-0.581 0.0049-0.273 0.0094-0.369 0.0965-0.372 0.3677-8e-3 0.8061-8e-3 1.6124 0 2.4184 2e-3 0.2881 0.097 0.3715 0.394 0.3819 0.172 0.0059 0.345 0.0048 0.518 0.0038 0.074-5e-4 0.148-9e-4 0.222-8e-4h1e-3c0.552 7e-4 0.553 7e-4 0.553 0.5516v9.5731 0.0819c-1e-3 0.1073-2e-3 0.215 0.01 0.3208 0.026 0.2269 0.114 0.3109 0.345 0.3381 0.082 0.01 0.165 0.0095 0.248 9e-3l0.054-3e-4c0.763 7e-4 1.525 0.0011 2.287 4e-4 0.641-7e-4 0.684-0.0444 0.684-0.6884 1e-3 -1.8511 1e-3 -3.7023 1e-3 -5.5534l-1e-3 -3.2161c0-0.3238 0-0.6475 1e-3 -0.9713 1e-3 -0.436 8e-3 -0.4424 0.459-0.4434l0.136-2e-4c0.548-1e-3 1.097-0.0019 1.646 6e-4 0.068 3e-4 0.128-1e-4 0.18-5e-4 0.215-0.0013 0.317-2e-3 0.386 0.0462 0.064 0.0444 0.098 0.1306 0.164 0.2964 0.021 0.0528 0.045 0.1137 0.074 0.1839 0.507 1.212 1.012 2.425 1.516 3.638l1e-3 0.0027c0.824 1.9806 1.648 3.9611 2.483 5.9371 0.171 0.4057 0.137 0.7264-0.109 1.0581-0.02 0.0267-0.038 0.0543-0.057 0.0819-0.025 0.0375-0.05 0.075-0.079 0.11-0.275 0.3409-0.621 0.5197-1.071 0.5392-0.614 0.0262-1.173-0.1345-1.716-0.3973-0.28-0.1355-0.374-0.1029-0.508 0.1707-0.151 0.3108-0.293 0.6257-0.436 0.9407l-0.084 0.1877-0.073 0.1602c-0.124 0.2727-0.249 0.5454-0.363 0.8223-0.095 0.2296-0.057 0.3116 0.157 0.4396 0.032 0.0193 0.066 0.036 0.1 0.0528l0.023 0.0116 0.026 0.0133c1.231 0.639 2.536 0.8608 3.91 0.679 0.938-0.1241 1.729-0.5348 2.358-1.2397 0.374-0.4198 0.668-0.8957 0.924-1.3972 0.315-0.6157 0.562-1.2586 0.81-1.9019l0.077-0.2016c0.937-2.4251 1.874-4.8499 2.811-7.2747l0.032-0.0814c0.558-1.4435 1.116-2.8869 1.674-4.3305l0.045-0.1182 1e-3 -0.0015 1e-3 -0.0013v-0.0012c0.146-0.3771 0.292-0.7541 0.43-1.1339 0.104-0.2881 0.014-0.4202-0.291-0.4531-0.044-0.0047-0.089-0.0047-0.134-0.0047l-0.689-6e-4c-0.69-7e-4 -1.379-0.0014-2.069 0.0019-0.354 0.0017-0.413 0.0494-0.534 0.3902-0.262 0.7385-0.523 1.4776-0.781 2.2175-0.351 1.0059-0.702 2.012-1.052 3.0182l-6e-3 0.0173c-0.403 1.1555-0.806 2.3111-1.209 3.4664-3e-3 0.0097-7e-3 0.0195-0.01 0.0293-3e-3 0.0114-6e-3 0.0229-0.01 0.0344z"/>
  <path d="m65.137 27.875c-0.0547 0.093-0.05 0.1964-0.0453 0.2985 0.0013 0.0292 0.0027 0.0583 0.0026 0.087-0.0013 0.999-0.0014 1.9982-0.0014 2.9973v0.0557c0 0.5387-1e-4 1.0775-3e-4 1.6161-3e-4 0.5143-0.0623 0.5785-0.5795 0.5805-0.6793 0.0028-1.3586 0.0019-2.0379 9e-4l-0.3839-6e-4c-0.0896 0-0.1797-3e-3 -0.2682-0.0134-0.1797-0.0212-0.2847-0.1254-0.3032-0.3049-0.0115-0.1109-0.0118-0.2235-0.0118-0.3354-7e-4 -5.621-7e-4 -11.242-4e-4 -16.863 0-0.5889 0.0371-0.6248 0.6313-0.6252 0.7842-6e-4 1.5686-3e-4 2.3527 0h0.0019c0.0219 0 0.0439-2e-4 0.0658-4e-4 0.0679-6e-4 0.1357-0.0012 0.2031 0.0041 0.2436 0.0192 0.316 0.0864 0.3257 0.3335 0.0074 0.1846 0.0064 0.3696 0.0054 0.5546-5e-4 0.0838-1e-3 0.1677-7e-4 0.2514 1e-4 0.0248 0 0.0497-2e-4 0.0746-4e-4 0.0646-9e-4 0.1297 0.0033 0.194 8e-4 0.0126 9e-4 0.0259 9e-4 0.0394 5e-4 0.0656 9e-4 0.1356 0.0839 0.1565 0.063 0.0159 0.1047-0.0316 0.1431-0.0753 0.0071-0.0081 0.0141-0.0161 0.0211-0.0235 0.395-0.4175 0.8301-0.7859 1.3302-1.0719 0.7726-0.4417 1.6035-0.6786 2.4962-0.7102 1.4279-0.0508 2.7261 0.3331 3.8999 1.1391 1.1068 0.76 1.8875 1.7861 2.3482 3.0342 0.7749 2.0987 0.7901 4.2234-0.0387 6.3019-0.8985 2.2531-2.5784 3.6315-4.9888 4.0241-1.8932 0.3082-3.5778-0.1755-4.9743-1.5347-0.0114-0.0112-0.0224-0.0231-0.0333-0.0354l-0.0141-0.0162c-0.0568-0.0652-0.1164-0.1336-0.2333-0.1333zm3.5566-1.404c1.4325 0.0545 2.718-0.803 3.2695-2.1962 0.4496-1.1358 0.4796-2.2897 0.1138-3.45-0.2161-0.6857-0.5855-1.2846-1.1465-1.7431-0.8473-0.6928-1.8199-0.9351-2.8957-0.7274-0.8335 0.161-1.5358 0.561-2.0517 1.2406-1.0933 1.441-1.2437 3.0248-0.5509 4.6564 0.5977 1.4076 1.7008 2.1774 3.2615 2.2197z" clip-rule="evenodd" fill-rule="evenodd"/>
  <path d="m46.328 26.917c2.1244 1.7784 4.5624 2.7111 7.7896 2.7289 0.5966 0.0209 1.6125-0.123 2.5945-0.4776 1.1011-0.3983 2.0386-1.0238 2.716-1.9982 0.784-1.1277 1.0378-2.3912 0.9237-3.7364-0.0791-0.9357-0.3883-1.7925-1.0156-2.5118-0.5546-0.636-1.2474-1.086-2.0049-1.4407-0.9069-0.4245-1.8562-0.727-2.8294-0.9582-0.8076-0.1916-1.6075-0.4094-2.3889-0.6914-0.349-0.1261-0.6754-0.2962-0.9951-0.4851-0.9365-0.5529-0.9025-2.013-0.2439-2.61 0.4536-0.411 0.9876-0.6258 1.5755-0.6843 0.9712-0.0965 1.9208 0.0218 2.8422 0.3687 0.8261 0.3109 1.5748 0.7533 2.2916 1.2581 0.321 0.2262 0.4042 0.2185 0.6286-0.0938 0.4903-0.6819 0.9762-1.367 1.4585-2.0547 0.2177-0.3106 0.2032-0.4164-0.0909-0.6426-1.0496-0.8081-2.2015-1.4175-3.4819-1.7761-1.0997-0.3082-2.2196-0.4222-3.3597-0.3866-1.1394 0.0357-2.2237 0.282-3.2251 0.8309-1.2852 0.7042-2.1752 1.7395-2.5794 3.166-0.1857 0.6551-0.2083 1.322-0.1709 1.9962 0.0811 1.4581 0.7013 2.6191 1.9039 3.4577 0.9137 0.637 1.9478 1.0084 3.0071 1.3106 0.4775 0.1363 0.9587 0.2599 1.4398 0.3835 0.3874 0.0995 0.7747 0.199 1.1601 0.3052 0.5842 0.161 1.1566 0.3623 1.6691 0.6968 0.4327 0.2823 0.7326 0.6578 0.774 1.1945 0.0568 0.7365-0.1713 1.3439-0.8073 1.7667-0.2359 0.157-0.4907 0.2662-0.7609 0.3482-0.5389 0.1638-1.0914 0.1563-1.644 0.1488l-0.0907-0.0012c-1.1354-0.0145-2.185-0.3385-3.174-0.8803-0.6518-0.3573-1.2403-0.803-1.8128-1.2729-0.2241-0.1839-0.3166-0.1798-0.5145 0.0289-0.1588 0.1673-0.3073 0.345-0.4554 0.5222l-0.051 0.061-0.1942 0.2312c-0.3456 0.4116-0.6914 0.8234-1.0301 1.2406-0.2066 0.2542-0.1914 0.3375 0.0468 0.5667 0.0323 0.0313 0.0653 0.0616 0.0996 0.0905z"/>
  <path d="m84.332 15.106c1.7158-0.0094 3.2745 0.484 4.6314 1.5348 1.4685 1.1371 2.3784 2.6345 2.6887 4.468 0.3624 2.1425-0.105 4.1038-1.4601 5.8076-1.2475 1.5687-2.9038 2.459-4.8963 2.7172-1.5789 0.2043-3.0925-0.0266-4.5005-0.7674-2.1425-1.127-3.4428-2.8967-3.819-5.2919-0.3288-2.092 0.1487-4.0096 1.4665-5.6798 1.2118-1.5354 2.8166-2.4265 4.7505-2.7253l0.0366-0.0056c0.1538-0.0238 0.3085-0.0478 0.4635-0.0552 0.1478-0.0073 0.2961-0.0056 0.4444-0.0039 0.0648 8e-4 0.1295 0.0015 0.1943 0.0015zm3.8227 7.3285c0.033-0.9616-0.2904-1.8917-0.7588-2.5273-0.8187-1.1112-1.9208-1.6356-3.3052-1.5791-1.2845 0.0524-2.287 0.6124-2.961 1.693-0.7363 1.1805-0.8261 2.4645-0.4341 3.7814 0.2507 0.8417 0.7551 1.5206 1.4729 2.0279 0.8359 0.5909 1.7694 0.7761 2.7779 0.6278 1.0183-0.1495 1.8296-0.6426 2.4333-1.4678 0.5482-0.7482 0.7871-1.5979 0.775-2.5559z" clip-rule="evenodd" fill-rule="evenodd"/>
  <path d="m93.664 19.066c0-0.0234 2e-4 -0.0469 5e-4 -0.0703 7e-4 -0.0662 0.0014-0.1325-0.0036-0.1983-0.0161-0.2114-0.0474-0.2487-0.2682-0.2547-0.1818-0.0048-0.3637-0.0043-0.5456-0.0038-0.1543 4e-4 -0.3089 8e-4 -0.4632-2e-3 -0.3449-6e-3 -0.4082-0.0682-0.4102-0.4201-0.0044-0.7724-0.0044-1.5448-4e-4 -2.3172 2e-3 -0.3667 0.0643-0.4252 0.4348-0.4306 0.1489-0.0022 0.2979-0.0017 0.447-0.0013 0.1536 5e-4 0.3074 1e-3 0.4609-0.0014 0.3163-5e-3 0.3443-0.0306 0.3456-0.3492 0.0026-0.6199 0.0022-1.2399 0.0019-1.8599-2e-4 -0.2756-3e-4 -0.5512-2e-4 -0.8268 3e-4 -0.6453 0.0172-0.6625 0.6562-0.6628 0.7847-3e-4 1.5695-3e-4 2.3539 0 0.01 0 0.02 0 0.03-1e-4 0.0109-1e-4 0.0219-2e-4 0.0328-3e-4 0.0689-7e-4 0.138-0.0013 0.2061 0.0051 0.2109 0.0198 0.2779 0.083 0.2998 0.2877 0.0082 0.0766 0.0074 0.1541 0.0066 0.2315-3e-4 0.0235-6e-4 0.0469-6e-4 0.0704 2e-4 0.3023 0 0.6045-1e-4 0.9068-2e-4 0.6044-4e-4 1.2088 0.0011 1.8134 0.0011 0.3613 0.0226 0.3835 0.3786 0.3845 0.6234 2e-3 1.2467 0.0016 1.8701 0.0013l0.7189-3e-4c0.024 0 0.047-1e-4 0.07-3e-4 0.067-5e-4 0.133-1e-3 0.199 0.0027 0.295 0.0171 0.374 0.0958 0.391 0.3875 2e-3 0.0352 2e-3 0.0703 2e-3 0.1056v0.0289 0.6613c1e-3 0.4848 1e-3 0.9696 0 1.4546-2e-3 0.4682-0.061 0.5294-0.52 0.5307-0.5057 0.0016-1.0117 0.0013-1.5177 0.0011-0.3795-1e-4 -0.759-3e-4 -1.1386 3e-4 -0.4519 6e-4 -0.4539 2e-3 -0.4539 0.444-3e-4 0.7301-2e-4 1.4602-2e-4 2.1903v0.0208c0 1.2108 1e-4 2.4216-0.0012 3.6324-3e-4 0.2141 0.0209 0.4248 0.0693 0.6326 0.1141 0.4907 0.456 0.8083 0.9574 0.8537 0.6781 0.0615 1.3444 0.0094 1.9729-0.2874 0.03-0.0144 0.06-0.0292 0.092-0.0416 0.331-0.1325 0.472-0.0515 0.476 0.2988 3e-3 0.3713 3e-3 0.7428 2e-3 1.1143 0 0.3786-1e-3 0.7572 3e-3 1.1357 2e-3 0.2369-0.113 0.3647-0.309 0.4685-0.6543 0.3466-1.3542 0.5361-2.0868 0.5983-0.8672 0.074-1.7239 0.0185-2.5504-0.29-1.021-0.3812-1.6506-1.1247-1.974-2.1422-0.1602-0.5035-0.2359-1.0245-0.2359-1.5542-2e-4 -0.7163-1e-4 -1.4326-1e-4 -2.149z"/>
  <path d="m102.28 22.36-1e-3 -6.2717c0-0.0474 0-0.0948 1e-3 -0.1422 2e-3 -0.5277 0.049-0.5764 0.576-0.5771 0.818-0.0013 1.636-1e-3 2.455 4e-4 0.1 0 0.202 0.0013 0.301 0.0171 0.135 0.0215 0.222 0.1076 0.239 0.2447 0.014 0.1106 0.014 0.2232 0.014 0.3348 1e-3 4.2872 1e-3 8.5741 1e-3 12.861 0 0.5166-0.064 0.5831-0.576 0.5852-0.764 0.0028-1.527 0.0015-2.291 2e-4l-0.164-2e-4c-0.089 0-0.18-0.0041-0.268-0.0178-0.178-0.0283-0.278-0.1345-0.283-0.3187-4e-3 -0.1119-5e-3 -0.2239-5e-3 -0.3358 1e-3 -2.127 1e-3 -4.2536 1e-3 -6.3803z"/>
  <path d="m104.07 9.2188c-1.409 0.00336-2.26 1.1892-2.204 2.2301-0.06 1.2951 1.076 2.2662 2.208 2.2584 1.247-9e-3 2.257-0.9902 2.254-2.2281-2e-3 -1.1956-0.882-2.2638-2.258-2.2604z"/>
 </g>
</svg>
