<svg fill="none" version="1.1" viewBox="0 0 158 72" xmlns="http://www.w3.org/2000/svg">
 <path d="m69.984 0.4992h0.056c0.424 0.48499 0.904 0.91414 1.3553 1.38l3.0721 3.0631v0.05583c-1.4881 1.4757-2.9681 2.9658-4.4562 4.4431-1.4944-1.4837-2.9825-2.9738-4.4769-4.4558 0.0768-0.14518 0.2224-0.24249 0.3344-0.36055 1.3696-1.3816 2.7601-2.7392 4.1153-4.1256zm8.9667 0h0.056c0.0416 0.062219 0.0832 0.11806 0.1392 0.1739 1.4385 1.4215 2.8577 2.8621 4.3089 4.2756-0.0352 0.08296-0.112 0.13879-0.1744 0.20101-1.4384 1.4278-2.8705 2.8621-4.3089 4.2899-1.5008-1.4757-2.9745-2.9801-4.4833-4.4495 1.4592-1.5172 2.9953-2.9801 4.4625-4.491zm8.9667 0h0.056c0.2784 0.33343 0.6048 0.61741 0.904 0.9285 1.1265 1.1231 2.2449 2.2383 3.3713 3.3614 0.056 0.06222 0.1456 0.11806 0.1664 0.2074-1.5088 1.463-2.9681 2.9801-4.4833 4.4431l-4.2753-4.2628c-0.0688-0.07657-0.1601-0.13241-0.1953-0.22813 0.7585-0.73387 1.4945-1.4901 2.2449-2.2319 0.7376-0.74184 1.4881-1.4613 2.2113-2.2176zm-13.367 13.342c1.4672-1.4629 2.9409-2.9243 4.4065-4.3936l0.0624 0.02712c1.4736 1.4757 2.9473 2.953 4.4353 4.4144-0.048 0.1117-0.152 0.1739-0.2288 0.2632-1.0704 1.0609-2.1408 2.1346-3.2113 3.1955-0.3472 0.3335-0.6816 0.7068-1.0352 1.0195-0.5072-0.4579-0.9728-0.97-1.4672-1.4422-1.0001-0.9987-1.9953-1.9958-3.0033-2.9866 0.0144-0.0287 0.0272-0.0702 0.0416-0.0973zm-46.051 19.226h13.373c0.0064 1.0673 0.0064 2.1346 0 3.1956h-4.8161v12.614c-0.0064 0.2074 0.0144 0.4164-0.0272 0.6238h-3.7201c0.0144-4.4144 0.0064-8.8224 0.0064-13.238h-4.8162zm24.53 0c1.2512 0 2.5025 0 3.7537 0.0064-0.0064 5.4753 0.0144 10.951-0.0144 16.426h-3.7329c-0.0208-1.455-0.0064-2.9116-0.0144-4.3665 8e-3 -4.0188 0.0016-8.0391 8e-3 -12.066zm66.181 0c1.2512 0 2.5025 0 3.7537 0.0064v13.127c2.1761 0.0143 4.3585 0.0063 6.5346 0.0063v3.2929h-10.28c-0.0224-5.4753-2e-3 -10.951-8e-3 -16.432zm-35.284 5.5104c-0.3761-1.289-1.1057-2.46-2.1201-3.3407-1.3409-1.1853-3.0929-1.8298-4.8514-2.058-0.9936-0.1452-2.0016-0.1037-3.0033-0.1117h-4.4417c-0.0832 0-0.1744 0.0064-0.2576 0.0208 0.0208 5.4274 0 10.853 0.0144 16.281-0.0064 0.0351-0.0144 0.0973-0.0208 0.1324h6.4226c0.5776-0.1037 1.168-0.0973 1.7377-0.2218 1.9456-0.3541 3.8161-1.3162 5.0881-2.8493 0.9376-1.1088 1.5153-2.5015 1.7025-3.9374 0.168-1.3097 0.0992-2.6546-0.2704-3.915zm-4.2322 5.4546c-0.4656 0.7418-1.1536 1.3305-1.9536 1.6911-0.7233 0.3334-1.5217 0.4849-2.3153 0.5057-0.8336 0.0064-1.6689 0-2.5025 0.0064-0.0416-0.9222-0.0064-1.8443-0.0208-2.7648 0-2.4042 0-4.8036 0.0064-7.2078h2.5793c1.2928 0.0271 2.6065 0.4706 3.5457 1.3863 0.8416 0.8105 1.3136 1.9543 1.3904 3.1126 0.0768 1.1279-0.1328 2.2989-0.7296 3.2705zm27.95 1.6001c-1.5712-3.8049-3.1345-7.6162-4.7201-11.415-0.1456-0.3813-0.2993-0.769-0.4721-1.1359-1.2928-0.0207-2.5856-0.0207-3.8785 0-2.2096 5.3014-4.4209 10.604-6.6306 15.899-0.0688 0.1739-0.1536 0.3398-0.1872 0.5201h3.9969c0.3968-1.0944 0.8209-2.1761 1.2161-3.2721 2.2656-0.0351 4.5393-0.0064 6.8114-0.0144 0.1184-0.0351 0.1536 0.091 0.1808 0.1739 0.3824 1.0402 0.7712 2.0724 1.1472 3.1126h4.1218c-0.5009-1.305-1.0577-2.5797-1.5857-3.8688zm-9.6195-2.3212c-0.0208-0.1452 0.0688-0.2697 0.112-0.4021 0.7584-1.975 1.5361-3.9501 2.2865-5.9251 0.0144-0.0064 0.0416-0.0144 0.056-0.0144 0.7856 2.0788 1.5856 4.1511 2.3777 6.2299 0 0.0271 6e-3 0.083 6e-3 0.1117-1.6145-0.0144-3.2257-0.0144-4.8386 0z" fill="#fff"/>
</svg>
