<svg fill="none" version="1.1" viewBox="0 0 158 50" xmlns="http://www.w3.org/2000/svg">
 <path d="m49.561 15.935v5.9332c-2.9895 0-5.6908-0.9189-8.212-2.6897v0.5416c0 3.8641 0.054 7.7344-0.012 11.598-0.078 4.6674-2.2091 8.1117-6.3691 10.144-4.0519 1.9778-8.9443 1.0528-12.168-2.142-2.2751-2.2515-3.3796-4.996-3.2956-8.1847 0.14407-5.4219 4.07-9.8581 9.3645-10.667 0.35417-0.0548 0.72031-0.0974 1.0805-0.0913 0.6303 0.0061 1.2606 0.0608 1.9149 0.0913v6.1035c-1.1225-0.3408-2.227-0.2799-3.3076 0.1582-2.8634 1.1562-4.052 4.7648-2.3652 7.3693 1.2906 1.9838 3.4817 2.7931 5.6067 2.1785 2.149-0.6268 3.5957-2.5619 3.5957-4.85 6e-3 -7.783 6e-3 -15.566 6e-3 -23.349 0-0.5781 0-0.58419 0.5643-0.5781 1.6808 0.012171 3.3616 0.030426 5.0425 0.054768 0.102 0 0.2041 0.018256 0.3241 0.030426 0.078 4.6309 3.7338 8.136 8.23 8.349zm42.507 5.282c-0.0961-0.0243-0.1321-0.0426-0.1681-0.0426-1.6808 0-3.3617-6e-3 -5.0425 0.0061-0.144 0-0.3061 0.1096-0.4202 0.2191-1.3326 1.2962-2.6593 2.6045-3.9859 3.9128-0.096 0.0913-0.1981 0.1826-0.3902 0.353v-9.0245h-4.4782v19.436h4.5322c0-1.6004 0-3.1704 6e-3 -4.7404 0-0.1461 0.012-0.3408 0.1021-0.4321 0.3962-0.426 0.8224-0.8215 1.2486-1.2414 0.096 0.1339 0.1681 0.2373 0.2401 0.3469 1.2726 1.9107 2.5452 3.8215 3.7999 5.7384 0.168 0.2556 0.3361 0.3651 0.6483 0.359 1.3986-0.0182 2.7913-0.0061 4.19-0.0061h0.4382c-2.1671-3.14-4.2861-6.2191-6.4171-9.2983 1.9089-1.8621 3.7878-3.7059 5.6968-5.5863zm40.015 5.5924c1.897-1.8682 3.776-3.712 5.685-5.5924-0.096-0.0243-0.132-0.0426-0.168-0.0426-1.681 0-3.362-6e-3 -5.043 0.0061-0.144 0-0.306 0.1096-0.42 0.2191-1.345 1.3083-2.677 2.6228-4.016 3.9372-0.09 0.0852-0.186 0.1704-0.354 0.3225v-8.9819h-4.484v19.406h4.544v-0.4443c0-1.4422-6e-3 -2.8844 6e-3 -4.3266 0-0.146 0.024-0.3225 0.108-0.432 0.36-0.4443 0.744-0.8702 1.152-1.3388 0.175 0.2495 0.247 0.3529 0.319 0.4564 1.284 1.9351 2.575 3.8641 3.847 5.8053 0.145 0.2191 0.301 0.3043 0.565 0.2982 1.422-0.0121 2.845-0.0061 4.268-0.0061h0.408c-2.167-3.1278-4.286-6.2009-6.417-9.2861zm-25.02-6.28c0.1801-0.6268 0.3962-1.2475 0.5883-1.8682 0.2041-0.645 0.4022-1.29 0.6063-1.9472h-14.557v4.1076h4.6343v15.274h4.6102v-15.274h0.4502c1.0865 0 2.1731-0.0061 3.2596 0.0061 0.2281 0.0061 0.3362-0.0609 0.4082-0.2982zm-51.013 0.2982h4.6343v15.268h4.6102v-15.268h0.4502c0.9545 0 1.9149-0.0122 2.8694 0.0061 0.2761 0.0061 0.4082-0.073 0.4922-0.353 0.3482-1.1623 0.7264-2.3185 1.0926-3.4747 0.03-0.09128 0.042-0.18864 0.06-0.28601h-14.203c-6e-3 1.3753-6e-3 2.7201-6e-3 4.1076zm15.151 15.256h4.5261v-13.187h-4.5261v13.187zm2.2751-19.394c-1.2847-0.0061-2.3172 1.0345-2.3112 2.3367 0 1.2901 1.0145 2.3125 2.2871 2.3125 1.2667 0 2.2992-1.0345 2.2992-2.3125 0.012-1.2718-1.0205-2.3306-2.2751-2.3367zm47.837 11.489c0 4.3631-3.488 7.8987-7.7921 7.8987s-7.7918-3.5356-7.7918-7.8987 3.4877-7.8987 7.7918-7.8987c4.2981 0 7.7921 3.5356 7.7921 7.8987zm-3.9982 0c0-2.1238-1.6989-3.8459-3.7939-3.8459s-3.7938 1.7221-3.7938 3.8459 1.6988 3.8459 3.7938 3.8459 3.7939-1.7221 3.7939-3.8459z" fill="#fff"/>
</svg>
