<svg width="35" height="31" viewBox="0 0 35 31" fill="none" xmlns="http://www.w3.org/2000/svg">
<path d="M35 9.81994C35 12.6936 33.9101 15.4638 31.5644 18.5132L30.7444 17.8826C32.9448 15.0193 33.962 12.4455 33.962 9.8096C33.962 4.8893 30.0904 1.02334 25.1394 1.02334C22.4303 1.02334 19.659 2.31544 17.8944 4.39313L17.5 4.85829L17.1056 4.39313C15.341 2.32578 12.5593 1.03368 9.86062 1.03368C4.90955 1.03368 1.03796 4.8893 1.03796 9.81994C1.03796 13.3965 2.90629 16.8386 7.28648 21.3248L6.53915 22.0483C1.95136 17.3451 0 13.6962 0 9.81994C0 4.31044 4.32829 0 9.86062 0C12.715 0 15.5279 1.21974 17.5 3.29743C19.4721 1.23008 22.285 0 25.1394 0C30.6613 0 35 4.31044 35 9.81994ZM19.2541 29.2531C18.3096 30.1937 16.7838 30.1937 15.8393 29.2531L10.5664 24.002C9.62189 23.0614 9.62189 21.5418 10.5664 20.6012L13.8256 17.3555C14.5211 16.6629 15.4552 16.2804 16.4413 16.2804H17.5311L14.5833 19.2161L15.3203 19.95L24.1118 11.1947L23.3748 10.4608L18.5691 15.2467H16.4413C15.175 15.2467 13.9917 15.7326 13.0887 16.6319L9.82948 19.8776C8.48013 21.2214 8.48013 23.4025 9.82948 24.7463L15.1023 29.9973C15.777 30.6692 16.6593 31 17.5415 31C18.4238 31 19.306 30.6692 19.9807 29.9973L29.8102 20.2084L29.0732 19.4745L19.2541 29.2531ZM18.4134 20.4048L19.1504 21.1387L27.9419 12.3835L27.2049 11.6496L18.4134 20.4048ZM29.177 15.9186L28.4401 15.1847L20.8111 22.7823L21.548 23.5162L29.177 15.9186Z" fill="white"/>
</svg>
