<svg fill="none" version="1.1" viewBox="0 0 158 50" xmlns="http://www.w3.org/2000/svg">
 <path d="m129.53 45h-26.344c-1.3862-1.348-2.7724-2.7016-4.2207-4.1117v4.1117h-13.688c-1.3862-1.3424-2.7781-2.6847-4.1812-4.044 0 0.1918 0.0056 0.3892 0 0.5866-0.0226 1.1506 0.0507 2.3068-0.0395 3.4574h-28.407c-1.3862-1.348-2.7724-2.6904-4.2207-4.0948v4.0948h-14.719c-0.0507-0.0564-0.1015-0.1184-0.1522-0.1748-4.7616-4.7716-9.5346-9.5432-14.308-14.315-0.078892-0.0789-0.16342-0.141-0.24795-0.2143v-25.285c3.7023 0 7.4046 0.00564 11.107-0.01128 0.355 0 0.5579 0.1128 0.7608 0.39481 1.5834 2.2222 3.1951 4.4332 4.7842 6.6497 0.1691 0.23688 0.3437 0.34405 0.648 0.34405 10.56-0.0056 21.12-0.01128 31.681 0.0056 0.4339 0 0.5128-0.14665 0.5072-0.53582-0.0169-2.1376 0-4.2752-0.0169-6.4129 0-0.34969 0.1014-0.43993 0.4451-0.43993 7.4215 0.01128 14.837 0.01128 22.259 0 0.3775 0 0.4677 0.1128 0.4677 0.47377-0.0169 2.1207 0 4.247-0.0169 6.3677-0.0056 0.41173 0.0845 0.55838 0.5353 0.55274 2.0174-0.0282 4.0291-0.01692 6.0465-0.01128 0.896 0.0056 0.772-0.12409 0.7777 0.75578 0.0056 0.75578 0 1.5116 0 2.2899 0.231-0.0677 0.3155-0.2087 0.4226-0.3159 0.8002-0.78958 1.6004-1.5792 2.378-2.3914 0.248-0.25945 0.5072-0.34969 0.8622-0.34969 2.8288 0.01128 5.652 0 8.4809 0.01692 0.3324 0 0.5353-0.10153 0.7325-0.37225 1.5666-2.1996 3.1613-4.3767 4.7223-6.582 0.2366-0.33841 0.4846-0.43993 0.8847-0.43993 3.4998 0.016921 6.9988 0.016921 10.498 0 0.412 0 0.524 0.095883 0.519 0.51325-0.023 2.1038 5e-3 4.2132-0.023 6.3226-5e-3 0.46249 0.141 0.56966 0.581 0.55838 1.42-0.0282 2.84-0.0056 4.266-0.01692 0.304 0 0.524 0.07896 0.738 0.29892 1.527 1.5454 3.06 3.0796 4.604 4.6024 0.259 0.2538 0.349 0.5076 0.343 0.8573-0.011 5.5725-0.011 11.145 6e-3 16.712 0 0.4738-0.124 0.8066-0.462 1.145-3.015 2.9949-6.007 6.0067-9.011 9.0073zm-73.769-11.585c4.0799 0 8.1541 0 12.234 0.0057 0.3325 0 0.5015-0.0395 0.5015-0.4456-0.0113-6.0237-0.0113-12.047-0.0056-18.077 0-0.31585-0.0789-0.43429-0.417-0.42865-2.5302 0.01128-5.0604 0.01692-7.5905 0-0.372 0-0.4339 0.12972-0.4283 0.46249 0.0169 1.6413 0.0056 3.277 0.0056 4.9182 0 1.5736-0.0112 3.1529 0.0057 4.7265 0.0056 0.3553-0.1015 0.4681-0.4508 0.4456-0.3889-0.0282-0.7833-0.0339-1.1722 0-0.4339 0.0394-0.5184-0.1354-0.5128-0.5359 0.0226-1.5905 0.0057-3.1866 0.0057-4.7772 0-1.5905-0.0113-3.1867 0.0056-4.7772 0.0057-0.37225-0.1183-0.46813-0.479-0.46813-2.502 0.01692-4.9983 0.01692-7.5003 0-0.3607 0-0.4846 0.1128-0.4396 0.45685 0.0169 0.10716 0 0.21996 0 0.32716 0 3.0908-0.0056 6.1816 0.0057 9.2724 0 0.3892-0.1071 0.5302-0.5016 0.502-0.3719-0.0282-0.7494-0.0339-1.1213 0-0.4283 0.0394-0.5128-0.1298-0.5128-0.5302 0.0169-3.1867 0.0056-6.3678 0.0169-9.5544 0-0.36097-0.0902-0.47377-0.4677-0.47377-2.502 0.01692-4.9984 0.01692-7.5004 0-0.3663 0-0.4733 0.10152-0.4733 0.46813 0.0112 4.6193 0.0112 9.2386 0 13.858 0 0.2876 0.0788 0.4963 0.2873 0.6994 1.2003 1.1844 2.395 2.3745 3.5727 3.5815 0.2536 0.2594 0.5128 0.3497 0.8622 0.344h12.07zm62.178-13.181c0 4.2301 6e-3 8.4602-6e-3 12.69 0 0.3836 0.1014 0.5076 0.4959 0.502 2.4678-0.0169 4.9368-0.0226 7.4048 0 0.445 0.0056 0.535-0.141 0.535-0.5527-0.017-3.1698-6e-3 -6.3396-0.017-9.5037 0-0.3497 0.068-0.5133 0.462-0.4794 0.389 0.0338 0.784 0.0395 1.172 0 0.44-0.0451 0.507 0.1353 0.507 0.5302-0.016 3.1697 0 6.3395-0.016 9.5036 0 0.3779 0.09 0.5076 0.49 0.502 2.485-0.0169 4.97-0.0169 7.449 0 0.401 0 0.491-0.1297 0.491-0.5076-0.012-4.6024-0.012-9.2104 0-13.813 0-0.2876-0.079-0.4963-0.282-0.6993-1.223-1.207-2.44-2.4197-3.646-3.6436-0.22-0.21996-0.445-0.29328-0.744-0.29328-1.814 0.01128-3.623-0.0056-5.438 0.01128-0.355 0.0056-0.445-0.10153-0.445-0.45122 0.017-2.1376-5e-3 -4.2752 0.017-6.4129 6e-3 -0.41737-0.113-0.52453-0.524-0.52453-2.423 0.01692-4.841 0.01128-7.2637 0.01128-0.6424 0-0.6424 0-0.6424 0.62042v12.51zm-96.834-2.0474c0 3.5251 0 7.0502-0.0056 10.581 0 0.2764 0.05071 0.502 0.26485 0.7107 1.2341 1.2183 2.4569 2.4422 3.6741 3.6774 0.19159 0.1917 0.38882 0.2707 0.65931 0.2707 3.5783-0.0056 7.151-0.0113 10.729 0.0056 0.4057 0 0.4846-0.1353 0.4846-0.5076-0.0169-2.4478-0.0225-4.9013 0.0057-7.3491 0.0056-0.4569-0.124-0.5697-0.5748-0.564-2.1245 0.0225-4.2489 0.0056-6.3733 0.0169-0.3438 0-0.479-0.0902-0.4565-0.4456 0.0282-0.4061 0.0338-0.8122 0-1.2182-0.0282-0.3779 0.1071-0.4682 0.4734-0.4682 2.1413 0.0169 4.277 0 6.4184 0.0169 0.3663 0 0.5128-0.062 0.5071-0.4737-0.0225-2.4986-0.0169-4.9916 0-7.4902 0-0.36097-0.0845-0.47942-0.4621-0.47378-2.1526 0.01693-4.3108 1e-5 -6.4634 0.01693-0.372 0.0056-0.4734-0.10717-0.4678-0.47378 0.017-2.1376 0-4.2752 0.017-6.4129 0.0056-0.38917-0.1071-0.50197-0.4959-0.49633-2.4682 0.01692-4.9364 0.02256-7.4046 0-0.45081-0.00564-0.53533 0.15228-0.53533 0.55837 0.01127 3.5025 0.0056 7.0107 0.0056 10.519zm59.997 0.0338c0 3.5082 0.0056 7.022-0.0056 10.53 0 0.3215 0.0901 0.5527 0.3212 0.7783 1.2002 1.1845 2.3892 2.3746 3.5726 3.5759 0.2085 0.2143 0.4227 0.3215 0.7326 0.3159 3.5614-0.0113 7.1228-0.0113 10.684 0 0.3775 0 0.5071-0.0903 0.5015-0.4907-0.0169-2.4366-0.0113-4.8675-0.0113-7.304 0-0.6205 0-0.6205-0.6367-0.6205-2.0907 0-4.1869-0.0112-6.2776 0.0057-0.3719 0.0056-0.4958-0.1072-0.4733-0.4794 0.0282-0.4061 0.0282-0.8122 0-1.2183-0.0282-0.3666 0.1127-0.4399 0.4564-0.4343 2.1527 0.0169 4.3109 0 6.4635 0.0169 0.3494 0 0.479-0.0677 0.479-0.4568-0.0169-2.4986-0.0169-4.9916 0-7.4902 0-0.38917-0.1071-0.49634-0.4959-0.49069-2.1244 0.01692-4.2489-0.0057-6.3733 0.02256-0.4452 0.0056-0.5353-0.14101-0.5353-0.55274 0.0169-2.1038-0.0057-4.2132 0.0169-6.317 0.0056-0.42301-0.124-0.51889-0.5297-0.51889-2.4513 0.01692-4.9026 0.01692-7.3539 0-0.4226-0.00564-0.5579 0.10152-0.5579 0.54145 0.0282 3.5307 0.0226 7.0558 0.0226 10.587zm28.362 15.195c1.9666 0 3.9389-0.0056 5.9056 0.0057 0.3494 0 0.4846-0.0677 0.4846-0.4569-0.0169-2.4986-0.0169-4.9915 0-7.4901 0-0.3723-0.1127-0.5076-0.4733-0.4625-0.1691 0.0225-0.3438 0.0056-0.5128 0.0056-2.3274 0-4.6547-0.0056-6.982 0.0057-0.3663 0-0.5015-0.1016-0.4733-0.4738 0.0338-0.3892 0.0338-0.784 0-1.1675-0.0338-0.3948 0.1071-0.4907 0.4959-0.4907 2.4851 0.0169 4.9702 0 7.4496 0.0169 0.3776 0 0.5015-0.0733 0.5015-0.4794-0.0225-2.4986-0.0169-4.9916 0-7.4901 0-0.36661-0.0958-0.46813-0.4677-0.46813-3.922 0.01128-7.8441 0.01128-11.76 0-0.293 0-0.4902 0.0846-0.6931 0.28764-1.2059 1.2239-2.4231 2.4365-3.6403 3.6435-0.2029 0.2031-0.2987 0.4005-0.2987 0.6938 0.0113 3.2318 0.0113 6.4636 0 9.6897 0 0.3103 0.1015 0.5246 0.3156 0.7333 1.2116 1.1957 2.4118 2.397 3.6065 3.6097 0.2029 0.2087 0.4114 0.2876 0.6988 0.2876h5.8436zm-30.464-9.4529c0-2.9949-0.0056-5.9898 0.0056-8.9904 0-0.37225-0.0732-0.50761-0.479-0.50761-2.4963 0.01692-4.9983 0.01692-7.4947 0-0.3719 0-0.4677 0.10716-0.4677 0.47377 0.0113 5.9898 0.0113 11.985 0 17.975 0 0.3723 0.0789 0.5133 0.4846 0.5133 2.4964-0.0169 4.9984-0.0169 7.4947 0 0.3776 0 0.4621-0.1184 0.4621-0.4794-0.0112-2.9949-0.0056-5.9899-0.0056-8.9848zm-4.2264-16.853c-1.251 0-2.502 0.01128-3.7473-0.00564-0.3325-0.00564-0.4677 0.06768-0.4621 0.43993 0.0225 1.4664 0.0169 2.9329 0 4.3993-0.0056 0.34405 0.0902 0.45686 0.4452 0.45122 2.5132-0.01692 5.0321-0.01692 7.5454 0 0.3945 0.0056 0.4565-0.14101 0.4508-0.48506-0.0169-1.4382-0.0169-2.8708 0-4.3091 0.0057-0.37789-0.0845-0.51325-0.4846-0.50197-1.2454 0.0282-2.4964 0.01128-3.7474 0.01128z" fill="#fff"/>
</svg>
