<svg viewBox="0 0 158 50" fill="none" xmlns="http://www.w3.org/2000/svg">
<path fill-rule="evenodd" clip-rule="evenodd" d="M10.7585 22.5739L10.7552 22.5737C9.44308 22.5015 8.13094 22.4293 6.81963 22.3453C6.02652 22.2946 5.22894 22.2416 4.44668 22.1111C2.12726 21.7244 0.949037 20.6761 0.577459 18.39C-0.191567 13.6586 -0.191716 8.90268 0.572404 4.17168C0.967177 1.72688 2.38539 0.480829 4.96056 0.378549C10.1647 0.171912 15.3739 0.0221967 20.5817 0.00040649C23.2431 -0.0108592 25.9159 0.213417 28.5647 0.502175C30.6372 0.728082 31.8759 2.02364 32.1966 4.08526C32.9411 8.87245 32.9436 13.6728 32.195 18.4591C31.8363 20.7521 30.3462 21.9878 27.8065 22.1801C26.375 22.2885 24.9408 22.3616 23.5065 22.4348C22.7623 22.4727 22.0175 22.5107 21.2735 22.5536C21.0654 22.5657 20.8582 22.5946 20.651 22.6236C20.5551 22.637 20.4592 22.6504 20.3632 22.6621L12.3454 22.662C11.8165 22.6321 11.2875 22.603 10.7585 22.5739ZM13.1488 6.38569L13.1487 16.1622L21.6794 11.2719L21.6795 11.2709L13.1488 6.38569Z" fill="white"/>
<path fill-rule="evenodd" clip-rule="evenodd" d="M83.7765 0.834961H86.7573V8.22526C86.8606 8.11117 86.9461 8.01511 87.0207 7.93128C87.1571 7.77813 87.2577 7.66509 87.3632 7.55807C88.2369 6.67134 89.2684 6.30372 90.5124 6.60848C91.6558 6.88865 92.0644 7.7813 92.3322 8.76853C92.4648 9.25726 92.5579 9.76822 92.5805 10.273C92.595 10.597 92.611 10.9213 92.6271 11.2456C92.7481 13.6944 92.8693 16.1477 92.3377 18.5697C91.8782 20.663 90.5293 21.6025 88.6933 21.0815C88.2009 20.9418 87.7538 20.6453 87.2932 20.3399C87.0792 20.1979 86.8622 20.054 86.6364 19.9231L86.3001 20.9665H83.7765V0.834961ZM86.787 14.0409C86.787 14.4025 86.7886 14.7642 86.7901 15.1258C86.7938 16.0091 86.7976 16.8924 86.779 17.7753C86.7667 18.3616 87.0704 18.6695 87.5665 18.8497C88.4604 19.1743 89.2262 18.7261 89.2702 17.5894C89.3409 15.7613 89.3266 13.93 89.3124 12.0987C89.3069 11.3956 89.3015 10.6926 89.3008 9.98983L89.3008 9.98201C89.3012 9.84442 89.3044 8.8169 88.4182 8.81893C88.0456 8.81982 87.5222 9.01223 87.2388 9.29936C86.9702 9.57151 86.8247 10.0588 86.8064 10.4596C86.7674 11.3159 86.7744 12.1742 86.7815 13.0325C86.7843 13.3687 86.787 13.7049 86.787 14.0409Z" fill="white"/>
<path d="M107.073 20.9716H109.797L109.797 5.5167C109.977 5.82532 110.048 6.14135 110.111 6.45916C110.289 7.35915 110.467 8.25918 110.645 9.15921C111.386 12.903 112.126 16.6468 112.884 20.3871C112.93 20.613 113.192 20.9519 113.376 20.967C113.95 21.0143 114.529 21.0072 115.121 21C115.339 20.9973 115.559 20.9946 115.781 20.9946L118.772 5.64551L118.953 5.66404V20.9424H121.699V1.54035C121.361 1.54035 121.027 1.53928 120.696 1.53822C119.632 1.53481 118.596 1.53148 117.561 1.56392C117.388 1.5694 117.113 1.8758 117.075 2.07755C116.388 5.79034 115.72 9.50673 115.053 13.2232L114.721 15.0718C114.655 15.4367 114.592 15.802 114.528 16.1673L114.528 16.1696L114.526 16.1806L114.526 16.1821L114.436 16.697C114.239 16.4274 114.191 16.1797 114.146 15.9315L113.698 13.4628L113.698 13.4599C113.017 9.7031 112.336 5.9462 111.642 2.19169C111.599 1.96133 111.393 1.58067 111.252 1.57607C110.161 1.53999 109.069 1.54316 107.986 1.54629C107.681 1.54718 107.377 1.54806 107.073 1.54806V20.9716Z" fill="white"/>
<path d="M157.803 18.0094C157.836 17.8785 157.868 17.7475 157.903 17.617V15.9352L155.15 15.7619C155.123 16.0142 155.101 16.2567 155.079 16.492L155.078 16.4953C155.03 17.0158 154.984 17.5015 154.907 17.9823C154.807 18.6071 154.511 19.1041 153.758 19.0678C153.051 19.0337 152.839 18.4812 152.831 17.9509C152.795 15.2333 152.795 12.5146 152.832 9.79701C152.84 9.22587 153.097 8.65666 153.828 8.65784C154.56 8.65903 154.748 9.2238 154.826 9.80131C154.896 10.3196 154.941 10.8414 154.988 11.3918C155.009 11.6366 155.03 11.8871 155.054 12.1455L157.703 11.9603C157.703 11.6655 157.711 11.38 157.718 11.1016C157.734 10.4943 157.749 9.92062 157.684 9.35617C157.568 8.3682 157.137 7.50014 156.203 6.98103C153.478 5.46669 150.146 6.88127 149.788 9.92375C149.494 12.4298 149.463 15.0102 149.699 17.5222C149.982 20.5222 151.618 21.5662 154.655 21.1688C154.731 21.1588 154.808 21.1484 154.884 21.1386C156.283 20.9603 157.163 20.1758 157.574 18.8576C157.661 18.5787 157.732 18.2948 157.802 18.0109L157.803 18.0094Z" fill="white"/>
<path d="M81.6577 6.80469H78.5103C78.5103 7.97914 78.5103 9.07176 78.5104 10.1645C78.5104 10.8406 78.5108 11.5167 78.5112 12.1929V12.1981C78.5123 14.0428 78.5134 15.8875 78.5064 17.7321C78.5039 18.4168 77.9351 18.9616 77.2344 19.0052C76.4493 19.0541 76.3097 18.496 76.222 17.9205C76.1786 17.6369 76.1793 17.3455 76.18 17.0562L76.1802 16.9293C76.1779 14.4792 76.1781 12.0292 76.1783 9.57907L76.1784 6.81536H73.0601C73.049 6.85109 73.0369 6.88282 73.0258 6.91192C73.0047 6.96734 72.9869 7.01375 72.9869 7.05965L72.9871 7.29244C72.9902 10.8329 72.9932 14.3732 73.0089 17.9136C73.0107 18.2932 73.0653 18.678 73.142 19.051C73.4407 20.5023 74.3529 21.2682 75.7644 21.2433C76.8537 21.2242 77.7569 20.8066 78.417 19.9239C78.5105 19.799 78.6048 19.6748 78.7182 19.5255L78.7212 19.5216C78.7817 19.4419 78.8481 19.3545 78.9223 19.2566C78.9489 19.4168 78.9694 19.5649 78.9887 19.7036C79.0311 20.0101 79.0673 20.2713 79.1492 20.5173C79.2116 20.705 79.4335 20.9607 79.5999 20.9733C80.0971 21.0109 80.5977 21.005 81.1003 20.9991H81.1015C81.2865 20.9969 81.4722 20.9947 81.6577 20.9947V6.80469Z" fill="white"/>
<path d="M123.944 6.81914H127.075C127.08 6.91808 127.086 7.01545 127.091 7.11176C127.103 7.31753 127.115 7.51867 127.116 7.71966C127.117 8.97291 127.117 10.2262 127.117 11.4794V11.5038C127.117 13.2229 127.117 14.942 127.12 16.6611C127.121 17.0932 127.144 17.5269 127.185 17.9571C127.241 18.5322 127.418 19.023 128.143 19.0014C128.805 18.9817 129.395 18.4523 129.445 17.8306C129.457 17.6858 129.455 17.5398 129.452 17.3939C129.452 17.3357 129.451 17.2776 129.451 17.2195L129.451 6.81055H132.578V20.9529H130.186L129.845 19.3214C129.728 19.4591 129.622 19.5935 129.521 19.7223C129.311 19.9879 129.12 20.2297 128.891 20.4272C127.894 21.2859 126.73 21.4904 125.513 21.0065C124.347 20.5433 124.026 19.4779 124.002 18.3794C123.956 16.2767 123.953 14.1732 123.95 12.0697C123.949 11.2946 123.948 10.5196 123.945 9.74467C123.942 9.0881 123.943 8.43159 123.944 7.76189C123.944 7.45093 123.944 7.13712 123.944 6.81914Z" fill="white"/>
<path d="M62.6612 20.9623H65.0745V6.83006H61.9433L61.9434 9.68873C61.9434 12.2158 61.9434 14.7429 61.943 17.27C61.943 17.3262 61.9441 17.3827 61.9451 17.4392C61.9479 17.5869 61.9507 17.7353 61.9338 17.8808C61.8639 18.485 61.2258 19.013 60.579 19.0061C59.8547 18.9982 59.7051 18.4904 59.6569 17.9217C59.6226 17.5163 59.6122 17.1079 59.6117 16.7007C59.6099 15.162 59.6098 13.6232 59.6096 12.0844C59.6095 10.6172 59.6093 9.15004 59.6077 7.68285C59.6074 7.48228 59.594 7.28172 59.5808 7.08621C59.5749 6.99746 59.569 6.90944 59.5644 6.82324H56.4231C56.4231 7.15303 56.4228 7.47816 56.4225 7.80011V7.80425C56.4219 8.49051 56.4214 9.16236 56.4235 9.83415C56.426 10.6105 56.426 11.3869 56.426 12.1634C56.426 14.2147 56.426 16.266 56.4711 18.3163C56.4958 19.4373 56.8018 20.5369 58.0048 21.0102C59.2256 21.4906 60.3858 21.2754 61.3785 20.4107C61.6037 20.2146 61.7925 19.9772 62.0008 19.7153C62.1021 19.5878 62.2086 19.4539 62.3256 19.3168L62.6612 20.9623Z" fill="white"/>
<path fill-rule="evenodd" clip-rule="evenodd" d="M45.7078 13.6109C45.743 13.2826 45.7713 12.9236 45.8011 12.5443C45.8736 11.6235 45.9556 10.5828 46.1694 9.56952C46.6185 7.44178 48.0123 6.49161 50.3124 6.49709C52.5689 6.50243 53.8997 7.42978 54.3365 9.59442C54.93 12.5345 54.9356 15.5095 54.2778 18.4499C53.9177 20.06 52.8586 21.0236 51.1735 21.1588C50.3902 21.2217 49.5774 21.2168 48.8071 21.081C47.1978 20.7974 46.2364 19.6027 45.9897 17.611C45.8891 16.7978 45.8441 15.978 45.7931 15.05L45.793 15.0468C45.7683 14.5977 45.7422 14.1223 45.7078 13.6109ZM48.9691 13.8533L49.029 13.856C49.029 14.0933 49.0272 14.3306 49.0254 14.568C49.0211 15.1197 49.0169 15.6714 49.0356 16.2222C49.0563 16.8301 49.104 17.441 49.1989 18.0412C49.2879 18.6048 49.559 19.0757 50.2284 19.0788C50.8906 19.0819 51.1517 18.6177 51.2964 18.064C51.3412 17.8928 51.3787 17.7142 51.381 17.5385C51.3865 17.1233 51.3924 16.7081 51.3983 16.2929L51.3983 16.2917C51.424 14.4703 51.4497 12.6488 51.4439 10.8274C51.4423 10.3294 51.3595 9.78638 51.1401 9.34999C50.9907 9.05263 50.5466 8.75305 50.2195 8.7363C49.9378 8.72177 49.5987 9.07175 49.3563 9.32701C49.217 9.47376 49.1783 9.75051 49.1651 9.97286C49.1075 10.9394 49.0617 11.9065 49.016 12.8736C49.0005 13.2 48.985 13.5269 48.9691 13.8533Z" fill="white"/>
<path d="M39.6845 20.9445H42.8546C42.8546 20.4392 42.8514 19.9395 42.8483 19.4438V19.4392C42.841 18.2522 42.8337 17.0874 42.8694 15.9247C42.895 15.0963 43 14.2527 43.2064 13.4507C43.5406 12.1524 43.9135 10.8638 44.2864 9.57521C44.4654 8.95674 44.6444 8.33827 44.8191 7.71871C45.2177 6.30545 45.6126 4.89118 46.0121 3.46101L46.0128 3.45849C46.1863 2.8371 46.3607 2.21271 46.5366 1.58409H43.3653L41.2642 11.2994C41.2294 11.1547 41.1995 11.0338 41.1735 10.928L41.1731 10.9265C41.1255 10.7335 41.0904 10.5913 41.0605 10.448C40.9225 9.78773 40.7851 9.12735 40.6477 8.46698L40.6473 8.46514L40.647 8.46368L40.6467 8.4621C40.2092 6.35889 39.7716 4.2557 39.3144 2.15671C39.2643 1.92695 39.0001 1.58202 38.8157 1.56927C38.1626 1.52397 37.506 1.53026 36.8239 1.53679C36.5774 1.53916 36.3275 1.54155 36.0732 1.54155C36.0999 1.65738 36.1229 1.76237 36.1443 1.85999C36.1857 2.04857 36.221 2.20967 36.2651 2.36839C36.5643 3.44444 36.8648 4.52016 37.1652 5.59588C37.9122 8.27033 38.6592 10.9448 39.3874 13.6242C39.5649 14.2776 39.6564 14.9704 39.6714 15.6477C39.6992 16.8962 39.694 18.1455 39.6887 19.4106C39.6866 19.919 39.6845 20.43 39.6845 20.9445Z" fill="white"/>
<path fill-rule="evenodd" clip-rule="evenodd" d="M102.774 14.9495H97.2265C97.2524 15.2912 97.2748 15.6262 97.2968 15.9562C97.3496 16.7463 97.4004 17.5079 97.4943 18.2638C97.556 18.7607 97.9317 19.0505 98.4764 19.058C99.0244 19.0658 99.4506 18.8602 99.5973 18.3207C99.692 17.9729 99.7489 17.6151 99.8102 17.2297C99.8384 17.0523 99.8675 16.8692 99.9017 16.6785L102.465 16.8073C102.94 18.8329 101.858 20.6037 99.8946 21.0619C99.3996 21.1773 98.8765 21.2307 98.3678 21.2228C95.8483 21.1833 94.5649 20.0336 94.3217 17.0974C94.1295 14.7787 94.1609 12.4056 94.4277 10.0945C94.7869 6.98284 97.8816 5.52556 100.746 6.92251C101.946 7.50788 102.377 8.61266 102.498 9.79808C102.617 10.9563 102.661 12.122 102.706 13.3319C102.726 13.8616 102.747 14.3998 102.774 14.9495ZM99.6803 11.9412C99.6197 11.0765 99.5611 10.2403 99.4695 9.40852C99.4118 8.88437 98.9929 8.67803 98.488 8.66202C97.871 8.64245 97.5847 9.06848 97.5404 9.34997C97.4011 10.2344 97.3445 11.1315 97.2875 12.0357C97.2667 12.3668 97.2457 12.6988 97.2207 13.0315H99.7591C99.7309 12.6621 99.7054 12.2988 99.6803 11.9412Z" fill="white"/>
<path d="M73.8655 4.02937V1.59375H64.4112V4.07057H67.5887V20.9439H70.7264V4.02937H73.8655Z" fill="white"/>
<path d="M142.529 11.3776C141.945 11.3844 141.417 11.3705 140.9 11.3568C140.526 11.3469 140.158 11.3372 139.78 11.3357C139.754 11.1364 139.734 10.96 139.716 10.7942L139.716 10.7918L139.715 10.7865L139.715 10.7846C139.676 10.4316 139.643 10.1252 139.563 9.74469C139.399 8.95964 138.921 8.64376 138.186 8.76086C137.503 8.86967 137.204 9.28991 137.209 10.0818C137.215 10.9043 137.68 11.4547 138.281 11.9293C138.593 12.1754 138.908 12.4185 139.222 12.6615C139.819 13.1226 140.415 13.5837 140.994 14.0652C142.492 15.3096 142.869 16.9261 142.452 18.7564C142.173 19.9821 141.387 20.8407 140.16 21.0752C139.171 21.2643 138.103 21.342 137.115 21.1878C134.942 20.849 133.881 18.9332 134.528 16.7167H137.047C137.068 16.8559 137.086 16.9934 137.103 17.1292L137.104 17.1303C137.143 17.4304 137.181 17.7224 137.251 18.0063C137.396 18.5903 137.748 19.0884 138.381 19.0887C138.79 19.0889 139.301 18.8972 139.585 18.6133C140.026 18.1732 139.964 17.5395 139.596 17.0634C139.196 16.5444 138.707 16.0833 138.21 15.6488C137.86 15.3419 137.495 15.0508 137.13 14.7597C136.695 14.4125 136.259 14.0654 135.849 13.6915C134.459 12.4258 134.218 10.8007 134.557 9.05941C134.792 7.85383 135.543 6.98088 136.764 6.78373C137.831 6.61149 138.958 6.59029 140.031 6.72177C141.16 6.86022 141.924 7.638 142.176 8.75642C142.304 9.32265 142.366 9.90334 142.431 10.514C142.461 10.795 142.491 11.0824 142.529 11.3776Z" fill="white"/>
<path d="M147.396 6.82129H144.493V20.9446H147.396V6.82129Z" fill="white"/>
<path d="M147.71 3.12594C147.708 4.55001 147.233 5.07476 145.947 5.06483C145.271 5.05964 144.657 4.93112 144.387 4.20374C144.045 3.28455 144.25 1.8879 144.785 1.46291C145.268 1.07973 146.663 1.02666 147.132 1.48441C147.611 1.77139 147.778 3.08933 147.71 3.12594Z" fill="white"/>
</svg>
