<svg fill="none" version="1.1" viewBox="0 0 158 50" xmlns="http://www.w3.org/2000/svg">
 <g transform="translate(0 13.669)" fill="#fff">
  <path d="m10.758 22.574-0.0033-2e-4c-1.3121-0.0722-2.6243-0.1444-3.9356-0.2284-0.79311-0.0507-1.5907-0.1037-2.373-0.2342-2.3194-0.3867-3.4976-1.435-3.8692-3.7211-0.76903-4.7314-0.76918-9.4873-0.005055-14.218 0.39477-2.4448 1.813-3.6909 4.3882-3.7931 5.2041-0.20664 10.413-0.35635 15.621-0.37814 2.6614-0.011266 5.3342 0.21301 7.983 0.50177 2.0725 0.22591 3.3112 1.5215 3.6319 3.5831 0.7445 4.7872 0.747 9.5875-0.0016 14.374-0.3587 2.293-1.8488 3.5287-4.3885 3.721-1.4315 0.1084-2.8657 0.1815-4.3 0.2547-0.7442 0.0379-1.489 0.0759-2.233 0.1188-0.2081 0.0121-0.4153 0.041-0.6225 0.07-0.0959 0.0134-0.1918 0.0268-0.2878 0.0385l-8.0178-1e-4c-0.5289-0.0299-1.0579-0.059-1.5869-0.0881zm2.3903-16.188-1e-4 9.7765 8.5307-4.8903 1e-4 -1e-3z" clip-rule="evenodd" fill-rule="evenodd"/>
  <path d="m83.776 0.83496h2.9808v7.3903c0.1033-0.11409 0.1888-0.21015 0.2634-0.29398 0.1364-0.15315 0.237-0.26619 0.3425-0.37321 0.8737-0.88673 1.9052-1.2544 3.1492-0.94959 1.1434 0.28017 1.552 1.1728 1.8198 2.16 0.1326 0.48873 0.2257 0.99969 0.2483 1.5045 0.0145 0.324 0.0305 0.6483 0.0466 0.9726 0.121 2.4488 0.2422 4.9021-0.2894 7.3241-0.4595 2.0933-1.8084 3.0328-3.6444 2.5118-0.4924-0.1397-0.9395-0.4362-1.4001-0.7416-0.214-0.142-0.431-0.2859-0.6568-0.4168l-0.3363 1.0434h-2.5236zm3.0105 13.206c0 0.3616 0.0016 0.7233 0.0031 1.0849 0.0037 0.8833 0.0075 1.7666-0.0111 2.6495-0.0123 0.5863 0.2914 0.8942 0.7875 1.0744 0.8939 0.3246 1.6597-0.1236 1.7037-1.2603 0.0707-1.8281 0.0564-3.6594 0.0422-5.4907-0.0055-0.7031-0.0109-1.4061-0.0116-2.1089v-0.00782c4e-4 -0.13759 0.0036-1.1651-0.8826-1.1631-0.3726 8.9e-4 -0.896 0.1933-1.1794 0.48043-0.2686 0.27215-0.4141 0.75944-0.4324 1.1602-0.039 0.8563-0.032 1.7146-0.0249 2.5729 0.0028 0.3362 0.0055 0.6724 0.0055 1.0084z" clip-rule="evenodd" fill-rule="evenodd"/>
  <path d="m107.07 20.972h2.724v-15.455c0.18 0.30862 0.251 0.62465 0.314 0.94246 0.178 0.89999 0.356 1.8 0.534 2.7 0.741 3.7438 1.481 7.4876 2.239 11.228 0.046 0.2259 0.308 0.5648 0.492 0.5799 0.574 0.0473 1.153 0.0402 1.745 0.033 0.218-0.0027 0.438-0.0054 0.66-0.0054l2.991-15.349 0.181 0.01853v15.278h2.746v-19.402c-0.338 0-0.672-0.00107-1.003-0.00213-1.064-0.00341-2.1-0.00674-3.135 0.0257-0.173 0.00548-0.448 0.31188-0.486 0.51363-0.687 3.7128-1.355 7.4292-2.022 11.146l-0.332 1.8486c-0.066 0.3649-0.129 0.7302-0.193 1.0955v0.0023l-2e-3 0.011v0.0015l-0.09 0.5149c-0.197-0.2696-0.245-0.5173-0.29-0.7655l-0.448-2.4687v-0.0029c-0.681-3.7568-1.362-7.5137-2.056-11.268-0.043-0.23036-0.249-0.61102-0.39-0.61562-1.091-0.03608-2.183-0.03291-3.266-0.02978-0.305 8.9e-4 -0.609 0.00177-0.913 0.00177z"/>
  <path d="m157.8 18.009c0.033-0.1309 0.065-0.2619 0.1-0.3924v-1.6818l-2.753-0.1733c-0.027 0.2523-0.049 0.4948-0.071 0.7301l-1e-3 0.0033c-0.048 0.5205-0.094 1.0062-0.171 1.487-0.1 0.6248-0.396 1.1218-1.149 1.0855-0.707-0.0341-0.919-0.5866-0.927-1.1169-0.036-2.7176-0.036-5.4363 1e-3 -8.1539 8e-3 -0.57114 0.265-1.1404 0.996-1.1392 0.732 0.00119 0.92 0.56596 0.998 1.1435 0.07 0.51829 0.115 1.0401 0.162 1.5905 0.021 0.2448 0.042 0.4953 0.066 0.7537l2.649-0.1852c0-0.2948 8e-3 -0.5803 0.015-0.8587 0.016-0.6073 0.031-1.181-0.034-1.7454-0.116-0.98797-0.547-1.856-1.481-2.3751-2.725-1.5143-6.057-0.09976-6.415 2.9427-0.294 2.506-0.325 5.0864-0.089 7.5984 0.283 3 1.919 4.044 4.956 3.6466 0.076-0.01 0.153-0.0204 0.229-0.0302 1.399-0.1783 2.279-0.9628 2.69-2.281 0.087-0.2789 0.158-0.5628 0.228-0.8467z"/>
  <path d="m81.658 6.8047h-3.1474c0 1.1744 0 2.2671 1e-4 3.3598 0 0.6761 4e-4 1.3522 8e-4 2.0284v0.0052c0.0011 1.8447 0.0022 3.6894-0.0048 5.534-0.0025 0.6847-0.5713 1.2295-1.272 1.2731-0.7851 0.0489-0.9247-0.5092-1.0124-1.0847-0.0434-0.2836-0.0427-0.575-0.042-0.8643l2e-4 -0.1269c-0.0023-2.4501-0.0021-4.9001-0.0019-7.3502l1e-4 -2.7637h-3.1183c-0.0111 0.03573-0.0232 0.06746-0.0343 0.09656-0.0211 0.05542-0.0389 0.10183-0.0389 0.14773l2e-4 0.23279c0.0031 3.5405 0.0061 7.0808 0.0218 10.621 0.0018 0.3796 0.0564 0.7644 0.1331 1.1374 0.2987 1.4513 1.2109 2.2172 2.6224 2.1923 1.0893-0.0191 1.9925-0.4367 2.6526-1.3194 0.0935-0.1249 0.1878-0.2491 0.3012-0.3984l3e-3 -0.0039c0.0605-0.0797 0.1269-0.1671 0.2011-0.265 0.0266 0.1602 0.0471 0.3083 0.0664 0.447 0.0424 0.3065 0.0786 0.5677 0.1605 0.8137 0.0624 0.1877 0.2843 0.4434 0.4507 0.456 0.4972 0.0376 0.9978 0.0317 1.5004 0.0258h0.0012c0.185-0.0022 0.3707-0.0044 0.5562-0.0044z"/>
  <path d="m123.94 6.8191h3.131c5e-3 0.09894 0.011 0.19631 0.016 0.29262 0.012 0.20577 0.024 0.40691 0.025 0.6079 1e-3 1.2532 1e-3 2.5065 1e-3 3.7597v0.0244c0 1.7191 0 3.4382 3e-3 5.1573 1e-3 0.4321 0.024 0.8658 0.065 1.296 0.056 0.5751 0.233 1.0659 0.958 1.0443 0.662-0.0197 1.252-0.5491 1.302-1.1708 0.012-0.1448 0.01-0.2908 7e-3 -0.4367 0-0.0582-1e-3 -0.1163-1e-3 -0.1744v-10.409h3.127v14.142h-2.392l-0.341-1.6315c-0.117 0.1377-0.223 0.2721-0.324 0.4009-0.21 0.2656-0.401 0.5074-0.63 0.7049-0.997 0.8587-2.161 1.0632-3.378 0.5793-1.166-0.4632-1.487-1.5286-1.511-2.6271-0.046-2.1027-0.049-4.2062-0.052-6.3097-1e-3 -0.7751-2e-3 -1.5501-5e-3 -2.325-3e-3 -0.65657-2e-3 -1.3131-1e-3 -1.9828v-0.94275z"/>
  <path d="m62.661 20.962h2.4133v-14.132h-3.1312l1e-4 2.8587c0 2.5271 0 5.0542-4e-4 7.5813 0 0.0562 0.0011 0.1127 0.0021 0.1692 0.0028 0.1477 0.0056 0.2961-0.0113 0.4416-0.0699 0.6042-0.708 1.1322-1.3548 1.1253-0.7243-0.0079-0.8739-0.5157-0.9221-1.0844-0.0343-0.4054-0.0447-0.8138-0.0452-1.221-0.0018-1.5387-0.0019-3.0775-0.0021-4.6163-1e-4 -1.4672-3e-4 -2.9344-0.0019-4.4016-3e-4 -0.20057-0.0137-0.40113-0.0269-0.59664-0.0059-0.08875-0.0118-0.17677-0.0164-0.26297h-3.1413c0 0.32979-3e-4 0.65492-6e-4 0.97687v0.00414c-6e-4 0.68626-0.0011 1.3581 1e-3 2.0299 0.0025 0.77635 0.0025 1.5528 0.0025 2.3292 0 2.0513 0 4.1026 0.0451 6.1529 0.0247 1.121 0.3307 2.2206 1.5337 2.6939 1.2208 0.4804 2.381 0.2652 3.3737-0.5995 0.2252-0.1961 0.414-0.4335 0.6223-0.6954 0.1013-0.1275 0.2078-0.2614 0.3248-0.3985z"/>
  <path d="m45.708 13.611c0.0352-0.3283 0.0635-0.6873 0.0933-1.0666 0.0725-0.9208 0.1545-1.9615 0.3683-2.9748 0.4491-2.1277 1.8429-3.0779 4.143-3.0724 2.2565 0.00534 3.5873 0.93269 4.0241 3.0973 0.5935 2.9401 0.5991 5.9151-0.0587 8.8555-0.3601 1.6101-1.4192 2.5737-3.1043 2.7089-0.7833 0.0629-1.5961 0.058-2.3664-0.0778-1.6093-0.2836-2.5707-1.4783-2.8174-3.47-0.1006-0.8132-0.1456-1.633-0.1966-2.561l-1e-4 -0.0032c-0.0247-0.4491-0.0508-0.9245-0.0852-1.4359zm3.2613 0.2424 0.0599 0.0027c0 0.2373-0.0018 0.4746-0.0036 0.712-0.0043 0.5517-0.0085 1.1034 0.0102 1.6542 0.0207 0.6079 0.0684 1.2188 0.1633 1.819 0.089 0.5636 0.3601 1.0345 1.0295 1.0376 0.6622 0.0031 0.9233-0.4611 1.068-1.0148 0.0448-0.1712 0.0823-0.3498 0.0846-0.5255 0.0055-0.4152 0.0114-0.8304 0.0173-1.2456v-0.0012c0.0257-1.8214 0.0514-3.6429 0.0456-5.4643-0.0016-0.498-0.0844-1.041-0.3038-1.4774-0.1494-0.29736-0.5935-0.59694-0.9206-0.61369-0.2817-0.01453-0.6208 0.33545-0.8632 0.59071-0.1393 0.14675-0.178 0.4235-0.1912 0.64585-0.0576 0.96654-0.1034 1.9336-0.1491 2.9007-0.0155 0.3264-0.031 0.6533-0.0469 0.9797z" clip-rule="evenodd" fill-rule="evenodd"/>
  <path d="m39.684 20.944h3.1701c0-0.5053-0.0032-1.005-0.0063-1.5007v-0.0046c-0.0073-1.187-0.0146-2.3518 0.0211-3.5145 0.0256-0.8284 0.1306-1.672 0.337-2.474 0.3342-1.2983 0.7071-2.5869 1.08-3.8755 0.179-0.61847 0.358-1.2369 0.5327-1.8565 0.3986-1.4133 0.7935-2.8275 1.193-4.2577l7e-4 -0.00252c0.1735-0.62139 0.3479-1.2458 0.5238-1.8744h-3.1713l-2.1011 9.7153c-0.0348-0.1447-0.0647-0.2656-0.0907-0.3714l-4e-4 -0.0015c-0.0476-0.193-0.0827-0.3352-0.1126-0.4785-0.138-0.66027-0.2754-1.3206-0.4128-1.981l-4e-4 -0.00184-3e-4 -0.00146-3e-4 -0.00158c-0.4375-2.1032-0.8751-4.2064-1.3323-6.3054-0.0501-0.22976-0.3143-0.57469-0.4987-0.58744-0.6531-0.0453-1.3097-0.03901-1.9918-0.03248-0.2465 0.00237-0.4964 0.00476-0.7507 0.00476 0.0267 0.11583 0.0497 0.22082 0.0711 0.31844 0.0414 0.18858 0.0767 0.34968 0.1208 0.5084 0.2992 1.076 0.5997 2.1518 0.9001 3.2275 0.747 2.6744 1.494 5.3489 2.2222 8.0283 0.1775 0.6534 0.269 1.3462 0.284 2.0235 0.0278 1.2485 0.0226 2.4978 0.0173 3.7629-0.0021 0.5084-0.0042 1.0194-0.0042 1.5339z"/>
  <path d="m102.77 14.95h-5.5475c0.0259 0.3417 0.0483 0.6767 0.0703 1.0067 0.0528 0.7901 0.1036 1.5517 0.1975 2.3076 0.0617 0.4969 0.4374 0.7867 0.9821 0.7942 0.548 0.0078 0.9742-0.1978 1.1209-0.7373 0.0947-0.3478 0.1516-0.7056 0.2129-1.091 0.0282-0.1774 0.0573-0.3605 0.0915-0.5512l2.5633 0.1288c0.475 2.0256-0.607 3.7964-2.5704 4.2546-0.495 0.1154-1.0181 0.1688-1.5268 0.1609-2.5195-0.0395-3.8029-1.1892-4.0461-4.1254-0.1922-2.3187-0.1608-4.6918 0.106-7.0029 0.3592-3.1117 3.4539-4.5689 6.3183-3.172 1.2 0.58537 1.631 1.6902 1.752 2.8756 0.119 1.1582 0.163 2.3239 0.208 3.5338 0.02 0.5297 0.041 1.0679 0.068 1.6176zm-3.0937-3.0083c-0.0606-0.8647-0.1192-1.7009-0.2108-2.5327-0.0577-0.52415-0.4766-0.73049-0.9815-0.7465-0.617-0.01957-0.9033 0.40646-0.9476 0.68795-0.1393 0.88443-0.1959 1.7815-0.2529 2.6857-0.0208 0.3311-0.0418 0.6631-0.0668 0.9958h2.5384c-0.0282-0.3694-0.0537-0.7327-0.0788-1.0903z" clip-rule="evenodd" fill-rule="evenodd"/>
  <path d="m73.866 4.0294v-2.4356h-9.4543v2.4768h3.1775v16.873h3.1377v-16.915z"/>
  <path d="m142.53 11.378c-0.584 0.0068-1.112-0.0071-1.629-0.0208-0.374-0.0099-0.742-0.0196-1.12-0.0211-0.026-0.1993-0.046-0.3757-0.064-0.5415v-0.0024l-1e-3 -0.0053v-0.0019c-0.039-0.353-0.072-0.6594-0.152-1.0399-0.164-0.78505-0.642-1.1009-1.377-0.98383-0.683 0.10881-0.982 0.52905-0.977 1.3209 6e-3 0.8225 0.471 1.3729 1.072 1.8475 0.312 0.2461 0.627 0.4892 0.941 0.7322 0.597 0.4611 1.193 0.9222 1.772 1.4037 1.498 1.2444 1.875 2.8609 1.458 4.6912-0.279 1.2257-1.065 2.0843-2.292 2.3188-0.989 0.1891-2.057 0.2668-3.045 0.1126-2.173-0.3388-3.234-2.2546-2.587-4.4711h2.519c0.021 0.1392 0.039 0.2767 0.056 0.4125l1e-3 0.0011c0.039 0.3001 0.077 0.5921 0.147 0.876 0.145 0.584 0.497 1.0821 1.13 1.0824 0.409 2e-4 0.92-0.1915 1.204-0.4754 0.441-0.4401 0.379-1.0738 0.011-1.5499-0.4-0.519-0.889-0.9801-1.386-1.4146-0.35-0.3069-0.715-0.598-1.08-0.8891-0.435-0.3472-0.871-0.6943-1.281-1.0682-1.39-1.2657-1.631-2.8908-1.292-4.6321 0.235-1.2056 0.986-2.0785 2.207-2.2757 1.067-0.17224 2.194-0.19344 3.267-0.06196 1.129 0.13845 1.893 0.91623 2.145 2.0346 0.128 0.56623 0.19 1.1469 0.255 1.7576 0.03 0.281 0.06 0.5684 0.098 0.8636z"/>
  <path d="m147.4 6.8213h-2.903v14.123h2.903z"/>
  <path d="m147.71 3.1259c-2e-3 1.4241-0.477 1.9488-1.763 1.9389-0.676-0.00519-1.29-0.13371-1.56-0.86109-0.342-0.91919-0.137-2.3158 0.398-2.7408 0.483-0.38318 1.878-0.43625 2.347 0.0215 0.479 0.28698 0.646 1.6049 0.578 1.6415z"/>
 </g>
</svg>
