<svg viewBox="0 0 420 420" fill="none" xmlns="http://www.w3.org/2000/svg">
<rect x="34" y="70" width="175.916" height="87.0521" fill="url(#paint0_linear)"/>
<path d="M116.206 130C113.788 129.862 111.369 129.737 108.952 129.581C107.911 129.514 106.864 129.443 105.837 129.271C102.793 128.759 101.246 127.371 100.758 124.345C99.7485 118.081 99.7483 111.785 100.751 105.522C101.27 102.286 103.131 100.637 106.512 100.501C113.344 100.228 120.182 100.029 127.019 100.001C130.512 99.9856 134.021 100.283 137.498 100.665C140.219 100.964 141.845 102.679 142.266 105.408C143.243 111.745 143.247 118.1 142.264 124.436C141.793 127.472 139.837 129.107 136.503 129.362C133.648 129.58 130.786 129.69 127.927 129.856C127.527 129.88 127.13 129.951 126.732 130C123.223 130 119.715 130 116.206 130ZM117.261 108.453C117.261 112.827 117.261 117.034 117.261 121.394C121.027 119.217 124.674 117.108 128.46 114.92C124.654 112.723 121.003 110.614 117.261 108.453Z" fill="black"/>
<rect x="215" y="223" width="172" height="110" fill="url(#paint1_linear)"/>
<path d="M301 256L307.466 269.101L321.923 271.202L311.462 281.399L313.931 295.798L301 289L288.069 295.798L290.538 281.399L280.077 271.202L294.534 269.101L301 256Z" fill="black"/>
<rect x="34" y="162" width="176" height="171" fill="url(#paint2_linear)"/>
<rect x="215.336" y="70" width="171.665" height="147.564" fill="url(#paint3_linear)"/>
<path d="M301 168L297.36 164.348C283.84 152.348 275 144.261 275 134.348C275 126.261 281.24 120 289.3 120C293.72 120 298.14 122.087 301 125.478C303.855 122.087 308.28 120 312.7 120C320.76 120 327 126.261 327 134.348C327 144.261 318.16 152.348 304.64 164.348L301 168Z" fill="black"/>
<path fill-rule="evenodd" clip-rule="evenodd" d="M142.33 224.476C142.755 224.84 142.998 225.367 142.998 225.92V258.559C142.998 262.801 139.052 266.24 134.186 266.24C129.321 266.24 125.374 262.801 125.374 258.559C125.374 254.318 129.321 250.879 134.186 250.879C135.997 250.879 137.682 251.355 139.081 252.172V233.855L113.882 237.15C113.796 237.161 113.709 237.167 113.624 237.167V264.32C113.624 268.561 109.678 272 104.812 272C99.9446 272 96 268.561 96 264.32C96 260.078 99.9463 256.639 104.812 256.639C106.623 256.639 108.307 257.116 109.707 257.932V229.76C109.707 228.797 110.434 227.985 111.407 227.857L140.781 224.017C141.34 223.944 141.905 224.11 142.33 224.476Z" fill="black"/>
<path d="M275.209 59.5329L275.262 59.9741H275.706H368.775C373.595 59.9741 377.506 63.8822 377.5 68.7054V68.7061V275.768C377.5 280.592 373.595 284.5 368.775 284.5H53.2248C48.4051 284.5 44.5 280.592 44.5 275.768V68.7061C44.5 63.8817 48.4051 59.9741 53.2248 59.9741H146.294H146.738L146.791 59.5329C150.592 27.4097 177.883 2.5 211 2.5C244.117 2.5 271.408 27.4097 275.209 59.5329ZM257.972 59.9675H258.56L258.466 59.3868C254.729 36.5271 234.901 19.0752 211 19.0752C187.099 19.0752 167.271 36.5271 163.534 59.3868L163.44 59.9675H164.028H257.972Z" stroke="url(#paint4_linear)"/>
<defs>
<linearGradient id="paint0_linear" x1="214.581" y1="65.3836" x2="194.669" y2="153.072" gradientUnits="userSpaceOnUse">
<stop stop-color="#FF7173"/>
<stop offset="1" stop-color="#050000"/>
</linearGradient>
<linearGradient id="paint1_linear" x1="391.561" y1="217.167" x2="360.078" y2="324.445" gradientUnits="userSpaceOnUse">
<stop stop-color="#FF7173"/>
<stop offset="1"/>
</linearGradient>
<linearGradient id="paint2_linear" x1="214.667" y1="152.932" x2="147.302" y2="304.029" gradientUnits="userSpaceOnUse">
<stop stop-color="#5573FF"/>
<stop offset="1"/>
</linearGradient>
<linearGradient id="paint3_linear" x1="391.552" y1="62.1746" x2="338.198" y2="197.436" gradientUnits="userSpaceOnUse">
<stop stop-color="#5573FF"/>
<stop offset="1"/>
</linearGradient>
<linearGradient id="paint4_linear" x1="287.5" y1="-10.5" x2="211" y2="265" gradientUnits="userSpaceOnUse">
<stop stop-color="#FF7173"/>
<stop offset="0.861607" stop-color="#FF7173" stop-opacity="0"/>
</linearGradient>
</defs>
</svg>
