<svg viewBox="0 0 420 420" fill="none" xmlns="http://www.w3.org/2000/svg">
<path fill-rule="evenodd" clip-rule="evenodd" d="M210.5 225L407 345.754L391.618 388L210.5 275.5L29.3817 388L14 345.754L210.5 225Z" fill="url(#paint0_radial)"/>
<rect x="360.831" y="132.402" width="82.7282" height="50.1946" rx="25.0973" transform="rotate(90 360.831 132.402)" fill="url(#paint1_linear)"/>
<rect x="232.556" y="110.094" width="92.953" height="50.1946" rx="25.0973" transform="rotate(90 232.556 110.094)" fill="url(#paint2_linear)"/>
<rect x="104.28" y="139.84" width="92.953" height="50.1946" rx="25.0973" transform="rotate(90 104.28 139.84)" fill="url(#paint3_linear)"/>
<path d="M360.831 19L360.831 107.305C360.831 121.166 349.595 132.403 335.734 132.403C321.873 132.403 310.636 121.166 310.636 107.305L310.636 19L360.831 19Z" fill="url(#paint4_linear)"/>
<path d="M296.693 19L296.693 131.473C296.693 145.334 285.457 156.57 271.596 156.57C257.735 156.57 246.499 145.334 246.499 131.473L246.499 19L296.693 19Z" fill="url(#paint5_linear)"/>
<path d="M234.728 132.354H259.121L172.752 216.689L209.557 139.622L209.874 138.957H209.137H188.449L230.498 52.9277H295.741L234.362 131.604L233.776 132.354H234.728Z" stroke="url(#paint6_linear)" stroke-width="0.92953"/>
<path d="M232.556 19L232.556 78.4899C232.556 92.3508 221.319 103.587 207.458 103.587C193.597 103.587 182.361 92.3508 182.361 78.4899L182.361 19L232.556 19Z" fill="url(#paint7_linear)"/>
<path d="M168.418 21L168.418 156.795C168.418 170.656 157.182 181.893 143.321 181.893C129.46 181.893 118.223 170.656 118.223 156.795L118.223 21L168.418 21Z" fill="url(#paint8_linear)"/>
<path d="M104.28 19L104.28 107.305C104.28 121.166 93.0438 132.403 79.183 132.403C65.3221 132.403 54.0856 121.166 54.0856 107.305L54.0856 19L104.28 19Z" fill="url(#paint9_linear)"/>
<defs>
<radialGradient id="paint0_radial" cx="0" cy="0" r="1" gradientUnits="userSpaceOnUse" gradientTransform="translate(210.976 193.668) rotate(90) scale(331.899 292.601)">
<stop stop-color="#FF7173"/>
<stop offset="0.793914"/>
</radialGradient>
<linearGradient id="paint1_linear" x1="444.769" y1="157.802" x2="384.817" y2="157.777" gradientUnits="userSpaceOnUse">
<stop stop-color="#5573FF"/>
<stop offset="1"/>
</linearGradient>
<linearGradient id="paint2_linear" x1="326.868" y1="135.493" x2="259.507" y2="135.461" gradientUnits="userSpaceOnUse">
<stop stop-color="#5573FF"/>
<stop offset="1"/>
</linearGradient>
<linearGradient id="paint3_linear" x1="198.592" y1="165.24" x2="131.231" y2="165.207" gradientUnits="userSpaceOnUse">
<stop stop-color="#5573FF"/>
<stop offset="1"/>
</linearGradient>
<linearGradient id="paint4_linear" x1="335.431" y1="134.061" x2="335.497" y2="21.5" gradientUnits="userSpaceOnUse">
<stop stop-color="#5573FF"/>
<stop offset="1"/>
</linearGradient>
<linearGradient id="paint5_linear" x1="271.294" y1="158.582" x2="271.364" y2="58.8873" gradientUnits="userSpaceOnUse">
<stop stop-color="#5573FF"/>
<stop offset="1"/>
</linearGradient>
<linearGradient id="paint6_linear" x1="222.795" y1="150.064" x2="199.585" y2="104" gradientUnits="userSpaceOnUse">
<stop stop-color="#FF7173"/>
<stop offset="1"/>
</linearGradient>
<linearGradient id="paint7_linear" x1="207.156" y1="104.824" x2="207.156" y2="21.5" gradientUnits="userSpaceOnUse">
<stop stop-color="#5573FF"/>
<stop offset="1"/>
</linearGradient>
<linearGradient id="paint8_linear" x1="143.018" y1="184.42" x2="143.129" y2="59.1287" gradientUnits="userSpaceOnUse">
<stop stop-color="#5573FF"/>
<stop offset="1"/>
</linearGradient>
<linearGradient id="paint9_linear" x1="78.8806" y1="134.061" x2="78.9458" y2="22" gradientUnits="userSpaceOnUse">
<stop stop-color="#5573FF"/>
<stop offset="1"/>
</linearGradient>
</defs>
</svg>
