<svg viewBox="0 0 420 420" fill="none" xmlns="http://www.w3.org/2000/svg">
<rect x="25" y="65.7266" width="112.66" height="112.66" fill="url(#paint0_linear)"/>
<path d="M118.884 75.9688L121.392 81.0512L127.001 81.8662L122.942 85.8223L123.9 91.4085L118.884 88.7711L113.867 91.4085L114.825 85.8223L110.766 81.8662L116.375 81.0512L118.884 75.9688Z" fill="black"/>
<path d="M99.0577 120.465C100.282 121.172 100.282 122.94 99.0577 123.647L73.8437 138.204C72.6189 138.911 71.0879 138.028 71.0879 136.613L71.0879 107.499C71.0879 106.084 72.6189 105.2 73.8437 105.908L99.0577 120.465Z" fill="black" fill-opacity="0.3"/>
<rect x="282.753" y="105.84" width="112.66" height="112.66" fill="url(#paint1_linear)"/>
<path d="M376.636 116.082L379.145 121.164L384.754 121.979L380.695 125.936L381.653 131.522L376.636 128.884L371.62 131.522L372.578 125.936L368.519 121.979L374.128 121.164L376.636 116.082Z" fill="black"/>
<path d="M356.812 160.58C358.036 161.287 358.036 163.055 356.812 163.762L331.598 178.32C330.373 179.027 328.842 178.143 328.842 176.729L328.842 147.614C328.842 146.2 330.373 145.316 331.598 146.023L356.812 160.58Z" fill="black" fill-opacity="0.3"/>
<rect x="153.877" y="35" width="112.66" height="112.66" fill="url(#paint2_linear)"/>
<path d="M247.76 45.2422L250.269 50.3246L255.878 51.1396L251.819 55.0958L252.777 60.6819L247.76 58.0445L242.744 60.6819L243.702 55.0958L239.643 51.1396L245.252 50.3246L247.76 45.2422Z" fill="black"/>
<path d="M227.935 89.7403C229.159 90.4475 229.159 92.2153 227.935 92.9224L202.721 107.48C201.496 108.187 199.965 107.303 199.965 105.889L199.965 76.7741C199.965 75.3598 201.496 74.4759 202.721 75.183L227.935 89.7403Z" fill="black" fill-opacity="0.3"/>
<rect x="125.166" y="133.459" width="170.082" height="170.082" stroke="url(#paint3_linear)" stroke-width="0.918605"/>
<path opacity="0.5" d="M267.207 148.543L271.014 156.257L279.527 157.494L273.367 163.499L274.821 171.978L267.207 167.975L259.592 171.978L261.046 163.499L254.886 157.494L263.399 156.257L267.207 148.543Z" fill="#FF7173"/>
<path d="M238.542 216.908C239.767 217.615 239.767 219.383 238.542 220.09L197.417 243.834C196.192 244.541 194.661 243.657 194.661 242.243L194.661 194.756C194.661 193.341 196.192 192.458 197.417 193.165L238.542 216.908Z" fill="#FF7173" fill-opacity="0.3"/>
<rect x="153.877" y="289.34" width="112.66" height="112.66" fill="url(#paint4_linear)"/>
<path d="M247.76 299.582L250.269 304.664L255.878 305.479L251.819 309.436L252.777 315.022L247.76 312.384L242.744 315.022L243.702 309.436L239.643 305.479L245.252 304.664L247.76 299.582Z" fill="black"/>
<rect x="25" y="192.895" width="112.66" height="112.66" fill="url(#paint5_linear)"/>
<path d="M118.884 203.137L121.392 208.219L127.001 209.034L122.942 212.99L123.9 218.576L118.884 215.939L113.867 218.576L114.825 212.99L110.766 209.034L116.375 208.219L118.884 203.137Z" fill="black"/>
<path d="M99.0577 247.635C100.282 248.342 100.282 250.11 99.0577 250.817L73.8437 265.374C72.6189 266.081 71.0879 265.197 71.0879 263.783L71.0879 234.669C71.0879 233.254 72.6189 232.37 73.8437 233.078L99.0577 247.635Z" fill="black" fill-opacity="0.3"/>
<rect x="282.754" y="233.01" width="112.66" height="112.66" fill="url(#paint6_linear)"/>
<path d="M376.638 243.25L379.147 248.332L384.756 249.147L380.697 253.104L381.655 258.69L376.638 256.052L371.622 258.69L372.58 253.104L368.521 249.147L374.13 248.332L376.638 243.25Z" fill="black"/>
<path d="M356.813 287.748C358.037 288.455 358.037 290.223 356.813 290.93L331.599 305.488C330.374 306.195 328.843 305.311 328.843 303.896L328.843 274.782C328.843 273.368 330.374 272.484 331.599 273.191L356.813 287.748Z" fill="black" fill-opacity="0.3"/>
<defs>
<linearGradient id="paint0_linear" x1="140.648" y1="59.7521" x2="95.4128" y2="158.33" gradientUnits="userSpaceOnUse">
<stop stop-color="#FF7173"/>
<stop offset="1"/>
</linearGradient>
<linearGradient id="paint1_linear" x1="398.401" y1="99.8654" x2="353.166" y2="198.443" gradientUnits="userSpaceOnUse">
<stop stop-color="#FF7173"/>
<stop offset="1"/>
</linearGradient>
<linearGradient id="paint2_linear" x1="269.525" y1="29.0256" x2="224.29" y2="127.603" gradientUnits="userSpaceOnUse">
<stop stop-color="#FF7173"/>
<stop offset="1"/>
</linearGradient>
<linearGradient id="paint3_linear" x1="289.878" y1="126.523" x2="235.469" y2="270.966" gradientUnits="userSpaceOnUse">
<stop stop-color="#FF7173"/>
<stop offset="1"/>
</linearGradient>
<linearGradient id="paint4_linear" x1="317.32" y1="168.571" x2="236.239" y2="351.218" gradientUnits="userSpaceOnUse">
<stop stop-color="#FF7173"/>
<stop offset="1"/>
</linearGradient>
<linearGradient id="paint5_linear" x1="140.648" y1="186.92" x2="95.4128" y2="285.498" gradientUnits="userSpaceOnUse">
<stop stop-color="#5573FF"/>
<stop offset="1"/>
</linearGradient>
<linearGradient id="paint6_linear" x1="398.402" y1="227.035" x2="353.167" y2="325.613" gradientUnits="userSpaceOnUse">
<stop stop-color="#5573FF"/>
<stop offset="1"/>
</linearGradient>
</defs>
</svg>
