<svg viewBox="0 0 420 420" fill="none" xmlns="http://www.w3.org/2000/svg">
<rect x="31" y="265.273" width="308.836" height="67.7273" rx="2.70909" fill="url(#paint0_linear)"/>
<path fill-rule="evenodd" clip-rule="evenodd" d="M307.779 300.944V310.426H309.585V300.944H319.067V299.138H309.585V289.656H307.779V299.138H298.297V300.944H307.779Z" fill="black"/>
<path d="M128.885 290.902H125.065L120.568 297.946L116.098 290.902H112.197L118.563 300.493L112.143 310.11H115.962L120.487 303.093L124.957 310.11H128.858L122.491 300.52L128.885 290.902Z" fill="black" fill-opacity="0.3"/>
<path d="M151.817 290.902H147.997L143.5 297.946L139.03 290.902H135.129L141.495 300.493L135.075 310.11H138.894L143.419 303.093L147.889 310.11H151.79L145.423 300.52L151.817 290.902Z" fill="black" fill-opacity="0.3"/>
<path d="M174.749 290.902H170.929L166.432 297.946L161.962 290.902H158.061L164.427 300.493L158.007 310.11H161.826L166.351 303.093L170.821 310.11H174.722L168.355 300.52L174.749 290.902Z" fill="black" fill-opacity="0.3"/>
<path d="M182.322 308.078C182.322 309.297 183.297 310.272 184.517 310.272C185.736 310.272 186.738 309.297 186.738 308.078C186.738 306.859 185.736 305.857 184.517 305.857C183.297 305.857 182.322 306.859 182.322 308.078Z" fill="black" fill-opacity="0.3"/>
<path d="M210.956 290.902H207.137L202.64 297.946L198.17 290.902H194.268L200.635 300.493L194.214 310.11H198.034L202.558 303.093L207.028 310.11H210.929L204.563 300.52L210.956 290.902Z" fill="black" fill-opacity="0.3"/>
<path d="M233.888 290.902H230.069L225.572 297.946L221.102 290.902H217.2L223.567 300.493L217.146 310.11H220.966L225.49 303.093L229.96 310.11H233.861L227.495 300.52L233.888 290.902Z" fill="black" fill-opacity="0.3"/>
<path d="M256.821 290.902H253.001L248.504 297.946L244.034 290.902H240.133L246.499 300.493L240.078 310.11H243.898L248.422 303.093L252.892 310.11H256.793L250.427 300.52L256.821 290.902Z" fill="black" fill-opacity="0.3"/>
<rect x="31" y="188.516" width="308.836" height="67.7273" rx="2.70909" fill="url(#paint1_linear)"/>
<path d="M128.885 214.145H125.065L120.568 221.188L116.098 214.145H112.197L118.563 223.735L112.143 233.352H115.962L120.487 226.335L124.957 233.352H128.858L122.491 223.762L128.885 214.145Z" fill="black" fill-opacity="0.3"/>
<path d="M151.817 214.145H147.997L143.5 221.188L139.03 214.145H135.129L141.495 223.735L135.075 233.352H138.894L143.419 226.335L147.889 233.352H151.79L145.423 223.762L151.817 214.145Z" fill="black" fill-opacity="0.3"/>
<path d="M174.749 214.145H170.929L166.432 221.188L161.962 214.145H158.061L164.427 223.735L158.007 233.352H161.826L166.351 226.335L170.821 233.352H174.722L168.355 223.762L174.749 214.145Z" fill="black" fill-opacity="0.3"/>
<path d="M182.322 231.32C182.322 232.539 183.297 233.515 184.517 233.515C185.736 233.515 186.738 232.539 186.738 231.32C186.738 230.101 185.736 229.099 184.517 229.099C183.297 229.099 182.322 230.101 182.322 231.32Z" fill="black" fill-opacity="0.3"/>
<path d="M210.956 214.145H207.137L202.64 221.188L198.17 214.145H194.268L200.635 223.735L194.214 233.352H198.034L202.558 226.335L207.028 233.352H210.929L204.563 223.762L210.956 214.145Z" fill="black" fill-opacity="0.3"/>
<path d="M233.888 214.145H230.069L225.572 221.188L221.102 214.145H217.2L223.567 223.735L217.146 233.352H220.966L225.49 226.335L229.96 233.352H233.861L227.495 223.762L233.888 214.145Z" fill="black" fill-opacity="0.3"/>
<path d="M256.821 214.145H253.001L248.504 221.188L244.034 214.145H240.133L246.499 223.735L240.078 233.352H243.898L248.422 226.335L252.892 233.352H256.793L250.427 223.762L256.821 214.145Z" fill="black" fill-opacity="0.3"/>
<path d="M64.4122 210.188C57.9284 210.188 52.6729 215.443 52.6729 221.927C52.6729 228.411 57.9284 233.666 64.4122 233.666C70.8961 233.666 76.1516 228.411 76.1516 221.927C76.1516 215.443 70.8961 210.188 64.4122 210.188ZM69.4793 216.722L71.0846 218.189L62.2801 227.934L57.7399 223.394L59.2763 221.857L62.1421 224.723L69.4793 216.721V216.722Z" fill="black"/>
<rect x="80.666" y="111.758" width="308.836" height="67.7273" rx="2.70909" fill="url(#paint2_linear)"/>
<path fill-rule="evenodd" clip-rule="evenodd" d="M359.251 146.524V156.006H361.057V146.524H370.539V144.718H361.057V135.236H359.251V144.718H349.77V146.524H359.251Z" fill="black"/>
<path d="M178.551 137.387H174.731L170.234 144.43L165.764 137.387H161.863L168.229 146.977L161.809 156.594H165.628L170.153 149.578L174.623 156.594H178.524L172.157 147.004L178.551 137.387Z" fill="black" fill-opacity="0.3"/>
<path d="M201.483 137.387H197.663L193.166 144.43L188.696 137.387H184.795L191.161 146.977L184.741 156.594H188.56L193.085 149.578L197.555 156.594H201.456L195.089 147.004L201.483 137.387Z" fill="black" fill-opacity="0.3"/>
<path d="M224.415 137.387H220.595L216.098 144.43L211.628 137.387H207.727L214.093 146.977L207.673 156.594H211.492L216.017 149.578L220.487 156.594H224.388L218.021 147.004L224.415 137.387Z" fill="black" fill-opacity="0.3"/>
<path d="M231.988 154.562C231.988 155.781 232.963 156.757 234.183 156.757C235.402 156.757 236.404 155.781 236.404 154.562C236.404 153.343 235.402 152.341 234.183 152.341C232.963 152.341 231.988 153.343 231.988 154.562Z" fill="black" fill-opacity="0.3"/>
<path d="M260.622 137.387H256.803L252.306 144.43L247.836 137.387H243.934L250.301 146.977L243.88 156.594H247.7L252.224 149.578L256.694 156.594H260.595L254.229 147.004L260.622 137.387Z" fill="black" fill-opacity="0.3"/>
<path d="M283.554 137.387H279.735L275.238 144.43L270.768 137.387H266.866L273.233 146.977L266.812 156.594H270.632L275.156 149.578L279.626 156.594H283.527L277.161 147.004L283.554 137.387Z" fill="black" fill-opacity="0.3"/>
<path d="M306.487 137.387H302.667L298.17 144.43L293.7 137.387H289.799L296.165 146.977L289.744 156.594H293.564L298.088 149.578L302.558 156.594H306.459L300.093 147.004L306.487 137.387Z" fill="black" fill-opacity="0.3"/>
<rect x="31.4515" y="35.4515" width="307.933" height="66.8242" rx="2.25758" stroke="url(#paint3_linear)" stroke-width="0.90303"/>
<path fill-rule="evenodd" clip-rule="evenodd" d="M307.779 70.6706V80.1525H309.585V70.6706H319.067V68.8645H309.585V59.3828H307.779V68.8645H298.297V70.6706H307.779Z" fill="#FF7173"/>
<g opacity="0.5">
<path d="M128.885 60.6289H125.065L120.568 67.6725L116.098 60.6289H112.197L118.563 70.2191L112.143 79.8364H115.962L120.487 72.8198L124.957 79.8364H128.858L122.491 70.2462L128.885 60.6289Z" fill="#F37779"/>
<path d="M151.817 60.6289H147.997L143.5 67.6725L139.03 60.6289H135.129L141.495 70.2191L135.075 79.8364H138.894L143.419 72.8198L147.889 79.8364H151.79L145.423 70.2462L151.817 60.6289Z" fill="#F37779"/>
<path d="M174.749 60.6289H170.929L166.432 67.6725L161.962 60.6289H158.061L164.427 70.2191L158.007 79.8364H161.826L166.351 72.8198L170.821 79.8364H174.722L168.355 70.2462L174.749 60.6289Z" fill="#F37779"/>
<path d="M182.322 77.8045C182.322 79.0236 183.297 79.9989 184.517 79.9989C185.736 79.9989 186.738 79.0236 186.738 77.8045C186.738 76.5855 185.736 75.5831 184.517 75.5831C183.297 75.5831 182.322 76.5855 182.322 77.8045Z" fill="#F37779"/>
<path d="M210.956 60.6289H207.137L202.64 67.6725L198.17 60.6289H194.268L200.635 70.2191L194.214 79.8364H198.034L202.558 72.8198L207.028 79.8364H210.929L204.563 70.2462L210.956 60.6289Z" fill="#F37779"/>
<path d="M233.888 60.6289H230.069L225.572 67.6725L221.102 60.6289H217.2L223.567 70.2191L217.146 79.8364H220.966L225.49 72.8198L229.96 79.8364H233.861L227.495 70.2462L233.888 60.6289Z" fill="#F37779"/>
<path d="M256.821 60.6289H253.001L248.504 67.6725L244.034 60.6289H240.133L246.499 70.2191L240.078 79.8364H243.898L248.422 72.8198L252.892 79.8364H256.793L250.427 70.2462L256.821 60.6289Z" fill="#F37779"/>
</g>
<defs>
<linearGradient id="paint0_linear" x1="344.351" y1="299.545" x2="58.0913" y2="299.209" gradientUnits="userSpaceOnUse">
<stop stop-color="#FF7173"/>
<stop offset="1"/>
</linearGradient>
<linearGradient id="paint1_linear" x1="31" y1="222.787" x2="301.615" y2="246.626" gradientUnits="userSpaceOnUse">
<stop stop-color="#5573FF"/>
<stop offset="1"/>
</linearGradient>
<linearGradient id="paint2_linear" x1="394.018" y1="146.029" x2="107.757" y2="145.694" gradientUnits="userSpaceOnUse">
<stop stop-color="#FF7173"/>
<stop offset="1"/>
</linearGradient>
<linearGradient id="paint3_linear" x1="339.836" y1="65.2515" x2="31" y2="62.9939" gradientUnits="userSpaceOnUse">
<stop stop-color="#FF7173"/>
<stop offset="1"/>
</linearGradient>
</defs>
</svg>
