<svg width="122" height="85" viewBox="0 0 122 85" fill="none" xmlns="http://www.w3.org/2000/svg">
<path fill-rule="evenodd" clip-rule="evenodd" d="M84.7098 20.2155L84.708 20.214C84.5193 20.0515 84.2633 19.9742 84.0073 20.0077L55.882 23.6878C55.8819 23.6878 55.8822 23.6878 55.882 23.6878C55.433 23.7469 55.1243 24.1149 55.1243 24.5201V53.2597L53.6202 52.3818C52.4345 51.6897 50.996 51.2794 49.4373 51.2794C45.1981 51.2794 42 54.2512 42 57.6397C42 61.0284 45.1966 64 49.4373 64C53.6765 64 56.8746 61.0283 56.8746 57.6397V30.618H57.8746C57.9163 30.618 57.9535 30.6154 57.986 30.611L57.9923 30.6101L83.2497 27.3053V47.7394L81.7456 46.8615C80.5599 46.1694 79.1214 45.7592 77.5627 45.7592C73.3235 45.7592 70.1254 48.731 70.1254 52.1195C70.1254 55.5081 73.3235 58.4798 77.5627 58.4798C81.8019 58.4798 85 55.5081 85 52.1195V20.8399C85 20.6042 84.8966 20.3756 84.7098 20.2155ZM55.752 22.6963L83.8774 19.0162C84.4122 18.9461 84.9536 19.1058 85.3606 19.4562C85.7675 19.805 86 20.3103 86 20.8399V52.1195C86 56.1843 82.2215 59.4798 77.5627 59.4798C72.9039 59.4798 69.1254 56.1843 69.1254 52.1195C69.1254 48.0547 72.9039 44.7592 77.5627 44.7592C78.8845 44.7592 80.1358 45.0244 81.2497 45.497C81.5971 45.6444 81.9311 45.8119 82.2497 45.9979V28.4447L58.1221 31.6017C58.039 31.6131 57.956 31.618 57.8746 31.618V57.6397C57.8746 61.7045 54.0961 65 49.4373 65C44.7769 65 41 61.7045 41 57.6397C41 53.5749 44.7785 50.2794 49.4373 50.2794C50.7591 50.2794 52.0104 50.5446 53.1243 51.0172C53.4717 51.1646 53.8057 51.3321 54.1243 51.5181V24.5201C54.1243 23.5976 54.8202 22.8185 55.752 22.6963Z" fill="#FF7173"/>
<path fill-rule="evenodd" clip-rule="evenodd" d="M70 42.0006L35.5 22.082L35.5 61.9192L70 42.0006ZM68 42.0006L36.5 23.8141L36.5 60.1872L68 42.0006Z" fill="#5573FF"/>
<path fill-rule="evenodd" clip-rule="evenodd" d="M106.262 2.64797L106.26 2.64762C103.462 2.15271 100.654 1.72748 97.8839 1.64971L97.8796 1.64959C70.9324 0.77878 43.7693 0.559001 16.7974 2.42258L16.7925 2.42292C12.9761 2.66784 9.90851 3.9098 7.64513 5.96844C5.38128 8.02752 3.84735 10.9716 3.21958 14.7521C1.73304 23.7607 1.00612 32.9268 1 42.0821C1.00612 51.2372 1.73301 60.4025 3.21948 69.4115C3.8472 73.1923 5.38117 76.1366 7.64521 78.1958C9.90867 80.2545 12.9765 81.4967 16.7932 81.7419L16.798 81.7422C43.77 83.6058 70.9324 83.3854 97.8802 82.5152L97.8845 82.5151C100.655 82.4373 103.463 82.0121 106.26 81.5172L106.262 81.5168C109.562 80.94 112.003 79.7051 113.843 78.0416C115.69 76.3724 116.982 74.2252 117.906 71.7509C119.598 67.225 120.008 61.7754 120.408 56.4593C120.449 55.9046 120.491 55.3515 120.534 54.8009C120.86 50.5675 121.015 46.3263 120.999 42.0872L120.999 42.0796C121.015 37.8384 120.86 33.5972 120.533 29.3639C120.49 28.8133 120.449 28.2602 120.407 27.7055C120.007 22.3894 119.597 16.9398 117.906 12.4139C116.981 9.93962 115.689 7.79238 113.843 6.12323C112.003 4.45967 109.562 3.22481 106.262 2.64797ZM121.53 29.2861C121.487 28.7339 121.445 28.1768 121.403 27.6162C120.568 16.4823 119.629 3.96955 106.434 1.6629C103.626 1.16627 100.759 0.730032 97.9119 0.650107C70.9509 -0.221144 43.7494 -0.442007 16.7284 1.42496C8.72395 1.93868 3.54831 6.66649 2.23299 14.5889C0.737192 23.6534 0.00611777 32.8742 0 42.0821C0.00611777 51.29 0.737192 60.5101 2.23299 69.5753C3.54831 77.4977 8.72395 82.2255 16.7291 82.7398C43.75 84.6068 70.9509 84.3853 97.9125 83.5147C100.76 83.4348 103.627 82.9985 106.435 82.5019C119.63 80.1953 120.569 67.6825 121.404 56.5486C121.446 55.988 121.488 55.4309 121.531 54.8787C121.859 50.6183 122.015 46.3499 121.999 42.0833C122.015 37.8149 121.859 33.5465 121.53 29.2861Z" fill="url(#paint0_linear)"/>
<defs>
<linearGradient id="paint0_linear" x1="21" y1="20.5" x2="95.5" y2="68.5" gradientUnits="userSpaceOnUse">
<stop stop-color="#5573FF"/>
<stop offset="1" stop-color="#FF7173"/>
</linearGradient>
</defs>
</svg>
