<svg viewBox="0 0 420 420" fill="none" xmlns="http://www.w3.org/2000/svg">
<rect x="246.279" y="171.041" width="152.721" height="62.7748" rx="3" fill="url(#paint0_linear)"/>
<path d="M379.324 176.662H393.378V190.716" stroke="black" stroke-opacity="0.3" stroke-width="2"/>
<path d="M393.379 214.139L393.379 228.193L379.325 228.193" stroke="black" stroke-opacity="0.3" stroke-width="2"/>
<ellipse cx="323.018" cy="202.427" rx="16.2549" ry="16.2609" fill="black" fill-opacity="0.3"/>
<rect x="185.378" y="116.699" width="152.721" height="62.7748" rx="3" fill="url(#paint1_linear)"/>
<path d="M318.423 122.32H332.477V136.374" stroke="black" stroke-opacity="0.3" stroke-width="2"/>
<path d="M332.477 159.797L332.477 173.851L318.423 173.851" stroke="black" stroke-opacity="0.3" stroke-width="2"/>
<ellipse cx="262.116" cy="148.087" rx="16.2549" ry="16.2609" fill="black" fill-opacity="0.3"/>
<rect x="185.378" y="225.385" width="152.721" height="62.7748" rx="3" fill="url(#paint2_linear)"/>
<path d="M318.423 231.008H332.477V245.062" stroke="black" stroke-opacity="0.3" stroke-width="2"/>
<path d="M332.477 268.484L332.477 282.538L318.423 282.538" stroke="black" stroke-opacity="0.3" stroke-width="2"/>
<ellipse cx="262.116" cy="256.773" rx="16.2549" ry="16.2609" fill="black" fill-opacity="0.3"/>
<rect x="125.414" y="62.3574" width="152.721" height="62.7748" rx="3" fill="url(#paint3_linear)"/>
<ellipse cx="202.152" cy="93.7434" rx="16.2549" ry="16.2609" fill="black" fill-opacity="0.3"/>
<path d="M258.459 67.9785H272.513V82.0326" stroke="black" stroke-opacity="0.3" stroke-width="2"/>
<path d="M272.513 105.455L272.513 119.509L258.459 119.509" stroke="black" stroke-opacity="0.3" stroke-width="2"/>
<rect x="125.414" y="279.725" width="152.721" height="62.7748" rx="3" fill="url(#paint4_linear)"/>
<path d="M258.459 285.348H272.513V299.402" stroke="black" stroke-opacity="0.3" stroke-width="2"/>
<path d="M272.513 322.824L272.513 336.878L258.459 336.878" stroke="black" stroke-opacity="0.3" stroke-width="2"/>
<ellipse cx="202.152" cy="311.112" rx="16.2549" ry="16.2609" fill="black" fill-opacity="0.3"/>
<rect x="103.865" y="171.041" width="152.721" height="62.7748" rx="3" fill="url(#paint5_linear)"/>
<path d="M236.91 176.662H250.964V190.716" stroke="black" stroke-opacity="0.3" stroke-width="2"/>
<path d="M250.965 214.139L250.965 228.193L236.911 228.193" stroke="black" stroke-opacity="0.3" stroke-width="2"/>
<ellipse cx="180.604" cy="202.427" rx="16.2549" ry="16.2609" fill="black" fill-opacity="0.3"/>
<rect x="42.9639" y="116.699" width="152.721" height="62.7748" rx="3" fill="url(#paint6_linear)"/>
<path d="M176.009 122.32H190.063V136.374" stroke="black" stroke-opacity="0.3" stroke-width="2"/>
<path d="M190.063 159.797L190.063 173.851L176.009 173.851" stroke="black" stroke-opacity="0.3" stroke-width="2"/>
<ellipse cx="119.703" cy="148.087" rx="16.2549" ry="16.2609" fill="black" fill-opacity="0.3"/>
<rect x="42.9639" y="225.385" width="152.721" height="62.7748" rx="3" fill="url(#paint7_linear)"/>
<path d="M176.009 231.008H190.063V245.062" stroke="black" stroke-opacity="0.3" stroke-width="2"/>
<path d="M190.063 268.484L190.063 282.538L176.009 282.538" stroke="black" stroke-opacity="0.3" stroke-width="2"/>
<ellipse cx="119.703" cy="256.773" rx="16.2549" ry="16.2609" fill="black" fill-opacity="0.3"/>
<rect x="3" y="62" width="133" height="63" rx="3" fill="url(#paint8_linear)"/>
<ellipse cx="59.7383" cy="93.7434" rx="16.2549" ry="16.2609" fill="black" fill-opacity="0.3"/>
<path d="M116.045 67.9785H130.099V82.0326" stroke="black" stroke-opacity="0.3" stroke-width="2"/>
<path d="M130.099 105.457L130.099 119.511L116.045 119.511" stroke="black" stroke-opacity="0.3" stroke-width="2"/>
<rect x="3" y="280" width="133" height="62" rx="3" fill="url(#paint9_linear)"/>
<ellipse cx="59.7383" cy="311.112" rx="16.2549" ry="16.2609" fill="black" fill-opacity="0.3"/>
<path d="M116.045 285.348H130.099V299.402" stroke="black" stroke-opacity="0.3" stroke-width="2"/>
<path d="M130.099 322.824L130.099 336.878L116.045 336.878" stroke="black" stroke-opacity="0.3" stroke-width="2"/>
<path d="M216.023 202.783L216.374 202.431L216.023 202.078L73.0968 58.3748L127.61 3.56645L325.405 202.431L270.537 257.596L127.61 401.291L73.0968 346.483L216.023 202.783Z" stroke="url(#paint10_linear)"/>
<defs>
<linearGradient id="paint0_linear" x1="403.216" y1="168.23" x2="299.685" y2="221.167" gradientUnits="userSpaceOnUse">
<stop stop-color="#FF7173"/>
<stop offset="1"/>
</linearGradient>
<linearGradient id="paint1_linear" x1="343.252" y1="116.699" x2="235.504" y2="156.519" gradientUnits="userSpaceOnUse">
<stop stop-color="#FF7173"/>
<stop offset="1"/>
</linearGradient>
<linearGradient id="paint2_linear" x1="338.099" y1="225.385" x2="233.598" y2="276.382" gradientUnits="userSpaceOnUse">
<stop stop-color="#FF7173"/>
<stop offset="1"/>
</linearGradient>
<linearGradient id="paint3_linear" x1="287.504" y1="62.3574" x2="146.964" y2="125.132" gradientUnits="userSpaceOnUse">
<stop stop-color="#FF7173"/>
<stop offset="0.715014"/>
</linearGradient>
<linearGradient id="paint4_linear" x1="281.414" y1="279.725" x2="176.467" y2="327.018" gradientUnits="userSpaceOnUse">
<stop stop-color="#FF7173"/>
<stop offset="1"/>
</linearGradient>
<linearGradient id="paint5_linear" x1="264.081" y1="166.825" x2="142.28" y2="217.888" gradientUnits="userSpaceOnUse">
<stop stop-color="#5573FF"/>
<stop offset="1"/>
</linearGradient>
<linearGradient id="paint6_linear" x1="199.901" y1="116.699" x2="96.3391" y2="164.887" gradientUnits="userSpaceOnUse">
<stop stop-color="#5573FF"/>
<stop offset="1"/>
</linearGradient>
<linearGradient id="paint7_linear" x1="199.901" y1="225.385" x2="89.3422" y2="277.853" gradientUnits="userSpaceOnUse">
<stop stop-color="#5573FF"/>
<stop offset="1"/>
</linearGradient>
<linearGradient id="paint8_linear" x1="138.856" y1="62" x2="42.9582" y2="100.097" gradientUnits="userSpaceOnUse">
<stop stop-color="#5573FF"/>
<stop offset="1"/>
</linearGradient>
<linearGradient id="paint9_linear" x1="140.488" y1="280" x2="42.6144" y2="323.715" gradientUnits="userSpaceOnUse">
<stop stop-color="#5573FF"/>
<stop offset="1"/>
</linearGradient>
<linearGradient id="paint10_linear" x1="270.27" y1="101.827" x2="107.476" y2="351.517" gradientUnits="userSpaceOnUse">
<stop stop-color="#FF7173"/>
<stop offset="1"/>
</linearGradient>
</defs>
</svg>
